<?xml version="1.0" encoding="utf-8" ?>
<svg baseProfile="full" height="200mm" version="1.1" viewBox="0,0,200,200" width="200mm" xmlns="http://www.w3.org/2000/svg" xmlns:ev="http://www.w3.org/2001/xml-events" xmlns:xlink="http://www.w3.org/1999/xlink"><defs /><rect fill="#1a1a1a" height="200" width="200" x="0" y="0" /><text alignment-baseline="middle" fill="#e1ed5e" style="dominant-baseline: central; font-size:9.0px; font-family:Arial;" text-anchor="middle" x="100.0" y="100.0">2026</text><line stroke="#e1ed5e" stroke-width="0.3" x1="100.0" x2="100.0" y1="15.0" y2="10.0" /><path d="M 100.0 14.0 a86.0,86.0 0 0,1 42.46469731375804,11.215312516191453" fill="none" id="id49" stroke="none" /><text fill="#e1ed5e" style="font-size:6.75px; font-family:Arial;" text-anchor="middle"><textPath startOffset="22.20632615414155" xlink:href="#id49">January</textPath></text><path d="M 100.72285384407766 79.0124445844662 l 0.4602178758279817 -13.362103904259394 a34.37002697235334,34.37002697235334 0 0,0 0.591097634861493,0.02545390756404006 l -0.6901563430788062 13.352202270171158" fill="red" stroke="none" /><path d="M 101.08401301168833 79.027996857942 l 0.6760592660555979 -13.07947127853472 a34.09693189480782,34.09693189480782 0 0,0 0.5858793831322734,0.03534184435773332 l -0.9011006980274832 13.065896164796682" fill="red" stroke="none" /><path d="M 101.44485096284872 79.0497635885617 l 0.9080250150876632 -13.16629827070836 a34.1975724881996,34.1975724881996 0 0,0 0.5869114583209347,0.04555562495944584 l -1.1345266627709392 13.14871738356045" fill="red" stroke="none" /><path d="M 101.80526077348638 79.07773832637324 l 1.1454389172296875 -13.275186116825072 a34.32451112609575,34.32451112609575 0 0,0 0.5882156704377718,0.05585816559604902 l -1.3737797147577033 13.253502406713844" fill="red" stroke="none" /><path d="M 102.16513564639614 79.11191278185805 l 1.4184652279298808 -13.684604678796202 a34.75792312879299,34.75792312879299 0 0,0 0.5945811097481842,0.06680811554456571 l -1.6538130411877905 13.658160609781035" fill="red" stroke="none" /><path d="M 102.88285421437855 79.19881850522331 l 4.519785547261175 -32.61242938235601 a53.92414025623735,53.92414025623735 0 0,0 0.9183307266355395,0.13533807754196425 l -5.08048525432537 32.52979682065308" fill="red" stroke="none" /><path d="M 103.2404852339499 79.25152402106235 l 2.250874568991839 -14.412106075052952 a35.58681726230614,35.58681726230614 0 0,0 0.6044180173303577,0.09973415171292341 l -2.498621792461072 14.371225660400405" fill="red" stroke="none" /><path d="M 103.59715602781102 79.31037775812273 l 1.442881967036425 -8.298968019957323 a29.423465947403912,29.423465947403912 0 0,0 0.4982441926171185,0.09105094150404663 l -1.5855212807564445 8.272901597102539" fill="red" stroke="none" /><path d="M 103.95276090670814 79.375362276772 l 2.5946537914012002 -13.53833326322189 a34.78472690492245,34.78472690492245 0 0,0 0.587089316791293,0.11776459389879428 l -2.8273095176596184 13.491664713245887" fill="red" stroke="none" /><path d="M 104.307194497241 79.44645832069477 l 8.462531448389123 -40.38243291504761 a62.2596089008766,62.2596089008766 0 0,0 1.0470206607000163,0.22883816290370795 l -9.156394833242668 40.23078125404803" fill="red" stroke="none" /><path d="M 104.66035177308747 79.52364482259891 l 5.973025752907123 -26.243898047906892 a47.91503708698583,47.91503708698583 0 0,0 0.8026369088339916,0.1899582241625455 l -6.423886348703638 26.13719391160348" fill="red" stroke="none" /><path d="M 105.01212808612495 79.60689891045804 l 1.6101962399794543 -6.551487538158408 a27.74645987862441,27.74645987862441 0 0,0 0.4628256317114147,0.11798455876580373 l -1.7227307603758941 6.522799983223737" fill="red" stroke="none" /><path d="M 106.0581310904928 79.89281104454417 l 3.9646881895805195 -13.158964932677774 a34.74325691166554,34.74325691166554 0 0,0 0.5711371659798277,0.17745509762319908 l -4.190610728271066 13.088769700172055" fill="red" stroke="none" /><path d="M 106.40334571778207 80.00007090966166 l 8.293168513548837 -25.9025187012163 a48.19774106540795,48.19774106540795 0 0,0 0.7879577350888856,0.25977727668148565 l -8.737809070880141 25.75592770027558" fill="red" stroke="none" /><path d="M 106.74666289553966 80.11325718540242 l 20.239988686618958 -59.66022844379275 a84.0,84.0 0 0,0 1.3652719837469054,0.4763165873111701 l -21.26394267442914 59.302991003309366" fill="red" stroke="none" /><path d="M 107.08798089147638 80.2323363322302 l 4.218068967567498 -11.76376882993592 a33.49713418745785,33.49713418745785 0 0,0 0.5410866643977795,0.19928678491590604 l -4.4199379577378535 11.689418777213689" fill="red" stroke="none" /><path d="M 107.4271985657038 80.35727306442388 l 4.791262112983039 -12.671460514961883 a34.547033041132835,34.547033041132835 0 0,0 0.554425320674977,0.21510841090773664 l -5.008670598657683 12.587109400163598" fill="red" stroke="none" /><path d="M 107.76421540070413 80.48803036053334 l 4.708939424220522 -11.833865798100577 a33.736345246122724,33.736345246122724 0 0,0 0.5377189969053523,0.21934908015763876 l -4.911942290714261 11.75105583175936" fill="red" stroke="none" /><path d="M 108.09893153111575 80.62456947434976 l 5.355078126344137 -12.811189204129006 a34.885367498314224,34.885367498314224 0 0,0 0.5520463921496979,0.2363574549929363 l -5.574808276284149 12.717112221173279" fill="red" stroke="none" /><path d="M 108.43124777332544 80.76684994638697 l 5.395925478665914 -12.309049288959791 a34.43981793661497,34.43981793661497 0 0,0 0.5408984662973397,0.24268537501576773 l -5.607006063430034 12.214343583427492" fill="red" stroke="none" /><path d="M 108.76106565485865 80.91482961587045 l 15.09302648156039 -32.87876079926568 a57.17751180040458,57.17751180040458 0 0,0 0.8909394135603206,0.4183080008598379 l -15.656744106420309 32.614087815765835" fill="red" stroke="none" /><path d="M 109.08828744355905 81.06846463323043 l 5.880991320885074 -12.25051428824531 a34.589008766014835,34.589008766014835 0 0,0 0.5345298661999934,0.2622914839066155 l -6.090992454095499 12.147467644203862" fill="red" stroke="none" /><path d="M 109.41281617654863 81.2277094730956 l 6.00258579026605 -11.971155311444665 a34.39177343223196,34.39177343223196 0 0,0 0.5269139245259191,0.26990577759003737 l -6.207760202380724 11.866057008542127" fill="red" stroke="none" /><path d="M 109.73455568895987 81.39251694778311 l 6.523540149231436 -12.469666479482695 a35.072993931220495,35.072993931220495 0 0,0 0.5325332308596256,0.2844608091315107 l -6.737218426619373 12.35552694384943" fill="red" stroke="none" /><path d="M 110.05341064243156 81.56283822128135 l 12.145732547158788 -22.27431504169155 a46.37053270397843,46.37053270397843 0 0,0 0.6974921075278178,0.3881536026805487 l -12.527348743758642 22.061946041450824" fill="red" stroke="none" /><path d="M 110.36928655335952 81.73862282372117 l 6.628761958359707 -11.673929706779731 a34.42464598786244,34.42464598786244 0 0,0 0.5127686547013189,0.2970287017295231 l -6.828727345526355 11.558096847660158" fill="red" stroke="none" /><line stroke="#e1ed5e" stroke-width="0.3" x1="143.23703022742887" x2="145.7803849466894" y1="26.81831364943548" y2="22.513508569990506" /><path d="M 143.74570117128098 25.957352633546492 a86.0,86.0 0 0,1 28.547481713284135,27.462654790039103" fill="none" id="id50" stroke="none" /><text fill="#e1ed5e" style="font-size:6.75px; font-family:Arial;" text-anchor="middle"><textPath startOffset="19.985693538727396" xlink:href="#id50">February</textPath></text><path d="M 110.68208982089419 81.91981866633111 l 6.936258256448565 -11.740100406986663 a34.63604180714768,34.63604180714768 0 0,0 0.5106967818840348,0.3076890968598368 l -7.137317104550237 11.618964700668212" fill="red" stroke="none" /><path d="M 110.99172775467656 82.1063720568725 l 7.094699144611335 -11.549586170207666 a34.554619015509104,34.554619015509104 0 0,0 0.5041368315916758,0.3156904376931055 l -7.2924551285752734 11.425751391191618" fill="red" stroke="none" /><path d="M 111.2981086023043 82.29822771554956 l 7.288373835129684 -11.41935685828855 a34.547033041132835,34.547033041132835 0 0,0 0.49851857965634416,0.324250351404934 l -7.483859440570308 11.292207582724089" fill="red" stroke="none" /><path d="M 111.60114157652 82.49532879139004 l 24.259472241893505 -36.60450848632167 a64.91368846931896,64.91368846931896 0 0,0 0.9260874444840073,0.6252983764808762 l -24.885964380784053 36.18149819754212" fill="red" stroke="none" /><path d="M 111.90073688211348 82.69761687909136 l 7.775717472994423 -11.305051451049323 a34.72100472016183,34.72100472016183 0 0,0 0.48951468095280903,0.34293631682983333 l -7.969163293530884 11.169530291455555" fill="red" stroke="none" /><path d="M 112.19680574252982 82.90503203632743 l 10.664127475394654 -14.946775524735008 a39.36109238031018,39.36109238031018 0 0,0 0.5481588485739483,0.39826071559142173 l -10.919831640322391 14.76099557432691" fill="red" stroke="none" /><path d="M 112.48926042617603 83.11751280151076 l 16.583370168038766 -22.416742466426722 a48.88401888064734,48.88401888064734 0 0,0 0.672164212930226,0.5062601497535112 l -16.966780534727373 22.127965727167364" fill="red" stroke="none" /><path d="M 112.77801427241765 83.33499621200491 l 8.533549604768657 -11.129400347868508 a35.024443695212405,35.024443695212405 0 0,0 0.4752774393708133,0.3709615801547446 l -8.723859599298901 10.980860378490538" fill="red" stroke="none" /><path d="M 113.34407831869373 83.78471172551755 l 8.673779450434987 -10.540093580015313 a34.650202292650036,34.650202292650036 0 0,0 0.45728773372618425,0.382965326104481 l -8.85392472112029 10.389227096517013" fill="red" stroke="none" /><path d="M 113.6212207817346 84.01681056812373 l 8.953646595642187 -10.506241102568701 a34.80394470667566,34.80394470667566 0 0,0 0.4526272919499166,0.39251392731556795 l -9.133167686238867 10.350562181833462" fill="red" stroke="none" /><path d="M 113.89432698308785 84.25364557470407 l 9.322556691932627 -10.565195565050818 a35.090188806473364,35.090188806473364 0 0,0 0.44947024914873884,0.40353882758265813 l -9.503037928677356 10.403157728698861" fill="red" stroke="none" /><path d="M 114.16331599549186 84.49514656593476 l 28.651347259929576 -31.365178895614097 a63.48145650708024,63.48145650708024 0 0,0 0.8004471051569129,0.7439283483664103 l -29.187002248881335 30.867345961173047" fill="red" stroke="none" /><path d="M 114.68862486808459 84.99185889309783 l 10.01326712602038 -10.231082032392829 a35.31574511126095,35.31574511126095 0 0,0 0.430791885139093,0.42894192787909546 l -10.187894811326798 10.057204253863615" fill="red" stroke="none" /><path d="M 114.94478906791727 85.2469230424477 l 15.328090299911578 -15.131461192206789 a42.53860418071476,42.53860418071476 0 0,0 0.5099279449749635,0.5255255712285241 l -15.586282508589651 14.865371425428151" fill="red" stroke="none" /><path d="M 115.4437574822437 85.77008943001954 l 12.731318330957608 -11.730663440925758 a38.311699258260276,38.311699258260276 0 0,0 0.44269416494394126,0.48883395386752987 l -12.931356136517584 11.509776699788679" fill="red" stroke="none" /><path d="M 115.9244219780498 86.31012108654704 l 5.445689049424605 -4.681540327787112 a28.181389076196897,28.181389076196897 0 0,0 0.31306756993651574,0.3705732562100873 l -5.5254672328482375 4.587108121947919" fill="red" stroke="none" /><path d="M 116.38621287248628 86.86637796730983 l 9.68240340620661 -7.760489119402898 a33.4086311530681,33.4086311530681 0 0,0 0.3557954300154786,0.45182406452803875 l -9.814552916816053 7.592672660921821" fill="red" stroke="none" /><path d="M 116.60985879189232 87.15038557335679 l 9.093341679898087 -7.0347337626644855 a32.49679703304113,32.49679703304113 0 0,0 0.33846816079903524,0.4453844248196808 l -9.213085780921235 6.877164561963771" fill="red" stroke="none" /><path d="M 116.82858285166822 87.43820079747576 l 8.580048346803476 -6.404629874690316 a31.70684423465947,31.70684423465947 0 0,0 0.3227113358168334,0.4401778993838672 l -8.689022295133935 6.255989531634955" fill="red" stroke="none" /><path d="M 117.04232023915458 87.72973835380427 l 7.283330482709691 -5.243908659411173 a29.974713418745786,29.974713418745786 0 0,0 0.2978735435946407,0.4213210029220359 l -7.372516646108215 5.117761156157345" fill="red" stroke="none" /><path d="M 117.2510076193507 88.02491185347247 l 11.140617963599565 -7.733454477826854 a34.56169925826028,34.56169925826028 0 0,0 0.33504363780461327,0.4916351962648209 l -11.27208606707291 7.5405412582916265" fill="red" stroke="none" /><line stroke="#e1ed5e" stroke-width="0.3" x1="172.23445277983987" x2="176.4835382374775" y1="55.19839476539836" y2="52.563006222186495" /><path d="M 173.08426987136738 54.67131705675599 a86.0,86.0 0 0,1 12.851231095245387,41.99856678651699" fill="none" id="id51" stroke="none" /><text fill="#e1ed5e" style="font-size:6.75px; font-family:Arial;" text-anchor="middle"><textPath startOffset="22.20632615414155" xlink:href="#id51">March</textPath></text><line stroke="#e1ed5e" stroke-width="0.3" x1="184.98032266829074" x2="189.97916517819016" y1="98.17113171792111" y2="98.06355123074" /><path d="M 185.9800911702706 98.14961562048488 a86.0,86.0 0 0,1 -9.607161424134198,41.387399972396054" fill="none" id="id52" stroke="none" /><text fill="#e1ed5e" style="font-size:6.75px; font-family:Arial;" text-anchor="middle"><textPath startOffset="21.466115282336823" xlink:href="#id52">April</textPath></text><line stroke="#e1ed5e" stroke-width="0.3" x1="174.80103733775053" x2="179.2010983576182" y1="140.37084112569926" y2="142.7455964860345" /><path d="M 175.68104954172406 140.8457921977663 a86.0,86.0 0 0,1 -30.038265399797805,32.042727171017184" fill="none" id="id53" stroke="none" /><text fill="#e1ed5e" style="font-size:6.75px; font-family:Arial;" text-anchor="middle"><textPath startOffset="22.206326154141568" xlink:href="#id53">May</textPath></text><line stroke="#e1ed5e" stroke-width="0.3" x1="143.8653032363475" x2="146.44561519142675" y1="172.8068346515853" y2="177.08958963109032" /><path d="M 144.38136562736335 173.6633856474863 a86.0,86.0 0 0,1 -40.68145358897372,12.25698825130547" fill="none" id="id54" stroke="none" /><text fill="#e1ed5e" style="font-size:6.75px; font-family:Arial;" text-anchor="middle"><textPath startOffset="21.466115282336833" xlink:href="#id54">June</textPath></text><line stroke="#e1ed5e" stroke-width="0.3" x1="102.19456741930631" x2="102.32365962044197" y1="184.97166512339345" y2="189.96999836594603" /><path d="M 102.22038585953345 185.97133177190398 a86.0,86.0 0 0,1 -42.740103519485714,-10.115201625700543" fill="none" id="id55" stroke="none" /><text fill="#e1ed5e" style="font-size:6.75px; font-family:Arial;" text-anchor="middle"><textPath startOffset="22.20632615414155" xlink:href="#id55">July</textPath></text><line stroke="#e1ed5e" stroke-width="0.3" x1="58.666819895761336" x2="56.23545636021788" y1="174.27360380694188" y2="178.64263932499728" /><path d="M 58.180547188652646 175.14741091055294 a86.0,86.0 0 0,1 -31.652253787137756,-30.449443065178592" fill="none" id="id56" stroke="none" /><text fill="#e1ed5e" style="font-size:6.75px; font-family:Arial;" text-anchor="middle"><textPath startOffset="22.20632615414155" xlink:href="#id56">August</textPath></text><line stroke="#e1ed5e" stroke-width="0.3" x1="26.63291911575756" x2="22.317208475507996" y1="142.92168965132927" y2="145.44649492493687" /><path d="M 25.769776987707644 143.4266507060508 a86.0,86.0 0 0,1 -11.730757126820373,-40.83630448921669" fill="none" id="id57" stroke="none" /><text fill="#e1ed5e" style="font-size:6.75px; font-family:Arial;" text-anchor="middle"><textPath startOffset="21.46611528233685" xlink:href="#id57">September</textPath></text><line stroke="#e1ed5e" stroke-width="0.3" x1="15.007084014347285" x2="10.007500721073583" y1="101.09737516637583" y2="101.16192664675087" /><path d="M 14.007167355692545 101.11028546245083 a86.0,86.0 0 0,1 10.666146001902534,-42.60595125391555" fill="none" id="id58" stroke="none" /><text fill="#e1ed5e" style="font-size:6.75px; font-family:Arial;" text-anchor="middle"><textPath startOffset="22.20632615414155" xlink:href="#id58">October</textPath></text><line stroke="#e1ed5e" stroke-width="0.3" x1="26.266209847984243" x2="21.928928074336255" y1="57.711370442889674" y2="55.22380399835377" /><path d="M 25.398753493254645 57.213857153982495 a86.0,86.0 0 0,1 29.58750427330803,-30.492523968695096" fill="none" id="id59" stroke="none" /><text fill="#e1ed5e" style="font-size:6.75px; font-family:Arial;" text-anchor="middle"><textPath startOffset="21.46611528233685" xlink:href="#id59">November</textPath></text><line stroke="#e1ed5e" stroke-width="0.3" x1="56.762969772571076" x2="54.21961505331055" y1="26.818313649435495" y2="22.513508569990535" /><path d="M 56.25429882871897 25.957352633546506 a86.0,86.0 0 0,1 42.265352541879196,-11.944610805530505" fill="none" id="id60" stroke="none" /><text fill="#e1ed5e" style="font-size:6.75px; font-family:Arial;" text-anchor="middle"><textPath startOffset="22.20632615414155" xlink:href="#id60">December</textPath></text></svg>