<?xml version="1.0" encoding="utf-8" ?>
<svg baseProfile="full" height="200mm" version="1.1" viewBox="0,0,200,200" width="200mm" xmlns="http://www.w3.org/2000/svg" xmlns:ev="http://www.w3.org/2001/xml-events" xmlns:xlink="http://www.w3.org/1999/xlink"><defs /><rect fill="#1a1a1a" height="200" width="200" x="0" y="0" /><text alignment-baseline="middle" fill="#e1ed5e" style="dominant-baseline: central; font-size:9.0px; font-family:Arial;" text-anchor="middle" x="100.0" y="100.0">2025</text><line stroke="#e1ed5e" stroke-width="0.3" x1="100.0" x2="100.0" y1="15.0" y2="10.0" /><path d="M 100.0 14.0 a86.0,86.0 0 0,1 42.46469731375804,11.215312516191453" fill="none" id="id37" stroke="none" /><text fill="#e1ed5e" style="font-size:6.75px; font-family:Arial;" text-anchor="middle"><textPath startOffset="22.20632615414155" xlink:href="#id37">January</textPath></text><path d="M 100.0 79.0 l 0.0 -10.619050997468086 a31.619050997468086,31.619050997468086 0 0,0 0.5442699861289181,0.004684703602778675 l -0.18278950685638973 10.617477670473866" fill="#ff790b" stroke="none" /><path d="M 100.36148047927253 79.00311137660856 l 1.084441437817585 -62.990665870174325 a84.0,84.0 0 0,0 1.4454934592205289,0.03733283143056143 l -2.1685615322329816 62.9626662466014" fill="#4dd2ff" stroke="none" /><path d="M 100.72285384407766 79.0124445844662 l 0.5771682852116665 -16.75767718358714 a37.7676136590384,37.7676136590384 0 0,0 0.6495295196066487,0.027970107435901066 l -0.8655386372076468 16.745259349627045" fill="#ffcb12" stroke="none" /><path d="M 101.08401301168833 79.027996857942 l 0.5463205239532998 -10.569463301067431 a31.5835731483986,31.5835731483986 0 0,0 0.5426929440567809,0.03273672041565017 l -0.7281755168496926 10.558493311271477" fill="#ff790b" stroke="none" /><path d="M 101.44485096284872 79.0497635885617 l 4.278939314719287 -62.04431636105924 a83.19169168281447,83.19169168281447 0 0,0 1.427766754572841,0.11082217918689673 l -5.346296258654469 61.96146891968388" fill="#4cd9ff" stroke="none" /><path d="M 101.80526077348638 79.07773832637324 l 3.7980670733849813 -44.018102165862004 a65.18165492348828,65.18165492348828 0 0,0 1.1170114181732336,0.10607369355284596 l -4.555203618648459 43.94620292779398" fill="#35ff67" stroke="none" /><path d="M 102.16513564639614 79.11191278185805 l 0.37312710078966344 -3.599733549128848 a24.619019958230055,24.619019958230055 0 0,0 0.4211415093311833,0.04732015557629547 l -0.43503531363057196 3.592777440081951" fill="#ff1502" stroke="none" /><path d="M 102.52436894288641 79.15227682838746 l 1.0117971067036626 -8.35601548887605 a29.417049853450457,29.417049853450457 0 0,0 0.5021704334863054,0.06519613465446529 l -1.1554822686978141 8.337361031057448" fill="#ff5a08" stroke="none" /><path d="M 102.88285421437855 79.19881850522331 l 7.390591986820838 -53.3266803797922 a74.83637887380776,74.83637887380776 0 0,0 1.2744671656032036,0.18782333105091445 l -8.307428132852698 53.191562564580316" fill="#41ffd2" stroke="none" /><path d="M 103.59715602781102 79.31037775812273 l 0.4636071076588943 -2.666510946968504 a23.706512918974287,23.706512918974287 0 0,0 0.40143579312496985,0.07335982528057346 l -0.509438021886765 2.6581356403371923" fill="#ff0801" stroke="none" /><path d="M 103.95276090670814 79.375362276772 l 1.5268154865589096 -7.966587664599375 a29.111577192367896,29.111577192367896 0 0,0 0.49133908716028074,0.09855799860620611 l -1.6637209831863158 7.9391257099159604" fill="#ff5608" stroke="none" /><path d="M 104.307194497241 79.44645832069477 l 12.086600336163752 -57.67616111359134 a79.92898665756182,79.92898665756182 0 0,0 1.344166818531121,0.2937828038494778 l -13.077609878848401 57.45956481164599" fill="#48f9ff" stroke="none" /><path d="M 104.66035177308747 79.52364482259891 l 1.5269858397610547 -6.709172596448663 a27.880747247484713,27.880747247484713 0 0,0 0.46703745102142585,0.11053267528192033 l -1.642246977745004 6.681894009025873" fill="#ff4506" stroke="none" /><path d="M 105.01212808612495 79.60689891045804 l 2.2827839723938723 -9.288079537210342 a30.56449288536323,30.56449288536323 0 0,0 0.5098319133139301,0.12996750658480435 l -2.4423247743928274 9.24740903445667" fill="#ff6a09" stroke="none" /><path d="M 105.36241919743992 79.69619591428918 l 0.6417897072028814 -2.4300174976051934 a23.513340221088058,23.513340221088058 0 0,0 0.3904357793568773,0.10672084729524497 l -0.6835233757834696 2.4186101094836547" fill="#ff0500" stroke="none" /><path d="M 106.0581310904928 79.89281104454417 l 0.8652381523637598 -2.87176139987298 a23.99927501208313,23.99927501208313 0 0,0 0.39451908469091673,0.12257900003396814 l -0.9145426097653947 2.8564422649564913" fill="#ff0c01" stroke="none" /><path d="M 106.40334571778207 80.00007090966166 l 5.027066914657422 -15.701320256117427 a37.48644472133415,37.48644472133415 0 0,0 0.6128447812330509,0.20204528898903937 l -5.29659451813289 15.61246124286915" fill="#ffc712" stroke="none" /><path d="M 106.74666289553966 80.11325718540242 l 14.583326438160663 -42.98641665478156 a66.39279047184075,66.39279047184075 0 0,0 1.0790978184997937,0.37647604023348524 l -15.32110626072373 42.729019761375866" fill="#37ff75" stroke="none" /><path d="M 107.08798089147638 80.2323363322302 l 1.0606937851286158 -2.958167963478916 a24.14258317407248,24.14258317407248 0 0,0 0.389980519721476,0.1436331165944107 l -1.1114566306226683 2.939471579078181" fill="#ff0e01" stroke="none" /><path d="M 107.4271985657038 80.35727306442388 l 1.6801031160263544 -4.443372078956795 a25.750400184461757,25.750400184461757 0 0,0 0.41325325572187105,0.16033584294555162 l -1.7563395367478924 4.413793532120696" fill="#ff2603" stroke="none" /><path d="M 107.76421540070413 80.48803036053334 l 22.54977809755144 -56.66903388283525 a81.99075252415517,81.99075252415517 0 0,0 1.3068394006867319,0.5330926043233145 l -23.52190136782656 56.272480392328355" fill="#4ae5ff" stroke="none" /><path d="M 108.43124777332544 80.76684994638697 l 3.3158075190859364 -7.563936593732056 a29.258796298349157,29.258796298349157 0 0,0 0.4595273433968348,0.20617652408161177 l -3.4455169809495514 7.505739739133913" fill="#ff5808" stroke="none" /><path d="M 108.76106565485865 80.91482961587045 l 0.9794386655357874 -2.133616451348985 a23.347683807716354,23.347683807716354 0 0,0 0.3638033741701123,0.1708105622435345 l -1.0160202510054976 2.1164409064654475" fill="#ff0300" stroke="none" /><path d="M 109.08828744355905 81.06846463323043 l 6.309505102299611 -13.14313832312295 a35.57916114242133,35.57916114242133 0 0,0 0.5498314326848415,0.2697998961267568 l -6.5348078019948845 13.03258326686136" fill="#ffae10" stroke="none" /><path d="M 109.41281617654863 81.2277094730956 l 1.7350942097423427 -3.4603557517656576 a24.870996492566103,24.870996492566103 0 0,0 0.38104677546190424,0.19518695832864172 l -1.7944014727930027 3.4299762681245154" fill="#ff1902" stroke="none" /><path d="M 110.05341064243156 81.56283822128135 l 3.3486107600956507 -6.141087886857583 a27.99472332953472,27.99472332953472 0 0,0 0.4210885110901491,0.23433530051881035 l -3.453823360257835 6.082537188778592" fill="#ff4606" stroke="none" /><path d="M 110.36928655335952 81.73862282372117 l 1.1167440362892853 -1.966700789981687 a23.261643039894288,23.261643039894288 0 0,0 0.3464913310049565,0.20071014338597787 l -1.1504320997595703 1.9471864892056596" fill="#ff0100" stroke="none" /><line stroke="#e1ed5e" stroke-width="0.3" x1="143.23703022742887" x2="145.7803849466894" y1="26.81831364943548" y2="22.513508569990506" /><path d="M 143.74570117128098 25.957352633546492 a86.0,86.0 0 0,1 28.547481713284135,27.462654790039103" fill="none" id="id38" stroke="none" /><text fill="#e1ed5e" style="font-size:6.75px; font-family:Arial;" text-anchor="middle"><textPath startOffset="19.985693538727396" xlink:href="#id38">February</textPath></text><path d="M 110.68208982089419 81.91981866633111 l 2.9405931166532313 -4.977158746000734 a26.780933926330587,26.780933926330587 0 0,0 0.39487585931957025,0.23790828694389468 l -3.0258310421904393 4.925803849598225" fill="#ff3505" stroke="none" /><path d="M 110.99172775467656 82.1063720568725 l 1.9770108012688186 -3.2184108364945208 a24.777133836760214,24.777133836760214 0 0,0 0.36148758412821297,0.22636349201815226 l -2.032117537769295 3.183903003153424" fill="#ff1802" stroke="none" /><path d="M 111.2981086023043 82.29822771554956 l 11.209335279894034 -17.562683062213722 a41.834995410626945,41.834995410626945 0 0,0 0.6036849088372988,0.3926534572959895 l -11.509987214515615 17.367130680758205" fill="#ffff18" stroke="none" /><path d="M 111.60114157652 82.49532879139004 l 4.884834684862005 -7.370604392931898 a29.842365012570895,29.842365012570895 0 0,0 0.42574440312250955,0.28746452147038287 l -5.010983782391056 7.285427959162845" fill="#ff6008" stroke="none" /><path d="M 111.90073688211348 82.69761687909136 l 6.224508446211819 -9.049761451121356 a31.983746524713887,31.983746524713887 0 0,0 0.4509233993055907,0.3159006578296171 l -6.379362985101061 8.941275950527803" fill="#ff7e0b" stroke="none" /><path d="M 112.19680574252982 82.90503203632743 l 1.300907522274254 -1.8233439874698134 a23.239853494796492,23.239853494796492 0 0,0 0.3236478096097622,0.23514389777727293 l -1.332100648237805 1.8006808548758657" fill="#ff0100" stroke="none" /><path d="M 112.48926042617603 83.11751280151076 l 6.459890677863121 -8.732224163096896 a31.861948554680055,31.861948554680055 0 0,0 0.43810762828173316,0.32997358269814553 l -6.609244459903237 8.619733990892904" fill="#ff7c0b" stroke="none" /><path d="M 112.77801427241765 83.33499621200491 l 2.4876562121953025 -3.244385185024564 a25.0883332372595,25.0883332372595 0 0,0 0.34044562942526563,0.2657232138255135 l -2.5431343967799984 3.2010835819758263" fill="#ff1c02" stroke="none" /><path d="M 113.34407831869373 83.78471172551755 l 1.3804953474551966 -1.6775328715815827 a23.17252938750715,23.17252938750715 0 0,0 0.30581389854004604,0.25611034529038657 l -1.4091667829543602 1.6535213688973769" fill="#ff0000" stroke="none" /><path d="M 113.6212207817346 84.01681056812373 l 1.576048949226826 -1.8493415027220501 a23.42981363154651,23.42981363154651 0 0,0 0.3047060666345681,0.2642380983620568 l -1.6076488145081582 1.821938410940322" fill="#ff0400" stroke="none" /><path d="M 113.89432698308785 84.25364557470407 l 7.797595790580613 -8.836966852236182 a32.78535036648472,32.78535036648472 0 0,0 0.41994757220953194,0.37703307673104464 l -7.948554350386135 8.70143476673584" fill="#ff890c" stroke="none" /><path d="M 114.16331599549186 84.49514656593476 l 6.860121656677479 -7.50990663913005 a31.171527263536433,31.171527263536433 0 0,0 0.3930464128313543,0.3652938049812203 l -6.98837595330368 7.390708248074189" fill="#ff730a" stroke="none" /><path d="M 114.42810811169701 84.74124197986012 l 1.5024307753827482 -1.5889281856011863 a23.186776397763403,23.186776397763403 0 0,0 0.2876449418204504,0.2767142061304846 l -1.5295589608156168 1.5628308927083998" fill="#ff0000" stroke="none" /><path d="M 114.68862486808459 84.99185889309783 l 2.9326967862648927 -2.9964906577236023 a25.19281131247201,25.19281131247201 0 0,0 0.3073093500664294,0.3059896660546543 l -2.983841936498645 2.9455651410188293" fill="#ff1e03" stroke="none" /><path d="M 114.94478906791727 85.2469230424477 l 11.83725821200417 -11.68540958152533 a37.63338447417314,37.63338447417314 0 0,0 0.4511270357119028,0.4649260654870927 l -12.036649511419181 11.479919320488122" fill="#ffc912" stroke="none" /><path d="M 115.19652480421416 85.50635884689758 l 3.35370559506981 -3.1985869173598336 a25.634468630415792,25.634468630415792 0 0,0 0.3017942061600884,0.32193301713908423 l -3.4082671232003614 3.1403844833426944" fill="#ff2403" stroke="none" /><path d="M 115.4437574822437 85.77008943001954 l 2.7035015797320763 -2.4910120318594444 a24.676147675826197,24.676147675826197 0 0,0 0.2851344837446218,0.31485261860298214 l -2.7459797040927336 2.444106625986913" fill="#ff1602" stroke="none" /><path d="M 115.68641384162765 86.03803664274999 l 8.924355787426428 -7.943276885915753 a32.94737518900679,32.94737518900679 0 0,0 0.3734163508922356,0.42687944061303384 l -9.059764001896513 7.788481889099772" fill="#ff8b0c" stroke="none" /><path d="M 115.9244219780498 86.31012108654704 l 4.258521224516591 -3.660957992344105 a26.61583621924344,26.61583621924344 0 0,0 0.2956758144340318,0.34998690333721677 l -4.32090765243774 3.5871121393777816" fill="#ff3304" stroke="none" /><path d="M 116.15771136456269 86.58626213691792 l 8.936066042386658 -7.418504063802976 a32.61410689026742,32.61410689026742 0 0,0 0.354874885905109,0.4350346492408294 l -9.062439420368175 7.2635852449540455" fill="#ff870c" stroke="none" /><path d="M 116.38621287248628 86.86637796730983 l 4.838023882984287 -3.8776975228323534 a27.200242992892015,27.200242992892015 0 0,0 0.2896773024863296,0.36786075696699544 l -4.904055266064581 3.7938443719123196" fill="#ff3b05" stroke="none" /><path d="M 116.82858285166822 87.43820079747576 l 14.243154779102127 -10.631890511673017 a38.77370400095778,38.77370400095778 0 0,0 0.39463762839688893,0.5382852816306695 l -14.424055020012643 10.385142786370855" fill="#ffd814" stroke="none" /><path d="M 117.04232023915458 87.72973835380427 l 7.059737763765591 -5.082924642849558 a29.699196527152683,29.699196527152683 0 0,0 0.29513559605624345,0.41744837029778625 l -7.146185979625717 4.960649772219979" fill="#ff5e08" stroke="none" /><path d="M 117.2510076193507 88.02491185347247 l 6.89260830722205 -4.784624403381871 a29.39051130493391,29.39051130493391 0 0,0 0.2849137639605263,0.41807579210015827 l -6.973946536851309 4.665270588011307" fill="#ff5a08" stroke="none" /><path d="M 117.65298651832404 88.62581576622439 l 12.725522225263799 -8.199317102004922 a36.13828645669361,36.13828645669361 0 0,0 0.33242474582817766,0.5258161159247894 l -12.864774567337932 7.979053338365926" fill="#ffb610" stroke="none" /><line stroke="#e1ed5e" stroke-width="0.3" x1="172.23445277983987" x2="176.4835382374775" y1="55.19839476539836" y2="52.563006222186495" /><path d="M 173.08426987136738 54.67131705675599 a86.0,86.0 0 0,1 12.851231095245387,41.99856678651699" fill="none" id="id39" stroke="none" /><text fill="#e1ed5e" style="font-size:6.75px; font-family:Arial;" text-anchor="middle"><textPath startOffset="22.20632615414155" xlink:href="#id39">March</textPath></text><path d="M 117.84615892207809 88.93136811851018 l 10.319144287389141 -6.400190088399641 a33.14278271203125,33.14278271203125 0 0,0 0.2965240605915776,0.48740758986049787 l -10.427784146266944 6.221614725332062" fill="#ff8e0d" stroke="none" /><path d="M 118.21658344932153 89.55222093294921 l 2.2175312517868595 -1.2718233722258485 a23.556360604999092,23.556360604999092 0 0,0 0.1987061561969309,0.3534760796456004 l -2.2390950492762234 1.2334637826454542" fill="#ff0600" stroke="none" /><path d="M 118.3937258080291 89.86733742301442 l 12.145824407280339 -6.690843482322989 a34.86681062960877,34.86681062960877 0 0,0 0.2850642376755888,0.5281807386583104 l -12.259196744174393 6.480781760332219" fill="#ffa50f" stroke="none" /><path d="M 118.56541770881063 90.18545643968196 l 7.243296224941896 -3.8291433801805774 a29.19314830991349,29.19314830991349 0 0,0 0.2310298031173959,0.4462760443134068 l -7.3081354612194085 3.703894613606826" fill="#ff5708" stroke="none" /><path d="M 118.73160827565052 90.50648371742162 l 9.394999469119869 -4.7615548607668785 a31.53273087650374,31.53273087650374 0 0,0 0.24121035616882042,0.4862653591808972 l -9.475569838242096 4.599129913087031" fill="#ff780b" stroke="none" /><path d="M 119.04729006885535 91.15688171328212 l 10.189435748431194 -4.73066694908079 a32.23404694019626,32.23404694019626 0 0,0 0.22931866322666836,0.5052732770792598 l -10.26935672862121 4.554571663159467" fill="#ff810b" stroke="none" /><path d="M 119.196687751892 91.48605970444005 l 3.331230240954472 -1.4774369281208326 a24.6441617410352,24.6441617410352 0 0,0 0.1686473804917302,0.3892614062117854 l -3.356168331288883 1.4198763773224445" fill="#ff1602" stroke="none" /><path d="M 119.47837535516314 92.15188598940014 l 6.489452123350738 -2.6146924064119075 a27.9963994483884,27.9963994483884 0 0,0 0.1762525993888262,0.4485436406545424 l -6.533498272621265 2.5025997608615804" fill="#ff4606" stroke="none" /><path d="M 119.61058180528143 92.48833698450437 l 3.459662770672919 -1.3251937723516192 a24.704781372909842,24.704781372909842 0 0,0 0.148693857505063,0.39842561217872696 l -3.4819612166796077 1.265445023143559" fill="#ff1702" stroke="none" /><path d="M 119.7369772167798 92.82701384747503 l 11.013126690955438 -4.002487533048654 a32.71788658262423,32.71788658262423 0 0,0 0.18781144904521047,0.5309682574125314 l -11.080391220810458 3.812321649209508" fill="#ff880c" stroke="none" /><path d="M 119.85752413597 93.16781622104841 l 2.4315497404446216 -0.836599496524705 a23.57144567468218,23.57144567468218 0 0,0 0.128703130989084,0.3848059800136445 l -2.4455901652054757 0.7946204135887465" fill="#ff0601" stroke="none" /><path d="M 119.97218684219823 93.5106431181261 l 3.063961822947544 -0.995541544781338 a24.22164011333756,24.22164011333756 0 0,0 0.12542716840311927,0.39763839990249017 l -3.0806444751188695 0.9426529784524287" fill="#ff1001" stroke="none" /><path d="M 120.08093135843002 93.85539295169968 l 10.320993764159352 -3.1581429116381083 a31.79336735825045,31.79336735825045 0 0,0 0.1556271750185449,0.5246974677496056 l -10.3738268362896 2.9800160571419725" fill="#ff7b0b" stroke="none" /><path d="M 120.28053869075195 94.5502522615342 l 17.856228305933527 -4.798291668266437 a39.48968610461997,39.48968610461997 0 0,0 0.1707527786471348,0.6579801105695439 l -17.936177416450963 4.490215132148042" fill="#ffe115" stroke="none" /><path d="M 120.37134235888165 94.90015583598534 l 7.708457559201599 -1.9297664142249988 a28.94633980870961,28.94633980870961 0 0,0 0.1168428651563372,0.4843891094374189 l -7.740533224618756 1.7967920731281737" fill="#ff5407" stroke="none" /><path d="M 120.45610955862082 95.25157060432595 l 10.983771882319225 -2.5496375609409436 a32.27581023496703,32.27581023496703 0 0,0 0.12096606807376141,0.5422671641123371 l -11.026032337395023 2.3601922272786426" fill="#ff820c" stroke="none" /><path d="M 120.53481517161879 95.60439243477599 l 2.3832281024577058 -0.5101451067013306 a23.43721648981691,23.43721648981691 0 0,0 0.08104891253729281,0.3952232814672609 l -2.3916563109099953 0.4690461690706579" fill="#ff0400" stroke="none" /><line stroke="#e1ed5e" stroke-width="0.3" x1="184.98032266829074" x2="189.97916517819016" y1="98.17113171792111" y2="98.06355123074" /><path d="M 185.9800911702706 98.14961562048488 a86.0,86.0 0 0,1 -9.607161424134198,41.387399972396054" fill="none" id="id40" stroke="none" /><text fill="#e1ed5e" style="font-size:6.75px; font-family:Arial;" text-anchor="middle"><textPath startOffset="21.466115282336823" xlink:href="#id40">April</textPath></text><line stroke="#e1ed5e" stroke-width="0.3" x1="174.80103733775053" x2="179.2010983576182" y1="140.37084112569926" y2="142.7455964860345" /><path d="M 175.68104954172406 140.8457921977663 a86.0,86.0 0 0,1 -30.038265399797805,32.042727171017184" fill="none" id="id41" stroke="none" /><text fill="#e1ed5e" style="font-size:6.75px; font-family:Arial;" text-anchor="middle"><textPath startOffset="22.206326154141568" xlink:href="#id41">May</textPath></text><line stroke="#e1ed5e" stroke-width="0.3" x1="143.8653032363475" x2="146.44561519142675" y1="172.8068346515853" y2="177.08958963109032" /><path d="M 144.38136562736335 173.6633856474863 a86.0,86.0 0 0,1 -40.68145358897372,12.25698825130547" fill="none" id="id42" stroke="none" /><text fill="#e1ed5e" style="font-size:6.75px; font-family:Arial;" text-anchor="middle"><textPath startOffset="21.466115282336833" xlink:href="#id42">June</textPath></text><line stroke="#e1ed5e" stroke-width="0.3" x1="102.19456741930631" x2="102.32365962044197" y1="184.97166512339345" y2="189.96999836594603" /><path d="M 102.22038585953345 185.97133177190398 a86.0,86.0 0 0,1 -42.740103519485714,-10.115201625700543" fill="none" id="id43" stroke="none" /><text fill="#e1ed5e" style="font-size:6.75px; font-family:Arial;" text-anchor="middle"><textPath startOffset="22.20632615414155" xlink:href="#id43">July</textPath></text><line stroke="#e1ed5e" stroke-width="0.3" x1="58.666819895761336" x2="56.23545636021788" y1="174.27360380694188" y2="178.64263932499728" /><path d="M 58.180547188652646 175.14741091055294 a86.0,86.0 0 0,1 -31.652253787137756,-30.449443065178592" fill="none" id="id44" stroke="none" /><text fill="#e1ed5e" style="font-size:6.75px; font-family:Arial;" text-anchor="middle"><textPath startOffset="22.20632615414155" xlink:href="#id44">August</textPath></text><line stroke="#e1ed5e" stroke-width="0.3" x1="26.63291911575756" x2="22.317208475507996" y1="142.92168965132927" y2="145.44649492493687" /><path d="M 25.769776987707644 143.4266507060508 a86.0,86.0 0 0,1 -11.730757126820373,-40.83630448921669" fill="none" id="id45" stroke="none" /><text fill="#e1ed5e" style="font-size:6.75px; font-family:Arial;" text-anchor="middle"><textPath startOffset="21.46611528233685" xlink:href="#id45">September</textPath></text><line stroke="#e1ed5e" stroke-width="0.3" x1="15.007084014347285" x2="10.007500721073583" y1="101.09737516637583" y2="101.16192664675087" /><path d="M 14.007167355692545 101.11028546245083 a86.0,86.0 0 0,1 10.666146001902534,-42.60595125391555" fill="none" id="id46" stroke="none" /><text fill="#e1ed5e" style="font-size:6.75px; font-family:Arial;" text-anchor="middle"><textPath startOffset="22.20632615414155" xlink:href="#id46">October</textPath></text><line stroke="#e1ed5e" stroke-width="0.3" x1="26.266209847984243" x2="21.928928074336255" y1="57.711370442889674" y2="55.22380399835377" /><path d="M 25.398753493254645 57.213857153982495 a86.0,86.0 0 0,1 29.58750427330803,-30.492523968695096" fill="none" id="id47" stroke="none" /><text fill="#e1ed5e" style="font-size:6.75px; font-family:Arial;" text-anchor="middle"><textPath startOffset="21.46611528233685" xlink:href="#id47">November</textPath></text><line stroke="#e1ed5e" stroke-width="0.3" x1="56.762969772571076" x2="54.21961505331055" y1="26.818313649435495" y2="22.513508569990535" /><path d="M 56.25429882871897 25.957352633546506 a86.0,86.0 0 0,1 42.265352541879196,-11.944610805530505" fill="none" id="id48" stroke="none" /><text fill="#e1ed5e" style="font-size:6.75px; font-family:Arial;" text-anchor="middle"><textPath startOffset="22.20632615414155" xlink:href="#id48">December</textPath></text></svg>