<?xml version="1.0" encoding="utf-8" ?>
<svg baseProfile="full" height="200mm" version="1.1" viewBox="0,0,200,200" width="200mm" xmlns="http://www.w3.org/2000/svg" xmlns:ev="http://www.w3.org/2001/xml-events" xmlns:xlink="http://www.w3.org/1999/xlink"><defs /><rect fill="#1a1a1a" height="200" width="200" x="0" y="0" /><rect fill="#1a1a1a" height="200" width="180" x="10" y="0" /><text alignment-baseline="middle" fill="#e1ed5e" style="dominant-baseline: central; font-size:9.0px; font-family:Arial;" text-anchor="middle" x="100.0" y="100.0">2026</text><line stroke="#e1ed5e" stroke-width="0.3" x1="100.0" x2="100.0" y1="15.0" y2="10.0" /><path d="M 100.0 14.0 a86.0,86.0 0 0,1 42.46469731375804,11.215312516191453" fill="none" id="id49" stroke="none" /><text fill="#e1ed5e" style="font-size:6.75px; font-family:Arial;" text-anchor="middle"><textPath startOffset="22.20632615414155" xlink:href="#id49">January</textPath></text><path d="M 100.72285384407766 79.0124445844662 l 0.36341097154874197 -10.551383196590946 a31.55763964603565,31.55763964603565 0 0,0 0.5427300412533174,0.023371097239336187 l -0.5449818451913909 10.543564372827415" fill="red" stroke="none" /><path d="M 101.08401301168833 79.027996857942 l 0.5338500905897586 -10.328202389193613 a31.341990162022363,31.341990162022363 0 0,0 0.5385418816834852,0.03248631699723335 l -0.7115540211128557 10.317482802816075" fill="red" stroke="none" /><path d="M 101.44485096284872 79.0497635885617 l 0.7170218069645552 -10.396765309583671 a31.421460990390223,31.421460990390223 0 0,0 0.5392668002621488,0.04185748251721697 l -0.8958787965890451 10.38288256487799" fill="red" stroke="none" /><path d="M 101.80526077348638 79.07773832637324 l 0.9044956565654344 -10.482748579737907 a31.52169806536677,31.52169806536677 0 0,0 0.5401841469130267,0.051296993682898556 l -1.0848049305687053 10.46562604153983" fill="red" stroke="none" /><path d="M 102.16513564639614 79.11191278185805 l 1.1200908388503834 -10.806045881278685 a31.86394178351378,31.86394178351378 0 0,0 0.5450756593364695,0.06124560136951509 l -1.3059332016965783 10.785164326438569" fill="red" stroke="none" /><path d="M 102.88285421437855 79.19881850522331 l 3.5690479296725264 -25.75239961091086 a46.99854205228327,46.99854205228327 0 0,0 0.8003874529773697,0.11795630488323727 l -4.011804363078552 25.687148821866653" fill="red" stroke="none" /><path d="M 103.2404852339499 79.25152402106235 l 1.77740274099528 -11.380517241699183 a32.51847790258374,32.51847790258374 0 0,0 0.5523043489842852,0.09113494990868043 l -1.9730362961184402 11.348236028850877" fill="red" stroke="none" /><path d="M 103.59715602781102 79.31037775812273 l 1.1393715129545725 -6.553278760757903 a27.65158852912092,27.65158852912092 0 0,0 0.4682399900100219,0.08556786525963633 l -1.2520066240674952 6.532695414147528" fill="red" stroke="none" /><path d="M 103.95276090670814 79.375362276772 l 2.0488679486195793 -10.690542681521322 a31.885107381018788,31.885107381018788 0 0,0 0.5381501473133692,0.10794785689732575 l -2.232584505400074 10.653690868546787" fill="red" stroke="none" /><path d="M 104.307194497241 79.44645832069477 l 6.682436595684031 -31.887981649466973 a53.58064352544436,53.58064352544436 0 0,0 0.9010663859784209,0.1969382115952949 l -7.230345705815981 31.768229939775807" fill="red" stroke="none" /><path d="M 104.66035177308747 79.52364482259891 l 4.71659882407735 -20.723489868048496 a42.25345470219833,42.25345470219833 0 0,0 0.7077983099159691,0.16751299191088795 l -5.0726208209558425 20.639230963996738" fill="red" stroke="none" /><path d="M 105.01212808612495 79.60689891045804 l 1.2714912016450757 -5.17338107966397 a26.327340956920814,26.327340956920814 0 0,0 0.4391539772270499,0.11195012696636572 l -1.3603540675571506 5.150727956528736" fill="red" stroke="none" /><path d="M 106.0581310904928 79.89281104454417 l 3.13071539055519 -10.39097454038855 a31.852360607520474,31.852360607520474 0 0,0 0.5236143235909039,0.16268951916361718 l -3.309115086856812 10.335544886342412" fill="red" stroke="none" /><path d="M 106.40334571778207 80.00007090966166 l 6.548699181456211 -20.453919721899123 a42.47669185324172,42.47669185324172 0 0,0 0.6944275222634974,0.22894183603126056 l -6.899809525962126 20.338164161608628" fill="red" stroke="none" /><path d="M 106.74666289553966 80.11325718540242 l 15.98250380758575 -47.11068978485859 a70.74793985648725,70.74793985648725 0 0,0 1.1498830975461083,0.4011716341873562 l -16.791068909195133 46.82859729749903" fill="red" stroke="none" /><path d="M 107.08798089147638 80.2323363322302 l 3.3307974810962393 -9.28925816249637 a30.868359998985774,30.868359998985774 0 0,0 0.49862348981289467,0.18364723935482116 l -3.4902032966817105 9.230547655335226" fill="red" stroke="none" /><path d="M 107.4271985657038 80.35727306442388 l 3.783419356084861 -10.006016755431377 a31.697412459747966,31.697412459747966 0 0,0 0.5086934107087799,0.1973651403287017 l -3.955095931793308 9.939408911212128" fill="red" stroke="none" /><path d="M 107.76421540070413 80.48803036053334 l 3.7184132581581615 -9.34461022212141 a31.057252972945562,31.057252972945562 0 0,0 0.49501731125328036,0.20192999040468496 l -3.8787144389998294 9.279219345533146" fill="red" stroke="none" /><path d="M 108.09893153111575 80.62456947434976 l 4.2286365802564845 -10.116353492334738 a31.964578209386648,31.964578209386648 0 0,0 0.5058261197314735,0.21656834648103918 l -4.402146457778273 10.04206561789091" fill="red" stroke="none" /><path d="M 108.43124777332544 80.76684994638697 l 4.26089168544062 -9.71983878916998 a31.612750069727937,31.612750069727937 0 0,0 0.496497631306515,0.22276401460865922 l -4.427571435213914 9.645054444044789" fill="red" stroke="none" /><path d="M 108.76106565485865 80.91482961587045 l 11.918205931064055 -25.962708171392052 a49.567566368315624,49.567566368315624 0 0,0 0.772361320407911,0.36263399616614184 l -12.363345462771564 25.753709192585905" fill="red" stroke="none" /><path d="M 109.08828744355905 81.06846463323043 l 4.643923849649429 -9.673616635280398 a31.7305585841426,31.7305585841426 0 0,0 0.4903560940172888,0.2406156057411486 l -4.80975121067715 9.592245869404417" fill="red" stroke="none" /><path d="M 109.41281617654863 81.2277094730956 l 4.739940902818421 -9.453020864228845 a31.57481173457745,31.57481173457745 0 0,0 0.4837554539028471,0.24779833265280637 l -4.901956844310024 9.370030006263539" fill="red" stroke="none" /><path d="M 109.73455568895987 81.39251694778311 l 5.151312428497543 -9.846670127805714 a32.1127373919217,32.1127373919217 0 0,0 0.48758597080713123,0.2604515394336592 l -5.320043445832986 9.756539861870301" fill="red" stroke="none" /><path d="M 110.05341064243156 81.56283822128135 l 9.590875750302141 -17.588909286325716 a41.0338370648343,41.0338370648343 0 0,0 0.617219079129725,0.3434817492867739 l -9.8922189185039 17.42121213947876" fill="red" stroke="none" /><path d="M 110.36928655335952 81.73862282372117 l 5.2344008131341155 -9.218316713360917 a31.600769542838307,31.600769542838307 0 0,0 0.4707059033147598,0.27266324116368795 l -5.392303448914204 9.12684931480718" fill="red" stroke="none" /><line stroke="#e1ed5e" stroke-width="0.3" x1="143.23703022742887" x2="145.7803849466894" y1="26.81831364943548" y2="22.513508569990506" /><path d="M 143.74570117128098 25.957352633546492 a86.0,86.0 0 0,1 28.547481713284135,27.462654790039103" fill="none" id="id50" stroke="none" /><text fill="#e1ed5e" style="font-size:6.75px; font-family:Arial;" text-anchor="middle"><textPath startOffset="19.985693538727396" xlink:href="#id50">February</textPath></text><path d="M 110.68208982089419 81.91981866633111 l 5.477215215410574 -9.270568396125297 a31.767698217500445,31.767698217500445 0 0,0 0.46840402081373705,0.2822081815319159 l -5.635981302441949 9.174913605134766" fill="red" stroke="none" /><path d="M 110.99172775467656 82.1063720568725 l 5.602328037238034 -9.120128859727108 a31.70340272319278,31.70340272319278 0 0,0 0.4625388285245382,0.28964177198867214 l -5.758486018134835 9.022342746415491" fill="red" stroke="none" /><path d="M 111.2981086023043 82.29822771554956 l 5.755263225422648 -9.017293304538159 a31.697412459747966,31.697412459747966 0 0,0 0.45739815107713533,0.2975044808178812 l -5.9096284022840635 8.91688989956075" fill="red" stroke="none" /><path d="M 111.60114157652 82.49532879139004 l 19.156488349838725 -28.904744232600112 a55.676437029336455,55.676437029336455 0 0,0 0.7943047221980469,0.5363180941279992 l -19.651197766443314 28.570714226173443" fill="red" stroke="none" /><path d="M 111.90073688211348 82.69761687909136 l 6.1400940505962485 -8.927032058115804 a31.834789168082356,31.834789168082356 0 0,0 0.44882332145661313,0.31442941908927435 l -6.292848511636512 8.820017796262594" fill="red" stroke="none" /><path d="M 112.19680574252982 82.90503203632743 l 8.42092654393407 -11.802718886554487 a35.49883364182662,35.49883364182662 0 0,0 0.49437143631094704,0.35918187311099453 l -8.622843296598806 11.656017778626818" fill="red" stroke="none" /><path d="M 112.48926042617603 83.11751280151076 l 13.095055583134242 -17.701377079335874 a43.01861101954918,43.01861101954918 0 0,0 0.5915137805650875,0.4455159161548997 l -13.397815517457712 17.473344573675128" fill="red" stroke="none" /><path d="M 112.77801427241765 83.33499621200491 l 6.7385160714346295 -8.788329192770329 a32.074399705874896,32.074399705874896 0 0,0 0.4352457013799185,0.33971617367994483 l -6.8887943279739785 8.67103462986716" fill="red" stroke="none" /><path d="M 113.34407831869373 83.78471172551755 l 6.849248546486898 -8.322983198418237 a31.77888004259743,31.77888004259743 0 0,0 0.41939414703267625,0.3512305370098817 l -6.9915002304786915 8.203851504014535" fill="red" stroke="none" /><path d="M 113.6212207817346 84.01681056812373 l 7.070245592638876 -8.296251595053047 a31.900282715078983,31.900282715078983 0 0,0 0.41486500163854806,0.3597668412733371 l -7.212004392924188 8.173319760360037" fill="red" stroke="none" /><path d="M 113.89432698308785 84.25364557470407 l 7.361555390777096 -8.342804976859902 a32.126315322396614,32.126315322396614 0 0,0 0.41150599194053705,0.3694541426166138 l -7.504072370313623 8.21485182547399" fill="red" stroke="none" /><path d="M 114.16331599549186 84.49514656593476 l 22.624531750703287 -24.76750846487259 a54.54547529095566,54.54547529095566 0 0,0 0.6877719919860973,0.639209110451581 l -23.04751162648423 24.374394768346367" fill="red" stroke="none" /><path d="M 114.68862486808459 84.99185889309783 l 7.9069747738444915 -8.078972279591522 a32.304425822155736,32.304425822155736 0 0,0 0.3940589234184099,0.39236670916973776 l -8.044869497430224 7.9416697197716655" fill="red" stroke="none" /><path d="M 114.94478906791727 85.2469230424477 l 12.103824037377887 -11.948555894137687 a38.00795532341084,38.00795532341084 0 0,0 0.455617172308484,0.4695535459440193 l -12.307705473389479 11.738438152643553" fill="red" stroke="none" /><path d="M 115.4437574822437 85.77008943001954 l 10.053283470194808 -9.263116497394739 a34.67018053196075,34.67018053196075 0 0,0 0.4006161803366854,0.44237039230478226 l -10.211243291147529 9.088693317820407" fill="red" stroke="none" /><path d="M 115.9244219780498 86.31012108654704 l 4.300187481077881 -3.6967775660709985 a26.67078272775679,26.67078272775679 0 0,0 0.2962862162084177,0.3507094265074592 l -4.363184310773415 3.622209189934433" fill="red" stroke="none" /><path d="M 116.38621287248628 86.86637796730983 l 7.645708290765299 -6.128068983634589 a30.798473592129618,30.798473592129618 0 0,0 0.3279977591816356,0.41652384546672855 l -7.7500601305408985 5.995552744214821" fill="red" stroke="none" /><path d="M 116.60985879189232 87.15038557335679 l 7.180555793429504 -5.55497638303862 a30.078443926063038,30.078443926063038 0 0,0 0.31327996986904105,0.4122397180823618 l -7.275111703522659 5.430551889075225" fill="red" stroke="none" /><path d="M 116.82858285166822 87.43820079747576 l 6.775233795595748 -5.057414949351671 a29.454657826009786,29.454657826009786 0 0,0 0.2997886482398286,0.408911379289867 l -6.861285056349202 4.94004112639031" fill="red" stroke="none" /><path d="M 117.04232023915458 87.72973835380427 l 5.751280742996219 -4.140851628592057 a28.0868810061107,28.0868810061107 0 0,0 0.27911321976406306,0.3947858553018182 l -5.821706582564164 4.041239272958445" fill="red" stroke="none" /><path d="M 117.2510076193507 88.02491185347247 l 8.79718718122623 -6.10672108326686 a31.708993635741272,31.708993635741272 0 0,0 0.3073893010715601,0.4510558694749874 l -8.901000947966523 5.954387190521467" fill="red" stroke="none" /><path d="M 117.45458315368197 88.32363383020206 l 24.128231649337504 -16.140750270964944 a50.02921600446259,50.02921600446259 0 0,0 0.47266498979478716,0.7199012071384592 l -24.40249327449022 15.723030999848811" fill="red" stroke="none" /><path d="M 117.65298651832404 88.62581576622439 l 8.982035053201363 -5.7873109110062435 a31.68503258196202,31.68503258196202 0 0,0 0.2914606622325151,0.4610207732224054 l -9.080323311679834 5.631842490069632" fill="red" stroke="none" /><line stroke="#e1ed5e" stroke-width="0.3" x1="172.23445277983987" x2="176.4835382374775" y1="55.19839476539836" y2="52.563006222186495" /><path d="M 173.08426987136738 54.67131705675599 a86.0,86.0 0 0,1 12.851231095245387,41.99856678651699" fill="none" id="id51" stroke="none" /><text fill="#e1ed5e" style="font-size:6.75px; font-family:Arial;" text-anchor="middle"><textPath startOffset="22.20632615414155" xlink:href="#id51">March</textPath></text><path d="M 117.84615892207809 88.93136811851018 l 8.230188392567934 -5.1045676568500005 a30.68465858667816,30.68465858667816 0 0,0 0.27453155159132336,0.45125768760496504 l -8.31683574244548 4.962142196037954" fill="red" stroke="none" /><path d="M 118.03404312379186 89.2402003453031 l 19.756557397666043 -11.787517530384497 a44.00580643525444,44.00580643525444 0 0,0 0.3825159158041482,0.6538436944651822 l -19.95653298794052 11.445694423565419" fill="red" stroke="none" /><path d="M 118.21658344932153 89.55222093294921 l 10.732075266740683 -6.1551800659987626 a33.3718907680215,33.3718907680215 0 0,0 0.2815035926275528,0.5007634802694472 l -10.83643650066067 5.969533075794521" fill="red" stroke="none" /><path d="M 118.3937258080291 89.86733742301442 l 9.369425051862384 -5.161391638742157 a31.697013108851642,31.697013108851642 0 0,0 0.2591485918931417,0.48016298292790716 l -9.45688174297399 4.999347672481791" fill="red" stroke="none" /><path d="M 118.56541770881063 90.18545643968196 l 9.313895216209843 -4.92375834196006 a31.53527599584168,31.53527599584168 0 0,0 0.24956501872386214,0.48208018122446417 l -9.397269668093822 4.76270543847525" fill="red" stroke="none" /><path d="M 118.73160827565052 90.50648371742162 l 9.80834010503633 -4.97104333605307 a31.996126930196,31.996126930196 0 0,0 0.24475511502894262,0.49341137673878593 l -9.89245523301868 4.8014723708153335" fill="red" stroke="none" /><path d="M 118.89224826269711 90.83032412892265 l 9.693420542657599 -4.704867479098184 a31.77488653363422,31.77488653363422 0 0,0 0.23459218088799563,0.494110961415215 l -9.772970917387351 4.537314102042429" fill="red" stroke="none" /><path d="M 119.04729006885535 91.15688171328212 l 9.592586961386505 -4.453566930965853 a31.576009787266415,31.576009787266415 0 0,0 0.22463727151239435,0.49495845097884394 l -9.667826549862246 4.287786471144947" fill="red" stroke="none" /><path d="M 119.196687751892 91.48605970444005 l 9.66162056672787 -4.28503404996874 a31.569220822028957,31.569220822028957 0 0,0 0.2160376340549259,0.49864464530483027 l -9.733948910625475 4.118090260077307" fill="red" stroke="none" /><path d="M 119.34039704204932 91.81776055985345 l 19.835320739777174 -8.391624190139398 a42.5373931894825,42.5373931894825 0 0,0 0.27948751221635004,0.6768011795825037 l -19.97682993887972 8.04894844010359" fill="red" stroke="none" /><path d="M 119.47837535516314 92.15188598940014 l 9.448906100589321 -3.8070984361239812 a31.187042014249855,31.187042014249855 0 0,0 0.19633943401877316,0.4996624438119688 l -9.513039084489794 3.643886987416228" fill="red" stroke="none" /><path d="M 119.61058180528143 92.48833698450437 l 10.082874190573937 -3.862157374995984 a31.79725018382819,31.79725018382819 0 0,0 0.19138221530960647,0.5128091877786851 l -10.147860994385168 3.6880250501879654" fill="red" stroke="none" /><path d="M 119.85752413597 93.16781622104841 l 10.0629447344379 -3.462258804891766 a31.641902685159362,31.641902685159362 0 0,0 0.1727688662900318,0.5165569197708231 l -10.121050894499703 3.288528782198629" fill="red" stroke="none" /><path d="M 119.97218684219823 93.5106431181261 l 10.145358431922697 -3.296426779874278 a31.667461142523898,31.667461142523898 0 0,0 0.1639839401063281,0.5198739027896644 l -10.20059785579723 3.1213027106581945" fill="red" stroke="none" /><path d="M 120.08093135843002 93.85539295169968 l 10.032191759121332 -3.0697717696803464 a31.49134739724638,31.49134739724638 0 0,0 0.15414880021160338,0.5197131228400832 l -10.083546456444637 2.896629260093733" fill="red" stroke="none" /><path d="M 120.18372546131832 94.20196356495316 l 39.44792687987126 -11.331927684752522 a62.04328836938057,62.04328836938057 0 0,0 0.286029100558197,1.0289988589416028 l -39.63714275099582 10.651217522391967" fill="red" stroke="none" /><path d="M 120.28053869075195 94.5502522615342 l 18.93172525770745 -5.087297161169321 a40.603336798600374,40.603336798600374 0 0,0 0.1755681866484969,0.6765358419273413 l -19.016489776226248 4.760664893693129" fill="red" stroke="none" /><path d="M 120.6074358757038 95.95851677861258 l 11.007283251542285 -2.158723231870676 a32.21696797586146,32.21696797586146 0 0,0 0.1020423001301748,0.545114047595721 l -11.04281127558232 1.9689311068123925" fill="red" stroke="none" /><path d="M 120.67395015179393 96.31383870115 l 10.4094458182709 -1.856002168722291 a31.573613681888485,31.573613681888485 0 0,0 0.09079389311089824,0.5358706966881219 l -10.439851572902022 1.676545683718331" fill="red" stroke="none" /><path d="M 120.78858239683441 97.02765380044208 l 10.55097382519423 -1.5085755417226818 a31.658276071908517,31.658276071908517 0 0,0 0.07248840840328243,0.5401228399246643 l -10.57537823265535 1.3267343597333532" fill="red" stroke="none" /><path d="M 120.83666639777658 97.38593545837742 l 11.947574074376115 -1.4988832258488543 a33.0412282258678,33.0412282258678 0 0,0 0.06594029577495113,0.5649361851397834 l -11.971604723154655 1.2930033023842182" fill="red" stroke="none" /><path d="M 120.87857604477298 97.74499172005257 l 11.744099764731743 -1.2684314367611695 a32.81240016227592,32.81240016227592 0 0,0 0.0558168212886382,0.5620677730804008 l -11.76419371170261 1.0660881329763339" fill="red" stroke="none" /><path d="M 120.94382443527127 98.46500227214037 l 32.92642263790241 -2.4132165589876218 a54.01473794974518,54.01473794974518 0 0,0 0.05998056028759175,0.9278727196246745 l -32.96308378919442 1.846084775109912" fill="red" stroke="none" /><path d="M 120.96714384426684 98.82574320788733 l 11.481716209960476 -0.6430290813473288 a32.499708410456655,32.499708410456655 0 0,0 0.026473940207923864,0.5588230354765229 l -11.491083758401896 0.4452949392478062" fill="red" stroke="none" /><path d="M 120.98425023603335 99.18683210126433 l 11.817906844876797 -0.4579597730873658 a32.82677679454348,32.82677679454348 0 0,0 0.017020379798825227,0.5648235437945169 l -11.824038919131267 0.25446608186784975" fill="red" stroke="none" /><line stroke="#e1ed5e" stroke-width="0.3" x1="184.98032266829074" x2="189.97916517819016" y1="98.17113171792111" y2="98.06355123074" /><path d="M 185.9800911702706 98.14961562048488 a86.0,86.0 0 0,1 -9.607161424134198,41.387399972396054" fill="none" id="id52" stroke="none" /><text fill="#e1ed5e" style="font-size:6.75px; font-family:Arial;" text-anchor="middle"><textPath startOffset="21.466115282336823" xlink:href="#id52">April</textPath></text><path d="M 120.99513854157772 99.54816195383933 l 17.066302333218502 -0.36728524968567405 a38.0702540632369,38.0702540632369 0 0,0 0.008460647844756536,0.6552864995374517 l -17.070095988180974 0.07346249208775968" fill="red" stroke="none" /><path d="M 120.99980553446 99.90962569577887 l 32.08754737747903 -0.13809126773310304 a53.08784451938437,53.08784451938437 0 0,0 -0.003932804933964231,0.9138453626835197 l -32.085170275255564 -0.4142635731541013" fill="red" stroke="none" /><path d="M 120.99824983174949 100.27111621757518 l 11.601773953668642 0.14979482083906986 a32.60274094170745,32.60274094170745 0 0,0 -0.01207533692102579,0.5610934575947455 l -11.59747655406261 -0.34947809422393017" fill="red" stroke="none" /><path d="M 120.89721153311464 102.0752229133903 l 10.899782916597822 1.082416150291637 a31.953396384289665,31.953396384289665 0 0,0 -0.05906463366013024,0.5468651518469958 l -10.879535981436641 -1.2698776240234242" fill="red" stroke="none" /><path d="M 120.76222939487914 103.15116336523771 l 12.433963743443053 1.8871504734792803 a33.5763584269378,33.5763584269378 0 0,0 -0.09164466476041162,0.5706714149447472 l -12.399637324321354 -2.1009011181172323" fill="red" stroke="none" /><path d="M 120.70491114924044 103.5080841355445 l 10.131305347139364 1.716572039574321 a31.275697913233095,31.275697913233095 0 0,0 -0.09450258575806912,0.5300206878596129 l -10.100256319042105 -1.8907114781671521" fill="red" stroke="none" /><path d="M 120.64145759157962 103.86396538481128 l 10.795431552846603 2.020844392855039 a31.98294835061741,31.98294835061741 0 0,0 -0.10595504097087266,0.5402624712036399 l -10.759046578900067 -2.206370591126624" fill="red" stroke="none" /><path d="M 120.5718875245553 104.21870165774334 l 10.240693851205988 2.1000713753153093 a31.453808412992217,31.453808412992217 0 0,0 -0.11333250711172645,0.529451742891628 l -10.203027305369817 -2.2760369376231067" fill="red" stroke="none" /><path d="M 120.49622156327973 104.57218783832717 l 12.194755522141781 2.7203410500597514 a33.494491493192015,33.494491493192015 0 0,0 -0.13037241805225847,0.5616409648059417 l -12.14612253815897 -2.929850672214258" fill="red" stroke="none" /><path d="M 120.23288151984713 105.62410040840565 l 11.857620807043451 3.2960431245641173 a33.30719592281752,33.30719592281752 0 0,0 -0.15830016179878464,0.5510636302517721 l -11.799128008358569 -3.4996642303204712" fill="red" stroke="none" /><path d="M 120.13307415673323 105.97154293290107 l 20.190376258056617 5.988538944316632 a42.05976951748269,42.05976951748269 0 0,0 -0.2118475033101106,0.6923298982319498 l -20.084301982240373 -6.335195815100639" fill="red" stroke="none" /><path d="M 120.02730092923936 106.31721596034902 l 11.38256439448598 3.5904048037529694 a32.93540023834276,32.93540023834276 0 0,0 -0.1751971153573444,0.5392012776958964 l -11.319075028112389 -3.785804981426661" fill="red" stroke="none" /><path d="M 119.9155931802556 106.66101706037122 l 10.077979941046966 3.3707053419802406 a31.626727351099166,31.626727351099166 0 0,0 -0.1771234820832271,0.5148037485979962 l -10.018465628020508 -3.543681793667537" fill="red" stroke="none" /><path d="M 119.67450827220406 107.3425965602758 l 9.945880728466758 3.7118381112948744 a31.615944876898503,31.615944876898503 0 0,0 -0.19467250136377812,0.5082284715592065 l -9.880513947509474 -3.882490149687225" fill="red" stroke="none" /><path d="M 119.54520255179757 107.68017299344265 l 9.650440662571416 3.792084198415495 a31.368746672075865,31.368746672075865 0 0,0 -0.20180169854378904,0.5008552661488418 l -9.583736349770234 -3.95763883240715" fill="red" stroke="none" /><path d="M 119.41010516605496 108.01547362559984 l 10.206804712056941 4.214937182010572 a32.04285098506554,32.04285098506554 0 0,0 -0.21491448195464471,0.5079943506291136 l -10.132739248909989 -4.390006058305849" fill="red" stroke="none" /><path d="M 119.26925614724726 108.34839909993367 l 9.890523834345782 4.285066306948257 a31.77888004259743,31.77888004259743 0 0,0 -0.22178467559514664,0.5000658940226499 l -9.815298074019362 -4.454680537463594" fill="red" stroke="none" /><path d="M 119.12269723197855 108.67885076344098 l 29.682630876727668 13.471484724164663 a53.596617561297194,53.596617561297194 0 0,0 -0.388512649731309,0.836821683813351 l -29.446343610156525 -13.980426475256845" fill="red" stroke="none" /><line stroke="#e1ed5e" stroke-width="0.3" x1="174.80103733775053" x2="179.2010983576182" y1="140.37084112569926" y2="142.7455964860345" /><path d="M 175.68104954172406 140.8457921977663 a86.0,86.0 0 0,1 -30.038265399797805,32.042727171017184" fill="none" id="id53" stroke="none" /><text fill="#e1ed5e" style="font-size:6.75px; font-family:Arial;" text-anchor="middle"><textPath startOffset="22.206326154141568" xlink:href="#id53">May</textPath></text><path d="M 118.48025628344425 109.97397251340804 l 11.000576501388952 5.937117211669262 a33.50048175663683,33.50048175663683 0 0,0 -0.2782511577665141,0.5051066748584623 l -10.89674893417093 -6.12559440492553" fill="red" stroke="none" /><path d="M 118.30583269289576 110.29060199501025 l 10.362041683423804 5.825009362245651 a32.88707877988793,32.88707877988793 0 0,0 -0.2816512129020134,0.4910826301460472 l -10.260238474369412 -6.002511838250013" fill="red" stroke="none" /><path d="M 118.12598468904814 110.60418214915192 l 26.337576474824225 15.408181298696732 a51.513603286087374,51.513603286087374 0 0,0 -0.45434783287038233,0.7615131019292796 l -26.068447766255616 -15.859256494512115" fill="red" stroke="none" /><path d="M 117.94076556474637 110.91462005526583 l 30.981358035259923 18.848122758790392 a57.264256193108345,57.264256193108345 0 0,0 -0.5195650327571422,0.8377042659124638 l -30.65232836283482 -19.37862335606813" fill="red" stroke="none" /><path d="M 117.75023020441432 111.22182372390056 l 9.320794897838933 5.8926738473604665 a32.02727630010903,32.02727630010903 0 0,0 -0.29860880661146694,0.46344749909289046 l -9.217981227850416 -6.05224294637481" fill="red" stroke="none" /><path d="M 117.55443506779139 111.5257021239791 l 52.663305203374144 34.5771063719373 a84.0,84.0 0 0,0 -0.8039875783571158,1.2018523431767725 l -52.0603145196063 -35.47849562931987" fill="red" stroke="none" /><path d="M 117.35343817320211 111.8261652097733 l 8.808171193760057 6.002665678910321 a31.659074773701157,31.659074773701157 0 0,0 -0.31077014066365977,0.4476875659583364 l -8.703540145934262 -6.153394507055677" fill="red" stroke="none" /><path d="M 117.14729908036423 112.12312394758627 l 8.103543372920173 5.729197365960085 a30.9242691244707,30.9242691244707 0 0,0 -0.31103954976683035,0.4320067303383273 l -8.003724030777741 -5.867837701749544" fill="red" stroke="none" /><path d="M 116.93607887273984 112.41649034213515 l 9.437895014201079 6.919283570563306 a32.70257866578768,32.70257866578768 0 0,0 -0.3367411517378111,0.45111980220534 l -9.317392595768176 -7.080716252277961" fill="red" stroke="none" /><path d="M 116.71984013943494 112.70617746262583 l 9.69639655339019 7.368738835294451 a33.178604934202184,33.178604934202184 0 0,0 -0.34947053455526095,0.4517377750148105 l -9.568119201616861 -7.534554604422514" fill="red" stroke="none" /><path d="M 116.498646956653 112.99209946851258 l 10.001721665436198 7.876001169982323 a33.73050787291767,33.73050787291767 0 0,0 -0.3631363641599721,0.45306844905808435 l -9.864667389221372 -8.046997452618658" fill="red" stroke="none" /><path d="M 116.27256486870786 113.27417163493432 l 9.518701577653854 7.764779523262124 a33.28403357083091,33.28403357083091 0 0,0 -0.36597221386583073,0.44083710740828425 l -9.383633363894479 -7.927477887784179" fill="red" stroke="none" /><path d="M 116.0416608686014 113.55231037782055 l 10.358908912151001 8.75140983860492 a34.560758386368825,34.560758386368825 0 0,0 -0.3878334089839209,0.4511378735261415 l -10.206732993596301 -8.928424811292588" fill="red" stroke="none" /><line stroke="#e1ed5e" stroke-width="0.3" x1="143.8653032363475" x2="146.44561519142675" y1="172.8068346515853" y2="177.08958963109032" /><path d="M 144.38136562736335 173.6633856474863 a86.0,86.0 0 0,1 -40.68145358897372,12.25698825130547" fill="none" id="id54" stroke="none" /><text fill="#e1ed5e" style="font-size:6.75px; font-family:Arial;" text-anchor="middle"><textPath startOffset="21.466115282336833" xlink:href="#id54">June</textPath></text><line stroke="#e1ed5e" stroke-width="0.3" x1="102.19456741930631" x2="102.32365962044197" y1="184.97166512339345" y2="189.96999836594603" /><path d="M 102.22038585953345 185.97133177190398 a86.0,86.0 0 0,1 -42.740103519485714,-10.115201625700543" fill="none" id="id55" stroke="none" /><text fill="#e1ed5e" style="font-size:6.75px; font-family:Arial;" text-anchor="middle"><textPath startOffset="22.20632615414155" xlink:href="#id55">July</textPath></text><line stroke="#e1ed5e" stroke-width="0.3" x1="58.666819895761336" x2="56.23545636021788" y1="174.27360380694188" y2="178.64263932499728" /><path d="M 58.180547188652646 175.14741091055294 a86.0,86.0 0 0,1 -31.652253787137756,-30.449443065178592" fill="none" id="id56" stroke="none" /><text fill="#e1ed5e" style="font-size:6.75px; font-family:Arial;" text-anchor="middle"><textPath startOffset="22.20632615414155" xlink:href="#id56">August</textPath></text><line stroke="#e1ed5e" stroke-width="0.3" x1="26.63291911575756" x2="22.317208475507996" y1="142.92168965132927" y2="145.44649492493687" /><path d="M 25.769776987707644 143.4266507060508 a86.0,86.0 0 0,1 -11.730757126820373,-40.83630448921669" fill="none" id="id57" stroke="none" /><text fill="#e1ed5e" style="font-size:6.75px; font-family:Arial;" text-anchor="middle"><textPath startOffset="21.46611528233685" xlink:href="#id57">September</textPath></text><line stroke="#e1ed5e" stroke-width="0.3" x1="15.007084014347285" x2="10.007500721073583" y1="101.09737516637583" y2="101.16192664675087" /><path d="M 14.007167355692545 101.11028546245083 a86.0,86.0 0 0,1 10.666146001902534,-42.60595125391555" fill="none" id="id58" stroke="none" /><text fill="#e1ed5e" style="font-size:6.75px; font-family:Arial;" text-anchor="middle"><textPath startOffset="22.20632615414155" xlink:href="#id58">October</textPath></text><line stroke="#e1ed5e" stroke-width="0.3" x1="26.266209847984243" x2="21.928928074336255" y1="57.711370442889674" y2="55.22380399835377" /><path d="M 25.398753493254645 57.213857153982495 a86.0,86.0 0 0,1 29.58750427330803,-30.492523968695096" fill="none" id="id59" stroke="none" /><text fill="#e1ed5e" style="font-size:6.75px; font-family:Arial;" text-anchor="middle"><textPath startOffset="21.46611528233685" xlink:href="#id59">November</textPath></text><line stroke="#e1ed5e" stroke-width="0.3" x1="56.762969772571076" x2="54.21961505331055" y1="26.818313649435495" y2="22.513508569990535" /><path d="M 56.25429882871897 25.957352633546506 a86.0,86.0 0 0,1 42.265352541879196,-11.944610805530505" fill="none" id="id60" stroke="none" /><text fill="#e1ed5e" style="font-size:6.75px; font-family:Arial;" text-anchor="middle"><textPath startOffset="22.20632615414155" xlink:href="#id60">December</textPath></text></svg>