<?xml version="1.0" encoding="utf-8" ?>
<svg baseProfile="full" height="200mm" version="1.1" viewBox="0,0,200,200" width="200mm" xmlns="http://www.w3.org/2000/svg" xmlns:ev="http://www.w3.org/2001/xml-events" xmlns:xlink="http://www.w3.org/1999/xlink"><defs /><rect fill="#1a1a1a" height="200" width="200" x="0" y="0" /><text alignment-baseline="middle" fill="#e1ed5e" style="dominant-baseline: central; font-size:9.0px; font-family:Arial;" text-anchor="middle" x="100.0" y="100.0">2024</text><line stroke="#e1ed5e" stroke-width="0.3" x1="100.0" x2="100.0" y1="15.0" y2="10.0" /><path d="M 100.0 14.0 a86.0,86.0 0 0,1 42.35913384403234,11.155469271406648" fill="none" id="id25" stroke="none" /><text fill="#e1ed5e" style="font-size:6.75px; font-family:Arial;" text-anchor="middle"><textPath startOffset="22.145653131862478" xlink:href="#id25">January</textPath></text><path d="M 100.36049292484886 79.00309439819443 l 0.07346506711203782 -4.278971854519794 a25.2796024637644,25.2796024637644 0 0,0 0.4338301025488178,0.01117392454034083 l -0.146908483731597 4.277080212629407" fill="#ff2d04" stroke="none" /><path d="M 103.58742460773223 79.30868818359171 l 0.7328542002991373 -4.226908278900293 a25.289968400481747,25.289968400481747 0 0,0 0.42711778005915674,0.07783508756862798 l -0.8053067139093477 4.213705017400299" fill="#ff2d04" stroke="none" /><path d="M 104.29559338865022 79.4440306129975 l 0.8758534090969883 -4.191275625032283 a25.281811597818916,25.281811597818916 0 0,0 0.4240573438431468,0.0924213243858379 l -0.9476731695592693 4.175622842512727" fill="#ff2d04" stroke="none" /><path d="M 105.3480935250658 79.69241777938227 l 1.0927690825458782 -4.1494221983854285 a25.2909030341202,25.2909030341202 0 0,0 0.41888792678210546,0.11416976715633396 l -1.1638384102626764 4.130051937084953" fill="#ff2d04" stroke="none" /><path d="M 106.04205211174951 79.88797359093562 l 1.2407741204875447 -4.130133507190728 a25.31248457449893,25.31248457449893 0 0,0 0.41507576992957507,0.12859153454757938 l -1.31149052328875 4.108225384836502" fill="#ff2e04" stroke="none" /><path d="M 106.72888874123014 80.10723608172694 l 1.3733805788444555 -4.060155647617293 a25.286144899233545,25.286144899233545 0 0,0 0.4099898278772535,0.14261574457918869 l -1.4428761787667272 4.035981470469514" fill="#ff2d04" stroke="none" /><path d="M 107.40779381753099 80.34994680014964 l 1.519979100358273 -4.031925148080812 a25.308915973333946,25.308915973333946 0 0,0 0.4052171217359779,0.15674668774270495 l -1.5889684845877767 4.005238572200069" fill="#ff2e04" stroke="none" /><path d="M 108.07796709384702 80.6158196554323 l 1.1955051823968021 -2.8687772293720317 a24.107911747926746,24.107911747926746 0 0,0 0.3806351403094876,0.16247050743359817 l -1.2445753978767196 2.847832072279032" fill="#ff1c02" stroke="none" /><path d="M 108.73861861582097 80.90454125486305 l 1.7826868246720062 -3.895492435657169 a25.284020731873433,25.284020731873433 0 0,0 0.39311991084112025,0.18399996806160257 l -1.8492954493846314 3.864316236025033" fill="#ff2d04" stroke="none" /><path d="M 109.3889696526874 81.21577127319529 l 1.9113703296638935 -3.8240210355518673 a25.275099228960965,25.275099228960965 0 0,0 0.38643553956702276,0.19731673996515411 l -1.9767330909444951 3.790646343913879" fill="#ff2d04" stroke="none" /><path d="M 109.71004243097381 81.37971332152246 l 1.975947347889364 -3.78913957800156 a25.273399895072874,25.273399895072874 0 0,0 0.38296564331957056,0.20390763444202695 l -2.040701806995494 3.7546614758369596" fill="#ff2d04" stroke="none" /><line stroke="#e1ed5e" stroke-width="0.3" x1="143.13028292997686" x2="145.6673583964461" y1="26.7553504044142" y2="22.446841604673864" /><path d="M 143.63769802327073 25.89364864446614 a86.0,86.0 0 0,1 29.32050498858742,28.57503671076993" fill="none" id="id26" stroke="none" /><text fill="#e1ed5e" style="font-size:6.75px; font-family:Arial;" text-anchor="middle"><textPath startOffset="20.669276256404974" xlink:href="#id26">February</textPath></text><path d="M 111.27062007382361 82.28071324371311 l 2.2965271449889095 -3.6105221149425297 a25.27900769690357,25.27900769690357 0 0,0 0.36415538240947753,0.23604111927730942 l -2.3581681596553943 3.5705671539613255" fill="#ff2d04" stroke="none" /><path d="M 112.7482090630111 83.31218511350987 l 2.593271340711087 -3.394675430119199 a25.271870494573594,25.271870494573594 0 0,0 0.34248204872486177,0.2663161125726048 l -2.6511633340711747 3.349658265925803" fill="#ff2d04" stroke="none" /><path d="M 113.31354834802062 83.75963576809568 l 2.3586768184482056 -2.877202203020746 a24.720436647888576,24.720436647888576 0 0,0 0.32586911118383355,0.2718516024861122 l -2.407720263793932 2.8362884166227635" fill="#ff2503" stroke="none" /><path d="M 113.86319453409587 84.22622945171908 l 2.1970822567984887 -2.4998762954096274 a24.328145419823134,24.328145419823134 0 0,0 0.3113249288968185,0.27838867114430976 l -2.2396722125186828 2.4617920943819307" fill="#ff2003" stroke="none" /><path d="M 114.91283532996326 85.21462403516908 l 3.681452046371763 -3.649986833337936 a26.1841578923944,26.1841578923944 0 0,0 0.3137276060227416,0.321912161672932 l -3.7435664535453164 3.5862519795972623" fill="#ff3a05" stroke="none" /><path d="M 115.41159269507618 85.73525988315684 l 3.3470730096967394 -3.0980008088766864 a25.560757255548797,25.560757255548797 0 0,0 0.29529040373422855,0.32457588096887974 l -3.399761114272845 3.040087352350135" fill="#ff3104" stroke="none" /><path d="M 115.6541949942343 86.00192230759917 l 3.956243427926761 -3.537697268659696 a26.30727463258648,26.30727463258648 0 0,0 0.2981352523789727,0.3392231892738438 l -4.016389744264324 3.469261801574554" fill="#ff3c05" stroke="none" /><path d="M 116.1254893667686 86.54754324733833 l 3.705939393884649 -3.091626448680531 a25.826193208868364,25.826193208868364 0 0,0 0.28107898118307717,0.3428706542403009 l -3.7584651943063543 3.027553512741735" fill="#ff3505" stroke="none" /><path d="M 116.57777611688842 87.10902102172516 l 3.7108817937960223 -2.8856041279236555 a25.700782367927367,25.700782367927367 0 0,0 0.2678364476984858,0.35060650770279406 l -3.759870218848815 2.8214767069799795" fill="#ff3304" stroke="none" /><path d="M 116.7966241395341 87.39550010848427 l 3.055739801542123 -2.2930841148241785 a24.820442447202637,24.820442447202637 0 0,0 0.25281154821393,0.3429874190158671 l -3.0946533693398783 2.2402903865394364" fill="#ff2703" stroke="none" /><path d="M 117.01052211995028 87.68569379921539 l 3.828329308250187 -2.7714151868354597 a25.7261874095543,25.7261874095543 0 0,0 0.25589581534497696,0.35994951099363265 l -3.8753402221251245 2.705288449132323" fill="#ff3404" stroke="none" /><path d="M 117.42321728460499 88.27688183743584 l 4.316967498518372 -2.904648393141316 a26.203190431941003,26.203190431941003 0 0,0 0.2479015981491898,0.3753546158876812 l -4.366193535588287 2.830113898914576" fill="#ff3a05" stroke="none" /><path d="M 117.62189284568427 88.57770195909679 l 4.007632065741563 -2.5976986861767095 a25.775892925780916,25.775892925780916 0 0,0 0.23748472684209454,0.37336543576044345 l -4.051634484209548 2.5285195757375942" fill="#ff3405" stroke="none" /><line stroke="#e1ed5e" stroke-width="0.3" x1="172.87174338648825" x2="177.1583165268699" y1="56.24261187166439" y2="53.66864786411523" /><path d="M 173.72905801456457 55.72781907015455 a86.0,86.0 0 0,1 12.242430191666344,42.057860355516425" fill="none" id="id27" stroke="none" /><text fill="#e1ed5e" style="font-size:6.75px; font-family:Arial;" text-anchor="middle"><textPath startOffset="22.145653131862474" xlink:href="#id27">March</textPath></text><path d="M 118.00360718960297 89.18935116829356 l 4.513218366778649 -2.7100579539542613 a26.264366451912224,26.264366451912224 0 0,0 0.22878300527811904,0.38852355970459246 l -4.559075082186536 2.6321832259561124" fill="#ff3b05" stroke="none" /><path d="M 118.18653347947321 89.5 l 4.255764654335848 -2.457066868788497 a25.914133737576993,25.914133737576993 0 0,0 0.21911835838893237,0.3871611437576581 l -4.297316377746156 2.383648954931721" fill="#ff3605" stroke="none" /><path d="M 118.70294669586156 90.45014215332178 l 4.279444836564658 -2.1851150258016077 a25.805036501961652,25.805036501961652 0 0,0 0.19805990585526068,0.3962524867816305 l -4.3163246556316555 2.111330682856227" fill="#ff3505" stroke="none" /><path d="M 118.8641267826498 90.77261029715802 l 4.1450516232501755 -2.027552460117342 a25.614371239718018,25.614371239718018 0 0,0 0.18981559329596226,0.3966415854580702 l -4.17924647450605 1.9560983725941685" fill="#ff3204" stroke="none" /><path d="M 119.0197475246899 91.09779779509293 l 4.314147761053319 -2.019238986263565 a25.763317855009056,25.763317855009056 0 0,0 0.18404275786326632,0.4021666403608151 l -4.348174983771637 1.9448833636880656" fill="#ff3405" stroke="none" /><path d="M 119.31412917781788 91.75594674310238 l 3.953855046337355 -1.6876656085273845 a25.29897487008862,25.29897487008862 0 0,0 0.16706257020010828,0.4008893514870269 l -3.9822434610739466 1.6195437475990797" fill="#ff2e04" stroke="none" /><path d="M 119.58574465831526 92.42381321644754 l 5.706480768220059 -2.2073893503165847 a27.11853663076037,27.11853663076037 0 0,0 0.16422122663270666,0.4356163142986727 l -5.743532678667206 2.109104755823754" fill="#ff4706" stroke="none" /><path d="M 119.83427380445688 93.10060997987247 l 6.882331199139113 -2.3940320507163104 a28.28682867882185,28.28682867882185 0 0,0 0.15559719475661152,0.4599954584882821 l -6.922413815468089 2.2755349177538666" fill="#ff5808" stroke="none" /><path d="M 120.05942366710727 93.78553927170692 l 4.932159528003709 -1.5279956294415136 a26.16342601895971,26.16342601895971 0 0,0 0.12922699180949274,0.43015462693251655 l -4.9576628398168285 1.4431033989182735" fill="#ff3a05" stroke="none" /><path d="M 120.16314734710363 94.1308016681162 l 4.158008221487314 -1.2103355938138318 a25.330582480407084,25.330582480407084 0 0,0 0.11794583578873231,0.4185481620772579 l -4.178172549350628 1.1387795078335605" fill="#ff2e04" stroke="none" /><path d="M 120.35273937422433 94.82641323984039 l 4.890145110971642 -1.2430557644452884 a26.045662180515112,26.045662180515112 0 0,0 0.10643060453481382,0.43427318603488535 l -4.910763242022747 1.1589267538023083" fill="#ff3805" stroke="none" /><path d="M 120.43855184770803 95.1765574152323 l 4.987917729844507 -1.177135002847465 a26.124936106394486,26.124936106394486 0 0,0 0.09926124494239187,0.43736336014499805 l -5.007389836344565 1.0913373087634406" fill="#ff3905" stroke="none" /><path d="M 120.51834098615036 95.52812308129327 l 2.1146315949295995 -0.4608741139118712 a23.164271639870687,23.164271639870687 0 0,0 0.08134221037191729,0.3892519228412587 l -2.1222315161258836 0.4245057397852081" fill="#ff0f01" stroke="none" /><path d="M 120.592083275326 95.88100663000786 l 4.086328790040442 -0.8173802023204039 a25.16727649376169,25.16727649376169 0 0,0 0.08110299588061769,0.42436514531135106 l -4.099758078203217 0.7471124919757383" fill="#ff2c04" stroke="none" /><path d="M 120.7213421655516 96.59031103205396 l 4.980218272632889 -0.8194930215664255 a26.047191581014395,26.047191581014395 0 0,0 0.06881234870968665,0.4418246413644379 l -4.993552113480842 0.7338801982705464" fill="#ff3805" stroke="none" /><path d="M 120.82617615685814 97.30363454192243 l 4.853234635919337 -0.6283483887621532 a25.89374173091992,25.89374173091992 0 0,0 0.053289214121021174,0.44131113779087283 l -4.863305936300022 0.5449435740478673" fill="#ff3605" stroke="none" /><path d="M 120.9064616781168 98.02013634271609 l 4.6032917629096755 -0.4359365159719474 a25.62388750949132,25.62388750949132 0 0,0 0.037711501681856455,0.4382648132296642 l -4.610096887289273 0.3568506553666212" fill="#ff3204" stroke="none" /><path d="M 120.96210409425399 98.7389718711861 l 4.426409588069797 -0.26628180907362575 a25.43441178096935,25.43441178096935 0 0,0 0.022477250274372085,0.43605265047715 l -4.430328427800742 0.19025736521974518" fill="#ff2f04" stroke="none" /><path d="M 120.98066250479742 99.09900007780936 l 5.2040017999213735 -0.22348222873024048 a26.208798233771695,26.208798233771695 0 0,0 0.015444861027589454,0.4496602769967095 l -5.207071347945811 0.13411568716941102" fill="#ff3a05" stroke="none" /><line stroke="#e1ed5e" stroke-width="0.3" x1="184.99686870605535" x2="189.99668451229388" y1="99.2704041080226" y2="99.22748670261217" /><path d="M 185.99683186730306 99.26182062694052 a86.0,86.0 0 0,1 -10.086455211305974,41.156179273409016" fill="none" id="id28" stroke="none" /><text fill="#e1ed5e" style="font-size:6.75px; font-family:Arial;" text-anchor="middle"><textPath startOffset="21.40746469413373" xlink:href="#id28">April</textPath></text><path d="M 120.99922638620191 99.81974689727618 l 4.720490671025107 -0.04051973506939552 a25.72066457441801,25.72066457441801 0 0,0 0.0,0.4415456755864442 l -4.720490671025107 -0.04051973506939495" fill="#ff3404" stroke="none" /><path d="M 120.99303781780057 100.54070618675476 l 4.801744705762638 0.12367591065935415 a25.80333716807356,25.80333716807356 0 0,0 -0.015205922570515847,0.442703844523664 l -4.7989140961952765 -0.20608601974712887" fill="#ff3505" stroke="none" /><path d="M 120.98066250479742 100.90099992219065 l 3.7895903750504067 0.162741316308486 a24.7930831716044,24.7930831716044 0 0,0 -0.021910486482665418,0.42505758433020435 l -3.7862382991111687 -0.22777069401542102" fill="#ff2603" stroke="none" /><path d="M 120.93736805541906 101.62068470465957 l 4.34392775057735 0.3362474808138464 a25.35692215567247,25.35692215567247 0 0,0 -0.037318600160344245,0.4336987019834013 l -4.337515527719265 -0.41076723017290506" fill="#ff2e04" stroke="none" /><path d="M 120.9064616781168 101.97986365728391 l 4.629598704075883 0.43842781065161024 a25.65031215145111,25.65031215145111 0 0,0 -0.045275985883463876,0.43800409235912097 l -4.621390325710753 -0.5178364252936627" fill="#ff3304" stroke="none" /><path d="M 120.86939407059847 102.33845913500097 l 5.0520254440371986 0.5660899885210413 a26.08364229291391,26.08364229291391 0 0,0 -0.05368002869756868,0.44454764311913764 l -5.041563329079967 -0.6527313085635875" fill="#ff3905" stroke="none" /><path d="M 120.77682067341334 103.0534771498775 l 4.64006424039261 0.6819296539500245 a25.68990663104359,25.68990663104359 0 0,0 -0.06786846128559643,0.43576420700263435 l -4.6276742869687455 -0.7614820428841094" fill="#ff3304" stroke="none" /><path d="M 120.7213421655516 103.40968896794604 l 4.442641094017319 0.73103490139734 a25.502385136492926,25.502385136492926 0 0,0 -0.0747890020482975,0.43136308941070134 l -4.429437274476787 -0.8071910237286294" fill="#ff3004" stroke="none" /><path d="M 120.592083275326 104.11899336999214 l 4.699536388921036 0.9400388959769331 a25.792631364578597,25.792631364578597 0 0,0 -0.09057179431844388,0.43341882317236935 l -4.682706883778228 -1.0205741704347115" fill="#ff3505" stroke="none" /><path d="M 120.51834098615036 104.47187691870673 l 4.360348432022904 0.9503176462387399 a25.462705690206036,25.462705690206036 0 0,0 -0.09674511187772877,0.4262768136043842 l -4.343392458587511 -1.025028793782141" fill="#ff3004" stroke="none" /><path d="M 120.35273937422433 105.17358676015961 l 4.518344538830376 1.1485455129218054 a25.662037555278925,25.662037555278925 0 0,0 -0.11219261864565087,0.4260136471089295 l -4.497962439379995 -1.2259396644035383" fill="#ff3304" stroke="none" /><path d="M 120.16314734710363 105.8691983318838 l 6.75113428741487 1.965156798981121 a28.031333828747602,28.031333828747602 0 0,0 -0.138453004758307,0.46086502344103897 l -6.716404962652933 -2.080759426012883" fill="#ff5407" stroke="none" /><path d="M 120.05942366710727 106.21446072829308 l 8.277213912513709 2.5643020284448355 a29.665328328839987,29.665328328839987 0 0,0 -0.15487460489968694,0.4851424939921853 l -8.231974591836767 -2.706013556128404" fill="#ff6a09" stroke="none" /><path d="M 119.94978838288452 106.5578916946017 l 4.168494031928482 1.3702667851070178 a25.387934999130103,25.387934999130103 0 0,0 -0.13965126707489114,0.41285415670294223 l -4.144357343281226 -1.4416226162841204" fill="#ff2f04" stroke="none" /><path d="M 119.71291397450082 107.23885506374661 l 7.9864383799739604 2.9327307968247087 a29.507885044108505,29.507885044108505 0 0,0 -0.1786903601495892,0.4739974099886752 l -7.9349173360099305 -3.069396487007543" fill="#ff6809" stroke="none" /><path d="M 119.58574465831526 107.57618678355244 l 3.6830499043835467 1.4246828239388956 a24.948997055836603,24.948997055836603 0 0,0 -0.15794060604138946,0.3981135016644109 l -3.658050623376033 -1.4876973428168705" fill="#ff2903" stroke="none" /><path d="M 119.4528033332814 107.91128576633889 l 1.8591306189032282 0.7560922377665797 a23.006998288528013,23.006998288528013 0 0,0 -0.15192743130534025,0.364570527893442 l -1.8458773430614024 -0.7878952751012996" fill="#ff0d01" stroke="none" /><path d="M 119.31412917781788 108.2440532568976 l 7.8265168087561285 3.340674632201025 a29.509669344690995,29.509669344690995 0 0,0 -0.2028664955359996,0.4641982425202109 l -7.768016431203163 -3.4745349444970803" fill="#ff6809" stroke="none" /><path d="M 119.0197475246899 108.90220220490707 l 6.75591491572808 3.16210930670278 a28.459311068462924,28.459311068462924 0 0,0 -0.21089805268685194,0.4406958171097316 l -6.700637605081316 -3.277617625877615" fill="#ff5a08" stroke="none" /><path d="M 118.8641267826498 109.22738970284198 l 3.8376150036278043 1.8771698036145674 a25.272125394656808,25.272125394656808 0 0,0 -0.19396968402070322,0.38806930318152594 l -3.8048254063953686 -1.942770962959839" fill="#ff2d04" stroke="none" /><path d="M 118.70294669586154 109.54985784667822 l 3.793852858982334 1.9371683020682477 a25.259805223968158,25.259805223968158 0 0,0 -0.20050503381428175,0.3844948399185679 l -3.7600397561931027 -2.0020093850913185" fill="#ff2d04" stroke="none" /><line stroke="#e1ed5e" stroke-width="0.3" x1="174.33088141563837" x2="178.70328620479359" y1="141.23008692659167" y2="143.65538615756765" /><path d="M 175.20536237346943 141.71514677278685 a86.0,86.0 0 0,1 -30.301960400862466,31.631185727798858" fill="none" id="id29" stroke="none" /><text fill="#e1ed5e" style="font-size:6.75px; font-family:Arial;" text-anchor="middle"><textPath startOffset="22.145653131862474" xlink:href="#id29">May</textPath></text><path d="M 118.36410011445183 110.18625677009912 l 8.672723901370503 4.810613752100683 a30.917567470973083,30.917567470973083 0 0,0 -0.2614251627402469,0.46191321328673296 l -8.58886537360888 -4.95878373548654" fill="#ff7b0b" stroke="none" /><path d="M 118.18653347947321 110.5 l 10.130435840244466 5.848809859373373 a32.69761971874675,32.69761971874675 0 0,0 -0.28482163155896034,0.48368939834335606 l -10.028540498555742 -6.021850426010278" fill="#ff930d" stroke="none" /><path d="M 117.62189284568427 111.42229804090321 l 3.9265653743087308 2.5451522362099257 a25.679285794243032,25.679285794243032 0 0,0 -0.24294507206124985,0.3678498036566767 l -3.882295863326754 -2.6121819182056636" fill="#ff3304" stroke="none" /><path d="M 117.423217284605 111.72311816256416 l 4.009680171596501 2.697891765790601 a25.832820611031913,25.832820611031913 0 0,0 -0.2507139984541443,0.3657992164232158 l -3.962776436327036 -2.766325717283861" fill="#ff3505" stroke="none" /><path d="M 117.21940702142032 112.02048342749411 l 6.1277110340243635 4.27761820377059 a28.473075672956448,28.473075672956448 0 0,0 -0.28321883840449913,0.39838276468277234 l -6.0533770970899035 -4.382178195162866" fill="#ff5a08" stroke="none" /><path d="M 117.01052211995028 112.31430620078461 l 5.425554215782228 3.9276828454161197 a27.698009486598863,27.698009486598863 0 0,0 -0.28212134717768894,0.3827517904200844 l -5.357330849020711 -4.020240945105082" fill="#ff4f07" stroke="none" /><path d="M 116.79662413953412 112.60449989151573 l 2.036480270727945 1.5282127609825942 a23.546111964524382,23.546111964524382 0 0,0 -0.2453819068776341,0.32121279296785704 l -2.0099463864960065 -1.5629464671913285" fill="#ff1402" stroke="none" /><path d="M 116.57777611688842 112.89097897827486 l 4.708275599015122 3.6611835835445268 a26.96423711372185,26.96423711372185 0 0,0 -0.287276429260965,0.3629643837906991 l -4.644732739112595 -3.7414679112499085" fill="#ff4506" stroke="none" /><path d="M 116.35404254752997 113.17365903436017 l 2.0984173994654576 1.6903365178355778 a23.694548779648994,23.694548779648994 0 0,0 -0.25787926144258444,0.3145707683785666 l -2.0690913187842455 -1.7261095679126375" fill="#ff1702" stroke="none" /><path d="M 116.1254893667686 113.45245675266167 l 8.046248758839184 6.712466889377414 a31.4785175874314,31.4785175874314 0 0,0 -0.3497194898040312,0.41196867963199957 l -7.929834705528037 -6.84960235145897" fill="#ff830c" stroke="none" /><path d="M 115.89218393027572 113.72728997021213 l 4.898332682200852 4.231063105873041 a27.472677813038203,27.472677813038203 0 0,0 -0.3113425410920731,0.35425065940080186 l -4.824979077150194 -4.314526043085135" fill="#ff4c07" stroke="none" /><path d="M 115.41159269507618 114.26474011684316 l 6.245807719195637 5.781026380392428 a29.510603978329446,29.510603978329446 0 0,0 -0.34730350553160194,0.36882428744326 l -6.145648379927775 -5.887392127780186" fill="#ff6809" stroke="none" /><path d="M 115.16444852881244 114.52719865689866 l 3.414392263633649 3.2709105518833077 a25.728311576914415,25.728311576914415 0 0,0 -0.3082658465169599,0.31630791526524915 l -3.3577396159658823 -3.329041159216294" fill="#ff3404" stroke="none" /><path d="M 114.91283532996324 114.78537596483092 l 3.679641911625785 3.6481921697361392 a26.181608891562266,26.181608891562266 0 0,0 -0.3191763533446236,0.31644836671683396 l -3.6164736381511964 -3.710820546681635" fill="#ff3a05" stroke="none" /><path d="M 114.65682725009322 115.03919595460226 l 5.588087488466244 5.733870046805017 a29.00649658042772,29.00649658042772 0 0,0 -0.35958043564471776,0.3444699233091115 l -5.488834566956214 -5.828952100419709" fill="#ff6109" stroke="none" /><path d="M 114.39649973595853 115.28858382429668 l 6.119959382918801 6.499184784016907 a29.927110714300163,29.927110714300163 0 0,0 -0.3770391678854579,0.34898182492683977 l -6.007490443719376 -6.603284355076126" fill="#ff6e0a" stroke="none" /><path d="M 114.13192950727249 115.5334660781643 l 3.4889598860269984 3.8349780905563184 a26.184582725866424,26.184582725866424 0 0,0 -0.33508157792746457,0.29963201319828336 l -3.4226132812761563 -3.894305633637989" fill="#ff3a05" stroke="none" /><path d="M 113.86319453409587 115.77377054828091 l 3.6877551711890093 4.195988432933401 a26.58622029031636,26.58622029031636 0 0,0 -0.3453936405115921,0.298342800333268 l -3.6151820509145614 -4.258675365731387" fill="#ff4006" stroke="none" /><path d="M 113.31354834802062 116.24036423190432 l 2.8454734112341127 3.4710148942007426 a25.488280665221783,25.488280665221783 0 0,0 -0.3407531029395299,0.274486579081548 l -2.7854695379393304 -3.519349767075694" fill="#ff3004" stroke="none" /><path d="M 113.03279911837588 116.46651593811092 l 2.648104928172332 3.345794069982855 a25.266942426298137,25.266942426298137 0 0,0 -0.34241526399993455,0.26626418036655913 l -2.5902797195371665 -3.390759301970207" fill="#ff2d04" stroke="none" /><path d="M 112.45986205192187 116.90419585922612 l 3.6148651596081463 4.90425884396396 a27.092536822272603,27.092536822272603 0 0,0 -0.37673977282124366,0.2727305421797588 l -3.5301443764129345 -4.965590157516796" fill="#ff4706" stroke="none" /><path d="M 112.16784306229584 117.11559508785304 l 6.9384900332491934 9.759855162677459 a32.974866042588545,32.974866042588545 0 0,0 -0.464168203336996,0.32402545504856123 l -6.769926738738438 -9.877525433531142" fill="#ff970d" stroke="none" /><path d="M 111.8722381534696 117.32195027204791 l 1.4416885054901285 2.103466614893073 a23.550105399161392,23.550105399161392 0 0,0 -0.3354249495521893,0.22568887559858958 l -1.405367267840936 -2.1279051645487836" fill="#ff1402" stroke="none" /><path d="M 111.5731344415666 117.5232005979908 l 2.3752593885482716 3.5964454528671426 a25.3100205403612,25.3100205403612 0 0,0 -0.3646021362537842,0.23633069972166398 l -2.313171620037478 -3.636689994292701" fill="#ff2e04" stroke="none" /><path d="M 111.27062007382361 117.71928675628689 l 5.373155754788394 8.447493303976557 a31.011540634984428,31.011540634984428 0 0,0 -0.4516400736987438,0.2818568091434413 l -5.227351552299935 -8.538485909961546" fill="#ff7d0b" stroke="none" /><path d="M 110.96478420261333 117.91015095944535 l 3.6406330397133937 5.946700466177038 a27.972621842914112,27.972621842914112 0 0,0 -0.41168672023098585,0.2472060467784703 l -3.5380135629249714 -6.008320513491431" fill="#ff5307" stroke="none" /><line stroke="#e1ed5e" stroke-width="0.3" x1="143.1302829299769" x2="145.66735839644613" y1="173.24464959558577" y2="177.55315839532614" /><path d="M 143.63769802327073 174.10635135553383 a86.0,86.0 0 0,1 -40.68552437913181,11.842963189579606" fill="none" id="id30" stroke="none" /><text fill="#e1ed5e" style="font-size:6.75px; font-family:Arial;" text-anchor="middle"><textPath startOffset="21.407464694133747" xlink:href="#id30">June</textPath></text><path d="M 110.65571695917076 118.09573695890943 l 4.378724534703203 7.436031540544829 a29.6294723838013,29.6294723838013 0 0,0 -0.4405021167402418,0.25432401567857954 l -4.250429950102562 -7.510102453499581" fill="#ff6a09" stroke="none" /><path d="M 110.34350942703117 118.27599006163325 l 1.2717433053741687 2.247048564506221 a23.58196790956307,23.58196790956307 0 0,0 -0.35401678277172544,0.19636714174735506 l -1.2329823344463489 -2.26854862168672" fill="#ff1502" stroke="none" /><path d="M 108.07796709384702 119.3841803445677 l 0.8829834328730928 2.118838800063283 a23.29546021603119,23.29546021603119 0 0,0 -0.3704483339837707,0.15065811243748436 l -0.8464806376988812 -2.1336841690800585" fill="#ff1101" stroke="none" /><path d="M 107.407793817531 119.65005319985036 l 0.9440037415432762 2.5040820788348777 a23.67611100696322,23.67611100696322 0 0,0 -0.381535848161785,0.1401052482671702 l -0.9008787417273642 -2.51991817611077" fill="#ff1602" stroke="none" /><path d="M 106.38641147887787 120.00534299687104 l 0.34883503230022905 1.0927207702747073 a22.14705037446036,22.14705037446036 0 0,0 -0.3631687738433059,0.11251061447455075 l -0.3300256255852988 -1.0985479725559024" fill="#ff0000" stroke="none" /><path d="M 103.94208987418118 120.62667999033965 l 0.29306210262171434 1.5334247571739563 a22.561178042987752,22.561178042987752 0 0,0 -0.3810317248580138,0.06943667310371059 l -0.26669564421264336 -1.5382296042090304" fill="#ff0601" stroke="none" /><path d="M 103.2317021107853 120.74984581791261 l 0.2737632845164193 1.7577566711248238 a22.778947680746413,22.778947680746413 0 0,0 -0.38688946468563257,0.056859428038363746 l -0.2435487142231012 -1.76219717246207" fill="#ff0901" stroke="none" /><line stroke="#e1ed5e" stroke-width="0.3" x1="101.45913802915013" x2="101.54496967792366" y1="184.9874750549273" y2="189.98673829345242" /><path d="M 101.47630435890484 185.9873277026323 a86.0,86.0 0 0,1 -42.54439059252881,-10.42667462771756" fill="none" id="id31" stroke="none" /><text fill="#e1ed5e" style="font-size:6.75px; font-family:Arial;" text-anchor="middle"><textPath startOffset="22.145653131862474" xlink:href="#id31">July</textPath></text><path d="M 98.91894614982273 120.97215588758144 l -0.2660079448675962 5.160483065837668 a26.167334486902316,26.167334486902316 0 0,0 -0.448403004988153,-0.026974811297198566 l 0.35455530198819557 -5.155156276715778" fill="#ff3a05" stroke="none" /><path d="M 98.55909050195518 120.95050786540614 l -0.10268904711293197 1.493076207874106 a22.496603355240353,22.496603355240353 0 0,0 -0.3850465122912779,-0.02980503525568357 l 0.128304554179446 -1.4910934056233687" fill="#ff0500" stroke="none" /><path d="M 97.84075906011543 120.88869738790638 l -0.5064817486774245 4.899751475250348 a25.925859141404807,25.925859141404807 0 0,0 -0.4423002166914319,-0.04956066183024255 l 0.5905178669696556 -4.890335052913135" fill="#ff3605" stroke="none" /><path d="M 97.48249496171623 120.84855314841334 l -0.19925674463829318 1.6501316849809708 a22.662118475940265,22.662118475940265 0 0,0 -0.3858195218136687,-0.049952061474703144 l 0.22755408834275592 -1.6464680273058705" fill="#ff0801" stroke="none" /><path d="M 97.12497278360702 120.80226474461374 l -0.2765732544953155 2.001146294715487 a23.020168126160705,23.020168126160705 0 0,0 -0.3909864778710337,-0.05746154788822006 l 0.3108848379740341 -1.9961036735283848" fill="#ff0d01" stroke="none" /><path d="M 95.00130118170881 120.39639698878247 l -1.2499999883925519 5.1004265161835916 a26.251366547668336,26.251366547668336 0 0,0 -0.43676611987408004,-0.11102423971136645 l 1.3373714014920106 -5.078217044636961" fill="#ff3b05" stroke="none" /><path d="M 93.61358852112213 120.00534299687104 l -0.5115213555122469 1.6023333606191197 a22.68200068243091,22.68200068243091 0 0,0 -0.36990807135195003,-0.12159613036127573 l 0.5389521645119404 -1.5933163088558224" fill="#ff0801" stroke="none" /><path d="M 93.27111125876986 119.89276391827306 l -1.6393990471939281 4.846591980908376 a26.116354470259633,26.116354470259633 0 0,0 -0.42345085487379036,-0.1472981885262786 l 1.7223556741127404 -4.817735359813507" fill="#ff3905" stroke="none" /><path d="M 92.93061703081489 119.77432235084164 l -0.5281536057275765 1.4773396342991298 a22.56891001217856,22.56891001217856 0 0,0 -0.363693523022057,-0.13355329933390658 l 0.5534362804037525 -1.4680554859565036" fill="#ff0601" stroke="none" /><path d="M 92.25597844496254 119.51999308798841 l -0.717797783870435 1.8093193155705918 a22.94650200211203,22.94650200211203 0 0,0 -0.3648991416614252,-0.14840130422931522 l 0.7487513867223011 -1.7967307547619853" fill="#ff0c01" stroke="none" /><path d="M 91.59046798132341 119.24265499422711 l -2.183025669866378 4.995189948202482 a26.451378146296463,26.451378146296463 0 0,0 -0.4145140011401677,-0.18540684030475588 l 2.268453073862181 -4.956979356987871" fill="#ff3e05" stroke="none" /><line stroke="#e1ed5e" stroke-width="0.3" x1="58.13341422392154" x2="55.67067388415222" y1="173.97424548756322" y2="178.32567169271397" /><path d="M 57.64086615596768 174.84453072859336 a86.0,86.0 0 0,1 -31.369924170532247,-30.572349798747897" fill="none" id="id32" stroke="none" /><text fill="#e1ed5e" style="font-size:6.75px; font-family:Arial;" text-anchor="middle"><textPath startOffset="22.145653131862474" xlink:href="#id32">August</textPath></text><path d="M 89.65649057296885 118.27599006163327 l -0.847047666867617 1.496652064815254 a22.719725894746496,22.719725894746496 0 0,0 -0.3377747405946179,-0.1950143374077601 l 0.8726148753226346 -1.481890830131322" fill="#ff0801" stroke="none" /><path d="M 86.40962598614128 116.0094264158162 l -3.2029437423375136 3.773059674786109 a25.949224982366037,25.949224982366037 0 0,0 -0.33711814568760123,-0.2911946250041699 l 3.2672413677879777 -3.717520917317217" fill="#ff3705" stroke="none" /><path d="M 85.86807049272751 115.53346607816431 l -3.328517705063826 3.6586240283445326 a25.946166181367477,25.946166181367477 0 0,0 -0.3268849104823906,-0.3025597930341504 l 3.390832386860184 -3.6009464891780048" fill="#ff3705" stroke="none" /><path d="M 83.8745106332314 113.45245675266167 l -3.184572486672942 2.656683631627908 a25.147224353882237,25.147224353882237 0 0,0 -0.2736894339714083,-0.3338566081656381 l 3.2297087398829807 -2.6016247417637746" fill="#ff2b04" stroke="none" /><path d="M 83.20337586046588 112.60449989151573 l -2.8430939106288324 2.133510673954041 a24.55458166041105,24.55458166041105 0 0,0 -0.2501035917678971,-0.3393135560187316 l 2.8792995219805597 -2.08439080866643" fill="#ff2303" stroke="none" /><path d="M 82.78059297857968 112.02048342749411 l -2.814331372658286 1.9646218701046352 a24.43222962046861,24.43222962046861 0 0,0 -0.23712091186362474,-0.3459664968533331 l 2.847642021337236 -1.916020638181251" fill="#ff2103" stroke="none" /><path d="M 82.576782715395 111.72311816256416 l -1.9523566228725033 1.3136326667763278 a23.35315260153183,23.35315260153183 0 0,0 -0.2209381283847251,-0.3345284860361561 l 1.974619190177955 -1.2799243024011107" fill="#ff1202" stroke="none" /><path d="M 82.37810715431573 111.42229804090323 l -4.351719887073893 2.820732254813207 a26.185942192976896,26.185942192976896 0 0,0 -0.24126269249753218,-0.3793050252742076 l 4.399500271197315 -2.7456135548603275" fill="#ff3a05" stroke="none" /><path d="M 82.18462484594161 111.11811171558189 l -1.2984778878569405 0.8103462370320946 a22.53059003300214,22.53059003300214 0 0,0 -0.20195137256822687,-0.32987238985534045 l 1.312197224880572 -0.7879367310521971" fill="#ff0600" stroke="none" /><path d="M 81.99639281039703 110.81064883170644 l -4.582565083670304 2.7516986649546893 a26.34525474498528,26.34525474498528 0 0,0 -0.22948760505648708,-0.3897201241684883 l 4.629126398856561 -2.672627372492642" fill="#ff3c05" stroke="none" /><line stroke="#e1ed5e" stroke-width="0.3" x1="26.387840678322732" x2="22.057713659400548" y1="142.50000000000003" y2="145.00000000000006" /><path d="M 25.521815274538298 143.00000000000003 a86.0,86.0 0 0,1 -11.493303480769221,-40.785679425670985" fill="none" id="id33" stroke="none" /><text fill="#e1ed5e" style="font-size:6.75px; font-family:Arial;" text-anchor="middle"><textPath startOffset="21.40746469413373" xlink:href="#id33">September</textPath></text><path d="M 81.81346652052679 110.50000000000001 l -4.247008239752093 2.4520113504714325 a25.90402270094286,25.90402270094286 0 0,0 -0.21903286397220242,-0.3870100833152138 l 4.288474468745673 -2.378744497057097" fill="#ff3605" stroke="none" /><path d="M 81.4637452351635 109.86951160357371 l -4.51324768022716 2.4030501800344144 a26.113125735872263,26.113125735872263 0 0,0 -0.2072784454291665,-0.39748374979790774 l 4.553834194631276 -2.325220187132004" fill="#ff3905" stroke="none" /><path d="M 81.29705330413844 109.54985784667822 l -2.5426040901926106 1.2982717652237588 a23.85488093199023,23.85488093199023 0 0,0 -0.18309198947342217,-0.3663066274082656 l 2.5645159928777694 -1.2544332816517405" fill="#ff1902" stroke="none" /><path d="M 81.1358732173502 109.22738970284198 l -4.430964626503751 2.167406837291968 a25.932656476957167,25.932656476957167 0 0,0 -0.192174249714989,-0.4015702702165171 l 4.467518134178651 -2.0910240650103464" fill="#ff3705" stroke="none" /><path d="M 80.83023694016515 108.57439118712176 l -3.884434803825314 1.7374582797350338 a25.25530198916472,25.25530198916472 0 0,0 -0.1736195193649932,-0.3972754374422166 l 3.9136882052072752 -1.6705207725169677" fill="#ff2d04" stroke="none" /><path d="M 80.5471966667186 107.91128576633889 l -4.179088881584378 1.6995990664532457 a25.5114765727942,25.5114765727942 0 0,0 -0.16150140472180646,-0.40708904042491884 l 4.20764896127231 -1.6276090088147614" fill="#ff3104" stroke="none" /><path d="M 80.41425534168474 107.57618678355246 l -4.122619537096837 1.5947178009036138 a25.420307309698206,25.420307309698206 0 0,0 -0.15393729037148648,-0.4083369515606593 l 4.149387511282758 -1.5237125691488098" fill="#ff2f04" stroke="none" /><path d="M 80.16572619554312 106.89939002012753 l -5.328929477823643 1.8536782954462503 a26.6421283752345,26.6421283752345 0 0,0 -0.14655020131809923,-0.4332496299327146 l 5.359965100714111 -1.761926991039374" fill="#ff4106" stroke="none" /><path d="M 79.94057633289273 106.21446072829308 l -4.069741770153328 1.2608164035332448 a25.260569924217798,25.260569924217798 0 0,0 -0.12476758434978588,-0.4153107098428349 l 4.090785674506744 -1.1907680900996864" fill="#ff2d04" stroke="none" /><path d="M 79.34024301695615 103.76489593502545 l -8.528025091841302 1.5540902551961184 a29.668472096532952,29.668472096532952 0 0,0 -0.08700658422816834,-0.5018308567280712 l 8.553446493561705 -1.4074663655474544" fill="#ff6b09" stroke="none" /><path d="M 79.17382384314188 102.69636545807758 l -6.07185188893457 0.7861227897323324 a27.12253006539738,27.12253006539738 0 0,0 -0.05581805546600411,-0.46225357182099674 l 6.084452030660236 -0.6817755409879364" fill="#ff4706" stroke="none" /><path d="M 79.03789590574601 101.26102812881392 l -5.786476730324775 0.34810007100703777 a26.79693769243945,26.79693769243945 0 0,0 -0.023681360523949212,-0.45941206763830766 l 5.791599680305297 -0.2487162099919993" fill="#ff4306" stroke="none" /><path d="M 79.01933749520258 100.90099992219065 l -24.799058361993197 1.0649782698448196 a45.82191520323898,45.82191520323898 0 0,0 -0.027002883002093598,-0.7861594758762437 l 24.81368593199214 -0.6391125294044561" fill="#c8ff1d" stroke="none" /><line stroke="#e1ed5e" stroke-width="0.3" x1="15.003131293944662" x2="10.003315487706104" y1="100.72959589197737" y2="100.7725132973878" /><path d="M 14.003168132696942 100.73817937305945 a86.0,86.0 0 0,1 10.791469493833604,-42.45332614584628" fill="none" id="id34" stroke="none" /><text fill="#e1ed5e" style="font-size:6.75px; font-family:Arial;" text-anchor="middle"><textPath startOffset="22.145653131862435" xlink:href="#id34">October</textPath></text><path d="M 79.00077361379809 99.81974689727619 l -14.856983750741803 -0.12752933698301164 a35.857531083649036,35.857531083649036 0 0,0 0.010566989705434338,-0.615474174516041 l 14.852605329437703 0.3825504274681051" fill="#ffbd11" stroke="none" /><path d="M 79.01933749520258 99.09900007780938 l -7.496074953380811 -0.3219137121235724 a28.502983949386824,28.502983949386824 0 0,0 0.025189051325976514,-0.4886608664147667 l 7.489444312598264 0.4505463719150511" fill="#ff5b08" stroke="none" /><path d="M 79.03789590574601 98.7389718711861 l -18.87080437873833 -1.1352207310838007 a39.904919571606015,39.904919571606015 0 0,0 0.0470042685822978,-0.683431749167661 l 18.84853614899097 1.4589959044057865" fill="#fff016" stroke="none" /><path d="M 79.0935383218832 98.0201363427161 l -6.322885997532805 -0.5987838778461397 a27.35117544003981,27.35117544003981 0 0,0 0.0482782207798359,-0.4670479915735686 l 6.311675384271306 0.7072363917026211" fill="#ff4a06" stroke="none" /><path d="M 79.13060592940154 97.66154086499901 l -25.19519419940304 -2.8231740621891706 a46.35287207657252,46.35287207657252 0 0,0 0.0953940203343781,-0.7899993337602091 l 25.143018092808994 3.255267072872816" fill="#c2ff1e" stroke="none" /><path d="M 79.17382384314186 97.30363454192245 l -5.766565600200356 -0.7465973676112524 a26.81469573156998,26.81469573156998 0 0,0 0.06302153672650668,-0.4559924456095904 l 5.752899546918642 0.8454781214209097" fill="#ff4306" stroke="none" /><path d="M 79.2786578344484 96.59031103205396 l -10.280870103698202 -1.691713263233634 a31.419125868042677,31.419125868042677 0 0,0 0.0921406000389462,-0.5314424956130281 l 10.250314686167021 1.8679487917672548" fill="#ff820c" stroke="none" /><path d="M 79.48165901384962 95.52812308129327 l -22.20637133700236 -4.839775277016816 a43.72765611955758,43.72765611955758 0 0,0 0.1661424765658257,-0.7320544070932506 l 22.120017998878872 5.220264018049075" fill="#e0ff1b" stroke="none" /><path d="M 79.56144815229197 95.17655741523228 l -26.23376628524664 -6.1910974124760205 a47.9544092994024,47.9544092994024 0 0,0 0.19595649887769293,-0.7995693857401936 l 26.12362225985265 6.640522622824332" fill="#afff20" stroke="none" /><path d="M 79.73907114497095 94.47779374421319 l -5.167955459428705 -1.4085492413444378 a26.356470348646667,26.356470348646667 0 0,0 0.12272263877534463,-0.43549935070788487 l 5.1430143285787775 1.4970565159553357" fill="#ff3d05" stroke="none" /><path d="M 80.05021161711548 93.44210830539832 l -26.48857881017328 -8.707321984932305 a48.88301030254887,48.88301030254887 0 0,0 0.268890491779651,-0.7949269602372735 l 26.335202896821265 9.160750619643741" fill="#a5ff21" stroke="none" /><path d="M 80.5471966667186 92.08871423366112 l -24.204116054230447 -9.843603286680981 a47.129212763346175,47.129212763346175 0 0,0 0.31121922750560227,-0.7468128506317842 l 24.031570982188363 10.25764864675403" fill="#b9ff1f" stroke="none" /><path d="M 80.83023694016515 91.42560881287825 l -1.4493140997619873 -0.6482597622924153 a22.587687651641946,22.587687651641946 0 0,0 0.16135733574991043,-0.3525948989762784 l 1.4379722991570303 0.6730436434833651" fill="#ff0601" stroke="none" /><path d="M 80.9802524753101 91.09779779509293 l -28.060544965215755 -13.133751903697284 a51.98208551425755,51.98208551425755 0 0,0 0.38521384383430635,-0.8049487774200041 l 27.830951863421543 13.613513183182375" fill="#83ff25" stroke="none" /><path d="M 81.1358732173502 90.77261029715801 l -14.578433845821971 -7.131042528627707 a37.22906346472601,37.22906346472601 0 0,0 0.2857420800138109,-0.5716755710586378 l 14.453871852596416 7.380249955850115" fill="#ffce13" stroke="none" /><path d="M 81.29705330413844 90.45014215332179 l -20.766945924870484 -10.603750559586935 a44.31749491211342,44.31749491211342 0 0,0 0.3517794669092124,-0.674583511659755 l 20.581858388986333 10.958680314351177" fill="#d9ff1c" stroke="none" /><path d="M 81.46374523516351 90.13048839642627 l -1.2959706190688498 -0.6900313588187493 a22.46822447930926,22.46822447930926 0 0,0 0.18419092047615745,-0.33889054782040184 l 1.2839343489773418 0.7121767401137709" fill="#ff0500" stroke="none" /><path d="M 81.63589988554816 89.8137432299009 l -12.172931037459897 -6.752119647545095 a34.92017851097891,34.92017851097891 0 0,0 0.29526945671655364,-0.5217128378452542 l 12.055228215721973 6.960089255489455" fill="#ffb110" stroke="none" /><line stroke="#e1ed5e" stroke-width="0.3" x1="26.387840678322718" x2="22.05771365940052" y1="57.49999999999999" y2="54.99999999999999" /><path d="M 25.521815274538284 56.99999999999999 a86.0,86.0 0 0,1 29.574782752854787,-30.34633250058573" fill="none" id="id35" stroke="none" /><text fill="#e1ed5e" style="font-size:6.75px; font-family:Arial;" text-anchor="middle"><textPath startOffset="21.40746469413373" xlink:href="#id35">November</textPath></text><path d="M 81.81346652052679 89.5 l -1.8548146421233085 -1.0708777329267518 a23.141755465853503,23.141755465853503 0 0,0 0.20158264135488005,-0.3423313951953913 l 1.836158290638649 1.102560296415716" fill="#ff0f01" stroke="none" /><path d="M 81.99639281039701 89.18935116829357 l -15.492143965424157 -9.302587325786556 a39.07054663255411,39.07054663255411 0 0,0 0.35020612011838814,-0.5720353782016957 l 15.330169880850377 9.567159820112794" fill="#ffe515" stroke="none" /><path d="M 82.18462484594161 88.88188828441811 l -19.68591662268557 -12.285467936654117 a44.20491404202749,44.20491404202749 0 0,0 0.4072794671585996,-0.6403109696947389 l 19.472119463901084 12.621592581027528" fill="#dbff1b" stroke="none" /><path d="M 82.37810715431573 88.57770195909679 l -1.1894772323429785 -0.7710047711484994 a22.41749936274979,22.41749936274979 0 0,0 0.2120861554232626,-0.32112547074459113 l 1.1760666379989868 0.7913101202321515" fill="#ff0400" stroke="none" /><path d="M 82.576782715395 88.27688183743585 l -45.526813400023514 -30.63247185266246 a75.87293568021232,75.87293568021232 0 0,0 0.7363658566466131,-1.0743797914076454 l 44.99425780656159 31.40948637914014" fill="#43ffde" stroke="none" /><path d="M 82.78059297857968 87.97951657250589 l -19.087360395422017 -13.324459955117144 a44.27807036590974,44.27807036590974 0 0,0 0.4404295412221909,-0.6195193062315526 l 18.855815755669855 13.650156488058215" fill="#daff1c" stroke="none" /><path d="M 82.98947788004972 87.6856937992154 l -19.897346523355562 -14.404144443300213 a45.5638713523326,45.5638713523326 0 0,0 0.4640961934384114,-0.6296356186539097 l 19.647148310333332 14.743586371222985" fill="#cbff1d" stroke="none" /><path d="M 83.2033758604659 87.39550010848427 l -22.23165557509286 -16.68304880532057 a48.79515474053464,48.79515474053464 0 0,0 0.5085106252217444,-0.6656567318256238 l 21.941992972516807 17.06222645038708" fill="#a6ff21" stroke="none" /><path d="M 83.42222388311158 87.10902102172516 l -3.950068499203641 -3.0715971567564737 a26.00377360017371,26.00377360017371 0 0,0 0.27704367068359964,-0.35003562760604723 l 3.8967583978784797 3.138952728277204" fill="#ff3805" stroke="none" /><path d="M 83.64595745247003 86.82634096563983 l -28.62358319657446 -23.057132466019223 a57.75514756556934,57.75514756556934 0 0,0 0.6285772705453893,-0.7667620648308369 l 28.223559106790443 23.54509681254855" fill="#47ff2c" stroke="none" /><path d="M 83.8745106332314 86.54754324733833 l -4.150448559049631 -3.462451803777455 a26.405071297846025,26.405071297846025 0 0,0 0.29335460403665375,-0.34557098592551827 l 4.090399391505863 3.53318957215253" fill="#ff3d05" stroke="none" /><path d="M 84.10781606972428 86.27271002978789 l -25.533521199235945 -22.055247472610205 a54.74010441462667,54.74010441462667 0 0,0 0.6203590099253598,-0.7058546755623023 l 25.15115112535199 22.490314425983808" fill="#66ff29" stroke="none" /><path d="M 84.34580500576568 86.00192230759919 l -0.99104015043738 -0.8861942135779297 a22.32947386734676,22.32947386734676 0 0,0 0.25796103329570463,-0.28354436371374336 l 0.9756814162998095 0.9030761528493308" fill="#ff0300" stroke="none" /><path d="M 84.58840730492382 85.73525988315684 l -19.28690258753731 -17.851669098287815 a47.28053844608054,47.28053844608054 0 0,0 0.5564337740360348,-0.5909133854093196 l 18.977612979765002 18.180123943641647" fill="#b7ff1f" stroke="none" /><path d="M 85.08716467003674 85.21462403516908 l -1.0591098398722194 -1.0500576734123452 a22.491420386881682,22.491420386881682 0 0,0 0.27418977841881337,-0.2718462901209959 l 1.0409281413234295 1.0680839737620147" fill="#ff0500" stroke="none" /><path d="M 85.34317274990677 84.96080404539775 l -12.10259094136904 -12.418324485913915 a38.340342860842085,38.340342860842085 0 0,0 0.475287911811195,-0.45531506806759586 l 11.887630543692545 12.62425168428708" fill="#ffdc14" stroke="none" /><path d="M 85.60350026404147 84.71141617570332 l -0.9057675023736259 -0.9618936991173442 a22.321232097989526,22.321232097989526 0 0,0 0.2812158800342579,-0.26028922025039336 l 0.8891218510254147 0.9773006655001032" fill="#ff0300" stroke="none" /><path d="M 85.86807049272753 84.46653392183569 l -1.0605422567729503 -1.1657217198518262 a22.57596224781413,22.57596224781413 0 0,0 0.2889024099572594,-0.25833831644444377 l 1.0403748199922989 1.1837555661796708" fill="#ff0601" stroke="none" /><path d="M 86.13680546590413 84.22622945171909 l -15.82022624970607 -18.00051339328832 a44.96451629000346,44.96451629000346 0 0,0 0.5841544155452673,-0.5045786711726388 l 15.508892354397954 18.269436196925668" fill="#d2ff1c" stroke="none" /><path d="M 86.40962598614128 83.9905735841838 l -1.0057690945955384 -1.1847934644631288 a22.554125807352182,22.554125807352182 0 0,0 0.2973124235245876,-0.24802859798697988 l 0.9852823369090418 1.2018842463619908" fill="#ff0601" stroke="none" /><path d="M 86.68645165197937 83.75963576809568 l -17.63639761620696 -21.513537453632583 a48.81860554819027,48.81860554819027 0 0,0 0.6526564714278835,-0.5257338542547748 l 17.26449037442383 21.813119601680757" fill="#a6ff21" stroke="none" /><path d="M 87.25179093698888 83.31218511350988 l -15.58366417300874 -20.399516644808813 a46.670817447034054,46.670817447034054 0 0,0 0.6408281293306752,-0.48088937512254604 l 15.231183054767312 20.66402504719536" fill="#beff1f" stroke="none" /><path d="M 87.54013794807813 83.09580414077388 l -25.585360734656284 -34.71145564736587 a64.12187191068517,64.12187191068517 0 0,0 0.8916573451565778,-0.6454911552396693 l 24.98572237912574 35.14554757397861" fill="#34ff5e" stroke="none" /><path d="M 87.83215693770416 82.88440491214696 l -19.539734359896958 -27.48508340516878 a54.72285617566256,54.72285617566256 0 0,0 0.7703021385960894,-0.5377307174189718 l 19.065037130127102 27.81645893839288" fill="#66ff29" stroke="none" /><path d="M 88.4268655584334 82.4767994020092 l -12.039623535558777 -18.22952454264666 a42.84646653188881,42.84646653188881 0 0,0 0.6172224634721353,-0.4000761437523918 l 11.724915439829616 18.43351452810296" fill="#ebff1a" stroke="none" /><path d="M 88.72937992617638 82.28071324371311 l -1.3675830320727838 -2.1500676759223687 a23.548151165190088,23.548151165190088 0 0,0 0.342946158428466,-0.21402376704757434 l 1.3304727448546192 2.173227239811479" fill="#ff1402" stroke="none" /><path d="M 89.03521579738668 82.08984904055464 l -19.365631931925606 -31.632304377059935 a58.089491508050926,58.089491508050926 0 0,0 0.8549313815892206,-0.5133617304705534 l 18.81976779377895 31.960080108066414" fill="#44ff2d" stroke="none" /><line stroke="#e1ed5e" stroke-width="0.3" x1="56.869717070023135" x2="54.33264160355391" y1="26.7553504044142" y2="22.446841604673864" /><path d="M 56.362301976729285 25.89364864446614 a86.0,86.0 0 0,1 42.16139366436587,-11.88097634709845" fill="none" id="id36" stroke="none" /><text fill="#e1ed5e" style="font-size:6.75px; font-family:Arial;" text-anchor="middle"><textPath startOffset="22.145653131862474" xlink:href="#id36">December</textPath></text><path d="M 89.34428304082924 81.90426304109057 l -20.98612907121036 -35.63903516895765 a62.35889796848679,62.35889796848679 0 0,0 0.9270913162707807,-0.5352564210122968 l 20.37124528707918 35.994038487246115" fill="#32ff4a" stroke="none" /><path d="M 89.65649057296885 81.72400993836675 l -2.4480263475010515 -4.325427990680249 a25.97012678918954,25.97012678918954 0 0,0 0.3898682573626141,-0.21625335035510126 l 2.373413901982335 4.366814256468497" fill="#ff3705" stroke="none" /><path d="M 89.97174638481275 81.54914285379989 l -14.261135906570631 -26.23888380287701 a50.86400878258911,50.86400878258911 0 0,0 0.7707379270738285,-0.41037453418042313 l 13.80860916371024 26.47982880478001" fill="#8fff24" stroke="none" /><path d="M 90.28995756902619 81.37971332152246 l -29.130127292921458 -55.86086003543261 a84.0,84.0 0 0,0 1.2842911131456707,-0.6557681933086643 l 28.166908958062205 56.35268618041411" fill="#4dd2ff" stroke="none" /></svg>