<?xml version="1.0" encoding="utf-8" ?>
<svg baseProfile="full" height="200mm" version="1.1" viewBox="0,0,200,200" width="200mm" xmlns="http://www.w3.org/2000/svg" xmlns:ev="http://www.w3.org/2001/xml-events" xmlns:xlink="http://www.w3.org/1999/xlink"><defs /><rect fill="#1a1a1a" height="200" width="200" x="0" y="0" /><text alignment-baseline="middle" fill="#e1ed5e" style="dominant-baseline: central; font-size:9.0px; font-family:Arial;" text-anchor="middle" x="100.0" y="100.0">2022</text><line stroke="#e1ed5e" stroke-width="0.3" x1="100.0" x2="100.0" y1="15.0" y2="10.0" /><path d="M 100.0 14.0 a86.0,86.0 0 0,1 42.46469731375804,11.215312516191453" fill="none" id="id1" stroke="none" /><text fill="#e1ed5e" style="font-size:6.75px; font-family:Arial;" text-anchor="middle"><textPath startOffset="22.20632615414155" xlink:href="#id1">January</textPath></text><line stroke="#e1ed5e" stroke-width="0.3" x1="143.23703022742887" x2="145.7803849466894" y1="26.81831364943548" y2="22.513508569990506" /><path d="M 143.74570117128098 25.957352633546492 a86.0,86.0 0 0,1 28.547481713284135,27.462654790039103" fill="none" id="id2" stroke="none" /><text fill="#e1ed5e" style="font-size:6.75px; font-family:Arial;" text-anchor="middle"><textPath startOffset="19.985693538727396" xlink:href="#id2">February</textPath></text><line stroke="#e1ed5e" stroke-width="0.3" x1="172.23445277983987" x2="176.4835382374775" y1="55.19839476539836" y2="52.563006222186495" /><path d="M 173.08426987136738 54.67131705675599 a86.0,86.0 0 0,1 12.851231095245387,41.99856678651699" fill="none" id="id3" stroke="none" /><text fill="#e1ed5e" style="font-size:6.75px; font-family:Arial;" text-anchor="middle"><textPath startOffset="22.20632615414155" xlink:href="#id3">March</textPath></text><line stroke="#e1ed5e" stroke-width="0.3" x1="184.98032266829074" x2="189.97916517819016" y1="98.17113171792111" y2="98.06355123074" /><path d="M 185.9800911702706 98.14961562048488 a86.0,86.0 0 0,1 -9.607161424134198,41.387399972396054" fill="none" id="id4" stroke="none" /><text fill="#e1ed5e" style="font-size:6.75px; font-family:Arial;" text-anchor="middle"><textPath startOffset="21.466115282336823" xlink:href="#id4">April</textPath></text><line stroke="#e1ed5e" stroke-width="0.3" x1="174.80103733775053" x2="179.2010983576182" y1="140.37084112569926" y2="142.7455964860345" /><path d="M 175.68104954172406 140.8457921977663 a86.0,86.0 0 0,1 -30.038265399797805,32.042727171017184" fill="none" id="id5" stroke="none" /><text fill="#e1ed5e" style="font-size:6.75px; font-family:Arial;" text-anchor="middle"><textPath startOffset="22.206326154141568" xlink:href="#id5">May</textPath></text><path d="M 111.1453310114006 117.79835938074945 l 11.57744082401076 18.488410284479176 a42.814180041447955,42.814180041447955 0 0,0 -0.6279837138385228,0.3857588879584867 l -11.257477910239928 -18.68495763926604" fill="#ff9a0e" stroke="none" /><line stroke="#e1ed5e" stroke-width="0.3" x1="143.8653032363475" x2="146.44561519142675" y1="172.8068346515853" y2="177.08958963109032" /><path d="M 144.38136562736335 173.6633856474863 a86.0,86.0 0 0,1 -40.68145358897372,12.25698825130547" fill="none" id="id6" stroke="none" /><text fill="#e1ed5e" style="font-size:6.75px; font-family:Arial;" text-anchor="middle"><textPath startOffset="21.466115282336833" xlink:href="#id6">June</textPath></text><path d="M 110.5260780823613 118.17145234162733 l 14.104565667987437 24.349091924814168 a49.13924395298531,49.13924395298531 0 0,0 -0.7355705680562354,0.4176761657549202 l -13.683346333010004 -24.588271256363715" fill="#fffd17" stroke="none" /><path d="M 110.21172684928248 118.3499491758327 l 14.677841582464387 26.37532819124219 a51.18438289439848,51.18438289439848 0 0,0 -0.7735597866315537,0.42180647351347395 l -14.221658983964184 -26.624075316515434" fill="#e3ff1b" stroke="none" /><path d="M 106.91757812671514 119.82793768551818 l 12.569614179754373 36.02843684911498 a59.15813756485697,59.15813756485697 0 0,0 -0.9643629062625596,0.32716425702154445 l -11.947581540554587 -36.239464093034655" fill="#75ff27" stroke="none" /><path d="M 106.57524785965236 119.94407469862006 l 9.967457886630505 30.23334312097227 a52.8340266537583,52.8340266537583 0 0,0 -0.8661727442754911,0.2773211598832841 l -9.445563797264073 -30.400437127515257" fill="#cbff1d" stroke="none" /><path d="M 105.88484417918355 120.15858648285463 l 5.2044644302689145 17.827939554564768 a39.57207254904927,39.57207254904927 0 0,0 -0.6555186025389317,0.18525610487584288 l -4.8968146596253765 -17.914884452779127" fill="#ff6409" stroke="none" /><line stroke="#e1ed5e" stroke-width="0.3" x1="102.19456741930631" x2="102.32365962044197" y1="184.97166512339345" y2="189.96999836594603" /><path d="M 102.22038585953345 185.97133177190398 a86.0,86.0 0 0,1 -42.740103519485714,-10.115201625700543" fill="none" id="id7" stroke="none" /><text fill="#e1ed5e" style="font-size:6.75px; font-family:Arial;" text-anchor="middle"><textPath startOffset="22.20632615414155" xlink:href="#id7">July</textPath></text><path d="M 100.54218724476979 120.99299961872073 l 0.9495801808008543 36.76688554700514 a57.779145930083054,57.779145930083054 0 0,0 -0.9944624963193339,0.01712057373050912 l -0.3165579945888524 -36.77778359801481" fill="#87ff25" stroke="none" /><path d="M 99.45781275523022 120.99299961872073 l -0.7284059718712651 28.20322026620216 a49.212624986763885,49.212624986763885 0 0,0 -0.8466438023040824,-0.02916012441387413 l 1.2137701258499907 -28.18650334336219" fill="#fffe18" stroke="none" /><path d="M 98.73552117531835 120.96189622390904 l -1.2959439897413443 21.483509960553118 a42.52256190721104,42.52256190721104 0 0,0 -0.7302485395630297,-0.05036221476386139 l 1.6655552900833042 -21.458019401272974" fill="#ff950d" stroke="none" /><path d="M 98.37488393609728 120.93702456842531 l -1.4284511341491106 18.403311095609997 a39.458665496846024,39.458665496846024 0 0,0 -0.6767267901440414,-0.05839083497145693 l 1.7450222420346937 -18.375996008359873" fill="#ff6209" stroke="none" /><path d="M 97.65516085044442 120.86867818915974 l -2.4274496201459126 21.603897628894604 a42.739846007230696,42.739846007230696 0 0,0 -0.7303885083334127,-0.08843987669543957 l 2.798965551530715 -21.55891222347382" fill="#ff980e" stroke="none" /><path d="M 97.2962882734958 120.8252237178851 l -2.588417380110993 19.937173955216718 a41.10449725445112,41.10449725445112 0 0,0 -0.700873582878969,-0.09713469221238882 l 2.9312195541767934 -19.889664697511726" fill="#ff7d0b" stroke="none" /><line stroke="#e1ed5e" stroke-width="0.3" x1="58.666819895761336" x2="56.23545636021788" y1="174.27360380694188" y2="178.64263932499728" /><path d="M 58.180547188652646 175.14741091055294 a86.0,86.0 0 0,1 -31.652253787137756,-30.449443065178592" fill="none" id="id8" stroke="none" /><text fill="#e1ed5e" style="font-size:6.75px; font-family:Arial;" text-anchor="middle"><textPath startOffset="22.20632615414155" xlink:href="#id8">August</textPath></text><path d="M 88.24862548938628 117.40417183066458 l -7.212197901048596 10.681502102859355 a33.8883779327454,33.8883779327454 0 0,0 -0.4806390504078946,-0.33058792157139755 l 7.394993836079381 -10.555773391922855" fill="#ff0000" stroke="none" /><path d="M 87.95078237400918 117.19931262002967 l -12.749857385083027 18.199420894666158 a43.22111122876548,43.22111122876548 0 0,0 -0.6056567568871093,-0.4321200148546933 l 13.061241469819024 -17.977256617967246" fill="#ffa00e" stroke="none" /><path d="M 85.97065885151581 115.62618273729859 l -18.52313603887633 20.63146840239151 a48.72659476303569,48.72659476303569 0 0,0 -0.6192928616762013,-0.5657093458491794 l 18.875528450019385 -20.30956628995575" fill="#fff617" stroke="none" /><path d="M 84.19399662182784 113.82643327865904 l -24.333407593800022 21.285851235658665 a53.32958688187333,53.32958688187333 0 0,0 -0.5984531719147327,-0.6961362407893484 l 24.696203275285534 -20.863837895707785" fill="#c4ff1e" stroke="none" /><path d="M 83.28015986056508 112.70617746262583 l -41.98992330538348 31.91007884709851 a73.73904427670291,73.73904427670291 0 0,0 -0.7592970252147274,-1.0172024478216053 l 42.532981597293286 -31.182563519767598" fill="#3dffaf" stroke="none" /><path d="M 82.85270091963577 112.12312394758628 l -25.217089294550494 17.828457862804893 a51.88293221595292,51.88293221595292 0 0,0 -0.509290503845954,-0.7336709554707697 l 25.52024070555858 -17.39174564514711" fill="#d9ff1c" stroke="none" /><path d="M 82.6465618267979 111.8261652097733 l -33.782070158191274 23.022085815585868 a61.88085981817356,61.88085981817356 0 0,0 -0.5922790789508,-0.8853768615507359 l 34.17335234255281 -22.437172039829314" fill="#52ff2b" stroke="none" /><path d="M 82.44556493220864 111.52570212397912 l -21.618347728742236 14.193942178820153 a46.86157290453356,46.86157290453356 0 0,0 -0.436917527105223,-0.6781057047330509 l 21.859470119224504 -13.819714874165655" fill="#ffda14" stroke="none" /><line stroke="#e1ed5e" stroke-width="0.3" x1="26.63291911575756" x2="22.317208475507996" y1="142.92168965132927" y2="145.44649492493687" /><path d="M 25.769776987707644 143.4266507060508 a86.0,86.0 0 0,1 -11.730757126820373,-40.83630448921669" fill="none" id="id9" stroke="none" /><text fill="#e1ed5e" style="font-size:6.75px; font-family:Arial;" text-anchor="middle"><textPath startOffset="21.46611528233685" xlink:href="#id9">September</textPath></text><path d="M 81.87401531095188 110.60418214915194 l -41.69796311391658 24.39441518317924 a69.30949823770553,69.30949823770553 0 0,0 -0.5935797574157937,-1.0349563400411002 l 42.11169486748475 -23.673038997279836" fill="#36ff72" stroke="none" /><path d="M 81.69416730710424 110.29060199501025 l -22.31192102799072 12.542619770159828 a46.595685782141075,46.595685782141075 0 0,0 -0.3870184199138079,-0.7025508492427276 l 22.524515857356047 -12.156698402519277" fill="#ffd614" stroke="none" /><path d="M 81.51974371655577 109.97397251340807 l -36.451171242241536 19.673048602542924 a62.42121106690668,62.42121106690668 0 0,0 -0.5021860496818508,-0.9499467522439574 l 36.78440980014827 -19.042686835212837" fill="#4bff2c" stroke="none" /><line stroke="#e1ed5e" stroke-width="0.3" x1="15.007084014347285" x2="10.007500721073583" y1="101.09737516637583" y2="101.16192664675087" /><path d="M 14.007167355692545 101.11028546245083 a86.0,86.0 0 0,1 10.666146001902534,-42.60595125391555" fill="none" id="id10" stroke="none" /><text fill="#e1ed5e" style="font-size:6.75px; font-family:Arial;" text-anchor="middle"><textPath startOffset="22.20632615414155" xlink:href="#id10">October</textPath></text><path d="M 79.05617556472873 98.46500227214037 l -45.4657805838551 -3.3322409719043407 a66.58772898482763,66.58772898482763 0 0,0 0.0936208128364034,-1.1424110494273154 l 45.4016852871992 4.114365938539434" fill="#32ff4b" stroke="none" /><path d="M 79.12142395522702 97.74499172005258 l -47.812245497662936 -5.164002049225055 a69.0903081368085,69.0903081368085 0 0,0 0.13788335356604348,-1.1813003694088497 l 47.716271791093305 5.986246156958767" fill="#36ff6f" stroke="none" /><path d="M 81.10775173730289 90.83032412892265 l -56.676744788091334 -27.50902761323202 a84.0,84.0 0 0,0 0.6425599481863489,-1.295361646004154 l 56.19482482695157 28.480548847735136" fill="#4dd2ff" stroke="none" /><path d="M 81.6062741919709 89.86733742301443 l -35.94243149293987 -19.79982382663356 a62.035245889240166,62.035245889240166 0 0,0 0.5232890371344785,-0.9308728069023783 l 35.59628481451296 20.415580143470724" fill="#50ff2b" stroke="none" /><line stroke="#e1ed5e" stroke-width="0.3" x1="26.266209847984243" x2="21.928928074336255" y1="57.711370442889674" y2="55.22380399835377" /><path d="M 25.398753493254645 57.213857153982495 a86.0,86.0 0 0,1 29.58750427330803,-30.492523968695096" fill="none" id="id11" stroke="none" /><text fill="#e1ed5e" style="font-size:6.75px; font-family:Arial;" text-anchor="middle"><textPath startOffset="21.46611528233685" xlink:href="#id11">November</textPath></text><path d="M 81.78341655067845 89.55222093294921 l -50.03188075104251 -28.694844884065862 a78.67653954951821,78.67653954951821 0 0,0 0.6838876733770194,-1.1689857192477593 l 49.530533403195165 29.551810015667513" fill="#45ffee" stroke="none" /><path d="M 83.39014120810768 87.1503855733568 l -32.40916190189553 -25.072171867787898 a61.97520686160317,61.97520686160317 0 0,0 0.6600239104258131,-0.8381633397632652 l 31.972783910875748 25.62632760150421" fill="#51ff2b" stroke="none" /><path d="M 83.6137871275137 86.86637796730984 l -32.45539477602967 -26.01314234272144 a62.59370414630826,62.59370414630826 0 0,0 0.6810836087597905,-0.8349279721071031 l 32.00281267519349 26.567954484436626" fill="#49ff2c" stroke="none" /><path d="M 83.84228863543731 86.58626213691792 l -37.214039383467046 -30.8941877876991 a69.36667826402649,69.36667826402649 0 0,0 0.7705957055547988,-0.9121422569794024 l 36.67673306442513 31.53018899430762" fill="#37ff73" stroke="none" /><line stroke="#e1ed5e" stroke-width="0.3" x1="56.762969772571076" x2="54.21961505331055" y1="26.818313649435495" y2="22.513508569990535" /><path d="M 56.25429882871897 25.957352633546506 a86.0,86.0 0 0,1 42.265352541879196,-11.944610805530505" fill="none" id="id12" stroke="none" /><text fill="#e1ed5e" style="font-size:6.75px; font-family:Arial;" text-anchor="middle"><textPath startOffset="22.20632615414155" xlink:href="#id12">December</textPath></text><path d="M 96.04723909329186 79.375362276772 l -5.85532643366514 -30.55180652101632 a52.10784031948205,52.10784031948205 0 0,0 0.8823715355428186,-0.1612477581435353 l 5.328559777019428 30.648069760510595" fill="#d6ff1c" stroke="none" /><path d="M 98.19473922651362 79.07773832637324 l -2.749713612838136 -31.868098271602495 a52.98650672394754,52.98650672394754 0 0,0 0.9093741359394923,-0.07058493491198656 l 2.2007492875363095 31.910708468702943" fill="#c9ff1d" stroke="none" /><path d="M 98.91598698831166 79.02799685794201 l -2.287795957534505 -44.261151381451995 a65.32023840137958,65.32023840137958 0 0,0 1.1233810918653884,-0.04837515291062869 l 1.5255740332797925 44.29397426088682" fill="#30ff39" stroke="none" /><path d="M 99.27714615592234 79.0124445844662 l -0.9671219552134098 -28.079709051723757 a49.09635893324459,49.09635893324459 0 0,0 0.8448626870184075,-0.021820310617966177 l 0.4836326330001233 28.092196154484085" fill="#fffc17" stroke="none" /></svg>