<?xml version="1.0" encoding="utf-8" ?>
<svg baseProfile="full" height="200mm" version="1.1" viewBox="0,0,200,200" width="200mm" xmlns="http://www.w3.org/2000/svg" xmlns:ev="http://www.w3.org/2001/xml-events" xmlns:xlink="http://www.w3.org/1999/xlink"><defs /><rect fill="#1a1a1a" height="200" width="200" x="0" y="0" /><text alignment-baseline="middle" fill="#e1ed5e" style="dominant-baseline: central; font-size:9.0px; font-family:Arial;" text-anchor="middle" x="100.0" y="100.0">2025</text><line stroke="#e1ed5e" stroke-width="0.3" x1="100.0" x2="100.0" y1="15.0" y2="10.0" /><path d="M 100.0 14.0 a86.0,86.0 0 0,1 42.46469731375804,11.215312516191453" fill="none" id="id37" stroke="none" /><text fill="#e1ed5e" style="font-size:6.75px; font-family:Arial;" text-anchor="middle"><textPath startOffset="22.20632615414155" xlink:href="#id37">January</textPath></text><path d="M 100.0 79.0 l 0.0 -10.619050997468086 a31.619050997468086,31.619050997468086 0 0,0 0.5442699861289181,0.004684703602778675 l -0.18278950685638973 10.617477670473866" fill="#ff7c0b" stroke="none" /><path d="M 100.36148047927253 79.00311137660856 l 1.084441437817585 -62.990665870174325 a84.0,84.0 0 0,0 1.4454934592205289,0.03733283143056143 l -2.1685615322329816 62.9626662466014" fill="#4dd2ff" stroke="none" /><path d="M 100.72285384407766 79.0124445844662 l 0.5771682852116665 -16.75767718358714 a37.7676136590384,37.7676136590384 0 0,0 0.6495295196066487,0.027970107435901066 l -0.8655386372076468 16.745259349627045" fill="#ffcd13" stroke="none" /><path d="M 101.08401301168833 79.027996857942 l 0.5463205239532998 -10.569463301067431 a31.5835731483986,31.5835731483986 0 0,0 0.5426929440567809,0.03273672041565017 l -0.7281755168496926 10.558493311271477" fill="#ff7b0b" stroke="none" /><path d="M 101.44485096284872 79.0497635885617 l 4.278939314719287 -62.04431636105924 a83.19169168281447,83.19169168281447 0 0,0 1.427766754572841,0.11082217918689673 l -5.346296258654469 61.96146891968388" fill="#4cd9ff" stroke="none" /><path d="M 101.80526077348638 79.07773832637324 l 3.7980670733849813 -44.018102165862004 a65.18165492348828,65.18165492348828 0 0,0 1.1170114181732336,0.10607369355284596 l -4.555203618648459 43.94620292779398" fill="#35ff68" stroke="none" /><path d="M 102.16513564639614 79.11191278185805 l 0.37312710078966344 -3.599733549128848 a24.619019958230055,24.619019958230055 0 0,0 0.4211415093311833,0.04732015557629547 l -0.43503531363057196 3.592777440081951" fill="#ff1902" stroke="none" /><path d="M 102.52436894288641 79.15227682838746 l 1.0117971067036626 -8.35601548887605 a29.417049853450457,29.417049853450457 0 0,0 0.5021704334863054,0.06519613465446529 l -1.1554822686978141 8.337361031057448" fill="#ff5d08" stroke="none" /><path d="M 102.88285421437855 79.19881850522331 l 7.390591986820838 -53.3266803797922 a74.83637887380776,74.83637887380776 0 0,0 1.2744671656032036,0.18782333105091445 l -8.307428132852698 53.191562564580316" fill="#41ffd2" stroke="none" /><path d="M 103.59715602781102 79.31037775812273 l 0.4636071076588943 -2.666510946968504 a23.706512918974287,23.706512918974287 0 0,0 0.40143579312496985,0.07335982528057346 l -0.509438021886765 2.6581356403371923" fill="#ff0b01" stroke="none" /><path d="M 103.95276090670814 79.375362276772 l 1.5268154865589096 -7.966587664599375 a29.111577192367896,29.111577192367896 0 0,0 0.49133908716028074,0.09855799860620611 l -1.6637209831863158 7.9391257099159604" fill="#ff5908" stroke="none" /><path d="M 104.307194497241 79.44645832069477 l 12.086600336163752 -57.67616111359134 a79.92898665756182,79.92898665756182 0 0,0 1.344166818531121,0.2937828038494778 l -13.077609878848401 57.45956481164599" fill="#48f8ff" stroke="none" /><path d="M 104.66035177308747 79.52364482259891 l 1.5269858397610547 -6.709172596448663 a27.880747247484713,27.880747247484713 0 0,0 0.46703745102142585,0.11053267528192033 l -1.642246977745004 6.681894009025873" fill="#ff4806" stroke="none" /><path d="M 105.01212808612495 79.60689891045804 l 2.2827839723938723 -9.288079537210342 a30.56449288536323,30.56449288536323 0 0,0 0.5098319133139301,0.12996750658480435 l -2.4423247743928274 9.24740903445667" fill="#ff6d0a" stroke="none" /><path d="M 105.36241919743992 79.69619591428918 l 0.6417897072028814 -2.4300174976051934 a23.513340221088058,23.513340221088058 0 0,0 0.3904357793568773,0.10672084729524497 l -0.6835233757834696 2.4186101094836547" fill="#ff0801" stroke="none" /><path d="M 106.0581310904928 79.89281104454417 l 0.8652381523637598 -2.87176139987298 a23.99927501208313,23.99927501208313 0 0,0 0.39451908469091673,0.12257900003396814 l -0.9145426097653947 2.8564422649564913" fill="#ff1001" stroke="none" /><path d="M 106.40334571778207 80.00007090966166 l 5.027066914657422 -15.701320256117427 a37.48644472133415,37.48644472133415 0 0,0 0.6128447812330509,0.20204528898903937 l -5.29659451813289 15.61246124286915" fill="#ffca12" stroke="none" /><path d="M 106.74666289553966 80.11325718540242 l 14.583326438160663 -42.98641665478156 a66.39279047184075,66.39279047184075 0 0,0 1.0790978184997937,0.37647604023348524 l -15.32110626072373 42.729019761375866" fill="#37ff76" stroke="none" /><path d="M 107.08798089147638 80.2323363322302 l 1.0606937851286158 -2.958167963478916 a24.14258317407248,24.14258317407248 0 0,0 0.389980519721476,0.1436331165944107 l -1.1114566306226683 2.939471579078181" fill="#ff1202" stroke="none" /><path d="M 107.4271985657038 80.35727306442388 l 1.6801031160263544 -4.443372078956795 a25.750400184461757,25.750400184461757 0 0,0 0.41325325572187105,0.16033584294555162 l -1.7563395367478924 4.413793532120696" fill="#ff2904" stroke="none" /><path d="M 107.76421540070413 80.48803036053334 l 22.54977809755144 -56.66903388283525 a81.99075252415517,81.99075252415517 0 0,0 1.3068394006867319,0.5330926043233145 l -23.52190136782656 56.272480392328355" fill="#4ae5ff" stroke="none" /><path d="M 108.43124777332544 80.76684994638697 l 3.3158075190859364 -7.563936593732056 a29.258796298349157,29.258796298349157 0 0,0 0.4595273433968348,0.20617652408161177 l -3.4455169809495514 7.505739739133913" fill="#ff5b08" stroke="none" /><path d="M 108.76106565485865 80.91482961587045 l 0.9794386655357874 -2.133616451348985 a23.347683807716354,23.347683807716354 0 0,0 0.3638033741701123,0.1708105622435345 l -1.0160202510054976 2.1164409064654475" fill="#ff0601" stroke="none" /><path d="M 109.08828744355905 81.06846463323043 l 6.309505102299611 -13.14313832312295 a35.57916114242133,35.57916114242133 0 0,0 0.5498314326848415,0.2697998961267568 l -6.5348078019948845 13.03258326686136" fill="#ffb110" stroke="none" /><path d="M 109.41281617654863 81.2277094730956 l 1.7350942097423427 -3.4603557517656576 a24.870996492566103,24.870996492566103 0 0,0 0.38104677546190424,0.19518695832864172 l -1.7944014727930027 3.4299762681245154" fill="#ff1c02" stroke="none" /><path d="M 110.05341064243156 81.56283822128135 l 3.3486107600956507 -6.141087886857583 a27.99472332953472,27.99472332953472 0 0,0 0.4210885110901491,0.23433530051881035 l -3.453823360257835 6.082537188778592" fill="#ff4906" stroke="none" /><path d="M 110.36928655335952 81.73862282372117 l 1.1167440362892853 -1.966700789981687 a23.261643039894288,23.261643039894288 0 0,0 0.3464913310049565,0.20071014338597787 l -1.1504320997595703 1.9471864892056596" fill="#ff0500" stroke="none" /><line stroke="#e1ed5e" stroke-width="0.3" x1="143.23703022742887" x2="145.7803849466894" y1="26.81831364943548" y2="22.513508569990506" /><path d="M 143.74570117128098 25.957352633546492 a86.0,86.0 0 0,1 28.547481713284135,27.462654790039103" fill="none" id="id38" stroke="none" /><text fill="#e1ed5e" style="font-size:6.75px; font-family:Arial;" text-anchor="middle"><textPath startOffset="19.985693538727396" xlink:href="#id38">February</textPath></text><path d="M 110.68208982089419 81.91981866633111 l 2.9405931166532313 -4.977158746000734 a26.780933926330587,26.780933926330587 0 0,0 0.39487585931957025,0.23790828694389468 l -3.0258310421904393 4.925803849598225" fill="#ff3805" stroke="none" /><path d="M 110.99172775467656 82.1063720568725 l 1.9770108012688186 -3.2184108364945208 a24.777133836760214,24.777133836760214 0 0,0 0.36148758412821297,0.22636349201815226 l -2.032117537769295 3.183903003153424" fill="#ff1b02" stroke="none" /><path d="M 111.2981086023043 82.29822771554956 l 11.209335279894034 -17.562683062213722 a41.834995410626945,41.834995410626945 0 0,0 0.6036849088372988,0.3926534572959895 l -11.509987214515615 17.367130680758205" fill="#fdff18" stroke="none" /><path d="M 111.60114157652 82.49532879139004 l 4.884834684862005 -7.370604392931898 a29.842365012570895,29.842365012570895 0 0,0 0.42574440312250955,0.28746452147038287 l -5.010983782391056 7.285427959162845" fill="#ff6309" stroke="none" /><path d="M 111.90073688211348 82.69761687909136 l 6.224508446211819 -9.049761451121356 a31.983746524713887,31.983746524713887 0 0,0 0.4509233993055907,0.3159006578296171 l -6.379362985101061 8.941275950527803" fill="#ff810b" stroke="none" /><path d="M 112.19680574252982 82.90503203632743 l 1.300907522274254 -1.8233439874698134 a23.239853494796492,23.239853494796492 0 0,0 0.3236478096097622,0.23514389777727293 l -1.332100648237805 1.8006808548758657" fill="#ff0400" stroke="none" /><path d="M 112.48926042617603 83.11751280151076 l 6.459890677863121 -8.732224163096896 a31.861948554680055,31.861948554680055 0 0,0 0.43810762828173316,0.32997358269814553 l -6.609244459903237 8.619733990892904" fill="#ff7f0b" stroke="none" /><path d="M 112.77801427241765 83.33499621200491 l 2.4876562121953025 -3.244385185024564 a25.0883332372595,25.0883332372595 0 0,0 0.34044562942526563,0.2657232138255135 l -2.5431343967799984 3.2010835819758263" fill="#ff2003" stroke="none" /><path d="M 113.34407831869373 83.78471172551755 l 1.3804953474551966 -1.6775328715815827 a23.17252938750715,23.17252938750715 0 0,0 0.30581389854004604,0.25611034529038657 l -1.4091667829543602 1.6535213688973769" fill="#ff0300" stroke="none" /><path d="M 113.6212207817346 84.01681056812373 l 1.576048949226826 -1.8493415027220501 a23.42981363154651,23.42981363154651 0 0,0 0.3047060666345681,0.2642380983620568 l -1.6076488145081582 1.821938410940322" fill="#ff0701" stroke="none" /><path d="M 113.89432698308785 84.25364557470407 l 7.797595790580613 -8.836966852236182 a32.78535036648472,32.78535036648472 0 0,0 0.41994757220953194,0.37703307673104464 l -7.948554350386135 8.70143476673584" fill="#ff8c0c" stroke="none" /><path d="M 114.16331599549186 84.49514656593476 l 6.860121656677479 -7.50990663913005 a31.171527263536433,31.171527263536433 0 0,0 0.3930464128313543,0.3652938049812203 l -6.98837595330368 7.390708248074189" fill="#ff760a" stroke="none" /><path d="M 114.42810811169701 84.74124197986012 l 1.5024307753827482 -1.5889281856011863 a23.186776397763403,23.186776397763403 0 0,0 0.2876449418204504,0.2767142061304846 l -1.5295589608156168 1.5628308927083998" fill="#ff0400" stroke="none" /><path d="M 114.68862486808459 84.99185889309783 l 2.9326967862648927 -2.9964906577236023 a25.19281131247201,25.19281131247201 0 0,0 0.3073093500664294,0.3059896660546543 l -2.983841936498645 2.9455651410188293" fill="#ff2103" stroke="none" /><path d="M 114.94478906791727 85.2469230424477 l 11.83725821200417 -11.68540958152533 a37.63338447417314,37.63338447417314 0 0,0 0.4511270357119028,0.4649260654870927 l -12.036649511419181 11.479919320488122" fill="#ffcc13" stroke="none" /><path d="M 115.19652480421416 85.50635884689758 l 3.35370559506981 -3.1985869173598336 a25.634468630415792,25.634468630415792 0 0,0 0.3017942061600884,0.32193301713908423 l -3.4082671232003614 3.1403844833426944" fill="#ff2803" stroke="none" /><path d="M 115.4437574822437 85.77008943001954 l 2.7035015797320763 -2.4910120318594444 a24.676147675826197,24.676147675826197 0 0,0 0.2851344837446218,0.31485261860298214 l -2.7459797040927336 2.444106625986913" fill="#ff1a02" stroke="none" /><path d="M 115.68641384162765 86.03803664274999 l 8.924355787426428 -7.943276885915753 a32.94737518900679,32.94737518900679 0 0,0 0.3734163508922356,0.42687944061303384 l -9.059764001896513 7.788481889099772" fill="#ff8e0d" stroke="none" /><path d="M 115.9244219780498 86.31012108654704 l 4.258521224516591 -3.660957992344105 a26.61583621924344,26.61583621924344 0 0,0 0.2956758144340318,0.34998690333721677 l -4.32090765243774 3.5871121393777816" fill="#ff3605" stroke="none" /><path d="M 116.15771136456269 86.58626213691792 l 8.936066042386658 -7.418504063802976 a32.61410689026742,32.61410689026742 0 0,0 0.354874885905109,0.4350346492408294 l -9.062439420368175 7.2635852449540455" fill="#ff890c" stroke="none" /><path d="M 116.38621287248628 86.86637796730983 l 4.838023882984287 -3.8776975228323534 a27.200242992892015,27.200242992892015 0 0,0 0.2896773024863296,0.36786075696699544 l -4.904055266064581 3.7938443719123196" fill="#ff3e05" stroke="none" /><path d="M 116.82858285166822 87.43820079747576 l 14.243154779102127 -10.631890511673017 a38.77370400095778,38.77370400095778 0 0,0 0.39463762839688893,0.5382852816306695 l -14.424055020012643 10.385142786370855" fill="#ffda14" stroke="none" /><path d="M 117.04232023915458 87.72973835380427 l 7.059737763765591 -5.082924642849558 a29.699196527152683,29.699196527152683 0 0,0 0.29513559605624345,0.41744837029778625 l -7.146185979625717 4.960649772219979" fill="#ff6109" stroke="none" /><path d="M 117.2510076193507 88.02491185347247 l 6.89260830722205 -4.784624403381871 a29.39051130493391,29.39051130493391 0 0,0 0.2849137639605263,0.41807579210015827 l -6.973946536851309 4.665270588011307" fill="#ff5d08" stroke="none" /><path d="M 117.65298651832404 88.62581576622439 l 12.725522225263799 -8.199317102004922 a36.13828645669361,36.13828645669361 0 0,0 0.33242474582817766,0.5258161159247894 l -12.864774567337932 7.979053338365926" fill="#ffb811" stroke="none" /><line stroke="#e1ed5e" stroke-width="0.3" x1="172.23445277983987" x2="176.4835382374775" y1="55.19839476539836" y2="52.563006222186495" /><path d="M 173.08426987136738 54.67131705675599 a86.0,86.0 0 0,1 12.851231095245387,41.99856678651699" fill="none" id="id39" stroke="none" /><text fill="#e1ed5e" style="font-size:6.75px; font-family:Arial;" text-anchor="middle"><textPath startOffset="22.20632615414155" xlink:href="#id39">March</textPath></text><path d="M 117.84615892207809 88.93136811851018 l 10.319144287389141 -6.400190088399641 a33.14278271203125,33.14278271203125 0 0,0 0.2965240605915776,0.48740758986049787 l -10.427784146266944 6.221614725332062" fill="#ff900d" stroke="none" /><path d="M 118.21658344932153 89.55222093294921 l 2.2175312517868595 -1.2718233722258485 a23.556360604999092,23.556360604999092 0 0,0 0.1987061561969309,0.3534760796456004 l -2.2390950492762234 1.2334637826454542" fill="#ff0901" stroke="none" /><path d="M 118.3937258080291 89.86733742301442 l 12.145824407280339 -6.690843482322989 a34.86681062960877,34.86681062960877 0 0,0 0.2850642376755888,0.5281807386583104 l -12.259196744174393 6.480781760332219" fill="#ffa70f" stroke="none" /><path d="M 118.56541770881063 90.18545643968196 l 7.243296224941896 -3.8291433801805774 a29.19314830991349,29.19314830991349 0 0,0 0.2310298031173959,0.4462760443134068 l -7.3081354612194085 3.703894613606826" fill="#ff5a08" stroke="none" /><path d="M 118.73160827565052 90.50648371742162 l 9.394999469119869 -4.7615548607668785 a31.53273087650374,31.53273087650374 0 0,0 0.24121035616882042,0.4862653591808972 l -9.475569838242096 4.599129913087031" fill="#ff7b0b" stroke="none" /><path d="M 119.04729006885535 91.15688171328212 l 10.189435748431194 -4.73066694908079 a32.23404694019626,32.23404694019626 0 0,0 0.22931866322666836,0.5052732770792598 l -10.26935672862121 4.554571663159467" fill="#ff840c" stroke="none" /><path d="M 119.196687751892 91.48605970444005 l 3.331230240954472 -1.4774369281208326 a24.6441617410352,24.6441617410352 0 0,0 0.1686473804917302,0.3892614062117854 l -3.356168331288883 1.4198763773224445" fill="#ff1902" stroke="none" /><path d="M 119.47837535516314 92.15188598940014 l 6.489452123350738 -2.6146924064119075 a27.9963994483884,27.9963994483884 0 0,0 0.1762525993888262,0.4485436406545424 l -6.533498272621265 2.5025997608615804" fill="#ff4906" stroke="none" /><path d="M 119.61058180528143 92.48833698450437 l 3.459662770672919 -1.3251937723516192 a24.704781372909842,24.704781372909842 0 0,0 0.148693857505063,0.39842561217872696 l -3.4819612166796077 1.265445023143559" fill="#ff1a02" stroke="none" /><path d="M 119.7369772167798 92.82701384747503 l 11.013126690955438 -4.002487533048654 a32.71788658262423,32.71788658262423 0 0,0 0.18781144904521047,0.5309682574125314 l -11.080391220810458 3.812321649209508" fill="#ff8b0c" stroke="none" /><path d="M 119.85752413597 93.16781622104841 l 2.4315497404446216 -0.836599496524705 a23.57144567468218,23.57144567468218 0 0,0 0.128703130989084,0.3848059800136445 l -2.4455901652054757 0.7946204135887465" fill="#ff0901" stroke="none" /><path d="M 119.97218684219823 93.5106431181261 l 3.063961822947544 -0.995541544781338 a24.22164011333756,24.22164011333756 0 0,0 0.12542716840311927,0.39763839990249017 l -3.0806444751188695 0.9426529784524287" fill="#ff1302" stroke="none" /><path d="M 120.08093135843002 93.85539295169968 l 10.320993764159352 -3.1581429116381083 a31.79336735825045,31.79336735825045 0 0,0 0.1556271750185449,0.5246974677496056 l -10.3738268362896 2.9800160571419725" fill="#ff7e0b" stroke="none" /><path d="M 120.28053869075195 94.5502522615342 l 17.856228305933527 -4.798291668266437 a39.48968610461997,39.48968610461997 0 0,0 0.1707527786471348,0.6579801105695439 l -17.936177416450963 4.490215132148042" fill="#ffe315" stroke="none" /><path d="M 120.37134235888165 94.90015583598534 l 7.708457559201599 -1.9297664142249988 a28.94633980870961,28.94633980870961 0 0,0 0.1168428651563372,0.4843891094374189 l -7.740533224618756 1.7967920731281737" fill="#ff5708" stroke="none" /><path d="M 120.45610955862082 95.25157060432595 l 10.983771882319225 -2.5496375609409436 a32.27581023496703,32.27581023496703 0 0,0 0.12096606807376141,0.5422671641123371 l -11.026032337395023 2.3601922272786426" fill="#ff850c" stroke="none" /><path d="M 120.53481517161879 95.60439243477599 l 2.3832281024577058 -0.5101451067013306 a23.43721648981691,23.43721648981691 0 0,0 0.08104891253729281,0.3952232814672609 l -2.3916563109099953 0.4690461690706579" fill="#ff0701" stroke="none" /><path d="M 120.6074358757038 95.95851677861258 l 11.022809360042517 -2.1617681767816106 a32.232789851056,32.232789851056 0 0,0 0.10209241349088687,0.5453817551724958 l -11.058387497443263 1.971708344146552" fill="#ff840c" stroke="none" /><path d="M 120.73433829027371 96.67025291283417 l 3.5486894317069573 -0.5698874076934153 a24.594157528567184,24.594157528567184 0 0,0 0.06352800484524967,0.4185701776513746 l -3.5579733299915066 0.5087181176499584" fill="#ff1802" stroke="none" /><path d="M 120.78858239683441 97.02765380044208 l 7.690460074646265 -1.0995800165386698 a28.768671210219892,28.768671210219892 0 0,0 0.06587203874176258,0.4908232008473401 l -7.7082481124458635 0.9670384736266653" fill="#ff5407" stroke="none" /><path d="M 120.83666639777658 97.38593545837742 l 20.844797022609765 -2.6150845693790292 a42.0081943588402,42.0081943588402 0 0,0 0.08383564745407716,0.7182526298194368 l -20.88672302306743 2.2558882012347397" fill="#fbff18" stroke="none" /><path d="M 120.91429891909075 98.10471618934814 l 2.3500660643961284 -0.2129663625370982 a23.35969599283437,23.35969599283437 0 0,0 0.03284319438133881,0.40077016021312745 l -2.3533837425969617 0.17248228511620198" fill="#ff0601" stroke="none" /><path d="M 120.94382443527127 98.46500227214037 l 2.5124676915756337 -0.1841417363771644 a23.519206637075925,23.519206637075925 0 0,0 0.026116857086744702,0.40401621953738065 l -2.515265139666794 0.14086645258674854" fill="#ff0901" stroke="none" /><path d="M 120.98425023603335 99.18683210126433 l 4.164962539808741 -0.1613978959797829 a25.16808855938028,25.16808855938028 0 0,0 0.013049420866757921,0.4330467489883545 l -4.167123655131144 0.08968099956642935" fill="#ff2103" stroke="none" /><line stroke="#e1ed5e" stroke-width="0.3" x1="184.98032266829074" x2="189.97916517819016" y1="98.17113171792111" y2="98.06355123074" /><path d="M 185.9800911702706 98.14961562048488 a86.0,86.0 0 0,1 -9.607161424134198,41.387399972396054" fill="none" id="id40" stroke="none" /><text fill="#e1ed5e" style="font-size:6.75px; font-family:Arial;" text-anchor="middle"><textPath startOffset="21.466115282336823" xlink:href="#id40">April</textPath></text><path d="M 120.99513854157772 99.54816195383933 l 11.250018963998363 -0.24211255276534566 a32.25262392415784,32.25262392415784 0 0,0 0.007167750775668655,0.555150196714035 l -11.252519721891748 0.04842609799084795" fill="#ff840c" stroke="none" /><path d="M 120.99980553446 99.90962569577887 l 2.2297761331679933 -0.009596015842778192 a23.229796781674434,23.229796781674434 0 0,0 -0.0017208884675021475,0.39987387427761223 l -2.229610947410988 -0.028787336638518745" fill="#ff0400" stroke="none" /><path d="M 120.9904718944345 100.63252640178507 l 20.03351650321759 0.603689529831003 a41.04261022255133,41.04261022255133 0 0,0 -0.027357571682624916,0.7059773644914802 l -20.02015679868376 -0.9484441413364894" fill="#fff717" stroke="none" /><path d="M 120.95626037817324 101.35467743843564 l 11.208975599821466 0.7245828253245528 a32.232370821342585,32.232370821342585 0 0,0 -0.040556674262240945,0.5533635978805553 l -11.194842366894887 -0.9174195597018784" fill="#ff840c" stroke="none" /><path d="M 120.92983693683757 101.71520430193887 l 2.6051740310390943 0.21349453026425938 a23.613907352308654,23.613907352308654 0 0,0 -0.0366863457545147,0.40483076837718396 l -2.6011130890075043 -0.2583066871900139" fill="#ff0a01" stroke="none" /><path d="M 120.89721153311464 102.0752229133903 l 48.431797244762585 4.809578312385699 a69.67002186049194,69.67002186049194 0 0,0 -0.12878237633312858,1.1923648624298948 l -48.3418325669284 -5.642539496700385" fill="#3bff9b" stroke="none" /><path d="M 120.8583938346157 102.4346265915055 l 8.537179174047507 0.9964738224037872 a29.595137481653595,29.595137481653595 0 0,0 -0.0634160247764975,0.5054881130520382 l -8.518761640024161 -1.1432796897432205" fill="#ff6008" stroke="none" /><path d="M 120.81339534386255 102.79330883721812 l 7.873237304229948 1.05664563499035 a28.943825630429096,28.943825630429096 0 0,0 -0.0705208716948058,0.4932228123837398 l -7.853882381518542 -1.192013919354499" fill="#ff5708" stroke="none" /><path d="M 120.76222939487914 103.15116336523771 l 11.221469386876288 1.703125544156757 a32.34997849424222,32.34997849424222 0 0,0 -0.08829733398761964,0.5498275830272946 l -11.190490298527381 -1.8960323568772566" fill="#ff860c" stroke="none" /><path d="M 120.70491114924044 103.5080841355445 l 3.7992498843915543 0.6437162734162337 a24.853397244602498,24.853397244602498 0 0,0 -0.07509697500606824,0.42118371713965364 l -3.787606467046297 -0.7090187412891057" fill="#ff1c02" stroke="none" /><path d="M 120.64145759157962 103.86396538481128 l 8.058754690542395 1.5085537942651854 a29.198735372759078,29.198735372759078 0 0,0 -0.09673133223374743,0.493230979069615 l -8.031593425332984 -1.6470485004027453" fill="#ff5a08" stroke="none" /><path d="M 120.5718875245553 104.21870165774334 l 10.95768333300864 2.2471052686250474 a32.18571884658191,32.18571884658191 0 0,0 -0.11596968361292521,0.541771753543965 l -10.917379610671272 -2.4353908415851815" fill="#ff840c" stroke="none" /><path d="M 120.49622156327973 104.57218783832717 l 16.927848120278632 3.7761741141230383 a38.34391919156088,38.34391919156088 0 0,0 -0.1492481073677524,0.642956940354403 l -16.86033944698033 -4.066999711826006" fill="#ffd513" stroke="none" /><path d="M 120.23288151984713 105.62410040840565 l 10.809273921966208 3.004635885376257 a32.21910154708431,32.21910154708431 0 0,0 -0.15312874130064189,0.5330612370711048 l -10.755952543779467 -3.190254597951944" fill="#ff840c" stroke="none" /><path d="M 120.13307415673323 105.97154293290107 l 6.713598774711581 1.9912777852683041 a28.002684894089686,28.002684894089686 0 0,0 -0.14104449332103,0.4609415649528933 l -6.6783275088844185 -2.1065463227732546" fill="#ff4906" stroke="none" /><path d="M 120.02730092923936 106.31721596034902 l 7.935267737743167 2.503023257084383 a29.32067301936405,29.32067301936405 0 0,0 -0.15596887531818188,0.48002283987851146 l -7.891006611408738 -2.6392449969406897" fill="#ff5c08" stroke="none" /><path d="M 119.9155931802556 106.66101706037122 l 10.69725419937426 3.577829295679816 a32.279721178958944,32.279721178958944 0 0,0 -0.1807805326305503,0.5254328493159333 l -10.634082835800479 -3.7614348480850497" fill="#ff850c" stroke="none" /><path d="M 119.67450827220406 107.3425965602758 l 21.746246093489734 8.115776493918998 a44.211312915426944,44.211312915426944 0 0,0 -0.27222741269743717,0.7106998723625518 l -21.60332440119879 -8.488899933114693" fill="#e1ff1b" stroke="none" /><path d="M 119.41010516605496 108.01547362559984 l 10.35835051653673 4.277518573944623 a32.20681000882401,32.20681000882401 0 0,0 -0.21601417088898028,0.5105936904270232 l -10.28318536445544 -4.45518679003781" fill="#ff840c" stroke="none" /><path d="M 118.97047184881838 109.00673069616215 l 10.257358968827686 4.8699510809399795 a32.354727497660974,32.354727497660974 0 0,0 -0.24319468422019708,0.5010530813796827 l -10.172011027992776 -5.045793118284937" fill="#ff860c" stroke="none" /><path d="M 118.64920377521936 109.65438752849418 l 13.953101712923905 7.223292360613336 a36.71193813436442,36.71193813436442 0 0,0 -0.2953518983811318,0.5586944854680773 l -13.82669730631788 -7.462401861167548" fill="#ffc011" stroke="none" /><line stroke="#e1ed5e" stroke-width="0.3" x1="174.80103733775053" x2="179.2010983576182" y1="140.37084112569926" y2="142.7455964860345" /><path d="M 175.68104954172406 140.8457921977663 a86.0,86.0 0 0,1 -30.038265399797805,32.042727171017184" fill="none" id="id41" stroke="none" /><text fill="#e1ed5e" style="font-size:6.75px; font-family:Arial;" text-anchor="middle"><textPath startOffset="22.206326154141568" xlink:href="#id41">May</textPath></text><path d="M 118.30583269289576 110.29060199501025 l 6.115851580323922 3.4380186648429505 a28.01595416834796,28.01595416834796 0 0,0 -0.2399339730030382,0.41834510602556824 l -6.055765611168505 -3.5427836167268336" fill="#ff4a06" stroke="none" /><path d="M 117.94076556474637 110.91462005526583 l 8.55301044660205 5.2033933009424835 a31.011457913010318,31.011457913010318 0 0,0 -0.2813704432322488,0.4536587447899137 l -8.462175363701839 -5.349848377097671" fill="#ff730a" stroke="none" /><path d="M 117.75023020441432 111.22182372390056 l 7.061848029742527 4.464551323680132 a29.35475410272214,29.35475410272214 0 0,0 -0.27369133762264636,0.4247750338778271 l -6.98395182874283 -4.5854479574794125" fill="#ff5c08" stroke="none" /><path d="M 117.55443506779139 111.5257021239791 l 5.857108744245682 3.8455974477806123 a28.00673551465274,28.00673551465274 0 0,0 -0.2680603269537367,0.40071381789306576 l -5.790045311881224 -3.945848179879485" fill="#ff4906" stroke="none" /><path d="M 117.35343817320211 111.8261652097733 l 6.9109114713517314 4.709705361818916 a29.363134696990524,29.363134696990524 0 0,0 -0.28823285472922044,0.41522092465956373 l -6.828817709460375 -4.827967548665499" fill="#ff5d08" stroke="none" /><path d="M 117.14729908036423 112.12312394758627 l 1.9465124316886875 1.3761824159177292 a23.38386003964154,23.38386003964154 0 0,0 -0.23519732250633005,0.3266685100221432 l -1.9225353168067545 -1.4094845313910036" fill="#ff0701" stroke="none" /><path d="M 116.93607887273984 112.41649034213515 l 11.318705609230847 8.29817810477343 a35.03470186811872,35.03470186811872 0 0,0 -0.36075521684176587,0.48329056673452064 l -11.174189125693989 -8.491781551017267" fill="#ffaa0f" stroke="none" /><path d="M 116.71984013943494 112.70617746262583 l 6.6615871517448335 5.062447237948209 a29.366905964411295,29.366905964411295 0 0,0 -0.3093218761298011,0.3998402219062839 l -6.573458458396964 -5.176365453967746" fill="#ff5d08" stroke="none" /><path d="M 116.498646956653 112.99209946851258 l 5.500231792791103 4.3312375093280915 a28.000869098664868,28.000869098664868 0 0,0 -0.30145214048118446,0.37610789563582026 l -5.424861740255064 -4.425273238542163" fill="#ff4906" stroke="none" /><path d="M 115.80600337817218 113.82643327865902 l 2.7304343258802124 2.3884701986511145 a24.627679905640715,24.627679905640715 0 0,0 -0.2818592818578187,0.31667189113699107 l -2.6889161943740554 -2.4351162595289724" fill="#ff1902" stroke="none" /><path d="M 115.07121518719521 114.62390073753431 l 5.072779327965112 4.922218973995266 a28.068332882525354,28.068332882525354 0 0,0 -0.3394388702180617,0.3438497834354638 l -4.987299832691515 -5.008809251411394" fill="#ff4a06" stroke="none" /><path d="M 114.55890576462653 115.13401014063108 l 4.878941925884572 5.07166938062679 a28.037464360303474,28.037464360303474 0 0,0 -0.35068748485698004,0.3315969057414311 l -4.790918606636785 -5.154900923114142" fill="#ff4a06" stroke="none" /><path d="M 114.29624159901734 115.38237550388516 l 1.421757204795832 1.529772916052768 a23.08844409168104,23.08844409168104 0 0,0 -0.29344362524660916,0.2680537941815766 l -1.395214030082359 -1.5540194768209274" fill="#ff0200" stroke="none" /><path d="M 114.0293411484842 115.62618273729858 l 4.736188022395682 5.275268363130218 a28.08942404476745,28.08942404476745 0 0,0 -0.3625644376087517,0.3199209615454003 l -4.644681231880343 -5.356012466447908" fill="#ff4b06" stroke="none" /><path d="M 113.20401910651253 116.32954008644616 l 4.532830899191857 5.605796483354625 a28.209126866234186,28.209126866234186 0 0,0 -0.3802086664987265,0.30206075941632987 l -4.4356647399757785 -5.682991156776081" fill="#ff4c07" stroke="none" /><path d="M 112.63410532772338 116.77436683061366 l 2.98484456818257 3.9629935337955047 a25.96131180688273,25.96131180688273 0 0,0 -0.3592736856538143,0.2657820836259313 l -2.916185912110192 -4.013785566161205" fill="#ff2c04" stroke="none" /><path d="M 112.34349029814194 116.9893568818739 l 1.1666385645012907 1.605740227904019 a22.984804075895372,22.984804075895372 0 0,0 -0.3220857006801705,0.22979959552955287 l -1.1388255359722355 -1.625584085277791" fill="#ff0100" stroke="none" /><path d="M 112.04921762599082 117.19931262002967 l 3.255630524123863 4.647157093331433 a26.674081349408702,26.674081349408702 0 0,0 -0.3783186423300254,0.2602110118881491 l -3.1751549971709543 -4.7025088945846765" fill="#ff3605" stroke="none" /><path d="M 111.7513745106137 117.40417183066458 l 3.315533068089375 4.910413430799974 a26.92494047117563,26.92494047117563 0 0,0 -0.38634122851835856,0.2560458997186773 l -3.2305171408310525 -4.96675735160997" fill="#ff3a05" stroke="none" /><path d="M 111.45004920935366 117.60387380957326 l 1.1911765623833308 1.8313739535710782 a23.184681249196306,23.184681249196306 0 0,0 -0.3364187757319724,0.21471837977561298 l -1.159475984604428 -1.8516067621705001" fill="#ff0400" stroke="none" /><line stroke="#e1ed5e" stroke-width="0.3" x1="143.8653032363475" x2="146.44561519142675" y1="172.8068346515853" y2="177.08958963109032" /><path d="M 144.38136562736335 173.6633856474863 a86.0,86.0 0 0,1 -40.68145358897372,12.25698825130547" fill="none" id="id42" stroke="none" /><text fill="#e1ed5e" style="font-size:6.75px; font-family:Arial;" text-anchor="middle"><textPath startOffset="21.466115282336833" xlink:href="#id42">June</textPath></text><path d="M 110.5260780823613 118.17145234162733 l 1.5154040649831508 2.6160828876325715 a24.023299382319163,24.023299382319163 0 0,0 -0.35960732302158216,0.20419442318627753 l -1.4701479750403696 -2.6417804766134774" fill="#ff1001" stroke="none" /><path d="M 109.89434966115114 118.52300852407294 l 3.0506857868601296 5.71112612445354 a27.474847131752696,27.474847131752696 0 0,0 -0.4190687375235337,0.21923695706061339 l -2.9519261468101 -5.76279250045887" fill="#ff4206" stroke="none" /><path d="M 106.91757812671514 119.82793768551818 l 2.76224921074319 7.917468255395845 a29.38548294837288,29.38548294837288 0 0,0 -0.47902572502309765,0.1625115341990554 l -2.6255537527828654 -7.963842776493023" fill="#ff5d08" stroke="none" /><path d="M 104.48393922423573 120.51570834832081 l 1.1970406435086935 5.476911147808091 a26.6061985358348,26.6061985358348 0 0,0 -0.44826191528016823,0.09393764271592416 l -1.1025872667991474 -5.496704771250557" fill="#ff3605" stroke="none" /><path d="M 103.06178313531738 120.77559828337769 l 1.0225946476613714 6.938772168899086 a28.013719343209722,28.013719343209722 0 0,0 -0.4776624738723735,0.0661996664083365 l -0.9030035826021674 -6.955346400800026" fill="#ff4a06" stroke="none" /><path d="M 102.34483914955558 120.86867818915974 l 1.214066486655379 10.80498967916702 a31.872983003800087,31.872983003800087 0 0,0 -0.5457374160528646,0.05656791455954799 l -1.0278964739969119 -10.824286962182326" fill="#ff7f0b" stroke="none" /><path d="M 101.62511606390274 120.93702456842531 l 0.8193821632407622 10.55643031520001 a31.588182475246207,31.588182475246207 0 0,0 -0.5424702342801984,0.03741192342290677 l -0.6375491681816334 -10.568970583139201" fill="#ff7b0b" stroke="none" /><line stroke="#e1ed5e" stroke-width="0.3" x1="102.19456741930631" x2="102.32365962044197" y1="184.97166512339345" y2="189.96999836594603" /><path d="M 102.22038585953345 185.97133177190398 a86.0,86.0 0 0,1 -42.740103519485714,-10.115201625700543" fill="none" id="id43" stroke="none" /><text fill="#e1ed5e" style="font-size:6.75px; font-family:Arial;" text-anchor="middle"><textPath startOffset="22.20632615414155" xlink:href="#id43">July</textPath></text><path d="M 100.54218724476979 120.99299961872073 l 0.1841449839239807 7.129927187694742 a28.132304752107345,28.132304752107345 0 0,0 -0.48419756922074525,0.008335900262361553 l -0.06138772481056753 -7.132040565236263" fill="#ff4b07" stroke="none" /><path d="M 100.18074693466247 120.99922214144158 l 0.052160871944086785 6.060062590221314 a27.06028706861002,27.06028706861002 0 0,0 -0.4658156132130803,0.0 l 0.052160871944082615 -6.060062590221314" fill="#ff3c05" stroke="none" /><path d="M 99.45781275523022 120.99299961872073 l -0.3076584026302046 11.91225502151854 a32.91622731364263,32.91622731364263 0 0,0 -0.5662839537176342,-0.019503964357912986 l 0.5126627080224818 -11.905194258734532" fill="#ff8d0d" stroke="none" /><path d="M 99.09653310690486 120.98055641714683 l -0.24649129230450442 5.724088512876489 a26.72939327158003,26.72939327158003 0 0,0 -0.45950618548136185,-0.023751221122703992 l 0.3449855461993552 -5.718997484991583" fill="#ff3705" stroke="none" /><path d="M 98.37488393609728 120.93702456842531 l -0.44498812606418314 5.732961192746574 a26.750205080679848,26.750205080679848 0 0,0 -0.45877325530409185,-0.039584886884820154 l 0.5436056991098167 -5.72445205358309" fill="#ff3805" stroke="none" /><path d="M 98.01472825383883 120.90594882070398 l -0.7815256244537896 8.229873184108259 a29.26689753947526,29.26689753947526 0 0,0 -0.5011153501752033,-0.05194265498270405 l 0.9230735712345862 -8.215201160669794" fill="#ff5b08" stroke="none" /><path d="M 97.2962882734958 120.8252237178851 l -0.3042021867068583 2.3431043078809335 a23.362768877399443,23.362768877399443 0 0,0 -0.3983590269384227,-0.055208931277942595 l 0.344489804832112 -2.337520811110386" fill="#ff0601" stroke="none" /><path d="M 96.58105272829116 120.7198165907248 l -1.5049547299920498 9.12046413842281 a30.243795478026435,30.243795478026435 0 0,0 -0.512921850766099,-0.08917803842473154 l 1.6617255522301988 -9.093207521477073" fill="#ff6909" stroke="none" /><path d="M 96.22490169976321 120.6578951692458 l -1.6715432417273586 9.14693136766773 a30.298409017342067,30.298409017342067 0 0,0 -0.512234115624258,-0.09817088738685671 l 1.8287449719233118 -9.116803281932405" fill="#ff6a09" stroke="none" /><path d="M 95.86986931433489 120.58985236759428 l -1.024735600902124 5.108592522658883 a26.210355133224844,26.210355133224844 0 0,0 -0.44159273548109773,-0.09254005124581062 l 1.1125197978126085 -5.090196490686531" fill="#ff3004" stroke="none" /><path d="M 95.51606077576429 120.51570834832081 l -2.004521905760422 9.171441614133531 a30.387941699442624,30.387941699442624 0 0,0 -0.5100541500227589,-0.11608666395143373 l 2.1620962051760437 -9.135578216604411" fill="#ff6b09" stroke="none" /><path d="M 94.81253420990036 120.34920634021253 l -2.4738802405328832 9.704449438809947 a31.014810150717672,31.014810150717672 0 0,0 -0.5161891696220505,-0.13633025126753942 l 2.640559852966423 -9.660427838238826" fill="#ff730a" stroke="none" /><path d="M 94.46302465271185 120.25689768951611 l -1.5453351742025676 5.653573396378513 a26.860968601593644,26.860968601593644 0 0,0 -0.44495684623881065,-0.1257492493008934 l 1.6424231885459921 -5.626135353739098" fill="#ff3905" stroke="none" /><path d="M 94.11515582081647 120.15858648285463 l -2.6224520676197636 8.983233063205494 a30.358190589789864,30.358190589789864 0 0,0 -0.500368071135186,-0.15075679525115576 l 2.776695113195195 -8.936760898848613" fill="#ff6a09" stroke="none" /><path d="M 93.42475214034765 119.94407469862007 l -2.8654769290594793 8.691578954919626 a30.151748617645367,30.151748617645367 0 0,0 -0.4915169598422939,-0.16674923925009433 l 3.014663621838999 -8.640966728771408" fill="#ff6809" stroke="none" /><path d="M 93.08242187328487 119.8279376855182 l -2.3060996533965055 6.610001273068964 a28.00072942209373,28.00072942209373 0 0,0 -0.4537190719256283,-0.16268751664116465 l 2.41953828595186 -6.569326215387842" fill="#ff4906" stroke="none" /><path d="M 92.7421414339146 119.70592522655815 l -1.2735148844136395 3.457740166559858 a24.68480762323686,24.68480762323686 0 0,0 -0.39746040724856974,-0.15028551668628348 l 1.332845512422492 -3.4353063997669415" fill="#ff1a02" stroke="none" /><path d="M 92.40401165467489 119.57807347666478 l -2.6425009983030825 6.810842296615381 a28.305503700320592,28.305503700320592 0 0,0 -0.452724863093185,-0.18014856620112413 l 2.759346937438125 -6.764346886008191" fill="#ff4e07" stroke="none" /><path d="M 91.7346041902142 119.30500536409082 l -3.646679246614647 8.517337104856555 a30.265165993410815,30.265165993410815 0 0,0 -0.47715098754618396,-0.20916897076529678 l 3.7927509088185745 -8.453303580796804" fill="#ff6909" stroke="none" /><path d="M 91.40352486487194 119.15986991738527 l -0.9268462489552578 2.065759893939913 a23.264157218174805,23.264157218174805 0 0,0 -0.3639533427461345,-0.16707312887055395 l 0.9622675874688118 -2.049499694735285" fill="#ff0500" stroke="none" /><path d="M 91.07499286063937 119.00905698771935 l -2.9718099916017047 6.329552974573583 a27.992488504396487,27.992488504396487 0 0,0 -0.4343998759396031,-0.20853833888799958 l 3.08032253554155 -6.277460359186022" fill="#ff4906" stroke="none" /><path d="M 90.7491055286396 118.85261126421891 l -0.9428880694866102 1.9215333495299136 a23.140403776145014,23.140403776145014 0 0,0 -0.35608243118592164,-0.17854712314663407 l 0.9758244083552924 -1.9050183854739773" fill="#ff0300" stroke="none" /><path d="M 90.10565033884886 118.52300852407294 l -4.344969965179615 8.134128917827168 a30.2218662563575,30.2218662563575 0 0,0 -0.45674909202498853,-0.24905602271089308 l 4.484341869073244 -8.058132243356507" fill="#ff6909" stroke="none" /><line stroke="#e1ed5e" stroke-width="0.3" x1="58.666819895761336" x2="56.23545636021788" y1="174.27360380694188" y2="178.64263932499728" /><path d="M 58.180547188652646 175.14741091055294 a86.0,86.0 0 0,1 -31.652253787137756,-30.449443065178592" fill="none" id="id44" stroke="none" /><text fill="#e1ed5e" style="font-size:6.75px; font-family:Arial;" text-anchor="middle"><textPath startOffset="22.20632615414155" xlink:href="#id44">August</textPath></text><path d="M 89.7882731507175 118.34994917583269 l -1.0794669331169602 1.9397466904512817 a23.219879745123514,23.219879745123514 0 0,0 -0.3475808490390886,-0.19736547738732707 l 1.112696549077256 -1.9208780472693214" fill="#ff0400" stroke="none" /><path d="M 89.4739219176387 118.17145234162733 l -3.5171096608220647 6.071681217052897 a28.0167922277748,28.0167922277748 0 0,0 -0.415225042476468,-0.24532227402821966 l 3.6211025743269145 -6.010240370730927" fill="#ff4a06" stroke="none" /><path d="M 89.1626897886671 117.98757091392108 l -3.6141106372756004 5.998635280437889 a28.003243600374244,28.003243600374244 0 0,0 -0.41074197610846336,-0.2523112693050104 l 3.7168318133163725 -5.935535544304501" fill="#ff4906" stroke="none" /><path d="M 88.54995079064634 117.60387380957326 l -6.29805762777167 9.68294630857496 a32.55097308011227,32.55097308011227 0 0,0 -0.4670681795082011,-0.30954732092864967 l 6.463800506019833 -9.573100966554993" fill="#ff880c" stroke="none" /><path d="M 88.24862548938628 117.40417183066458 l -1.4090175303153585 2.086801266343646 a23.517949547935668,23.517949547935668 0 0,0 -0.333555207649469,-0.22942231334007038 l 1.4447296225877178 -2.0622381636384746" fill="#ff0901" stroke="none" /><path d="M 87.95078237400918 117.19931262002967 l -4.650271057339123 6.637897012543549 a29.10473304038205,29.10473304038205 0 0,0 -0.407844169716096,-0.2909859861581121 l 4.763842554904106 -6.556866764541217" fill="#ff5908" stroke="none" /><path d="M 87.65650970185807 116.9893568818739 l -5.873668038009555 8.084410494365743 a30.992880929048738,30.992880929048738 0 0,0 -0.4289046194290197,-0.3172933837923093 l 6.0119576278571385 -7.982107161833667" fill="#ff730a" stroke="none" /><path d="M 87.07902340077011 116.55440617244103 l -5.2678299246615286 6.749164473015456 a29.561615104580063,29.561615104580063 0 0,0 -0.3984377932630838,-0.31654308020255856 l 5.383225210641971 -6.6574874788077665" fill="#ff5f08" stroke="none" /><path d="M 86.79598089348748 116.32954008644616 l -7.8954145402950235 9.7643366913387 a33.55706342203165,33.55706342203165 0 0,0 -0.4460370856861629,-0.3670581554695157 l 8.062321754525875 -9.626983417012005" fill="#ff960d" stroke="none" /><path d="M 86.51685102203217 116.09983520530335 l -2.3738296219430244 2.8345207622641313 a24.697238838068294,24.697238838068294 0 0,0 -0.3235744303606919,-0.2757571493507366 l 2.422269528880773 -2.7932392226904432" fill="#ff1a02" stroke="none" /><path d="M 86.24171649860922 115.8653595955263 l -6.906716762080708 7.9644779120725815 a31.5420892067701,31.5420892067701 0 0,0 -0.4071297373713152,-0.3592446570673081 l 7.042788852358611 -7.844410113232984" fill="#ff7b0b" stroke="none" /><path d="M 85.97065885151581 115.62618273729859 l -2.3455122966927604 2.6124821809370564 a24.510910292167914,24.510910292167914 0 0,0 -0.3115225238074822,-0.2845684393703848 l 2.390134369967097 -2.5717209749800958" fill="#ff1702" stroke="none" /><path d="M 85.44109423537348 115.13401014063109 l -8.753219226470382 9.098987978782903 a33.62578429503239,33.62578429503239 0 0,0 -0.4136772844772804,-0.4048702903879435 l 8.908546463323457 -8.94696758547239" fill="#ff970d" stroke="none" /><path d="M 85.18274418774928 114.88116024355367 l -7.007055247594777 7.037275545224758 a30.930864531462703,30.930864531462703 0 0,0 -0.3740563344239164,-0.3789170919102417 l 7.127152207074227 -6.915617959333852" fill="#ff720a" stroke="none" /><path d="M 84.9287848128048 114.62390073753433 l -8.625980317176673 8.369960773268783 a33.01930862314374,33.01930862314374 0 0,0 -0.3922905323557457,-0.41131505481811853 l 8.768777400911375 -8.220238601868164" fill="#ff8f0d" stroke="none" /><path d="M 84.67929136418377 114.36230785411682 l -2.6342711251578717 2.4694819130154673 a24.61077904053281,24.61077904053281 0 0,0 -0.28707136800009236,-0.3115592726803347 l 2.676388901153693 -2.423771385533789" fill="#ff1902" stroke="none" /><path d="M 84.43433777217949 114.09645910891817 l -7.158985715716047 6.483267330737316 a30.658355541169115,30.658355541169115 0 0,0 -0.3508792589835632,-0.3942165671135223 l 7.269523824347948 -6.35907659388293" fill="#ff6f0a" stroke="none" /><path d="M 84.19399662182784 113.82643327865904 l -2.664938384673399 2.3311770778379484 a24.540661401820675,24.540661401820675 0 0,0 -0.275390032353634,-0.32034082342674997 l 2.704670926597812 -2.2849591552496684" fill="#ff1802" stroke="none" /><path d="M 83.95833913139862 113.55231037782056 l -8.095127350229829 6.838922683687414 a31.59726145237029,31.59726145237029 0 0,0 -0.34742543151247945,-0.4184963132861946 l 8.211648781635844 -6.698565113287459" fill="#ff7b0b" stroke="none" /><path d="M 83.72743513129214 113.27417163493432 l -1.7446100792301056 1.423147107698438 a23.25144665020109,23.25144665020109 0 0,0 -0.25032074316297487,-0.31231361566960664 l 1.7688487344479413 -1.392905658450572" fill="#ff0500" stroke="none" /><path d="M 83.50135304334701 112.99209946851258 l -4.601706236760345 3.623680493918127 a26.85719733417287,26.85719733417287 0 0,0 -0.2828870932832431,-0.3656697016325195 l 4.663400147261656 -3.543932798172355" fill="#ff3905" stroke="none" /><path d="M 83.28015986056508 112.70617746262583 l -1.5451252359911645 1.1742119115230298 a22.940666279415222,22.940666279415222 0 0,0 -0.2362219341634059,-0.31645788364865296 l 1.5651084368496555 -1.1474411483650688" fill="#ff0000" stroke="none" /><path d="M 83.06392112726016 112.41649034213515 l -2.6932616681041015 1.9745336415906445 a24.33952713937948,24.33952713937948 0 0,0 -0.24480952265996528,-0.3400190153287586 l 2.7268509831396743 -1.9278810208107475" fill="#ff1502" stroke="none" /><path d="M 82.85270091963577 112.12312394758628 l -2.9097891644503124 2.0572181389411774 a24.563568359487586,24.563568359487586 0 0,0 -0.2411196046897944,-0.3473507741055461 l 2.944769676302241 -2.0068261026486187" fill="#ff1802" stroke="none" /><path d="M 82.6465618267979 111.8261652097733 l -3.022679742993889 2.059920902134678 a24.657850045006896,24.657850045006896 0 0,0 -0.23600720410925086,-0.3527987482653767 l 3.0576900525138706 -2.0075852396634803" fill="#ff1902" stroke="none" /><path d="M 82.44556493220864 111.52570212397912 l -3.2469567233220653 2.131851914227957 a24.884265766824377,24.884265766824377 0 0,0 -0.23201039121796593,-0.3600852794453365 l 3.283171977917077 -2.0756450348611724" fill="#ff1d02" stroke="none" /><path d="M 82.24976979558568 111.22182372390057 l -8.238921085941355 5.2087054103990384 a30.747329516985115,30.747329516985115 0 0,0 -0.27897397660794543,-0.4497948775399489 l 8.327359702217256 -5.066114201493825" fill="#ff700a" stroke="none" /><path d="M 82.05923443525364 110.91462005526583 l -11.7129561695284 7.125808865458616 a34.710233193361155,34.710233193361155 0 0,0 -0.3061428093516437,-0.5131129577748496 l 11.833879854578276 -6.923133813797656" fill="#ffa50f" stroke="none" /><line stroke="#e1ed5e" stroke-width="0.3" x1="26.63291911575756" x2="22.317208475507996" y1="142.92168965132927" y2="145.44649492493687" /><path d="M 25.769776987707644 143.4266507060508 a86.0,86.0 0 0,1 -11.730757126820373,-40.83630448921669" fill="none" id="id45" stroke="none" /><text fill="#e1ed5e" style="font-size:6.75px; font-family:Arial;" text-anchor="middle"><textPath startOffset="21.46611528233685" xlink:href="#id45">September</textPath></text><path d="M 81.87401531095188 110.60418214915194 l -3.0764687809237077 1.799815893522505 a24.564266742343285,24.564266742343285 0 0,0 -0.21037306379004703,-0.3668031691162701 l 3.106993840866132 -1.746592878547928" fill="#ff1802" stroke="none" /><path d="M 81.69416730710424 110.29060199501025 l -6.097709794827837 3.4278202817837915 a27.995142359248142,27.995142359248142 0 0,0 -0.23252444039123824,-0.42209940059942375 l 6.155810644670592 -3.322350362786545" fill="#ff4906" stroke="none" /><path d="M 81.51974371655577 109.97397251340807 l -6.43974911613061 3.475594693731154 a28.31779523858089,28.31779523858089 0 0,0 -0.22782002276950022,-0.43094962686266863 l 6.498621647124996 -3.3642300517823593" fill="#ff4e07" stroke="none" /><path d="M 81.18737489456691 109.33194174019688 l -3.063377830653549 1.5195786491069567 a24.419561814642538,24.419561814642538 0 0,0 -0.1835499193969947,-0.3781671996481031 l 3.0890810066652628 -1.466622493493569" fill="#ff1602" stroke="none" /><path d="M 80.73074385275274 108.34839909993369 l -2.4373125617051277 1.0559648925162561 a23.65622935336399,23.65622935336399 0 0,0 -0.15866460443386063,-0.37503625611518304 l 2.455128147331295 -1.0138541107349144" fill="#ff0b01" stroke="none" /><path d="M 80.58989483394504 108.01547362559985 l -6.471483863978321 2.6724228326659833 a28.001567481520567,28.001567481520567 0 0,0 -0.1801399315927986,-0.4470925370450567 l 6.516526409828507 -2.5606309277781216" fill="#ff4906" stroke="none" /><path d="M 80.45479744820244 107.68017299344265 l -3.2492281821623816 1.2767652045581497 a24.491076219066073,24.491076219066073 0 0,0 -0.150801726382696,-0.39369572164045696 l 3.270724188138587 -1.2206459160845349" fill="#ff1702" stroke="none" /><path d="M 80.32549172779594 107.34259656027581 l -3.149416621426397 1.1753735001362926 a24.361596037619556,24.361596037619556 0 0,0 -0.14324124161129864,-0.3941383772489663 l 3.16918212404292 -1.1209873258812093" fill="#ff1502" stroke="none" /><path d="M 80.20201598880116 107.00284435728193 l -9.004917537314626 3.18517460809659 a30.551642640818372,30.551642640818372 0 0,0 -0.17110253830028943,-0.49730406762346285 l 9.058410906558143 -3.0296978373838304" fill="#ff6d0a" stroke="none" /><path d="M 80.0844068197444 106.66101706037122 l -3.5492375677105596 1.1870865093422782 a24.742494047117564,24.742494047117564 0 0,0 -0.13161563401177878,-0.40507127003293664 l 3.5691454527385877 -1.1258163393315381" fill="#ff1b02" stroke="none" /><path d="M 79.86692584326677 105.97154293290107 l -8.852415960902734 2.625658732437056 a30.23359908833324,30.23359908833324 0 0,0 -0.14369218106901088,-0.5002113329444022 l 8.896300778857848 -2.4728899239880575" fill="#ff6909" stroke="none" /><path d="M 79.67330655649465 105.27499134158121 l -10.123237913338558 2.627087011965026 a31.45856261722855,31.45856261722855 0 0,0 -0.13150980315871896,-0.5253162915445703 l 10.166959030792334 -2.4524428810230634" fill="#ff7a0b" stroke="none" /><path d="M 79.58551787078972 104.9243191809786 l -10.206471632498609 2.4619739904208457 a31.49920849943021,31.49920849943021 0 0,0 -0.12260607030375582,-0.5281837419695982 l 10.24733826873292 -2.285921591102673" fill="#ff7a0b" stroke="none" /><path d="M 79.4281124754447 104.21870165774334 l -6.85910502604036 1.4066048975551007 a28.001846834662846,28.001846834662846 0 0,0 -0.09276620767107698,-0.47301289434963256 l 6.882301166687103 -1.2883282761375132" fill="#ff4906" stroke="none" /><path d="M 79.29508885075956 103.50808413554451 l -4.152210499648025 0.703519260539833 a25.21138829643359,25.21138829643359 0 0,0 -0.06881297844132665,-0.4284984824412654 l 4.163705232450642 -0.631941548405354" fill="#ff2103" stroke="none" /><path d="M 79.1416061653843 102.43462659150553 l -5.635681428889721 0.6578061559686532 a26.673941672837564,26.673941672837564 0 0,0 -0.049305763125463635,-0.45651013081183855 l 5.646169493516236 -0.5606997032720326" fill="#ff3605" stroke="none" /><path d="M 79.04373962182676 101.35467743843564 l -11.146112672884131 0.7205191714426451 a32.16937668775857,32.16937668775857 0 0,0 -0.03096478535872246,-0.5528970435462612 l 11.156863809130385 -0.5285504115609463" fill="#ff830c" stroke="none" /><path d="M 79.0095281055655 100.63252640178507 l -3.5605553677291484 0.1072936943215363 a24.562171593776192,24.562171593776192 0 0,0 -0.009097287189356273,-0.42271518858576757 l 3.561874717603512 -0.04598868994563993" fill="#ff1802" stroke="none" /><line stroke="#e1ed5e" stroke-width="0.3" x1="15.007084014347285" x2="10.007500721073583" y1="101.09737516637583" y2="101.16192664675087" /><path d="M 14.007167355692545 101.11028546245083 a86.0,86.0 0 0,1 10.666146001902534,-42.60595125391555" fill="none" id="id46" stroke="none" /><text fill="#e1ed5e" style="font-size:6.75px; font-family:Arial;" text-anchor="middle"><textPath startOffset="22.20632615414155" xlink:href="#id46">October</textPath></text><path d="M 79.00175016825051 100.2711162175752 l -5.9012623002353095 0.0761933935722512 a26.90175416036644,26.90175416036644 0 0,0 -0.0019929110411621744,-0.4630823404127291 l 5.901699508565975 0.025398425044153274" fill="#ff3a05" stroke="none" /><path d="M 79.00486145842228 99.54816195383935 l -3.380228383636756 -0.07274616385191168 a24.381011081007976,24.381011081007976 0 0,0 0.01264132848239611,-0.4195041495014376 l 3.378475360698715 0.13092046077834368" fill="#ff1502" stroke="none" /><path d="M 79.01574976396665 99.18683210126434 l -10.377304037978613 -0.40213447820088566 a31.385092740809064,31.385092740809064 0 0,0 0.02556598533582155,-0.5396575431577607 l 10.368844444409293 0.5807031279816555" fill="#ff790b" stroke="none" /><line stroke="#e1ed5e" stroke-width="0.3" x1="26.266209847984243" x2="21.928928074336255" y1="57.711370442889674" y2="55.22380399835377" /><path d="M 25.398753493254645 57.213857153982495 a86.0,86.0 0 0,1 29.58750427330803,-30.492523968695096" fill="none" id="id47" stroke="none" /><text fill="#e1ed5e" style="font-size:6.75px; font-family:Arial;" text-anchor="middle"><textPath startOffset="21.46611528233685" xlink:href="#id47">November</textPath></text><line stroke="#e1ed5e" stroke-width="0.3" x1="56.762969772571076" x2="54.21961505331055" y1="26.818313649435495" y2="22.513508569990535" /><path d="M 56.25429882871897 25.957352633546506 a86.0,86.0 0 0,1 42.265352541879196,-11.944610805530505" fill="none" id="id48" stroke="none" /><text fill="#e1ed5e" style="font-size:6.75px; font-family:Arial;" text-anchor="middle"><textPath startOffset="22.20632615414155" xlink:href="#id48">December</textPath></text></svg>