<?xml version="1.0" encoding="utf-8" ?>
<svg baseProfile="full" height="300mm" version="1.1" viewBox="0,0,200,300" width="200mm" xmlns="http://www.w3.org/2000/svg" xmlns:ev="http://www.w3.org/2001/xml-events" xmlns:xlink="http://www.w3.org/1999/xlink"><defs /><rect fill="#222222" height="300" width="200" x="0" y="0" /><text fill="#555555" style="font-size:6px; font-family:Arial;" x="11" y="19">Running for 1442 Days</text><text fill="#555555" style="font-size:6px; font-family:Arial;" x="11" y="39">Races</text><text fill="#555555" style="font-size:8px; font-family:Arial;" x="11" y="59">1</text><text fill="#FFFFFF" style="font-size:10px; font-family:Arial; font-weight:bold;" x="23" y="59">Full</text><text fill="#555555" style="font-size:6px; font-family:Arial;" x="49" y="59">2x</text><text fill="#555555" style="font-size:8px; font-family:Arial;" x="11" y="77">2</text><text fill="#FFFFFF" style="font-size:10px; font-family:Arial; font-weight:bold;" x="23" y="77">Half</text><text fill="#555555" style="font-size:6px; font-family:Arial;" x="49" y="77">6x</text><text fill="#555555" style="font-size:8px; font-family:Arial;" x="11" y="95">3</text><text fill="#FFFFFF" style="font-size:10px; font-family:Arial; font-weight:bold;" x="23" y="95">10K</text><text fill="#555555" style="font-size:6px; font-family:Arial;" x="49" y="95">3x</text><text fill="#555555" style="font-size:6px; font-family:Arial;" x="11" y="133">Stats</text><text fill="#555555" style="font-size:5px; font-family:Arial;" x="11" y="139">Distance</text><text fill="#FFFFFF" style="font-size:10px; font-family:Arial; font-weight:bold;" x="11" y="150">1587</text><text fill="#555555" style="font-size:6px; font-family:Arial;" x="35" y="150">km</text><text fill="#555555" style="font-size:5px; font-family:Arial;" x="53" y="139">Runs</text><text fill="#FFFFFF" style="font-size:10px; font-family:Arial; font-weight:bold;" x="53" y="150">402</text><text fill="#555555" style="font-size:5px; font-family:Arial;" x="11" y="167">Avg Pace</text><text fill="#FFFFFF" style="font-size:10px; font-family:Arial; font-weight:bold;" x="11" y="178">8'19"</text><text fill="#555555" style="font-size:5px; font-family:Arial;" x="53" y="167">Streak</text><text fill="#FFFFFF" style="font-size:10px; font-family:Arial; font-weight:bold;" x="53" y="178">23</text><text fill="#555555" style="font-size:6px; font-family:Arial;" x="65" y="178">d</text><text fill="#555555" style="font-size:5px; font-family:Arial;" x="11" y="195">Time</text><text fill="#FFFFFF" style="font-size:10px; font-family:Arial; font-weight:bold;" x="11" y="206">220</text><text fill="#555555" style="font-size:6px; font-family:Arial;" x="29" y="206">h</text><text fill="#555555" style="font-size:5px; font-family:Arial;" x="53" y="195">Longest</text><text fill="#FFFFFF" style="font-size:10px; font-family:Arial; font-weight:bold;" x="53" y="206">45.1</text><text fill="#555555" style="font-size:5px; font-family:Arial;" x="11" y="252.0645161290322">Runner</text><text fill="#FFFFFF" style="font-size:8px; font-family:Arial; font-weight:bold;" x="11" y="262.0645161290322">Leo Woon</text><text fill="#555555" style="font-size:7px; font-family:Arial;" x="11" y="285.5806451612903">running_page/2025</text><circle cx="85.41666666666667" cy="17.419354838709676" fill="#4eb4d6" r="3.3125"><title>2025-01-01: 7 km</title></circle><circle cx="85.41666666666667" cy="26.25806451612903" fill="#FFFF00" r="3.3125"><title>2025-01-02: 45 km</title></circle><circle cx="85.41666666666667" cy="35.096774193548384" fill="#FFFF00" r="3.3125"><title>2025-01-03: 12 km</title></circle><circle cx="85.41666666666667" cy="43.935483870967744" fill="#4eb3d5" r="3.3125"><title>2025-01-04: 7 km</title></circle><circle cx="85.41666666666667" cy="52.774193548387096" fill="#FFFF00" r="3.3125"><title>2025-01-05: 44 km</title></circle><circle cx="85.41666666666667" cy="61.61290322580645" fill="#FFFF00" r="3.3125"><title>2025-01-06: 31 km</title></circle><circle cx="85.41666666666667" cy="70.45161290322581" fill="#527581" r="3.3125"><title>2025-01-07: 2 km</title></circle><circle cx="85.41666666666667" cy="79.29032258064517" fill="#50a0bb" r="3.3125"><title>2025-01-08: 6 km</title></circle><circle cx="85.41666666666667" cy="88.12903225806451" fill="#FFFF00" r="3.3125"><title>2025-01-09: 38 km</title></circle><circle cx="85.41666666666667" cy="96.96774193548387" fill="#555555" r="3.3125"><title>2025-01-10</title></circle><circle cx="85.41666666666667" cy="105.80645161290322" fill="#536d75" r="3.3125"><title>2025-01-11: 1 km</title></circle><circle cx="85.41666666666667" cy="114.64516129032258" fill="#509db7" r="3.3125"><title>2025-01-12: 5 km</title></circle><circle cx="85.41666666666667" cy="123.48387096774194" fill="#FFFF00" r="3.3125"><title>2025-01-13: 42 km</title></circle><circle cx="85.41666666666667" cy="132.32258064516128" fill="#5192a8" r="3.3125"><title>2025-01-14: 4 km</title></circle><circle cx="85.41666666666667" cy="141.16129032258064" fill="#4faac9" r="3.3125"><title>2025-01-15: 6 km</title></circle><circle cx="85.41666666666667" cy="149.99999999999997" fill="#536b73" r="3.3125"><title>2025-01-16: 1 km</title></circle><circle cx="85.41666666666667" cy="158.83870967741933" fill="#555555" r="3.3125"><title>2025-01-17</title></circle><circle cx="85.41666666666667" cy="167.6774193548387" fill="#536f79" r="3.3125"><title>2025-01-18: 2 km</title></circle><circle cx="85.41666666666667" cy="176.51612903225805" fill="#FFFF00" r="3.3125"><title>2025-01-19: 11 km</title></circle><circle cx="85.41666666666667" cy="185.35483870967738" fill="#FFFF00" r="3.3125"><title>2025-01-20: 32 km</title></circle><circle cx="85.41666666666667" cy="194.19354838709674" fill="#53717b" r="3.3125"><title>2025-01-21: 2 km</title></circle><circle cx="85.41666666666667" cy="203.0322580645161" fill="#527f8e" r="3.3125"><title>2025-01-22: 3 km</title></circle><circle cx="85.41666666666667" cy="211.87096774193546" fill="#FFFF00" r="3.3125"><title>2025-01-23: 43 km</title></circle><circle cx="85.41666666666667" cy="220.70967741935482" fill="#555555" r="3.3125"><title>2025-01-24</title></circle><circle cx="85.41666666666667" cy="229.54838709677418" fill="#509eb9" r="3.3125"><title>2025-01-25: 5 km</title></circle><circle cx="85.41666666666667" cy="238.3870967741935" fill="#536a71" r="3.3125"><title>2025-01-26: 1 km</title></circle><circle cx="85.41666666666667" cy="247.22580645161287" fill="#FFFF00" r="3.3125"><title>2025-01-27: 10 km</title></circle><circle cx="85.41666666666667" cy="256.06451612903226" fill="#527784" r="3.3125"><title>2025-01-28: 2 km</title></circle><circle cx="85.41666666666667" cy="264.90322580645164" fill="#555555" r="3.3125"><title>2025-01-29</title></circle><circle cx="85.41666666666667" cy="273.741935483871" fill="#5093aa" r="3.3125"><title>2025-01-30: 5 km</title></circle><circle cx="85.41666666666667" cy="282.5806451612903" fill="#536970" r="3.3125"><title>2025-01-31: 1 km</title></circle><circle cx="94.25" cy="17.419354838709676" fill="#51889b" r="3.3125"><title>2025-02-01: 4 km</title></circle><circle cx="94.25" cy="26.25806451612903" fill="#527682" r="3.3125"><title>2025-02-02: 2 km</title></circle><circle cx="94.25" cy="35.096774193548384" fill="#FFFF00" r="3.3125"><title>2025-02-03: 14 km</title></circle><circle cx="94.25" cy="43.935483870967744" fill="#4fa4c0" r="3.3125"><title>2025-02-04: 6 km</title></circle><circle cx="94.25" cy="52.774193548387096" fill="#4eb7da" r="3.3125"><title>2025-02-05: 7 km</title></circle><circle cx="94.25" cy="61.61290322580645" fill="#536970" r="3.3125"><title>2025-02-06: 1 km</title></circle><circle cx="94.25" cy="70.45161290322581" fill="#4eb6d9" r="3.3125"><title>2025-02-07: 7 km</title></circle><circle cx="94.25" cy="79.29032258064517" fill="#527986" r="3.3125"><title>2025-02-08: 2 km</title></circle><circle cx="94.25" cy="88.12903225806451" fill="#555555" r="3.3125"><title>2025-02-09</title></circle><circle cx="94.25" cy="96.96774193548387" fill="#53686f" r="3.3125"><title>2025-02-10: 1 km</title></circle><circle cx="94.25" cy="105.80645161290322" fill="#536a72" r="3.3125"><title>2025-02-11: 1 km</title></circle><circle cx="94.25" cy="114.64516129032258" fill="#4ebee4" r="3.3125"><title>2025-02-12: 8 km</title></circle><circle cx="94.25" cy="123.48387096774194" fill="#4fb0d0" r="3.3125"><title>2025-02-13: 7 km</title></circle><circle cx="94.25" cy="132.32258064516128" fill="#53686f" r="3.3125"><title>2025-02-14: 1 km</title></circle><circle cx="94.25" cy="141.16129032258064" fill="#527a88" r="3.3125"><title>2025-02-15: 3 km</title></circle><circle cx="94.25" cy="149.99999999999997" fill="#FFFF00" r="3.3125"><title>2025-02-16: 11 km</title></circle><circle cx="94.25" cy="158.83870967741933" fill="#527e8d" r="3.3125"><title>2025-02-17: 3 km</title></circle><circle cx="94.25" cy="167.6774193548387" fill="#527581" r="3.3125"><title>2025-02-18: 2 km</title></circle><circle cx="94.25" cy="176.51612903225805" fill="#4ebfe6" r="3.3125"><title>2025-02-19: 8 km</title></circle><circle cx="94.25" cy="185.35483870967738" fill="#518799" r="3.3125"><title>2025-02-20: 4 km</title></circle><circle cx="94.25" cy="194.19354838709674" fill="#4ebce2" r="3.3125"><title>2025-02-21: 8 km</title></circle><circle cx="94.25" cy="203.0322580645161" fill="#518ca0" r="3.3125"><title>2025-02-22: 4 km</title></circle><circle cx="94.25" cy="211.87096774193546" fill="#555555" r="3.3125"><title>2025-02-23</title></circle><circle cx="94.25" cy="220.70967741935482" fill="#FFFF00" r="3.3125"><title>2025-02-24: 12 km</title></circle><circle cx="94.25" cy="229.54838709677418" fill="#50a2be" r="3.3125"><title>2025-02-25: 6 km</title></circle><circle cx="94.25" cy="238.3870967741935" fill="#50a0bb" r="3.3125"><title>2025-02-26: 6 km</title></circle><circle cx="94.25" cy="247.22580645161287" fill="#555555" r="3.3125"><title>2025-02-27</title></circle><circle cx="94.25" cy="256.06451612903226" fill="#FFFF00" r="3.3125"><title>2025-02-28: 10 km</title></circle><circle cx="103.08333333333334" cy="17.419354838709676" fill="#4ec1e8" r="3.3125"><title>2025-03-01: 8 km</title></circle><circle cx="103.08333333333334" cy="26.25806451612903" fill="#555555" r="3.3125"><title>2025-03-02</title></circle><circle cx="103.08333333333334" cy="35.096774193548384" fill="#536b74" r="3.3125"><title>2025-03-03: 1 km</title></circle><circle cx="103.08333333333334" cy="43.935483870967744" fill="#4dd1fd" r="3.3125"><title>2025-03-04: 9 km</title></circle><circle cx="103.08333333333334" cy="52.774193548387096" fill="#509eb8" r="3.3125"><title>2025-03-05: 5 km</title></circle><circle cx="103.08333333333334" cy="61.61290322580645" fill="#4eb3d5" r="3.3125"><title>2025-03-06: 7 km</title></circle><circle cx="103.08333333333334" cy="70.45161290322581" fill="#555555" r="3.3125"><title>2025-03-07</title></circle><circle cx="103.08333333333334" cy="79.29032258064517" fill="#4eb9dd" r="3.3125"><title>2025-03-08: 8 km</title></circle><circle cx="103.08333333333334" cy="88.12903225806451" fill="#527581" r="3.3125"><title>2025-03-09: 2 km</title></circle><circle cx="103.08333333333334" cy="96.96774193548387" fill="#555555" r="3.3125"><title>2025-03-10</title></circle><circle cx="103.08333333333334" cy="105.80645161290322" fill="#5093aa" r="3.3125"><title>2025-03-11: 5 km</title></circle><circle cx="103.08333333333334" cy="114.64516129032258" fill="#527682" r="3.3125"><title>2025-03-12: 2 km</title></circle><circle cx="103.08333333333334" cy="123.48387096774194" fill="#4ebde3" r="3.3125"><title>2025-03-13: 8 km</title></circle><circle cx="103.08333333333334" cy="132.32258064516128" fill="#536c74" r="3.3125"><title>2025-03-14: 1 km</title></circle><circle cx="103.08333333333334" cy="141.16129032258064" fill="#53717c" r="3.3125"><title>2025-03-15: 2 km</title></circle><circle cx="103.08333333333334" cy="149.99999999999997" fill="#4eb5d8" r="3.3125"><title>2025-03-16: 7 km</title></circle><circle cx="103.08333333333334" cy="158.83870967741933" fill="#555555" r="3.3125"><title>2025-03-17</title></circle><circle cx="103.08333333333334" cy="167.6774193548387" fill="#FFFF00" r="3.3125"><title>2025-03-18: 13 km</title></circle><circle cx="103.08333333333334" cy="176.51612903225805" fill="#509cb5" r="3.3125"><title>2025-03-19: 5 km</title></circle><circle cx="103.08333333333334" cy="185.35483870967738" fill="#4eb9de" r="3.3125"><title>2025-03-20: 8 km</title></circle><circle cx="103.08333333333334" cy="194.19354838709674" fill="#536a72" r="3.3125"><title>2025-03-21: 1 km</title></circle><circle cx="103.08333333333334" cy="203.0322580645161" fill="#4eb9dd" r="3.3125"><title>2025-03-22: 8 km</title></circle><circle cx="103.08333333333334" cy="211.87096774193546" fill="#555555" r="3.3125"><title>2025-03-23</title></circle><circle cx="103.08333333333334" cy="220.70967741935482" fill="#527580" r="3.3125"><title>2025-03-24: 2 km</title></circle><circle cx="103.08333333333334" cy="229.54838709677418" fill="#509ab3" r="3.3125"><title>2025-03-25: 5 km</title></circle><circle cx="103.08333333333334" cy="238.3870967741935" fill="#FFFF00" r="3.3125"><title>2025-03-26: 15 km</title></circle><circle cx="103.08333333333334" cy="247.22580645161287" fill="#555555" r="3.3125"><title>2025-03-27</title></circle><circle cx="103.08333333333334" cy="256.06451612903226" fill="#536a71" r="3.3125"><title>2025-03-28: 1 km</title></circle><circle cx="103.08333333333334" cy="264.90322580645164" fill="#536b73" r="3.3125"><title>2025-03-29: 1 km</title></circle><circle cx="103.08333333333334" cy="273.741935483871" fill="#555555" r="3.3125"><title>2025-03-30</title></circle><circle cx="103.08333333333334" cy="282.5806451612903" fill="#527a87" r="3.3125"><title>2025-03-31: 2 km</title></circle><circle cx="111.91666666666667" cy="17.419354838709676" fill="#4eb9dd" r="3.3125"><title>2025-04-01: 8 km</title></circle><circle cx="111.91666666666667" cy="26.25806451612903" fill="#536870" r="3.3125"><title>2025-04-02: 1 km</title></circle><circle cx="111.91666666666667" cy="35.096774193548384" fill="#555555" r="3.3125"><title>2025-04-03</title></circle><circle cx="111.91666666666667" cy="43.935483870967744" fill="#FFFF00" r="3.3125"><title>2025-04-04: 14 km</title></circle><circle cx="111.91666666666667" cy="52.774193548387096" fill="#555555" r="3.3125"><title>2025-04-05</title></circle><circle cx="111.91666666666667" cy="61.61290322580645" fill="#4eb9dd" r="3.3125"><title>2025-04-06: 8 km</title></circle><circle cx="111.91666666666667" cy="70.45161290322581" fill="#536c74" r="3.3125"><title>2025-04-07: 1 km</title></circle><circle cx="111.91666666666667" cy="79.29032258064517" fill="#FFFF00" r="3.3125"><title>2025-04-08: 34 km</title></circle><circle cx="111.91666666666667" cy="88.12903225806451" fill="#50a1bd" r="3.3125"><title>2025-04-09: 6 km</title></circle><circle cx="111.91666666666667" cy="96.96774193548387" fill="#509cb5" r="3.3125"><title>2025-04-10: 5 km</title></circle><circle cx="111.91666666666667" cy="105.80645161290322" fill="#4ebadf" r="3.3125"><title>2025-04-11: 8 km</title></circle><circle cx="111.91666666666667" cy="114.64516129032258" fill="#527783" r="3.3125"><title>2025-04-12: 2 km</title></circle><circle cx="111.91666666666667" cy="123.48387096774194" fill="#509eb8" r="3.3125"><title>2025-04-13: 5 km</title></circle><circle cx="111.91666666666667" cy="132.32258064516128" fill="#4eb9dd" r="3.3125"><title>2025-04-14: 8 km</title></circle><circle cx="111.91666666666667" cy="141.16129032258064" fill="#FFFF00" r="3.3125"><title>2025-04-15: 12 km</title></circle><circle cx="111.91666666666667" cy="149.99999999999997" fill="#555555" r="3.3125"><title>2025-04-16</title></circle><circle cx="111.91666666666667" cy="158.83870967741933" fill="#555555" r="3.3125"><title>2025-04-17</title></circle><circle cx="111.91666666666667" cy="167.6774193548387" fill="#4eb9dd" r="3.3125"><title>2025-04-18: 8 km</title></circle><circle cx="111.91666666666667" cy="176.51612903225805" fill="#5093aa" r="3.3125"><title>2025-04-19: 5 km</title></circle><circle cx="111.91666666666667" cy="185.35483870967738" fill="#509fba" r="3.3125"><title>2025-04-20: 5 km</title></circle><circle cx="111.91666666666667" cy="194.19354838709674" fill="#4eb9de" r="3.3125"><title>2025-04-21: 8 km</title></circle><circle cx="111.91666666666667" cy="203.0322580645161" fill="#555555" r="3.3125"><title>2025-04-22</title></circle><circle cx="111.91666666666667" cy="211.87096774193546" fill="#FFFF00" r="3.3125"><title>2025-04-23: 16 km</title></circle><circle cx="111.91666666666667" cy="220.70967741935482" fill="#555555" r="3.3125"><title>2025-04-24</title></circle><circle cx="111.91666666666667" cy="229.54838709677418" fill="#4eb9dd" r="3.3125"><title>2025-04-25: 8 km</title></circle><circle cx="111.91666666666667" cy="238.3870967741935" fill="#555555" r="3.3125"><title>2025-04-26</title></circle><circle cx="111.91666666666667" cy="247.22580645161287" fill="#555555" r="3.3125"><title>2025-04-27</title></circle><circle cx="111.91666666666667" cy="256.06451612903226" fill="#4ebadf" r="3.3125"><title>2025-04-28: 8 km</title></circle><circle cx="111.91666666666667" cy="264.90322580645164" fill="#555555" r="3.3125"><title>2025-04-29</title></circle><circle cx="111.91666666666667" cy="273.741935483871" fill="#FFFF00" r="3.3125"><title>2025-04-30: 11 km</title></circle><circle cx="120.75000000000001" cy="17.419354838709676" fill="#555555" r="3.3125"><title>2025-05-01</title></circle><circle cx="120.75000000000001" cy="26.25806451612903" fill="#5093aa" r="3.3125"><title>2025-05-02: 5 km</title></circle><circle cx="120.75000000000001" cy="35.096774193548384" fill="#555555" r="3.3125"><title>2025-05-03</title></circle><circle cx="120.75000000000001" cy="43.935483870967744" fill="#4faece" r="3.3125"><title>2025-05-04: 7 km</title></circle><circle cx="120.75000000000001" cy="52.774193548387096" fill="#509fba" r="3.3125"><title>2025-05-05: 5 km</title></circle><circle cx="120.75000000000001" cy="61.61290322580645" fill="#5093aa" r="3.3125"><title>2025-05-06: 5 km</title></circle><circle cx="120.75000000000001" cy="70.45161290322581" fill="#509fba" r="3.3125"><title>2025-05-07: 5 km</title></circle><circle cx="120.75000000000001" cy="79.29032258064517" fill="#536a72" r="3.3125"><title>2025-05-08: 1 km</title></circle><circle cx="120.75000000000001" cy="88.12903225806451" fill="#FFFF00" r="3.3125"><title>2025-05-09: 10 km</title></circle><circle cx="120.75000000000001" cy="96.96774193548387" fill="#509fba" r="3.3125"><title>2025-05-10: 5 km</title></circle><circle cx="120.75000000000001" cy="105.80645161290322" fill="#5093aa" r="3.3125"><title>2025-05-11: 5 km</title></circle><circle cx="120.75000000000001" cy="114.64516129032258" fill="#555555" r="3.3125"><title>2025-05-12</title></circle><circle cx="120.75000000000001" cy="123.48387096774194" fill="#555555" r="3.3125"><title>2025-05-13</title></circle><circle cx="120.75000000000001" cy="132.32258064516128" fill="#527581" r="3.3125"><title>2025-05-14: 2 km</title></circle><circle cx="120.75000000000001" cy="141.16129032258064" fill="#555555" r="3.3125"><title>2025-05-15</title></circle><circle cx="120.75000000000001" cy="149.99999999999997" fill="#555555" r="3.3125"><title>2025-05-16</title></circle><circle cx="120.75000000000001" cy="158.83870967741933" fill="#5094ab" r="3.3125"><title>2025-05-17: 5 km</title></circle><circle cx="120.75000000000001" cy="167.6774193548387" fill="#555555" r="3.3125"><title>2025-05-18</title></circle><circle cx="120.75000000000001" cy="176.51612903225805" fill="#5093aa" r="3.3125"><title>2025-05-19: 5 km</title></circle><circle cx="120.75000000000001" cy="185.35483870967738" fill="#53676e" r="3.3125"><title>2025-05-20: 1 km</title></circle><circle cx="120.75000000000001" cy="194.19354838709674" fill="#5094ab" r="3.3125"><title>2025-05-21: 5 km</title></circle><circle cx="120.75000000000001" cy="203.0322580645161" fill="#555555" r="3.3125"><title>2025-05-22</title></circle><circle cx="120.75000000000001" cy="211.87096774193546" fill="#555555" r="3.3125"><title>2025-05-23</title></circle><circle cx="120.75000000000001" cy="220.70967741935482" fill="#5095ac" r="3.3125"><title>2025-05-24: 5 km</title></circle><circle cx="120.75000000000001" cy="229.54838709677418" fill="#555555" r="3.3125"><title>2025-05-25</title></circle><circle cx="120.75000000000001" cy="238.3870967741935" fill="#528191" r="3.3125"><title>2025-05-26: 3 km</title></circle><circle cx="120.75000000000001" cy="247.22580645161287" fill="#53666d" r="3.3125"><title>2025-05-27: 1 km</title></circle><circle cx="120.75000000000001" cy="256.06451612903226" fill="#51879a" r="3.3125"><title>2025-05-28: 4 km</title></circle><circle cx="120.75000000000001" cy="264.90322580645164" fill="#518a9d" r="3.3125"><title>2025-05-29: 4 km</title></circle><circle cx="120.75000000000001" cy="273.741935483871" fill="#53686f" r="3.3125"><title>2025-05-30: 1 km</title></circle><circle cx="120.75000000000001" cy="282.5806451612903" fill="#555555" r="3.3125"><title>2025-05-31</title></circle><circle cx="129.58333333333334" cy="17.419354838709676" fill="#555555" r="3.3125"><title>2025-06-01</title></circle><circle cx="129.58333333333334" cy="26.25806451612903" fill="#537079" r="3.3125"><title>2025-06-02: 2 km</title></circle><circle cx="129.58333333333334" cy="35.096774193548384" fill="#555555" r="3.3125"><title>2025-06-03</title></circle><circle cx="129.58333333333334" cy="43.935483870967744" fill="#518ea3" r="3.3125"><title>2025-06-04: 4 km</title></circle><circle cx="129.58333333333334" cy="52.774193548387096" fill="#555555" r="3.3125"><title>2025-06-05</title></circle><circle cx="129.58333333333334" cy="61.61290322580645" fill="#555555" r="3.3125"><title>2025-06-06</title></circle><circle cx="129.58333333333334" cy="70.45161290322581" fill="#555555" r="3.3125"><title>2025-06-07</title></circle><circle cx="129.58333333333334" cy="79.29032258064517" fill="#555555" r="3.3125"><title>2025-06-08</title></circle><circle cx="129.58333333333334" cy="88.12903225806451" fill="#555555" r="3.3125"><title>2025-06-09</title></circle><circle cx="129.58333333333334" cy="96.96774193548387" fill="#555555" r="3.3125"><title>2025-06-10</title></circle><circle cx="129.58333333333334" cy="105.80645161290322" fill="#555555" r="3.3125"><title>2025-06-11</title></circle><circle cx="129.58333333333334" cy="114.64516129032258" fill="#555555" r="3.3125"><title>2025-06-12</title></circle><circle cx="129.58333333333334" cy="123.48387096774194" fill="#50a0bb" r="3.3125"><title>2025-06-13: 6 km</title></circle><circle cx="129.58333333333334" cy="132.32258064516128" fill="#555555" r="3.3125"><title>2025-06-14</title></circle><circle cx="129.58333333333334" cy="141.16129032258064" fill="#555555" r="3.3125"><title>2025-06-15</title></circle><circle cx="129.58333333333334" cy="149.99999999999997" fill="#555555" r="3.3125"><title>2025-06-16</title></circle><circle cx="129.58333333333334" cy="158.83870967741933" fill="#555555" r="3.3125"><title>2025-06-17</title></circle><circle cx="129.58333333333334" cy="167.6774193548387" fill="#555555" r="3.3125"><title>2025-06-18</title></circle><circle cx="129.58333333333334" cy="176.51612903225805" fill="#555555" r="3.3125"><title>2025-06-19</title></circle><circle cx="129.58333333333334" cy="185.35483870967738" fill="#518799" r="3.3125"><title>2025-06-20: 4 km</title></circle><circle cx="129.58333333333334" cy="194.19354838709674" fill="#555555" r="3.3125"><title>2025-06-21</title></circle><circle cx="129.58333333333334" cy="203.0322580645161" fill="#555555" r="3.3125"><title>2025-06-22</title></circle><circle cx="129.58333333333334" cy="211.87096774193546" fill="#555555" r="3.3125"><title>2025-06-23</title></circle><circle cx="129.58333333333334" cy="220.70967741935482" fill="#5093aa" r="3.3125"><title>2025-06-24: 5 km</title></circle><circle cx="129.58333333333334" cy="229.54838709677418" fill="#555555" r="3.3125"><title>2025-06-25</title></circle><circle cx="129.58333333333334" cy="238.3870967741935" fill="#4eb6d9" r="3.3125"><title>2025-06-26: 7 km</title></circle><circle cx="129.58333333333334" cy="247.22580645161287" fill="#555555" r="3.3125"><title>2025-06-27</title></circle><circle cx="129.58333333333334" cy="256.06451612903226" fill="#4eb3d5" r="3.3125"><title>2025-06-28: 7 km</title></circle><circle cx="129.58333333333334" cy="264.90322580645164" fill="#555555" r="3.3125"><title>2025-06-29</title></circle><circle cx="129.58333333333334" cy="273.741935483871" fill="#555555" r="3.3125"><title>2025-06-30</title></circle><circle cx="138.41666666666666" cy="17.419354838709676" fill="#5094ab" r="3.3125"><title>2025-07-01: 5 km</title></circle><circle cx="138.41666666666666" cy="26.25806451612903" fill="#518b9e" r="3.3125"><title>2025-07-02: 4 km</title></circle><circle cx="138.41666666666666" cy="35.096774193548384" fill="#555555" r="3.3125"><title>2025-07-03</title></circle><circle cx="138.41666666666666" cy="43.935483870967744" fill="#4ebfe6" r="3.3125"><title>2025-07-04: 8 km</title></circle><circle cx="138.41666666666666" cy="52.774193548387096" fill="#51889a" r="3.3125"><title>2025-07-05: 4 km</title></circle><circle cx="138.41666666666666" cy="61.61290322580645" fill="#555555" r="3.3125"><title>2025-07-06</title></circle><circle cx="138.41666666666666" cy="70.45161290322581" fill="#51889a" r="3.3125"><title>2025-07-07: 4 km</title></circle><circle cx="138.41666666666666" cy="79.29032258064517" fill="#509eb9" r="3.3125"><title>2025-07-08: 5 km</title></circle><circle cx="138.41666666666666" cy="88.12903225806451" fill="#555555" r="3.3125"><title>2025-07-09</title></circle><circle cx="138.41666666666666" cy="96.96774193548387" fill="#536a71" r="3.3125"><title>2025-07-10: 1 km</title></circle><circle cx="138.41666666666666" cy="105.80645161290322" fill="#555555" r="3.3125"><title>2025-07-11</title></circle><circle cx="138.41666666666666" cy="114.64516129032258" fill="#4fa7c5" r="3.3125"><title>2025-07-12: 6 km</title></circle><circle cx="138.41666666666666" cy="123.48387096774194" fill="#4fa8c6" r="3.3125"><title>2025-07-13: 6 km</title></circle><circle cx="138.41666666666666" cy="132.32258064516128" fill="#528394" r="3.3125"><title>2025-07-14: 3 km</title></circle><circle cx="138.41666666666666" cy="141.16129032258064" fill="#4fa9c7" r="3.3125"><title>2025-07-15: 6 km</title></circle><circle cx="138.41666666666666" cy="149.99999999999997" fill="#555555" r="3.3125"><title>2025-07-16</title></circle><circle cx="138.41666666666666" cy="158.83870967741933" fill="#4faece" r="3.3125"><title>2025-07-17: 7 km</title></circle><circle cx="138.41666666666666" cy="167.6774193548387" fill="#51899c" r="3.3125"><title>2025-07-18: 4 km</title></circle><circle cx="138.41666666666666" cy="176.51612903225805" fill="#4fa8c6" r="3.3125"><title>2025-07-19: 6 km</title></circle><circle cx="138.41666666666666" cy="185.35483870967738" fill="#555555" r="3.3125"><title>2025-07-20</title></circle><circle cx="138.41666666666666" cy="194.19354838709674" fill="#4fa6c4" r="3.3125"><title>2025-07-21: 6 km</title></circle><circle cx="138.41666666666666" cy="203.0322580645161" fill="#5093aa" r="3.3125"><title>2025-07-22: 5 km</title></circle><circle cx="138.41666666666666" cy="211.87096774193546" fill="#527581" r="3.3125"><title>2025-07-23: 2 km</title></circle><circle cx="138.41666666666666" cy="220.70967741935482" fill="#5096ad" r="3.3125"><title>2025-07-24: 5 km</title></circle><circle cx="138.41666666666666" cy="229.54838709677418" fill="#555555" r="3.3125"><title>2025-07-25</title></circle><circle cx="138.41666666666666" cy="238.3870967741935" fill="#4fa7c5" r="3.3125"><title>2025-07-26: 6 km</title></circle><circle cx="138.41666666666666" cy="247.22580645161287" fill="#536970" r="3.3125"><title>2025-07-27: 1 km</title></circle><circle cx="138.41666666666666" cy="256.06451612903226" fill="#5093aa" r="3.3125"><title>2025-07-28: 5 km</title></circle><circle cx="138.41666666666666" cy="264.90322580645164" fill="#53686f" r="3.3125"><title>2025-07-29: 1 km</title></circle><circle cx="138.41666666666666" cy="273.741935483871" fill="#555555" r="3.3125"><title>2025-07-30</title></circle><circle cx="138.41666666666666" cy="282.5806451612903" fill="#4fa7c5" r="3.3125"><title>2025-07-31: 6 km</title></circle><circle cx="147.25" cy="17.419354838709676" fill="#536870" r="3.3125"><title>2025-08-01: 1 km</title></circle><circle cx="147.25" cy="26.25806451612903" fill="#5093aa" r="3.3125"><title>2025-08-02: 5 km</title></circle><circle cx="147.25" cy="35.096774193548384" fill="#5093aa" r="3.3125"><title>2025-08-03: 5 km</title></circle><circle cx="147.25" cy="43.935483870967744" fill="#555555" r="3.3125"><title>2025-08-04</title></circle><circle cx="147.25" cy="52.774193548387096" fill="#4ebce1" r="3.3125"><title>2025-08-05: 8 km</title></circle><circle cx="147.25" cy="61.61290322580645" fill="#536b73" r="3.3125"><title>2025-08-06: 1 km</title></circle><circle cx="147.25" cy="70.45161290322581" fill="#509db7" r="3.3125"><title>2025-08-07: 5 km</title></circle><circle cx="147.25" cy="79.29032258064517" fill="#4faece" r="3.3125"><title>2025-08-08: 7 km</title></circle><circle cx="147.25" cy="88.12903225806451" fill="#555555" r="3.3125"><title>2025-08-09</title></circle><circle cx="147.25" cy="96.96774193548387" fill="#50a1bd" r="3.3125"><title>2025-08-10: 6 km</title></circle><circle cx="147.25" cy="105.80645161290322" fill="#4dc5ed" r="3.3125"><title>2025-08-11: 8 km</title></circle><circle cx="147.25" cy="114.64516129032258" fill="#527681" r="3.3125"><title>2025-08-12: 2 km</title></circle><circle cx="147.25" cy="123.48387096774194" fill="#4eb3d5" r="3.3125"><title>2025-08-13: 7 km</title></circle><circle cx="147.25" cy="132.32258064516128" fill="#52747f" r="3.3125"><title>2025-08-14: 2 km</title></circle><circle cx="147.25" cy="141.16129032258064" fill="#555555" r="3.3125"><title>2025-08-15</title></circle><circle cx="147.25" cy="149.99999999999997" fill="#4dc5ee" r="3.3125"><title>2025-08-16: 9 km</title></circle><circle cx="147.25" cy="158.83870967741933" fill="#4fadcd" r="3.3125"><title>2025-08-17: 7 km</title></circle><circle cx="147.25" cy="167.6774193548387" fill="#4ec0e7" r="3.3125"><title>2025-08-18: 8 km</title></circle><circle cx="147.25" cy="176.51612903225805" fill="#527580" r="3.3125"><title>2025-08-19: 2 km</title></circle><circle cx="147.25" cy="185.35483870967738" fill="#4fabca" r="3.3125"><title>2025-08-20: 6 km</title></circle><circle cx="147.25" cy="194.19354838709674" fill="#527480" r="3.3125"><title>2025-08-21: 2 km</title></circle><circle cx="147.25" cy="203.0322580645161" fill="#4eb3d5" r="3.3125"><title>2025-08-22: 7 km</title></circle><circle cx="147.25" cy="211.87096774193546" fill="#536970" r="3.3125"><title>2025-08-23: 1 km</title></circle><circle cx="147.25" cy="220.70967741935482" fill="#51899c" r="3.3125"><title>2025-08-24: 4 km</title></circle><circle cx="147.25" cy="229.54838709677418" fill="#53666c" r="3.3125"><title>2025-08-25: 1 km</title></circle><circle cx="147.25" cy="238.3870967741935" fill="#53727d" r="3.3125"><title>2025-08-26: 2 km</title></circle><circle cx="147.25" cy="247.22580645161287" fill="#527480" r="3.3125"><title>2025-08-27: 2 km</title></circle><circle cx="147.25" cy="256.06451612903226" fill="#527581" r="3.3125"><title>2025-08-28: 2 km</title></circle><circle cx="147.25" cy="264.90322580645164" fill="#527784" r="3.3125"><title>2025-08-29: 2 km</title></circle><circle cx="147.25" cy="273.741935483871" fill="#4faccb" r="3.3125"><title>2025-08-30: 6 km</title></circle><circle cx="147.25" cy="282.5806451612903" fill="#4dcffb" r="3.3125"><title>2025-08-31: 9 km</title></circle><circle cx="156.08333333333334" cy="17.419354838709676" fill="#527480" r="3.3125"><title>2025-09-01: 2 km</title></circle><circle cx="156.08333333333334" cy="26.25806451612903" fill="#5093aa" r="3.3125"><title>2025-09-02: 5 km</title></circle><circle cx="156.08333333333334" cy="35.096774193548384" fill="#5096ae" r="3.3125"><title>2025-09-03: 5 km</title></circle><circle cx="156.08333333333334" cy="43.935483870967744" fill="#555555" r="3.3125"><title>2025-09-04</title></circle><circle cx="156.08333333333334" cy="52.774193548387096" fill="#53737e" r="3.3125"><title>2025-09-05: 2 km</title></circle><circle cx="156.08333333333334" cy="61.61290322580645" fill="#555555" r="3.3125"><title>2025-09-06</title></circle><circle cx="156.08333333333334" cy="70.45161290322581" fill="#555555" r="3.3125"><title>2025-09-07</title></circle><circle cx="156.08333333333334" cy="79.29032258064517" fill="#536c75" r="3.3125"><title>2025-09-08: 1 km</title></circle><circle cx="156.08333333333334" cy="88.12903225806451" fill="#5093aa" r="3.3125"><title>2025-09-09: 5 km</title></circle><circle cx="156.08333333333334" cy="96.96774193548387" fill="#53747f" r="3.3125"><title>2025-09-10: 2 km</title></circle><circle cx="156.08333333333334" cy="105.80645161290322" fill="#53737d" r="3.3125"><title>2025-09-11: 2 km</title></circle><circle cx="156.08333333333334" cy="114.64516129032258" fill="#4faac9" r="3.3125"><title>2025-09-12: 6 km</title></circle><circle cx="156.08333333333334" cy="123.48387096774194" fill="#527682" r="3.3125"><title>2025-09-13: 2 km</title></circle><circle cx="156.08333333333334" cy="132.32258064516128" fill="#555555" r="3.3125"><title>2025-09-14</title></circle><circle cx="156.08333333333334" cy="141.16129032258064" fill="#4fa7c5" r="3.3125"><title>2025-09-15: 6 km</title></circle><circle cx="156.08333333333334" cy="149.99999999999997" fill="#555555" r="3.3125"><title>2025-09-16</title></circle><circle cx="156.08333333333334" cy="158.83870967741933" fill="#4fb2d4" r="3.3125"><title>2025-09-17: 7 km</title></circle><circle cx="156.08333333333334" cy="167.6774193548387" fill="#4eb2d4" r="3.3125"><title>2025-09-18: 7 km</title></circle><circle cx="156.08333333333334" cy="176.51612903225805" fill="#555555" r="3.3125"><title>2025-09-19</title></circle><circle cx="156.08333333333334" cy="185.35483870967738" fill="#5093aa" r="3.3125"><title>2025-09-20: 5 km</title></circle><circle cx="156.08333333333334" cy="194.19354838709674" fill="#555555" r="3.3125"><title>2025-09-21</title></circle><circle cx="156.08333333333334" cy="203.0322580645161" fill="#527a88" r="3.3125"><title>2025-09-22: 3 km</title></circle><circle cx="156.08333333333334" cy="211.87096774193546" fill="#555555" r="3.3125"><title>2025-09-23</title></circle><circle cx="156.08333333333334" cy="220.70967741935482" fill="#555555" r="3.3125"><title>2025-09-24</title></circle><circle cx="156.08333333333334" cy="229.54838709677418" fill="#51879a" r="3.3125"><title>2025-09-25: 4 km</title></circle><circle cx="156.08333333333334" cy="238.3870967741935" fill="#555555" r="3.3125"><title>2025-09-26</title></circle><circle cx="156.08333333333334" cy="247.22580645161287" fill="#555555" r="3.3125"><title>2025-09-27</title></circle><circle cx="156.08333333333334" cy="256.06451612903226" fill="#4eb8dc" r="3.3125"><title>2025-09-28: 7 km</title></circle><circle cx="156.08333333333334" cy="264.90322580645164" fill="#555555" r="3.3125"><title>2025-09-29</title></circle><circle cx="156.08333333333334" cy="273.741935483871" fill="#527480" r="3.3125"><title>2025-09-30: 2 km</title></circle><circle cx="164.91666666666666" cy="17.419354838709676" fill="#51899c" r="3.3125"><title>2025-10-01: 4 km</title></circle><circle cx="164.91666666666666" cy="26.25806451612903" fill="#555555" r="3.3125"><title>2025-10-02</title></circle><circle cx="164.91666666666666" cy="35.096774193548384" fill="#53737e" r="3.3125"><title>2025-10-03: 2 km</title></circle><circle cx="164.91666666666666" cy="43.935483870967744" fill="#4fb1d3" r="3.3125"><title>2025-10-04: 7 km</title></circle><circle cx="164.91666666666666" cy="52.774193548387096" fill="#53737e" r="3.3125"><title>2025-10-05: 2 km</title></circle><circle cx="164.91666666666666" cy="61.61290322580645" fill="#5097af" r="3.3125"><title>2025-10-06: 5 km</title></circle><circle cx="164.91666666666666" cy="70.45161290322581" fill="#53737e" r="3.3125"><title>2025-10-07: 2 km</title></circle><circle cx="164.91666666666666" cy="79.29032258064517" fill="#4fb1d3" r="3.3125"><title>2025-10-08: 7 km</title></circle><circle cx="164.91666666666666" cy="88.12903225806451" fill="#555555" r="3.3125"><title>2025-10-09</title></circle><circle cx="164.91666666666666" cy="96.96774193548387" fill="#4fb1d2" r="3.3125"><title>2025-10-10: 7 km</title></circle><circle cx="164.91666666666666" cy="105.80645161290322" fill="#53747f" r="3.3125"><title>2025-10-11: 2 km</title></circle><circle cx="164.91666666666666" cy="114.64516129032258" fill="#527b89" r="3.3125"><title>2025-10-12: 3 km</title></circle><circle cx="164.91666666666666" cy="123.48387096774194" fill="#53727d" r="3.3125"><title>2025-10-13: 2 km</title></circle><circle cx="164.91666666666666" cy="132.32258064516128" fill="#53737e" r="3.3125"><title>2025-10-14: 2 km</title></circle><circle cx="164.91666666666666" cy="141.16129032258064" fill="#555555" r="3.3125"><title>2025-10-15</title></circle><circle cx="164.91666666666666" cy="149.99999999999997" fill="#53737e" r="3.3125"><title>2025-10-16: 2 km</title></circle><circle cx="164.91666666666666" cy="158.83870967741933" fill="#555555" r="3.3125"><title>2025-10-17</title></circle><circle cx="164.91666666666666" cy="167.6774193548387" fill="#4fb2d3" r="3.3125"><title>2025-10-18: 7 km</title></circle><circle cx="164.91666666666666" cy="176.51612903225805" fill="#53727d" r="3.3125"><title>2025-10-19: 2 km</title></circle><circle cx="164.91666666666666" cy="185.35483870967738" fill="#50a0bb" r="3.3125"><title>2025-10-20: 6 km</title></circle><circle cx="164.91666666666666" cy="194.19354838709674" fill="#555555" r="3.3125"><title>2025-10-21</title></circle><circle cx="164.91666666666666" cy="203.0322580645161" fill="#53737e" r="3.3125"><title>2025-10-22: 2 km</title></circle><circle cx="164.91666666666666" cy="211.87096774193546" fill="#555555" r="3.3125"><title>2025-10-23</title></circle><circle cx="164.91666666666666" cy="220.70967741935482" fill="#509cb6" r="3.3125"><title>2025-10-24: 5 km</title></circle><circle cx="164.91666666666666" cy="229.54838709677418" fill="#518597" r="3.3125"><title>2025-10-25: 3 km</title></circle><circle cx="164.91666666666666" cy="238.3870967741935" fill="#4ebade" r="3.3125"><title>2025-10-26: 8 km</title></circle><circle cx="164.91666666666666" cy="247.22580645161287" fill="#555555" r="3.3125"><title>2025-10-27</title></circle><circle cx="164.91666666666666" cy="256.06451612903226" fill="#FFFF00" r="3.3125"><title>2025-10-28: 13 km</title></circle><circle cx="164.91666666666666" cy="264.90322580645164" fill="#555555" r="3.3125"><title>2025-10-29</title></circle><circle cx="164.91666666666666" cy="273.741935483871" fill="#555555" r="3.3125"><title>2025-10-30</title></circle><circle cx="164.91666666666666" cy="282.5806451612903" fill="#555555" r="3.3125"><title>2025-10-31</title></circle><circle cx="173.75" cy="17.419354838709676" fill="#527a88" r="3.3125"><title>2025-11-01: 3 km</title></circle><circle cx="173.75" cy="26.25806451612903" fill="#555555" r="3.3125"><title>2025-11-02</title></circle><circle cx="173.75" cy="35.096774193548384" fill="#4eb4d6" r="3.3125"><title>2025-11-03: 7 km</title></circle><circle cx="173.75" cy="43.935483870967744" fill="#555555" r="3.3125"><title>2025-11-04</title></circle><circle cx="173.75" cy="52.774193548387096" fill="#527683" r="3.3125"><title>2025-11-05: 2 km</title></circle><circle cx="173.75" cy="61.61290322580645" fill="#527783" r="3.3125"><title>2025-11-06: 2 km</title></circle><circle cx="173.75" cy="70.45161290322581" fill="#527783" r="3.3125"><title>2025-11-07: 2 km</title></circle><circle cx="173.75" cy="79.29032258064517" fill="#51879a" r="3.3125"><title>2025-11-08: 4 km</title></circle><circle cx="173.75" cy="88.12903225806451" fill="#527682" r="3.3125"><title>2025-11-09: 2 km</title></circle><circle cx="173.75" cy="96.96774193548387" fill="#527784" r="3.3125"><title>2025-11-10: 2 km</title></circle><circle cx="173.75" cy="105.80645161290322" fill="#527682" r="3.3125"><title>2025-11-11: 2 km</title></circle><circle cx="173.75" cy="114.64516129032258" fill="#518799" r="3.3125"><title>2025-11-12: 4 km</title></circle><circle cx="173.75" cy="123.48387096774194" fill="#50a1bd" r="3.3125"><title>2025-11-13: 6 km</title></circle><circle cx="173.75" cy="132.32258064516128" fill="#527580" r="3.3125"><title>2025-11-14: 2 km</title></circle><circle cx="173.75" cy="141.16129032258064" fill="#527783" r="3.3125"><title>2025-11-15: 2 km</title></circle><circle cx="173.75" cy="149.99999999999997" fill="#5098b0" r="3.3125"><title>2025-11-16: 5 km</title></circle><circle cx="173.75" cy="158.83870967741933" fill="#555555" r="3.3125"><title>2025-11-17</title></circle><circle cx="173.75" cy="167.6774193548387" fill="#527682" r="3.3125"><title>2025-11-18: 2 km</title></circle><circle cx="173.75" cy="176.51612903225805" fill="#555555" r="3.3125"><title>2025-11-19</title></circle><circle cx="173.75" cy="185.35483870967738" fill="#527580" r="3.3125"><title>2025-11-20: 2 km</title></circle><circle cx="173.75" cy="194.19354838709674" fill="#527682" r="3.3125"><title>2025-11-21: 2 km</title></circle><circle cx="173.75" cy="203.0322580645161" fill="#527682" r="3.3125"><title>2025-11-22: 2 km</title></circle><circle cx="173.75" cy="211.87096774193546" fill="#527683" r="3.3125"><title>2025-11-23: 2 km</title></circle><circle cx="173.75" cy="220.70967741935482" fill="#527682" r="3.3125"><title>2025-11-24: 2 km</title></circle><circle cx="173.75" cy="229.54838709677418" fill="#527581" r="3.3125"><title>2025-11-25: 2 km</title></circle><circle cx="173.75" cy="238.3870967741935" fill="#527683" r="3.3125"><title>2025-11-26: 2 km</title></circle><circle cx="173.75" cy="247.22580645161287" fill="#527986" r="3.3125"><title>2025-11-27: 2 km</title></circle><circle cx="173.75" cy="256.06451612903226" fill="#527682" r="3.3125"><title>2025-11-28: 2 km</title></circle><circle cx="173.75" cy="264.90322580645164" fill="#527682" r="3.3125"><title>2025-11-29: 2 km</title></circle><circle cx="173.75" cy="273.741935483871" fill="#527884" r="3.3125"><title>2025-11-30: 2 km</title></circle><circle cx="182.58333333333334" cy="17.419354838709676" fill="#4eb7da" r="3.3125"><title>2025-12-01: 7 km</title></circle><circle cx="182.58333333333334" cy="26.25806451612903" fill="#527682" r="3.3125"><title>2025-12-02: 2 km</title></circle><circle cx="182.58333333333334" cy="35.096774193548384" fill="#527480" r="3.3125"><title>2025-12-03: 2 km</title></circle><circle cx="182.58333333333334" cy="43.935483870967744" fill="#527682" r="3.3125"><title>2025-12-04: 2 km</title></circle><circle cx="182.58333333333334" cy="52.774193548387096" fill="#527682" r="3.3125"><title>2025-12-05: 2 km</title></circle><circle cx="182.58333333333334" cy="61.61290322580645" fill="#527581" r="3.3125"><title>2025-12-06: 2 km</title></circle><circle cx="182.58333333333334" cy="70.45161290322581" fill="#527581" r="3.3125"><title>2025-12-07: 2 km</title></circle><circle cx="182.58333333333334" cy="79.29032258064517" fill="#527581" r="3.3125"><title>2025-12-08: 2 km</title></circle><circle cx="182.58333333333334" cy="88.12903225806451" fill="#527783" r="3.3125"><title>2025-12-09: 2 km</title></circle><circle cx="182.58333333333334" cy="96.96774193548387" fill="#527682" r="3.3125"><title>2025-12-10: 2 km</title></circle><circle cx="182.58333333333334" cy="105.80645161290322" fill="#527682" r="3.3125"><title>2025-12-11: 2 km</title></circle><circle cx="182.58333333333334" cy="114.64516129032258" fill="#527682" r="3.3125"><title>2025-12-12: 2 km</title></circle><circle cx="182.58333333333334" cy="123.48387096774194" fill="#555555" r="3.3125"><title>2025-12-13</title></circle><circle cx="182.58333333333334" cy="132.32258064516128" fill="#527682" r="3.3125"><title>2025-12-14: 2 km</title></circle><circle cx="182.58333333333334" cy="141.16129032258064" fill="#527480" r="3.3125"><title>2025-12-15: 2 km</title></circle><circle cx="182.58333333333334" cy="149.99999999999997" fill="#527683" r="3.3125"><title>2025-12-16: 2 km</title></circle><circle cx="182.58333333333334" cy="158.83870967741933" fill="#527682" r="3.3125"><title>2025-12-17: 2 km</title></circle><circle cx="182.58333333333334" cy="167.6774193548387" fill="#51899b" r="3.3125"><title>2025-12-18: 4 km</title></circle><circle cx="182.58333333333334" cy="176.51612903225805" fill="#527682" r="3.3125"><title>2025-12-19: 2 km</title></circle><circle cx="182.58333333333334" cy="185.35483870967738" fill="#527885" r="3.3125"><title>2025-12-20: 2 km</title></circle><circle cx="182.58333333333334" cy="194.19354838709674" fill="#527682" r="3.3125"><title>2025-12-21: 2 km</title></circle><circle cx="182.58333333333334" cy="203.0322580645161" fill="#527682" r="3.3125"><title>2025-12-22: 2 km</title></circle><circle cx="182.58333333333334" cy="211.87096774193546" fill="#555555" r="3.3125"><title>2025-12-23</title></circle><circle cx="182.58333333333334" cy="220.70967741935482" fill="#527783" r="3.3125"><title>2025-12-24: 2 km</title></circle><circle cx="182.58333333333334" cy="229.54838709677418" fill="#527682" r="3.3125"><title>2025-12-25: 2 km</title></circle><circle cx="182.58333333333334" cy="238.3870967741935" fill="#555555" r="3.3125"><title>2025-12-26</title></circle><circle cx="182.58333333333334" cy="247.22580645161287" fill="#555555" r="3.3125"><title>2025-12-27</title></circle><circle cx="182.58333333333334" cy="256.06451612903226" fill="#527885" r="3.3125"><title>2025-12-28: 2 km</title></circle><circle cx="182.58333333333334" cy="264.90322580645164" fill="#555555" r="3.3125"><title>2025-12-29</title></circle><circle cx="182.58333333333334" cy="273.741935483871" fill="#555555" r="3.3125"><title>2025-12-30</title></circle><circle cx="182.58333333333334" cy="282.5806451612903" fill="#527682" r="3.3125"><title>2025-12-31: 2 km</title></circle></svg>