<?xml version="1.0" encoding="utf-8" ?>
<svg baseProfile="full" height="200mm" version="1.1" viewBox="0,0,200,200" width="200mm" xmlns="http://www.w3.org/2000/svg" xmlns:ev="http://www.w3.org/2001/xml-events" xmlns:xlink="http://www.w3.org/1999/xlink"><defs /><rect fill="#1a1a1a" height="200" width="200" x="0" y="0" /><text alignment-baseline="middle" fill="#e1ed5e" style="dominant-baseline: central; font-size:9.0px; font-family:Arial;" text-anchor="middle" x="100.0" y="100.0">2025</text><line stroke="#e1ed5e" stroke-width="0.3" x1="100.0" x2="100.0" y1="15.0" y2="10.0" /><path d="M 100.0 14.0 a86.0,86.0 0 0,1 42.46469731375804,11.215312516191453" fill="none" id="id37" stroke="none" /><text fill="#e1ed5e" style="font-size:6.75px; font-family:Arial;" text-anchor="middle"><textPath startOffset="22.20632615414155" xlink:href="#id37">January</textPath></text><path d="M 100.0 79.0 l 0.0 -10.619050997468086 a31.619050997468086,31.619050997468086 0 0,0 0.5442699861289181,0.004684703602778675 l -0.18278950685638973 10.617477670473866" fill="#ff750a" stroke="none" /><path d="M 100.36148047927253 79.00311137660856 l 1.084441437817585 -62.990665870174325 a84.0,84.0 0 0,0 1.4454934592205289,0.03733283143056143 l -2.1685615322329816 62.9626662466014" fill="#4dd2ff" stroke="none" /><path d="M 100.72285384407766 79.0124445844662 l 0.5771682852116665 -16.75767718358714 a37.7676136590384,37.7676136590384 0 0,0 0.6495295196066487,0.027970107435901066 l -0.8655386372076468 16.745259349627045" fill="#ffc812" stroke="none" /><path d="M 101.08401301168833 79.027996857942 l 0.5463205239532998 -10.569463301067431 a31.5835731483986,31.5835731483986 0 0,0 0.5426929440567809,0.03273672041565017 l -0.7281755168496926 10.558493311271477" fill="#ff740a" stroke="none" /><path d="M 101.44485096284872 79.0497635885617 l 4.278939314719287 -62.04431636105924 a83.19169168281447,83.19169168281447 0 0,0 1.427766754572841,0.11082217918689673 l -5.346296258654469 61.96146891968388" fill="#4cdaff" stroke="none" /><path d="M 101.80526077348638 79.07773832637324 l 3.7980670733849813 -44.018102165862004 a65.18165492348828,65.18165492348828 0 0,0 1.1170114181732336,0.10607369355284596 l -4.555203618648459 43.94620292779398" fill="#35ff66" stroke="none" /><path d="M 102.16513564639614 79.11191278185805 l 0.37312710078966344 -3.599733549128848 a24.619019958230055,24.619019958230055 0 0,0 0.4211415093311833,0.04732015557629547 l -0.43503531363057196 3.592777440081951" fill="#ff1001" stroke="none" /><path d="M 102.52436894288641 79.15227682838746 l 1.0117971067036626 -8.35601548887605 a29.417049853450457,29.417049853450457 0 0,0 0.5021704334863054,0.06519613465446529 l -1.1554822686978141 8.337361031057448" fill="#ff5608" stroke="none" /><path d="M 102.88285421437855 79.19881850522331 l 7.390591986820838 -53.3266803797922 a74.83637887380776,74.83637887380776 0 0,0 1.2744671656032036,0.18782333105091445 l -8.307428132852698 53.191562564580316" fill="#41ffd1" stroke="none" /><path d="M 103.59715602781102 79.31037775812273 l 0.4636071076588943 -2.666510946968504 a23.706512918974287,23.706512918974287 0 0,0 0.40143579312496985,0.07335982528057346 l -0.509438021886765 2.6581356403371923" fill="#ff0300" stroke="none" /><path d="M 103.95276090670814 79.375362276772 l 1.5268154865589096 -7.966587664599375 a29.111577192367896,29.111577192367896 0 0,0 0.49133908716028074,0.09855799860620611 l -1.6637209831863158 7.9391257099159604" fill="#ff5207" stroke="none" /><path d="M 104.307194497241 79.44645832069477 l 12.086600336163752 -57.67616111359134 a79.92898665756182,79.92898665756182 0 0,0 1.344166818531121,0.2937828038494778 l -13.077609878848401 57.45956481164599" fill="#48f9ff" stroke="none" /><path d="M 104.66035177308747 79.52364482259891 l 1.5269858397610547 -6.709172596448663 a27.880747247484713,27.880747247484713 0 0,0 0.46703745102142585,0.11053267528192033 l -1.642246977745004 6.681894009025873" fill="#ff4006" stroke="none" /><path d="M 105.01212808612495 79.60689891045804 l 2.2827839723938723 -9.288079537210342 a30.56449288536323,30.56449288536323 0 0,0 0.5098319133139301,0.12996750658480435 l -2.4423247743928274 9.24740903445667" fill="#ff6609" stroke="none" /><path d="M 105.36241919743992 79.69619591428918 l 0.6417897072028814 -2.4300174976051934 a23.513340221088058,23.513340221088058 0 0,0 0.3904357793568773,0.10672084729524497 l -0.6835233757834696 2.4186101094836547" fill="#ff0000" stroke="none" /><line stroke="#e1ed5e" stroke-width="0.3" x1="143.23703022742887" x2="145.7803849466894" y1="26.81831364943548" y2="22.513508569990506" /><path d="M 143.74570117128098 25.957352633546492 a86.0,86.0 0 0,1 28.547481713284135,27.462654790039103" fill="none" id="id38" stroke="none" /><text fill="#e1ed5e" style="font-size:6.75px; font-family:Arial;" text-anchor="middle"><textPath startOffset="19.985693538727396" xlink:href="#id38">February</textPath></text><line stroke="#e1ed5e" stroke-width="0.3" x1="172.23445277983987" x2="176.4835382374775" y1="55.19839476539836" y2="52.563006222186495" /><path d="M 173.08426987136738 54.67131705675599 a86.0,86.0 0 0,1 12.851231095245387,41.99856678651699" fill="none" id="id39" stroke="none" /><text fill="#e1ed5e" style="font-size:6.75px; font-family:Arial;" text-anchor="middle"><textPath startOffset="22.20632615414155" xlink:href="#id39">March</textPath></text><line stroke="#e1ed5e" stroke-width="0.3" x1="184.98032266829074" x2="189.97916517819016" y1="98.17113171792111" y2="98.06355123074" /><path d="M 185.9800911702706 98.14961562048488 a86.0,86.0 0 0,1 -9.607161424134198,41.387399972396054" fill="none" id="id40" stroke="none" /><text fill="#e1ed5e" style="font-size:6.75px; font-family:Arial;" text-anchor="middle"><textPath startOffset="21.466115282336823" xlink:href="#id40">April</textPath></text><line stroke="#e1ed5e" stroke-width="0.3" x1="174.80103733775053" x2="179.2010983576182" y1="140.37084112569926" y2="142.7455964860345" /><path d="M 175.68104954172406 140.8457921977663 a86.0,86.0 0 0,1 -30.038265399797805,32.042727171017184" fill="none" id="id41" stroke="none" /><text fill="#e1ed5e" style="font-size:6.75px; font-family:Arial;" text-anchor="middle"><textPath startOffset="22.206326154141568" xlink:href="#id41">May</textPath></text><line stroke="#e1ed5e" stroke-width="0.3" x1="143.8653032363475" x2="146.44561519142675" y1="172.8068346515853" y2="177.08958963109032" /><path d="M 144.38136562736335 173.6633856474863 a86.0,86.0 0 0,1 -40.68145358897372,12.25698825130547" fill="none" id="id42" stroke="none" /><text fill="#e1ed5e" style="font-size:6.75px; font-family:Arial;" text-anchor="middle"><textPath startOffset="21.466115282336833" xlink:href="#id42">June</textPath></text><line stroke="#e1ed5e" stroke-width="0.3" x1="102.19456741930631" x2="102.32365962044197" y1="184.97166512339345" y2="189.96999836594603" /><path d="M 102.22038585953345 185.97133177190398 a86.0,86.0 0 0,1 -42.740103519485714,-10.115201625700543" fill="none" id="id43" stroke="none" /><text fill="#e1ed5e" style="font-size:6.75px; font-family:Arial;" text-anchor="middle"><textPath startOffset="22.20632615414155" xlink:href="#id43">July</textPath></text><line stroke="#e1ed5e" stroke-width="0.3" x1="58.666819895761336" x2="56.23545636021788" y1="174.27360380694188" y2="178.64263932499728" /><path d="M 58.180547188652646 175.14741091055294 a86.0,86.0 0 0,1 -31.652253787137756,-30.449443065178592" fill="none" id="id44" stroke="none" /><text fill="#e1ed5e" style="font-size:6.75px; font-family:Arial;" text-anchor="middle"><textPath startOffset="22.20632615414155" xlink:href="#id44">August</textPath></text><line stroke="#e1ed5e" stroke-width="0.3" x1="26.63291911575756" x2="22.317208475507996" y1="142.92168965132927" y2="145.44649492493687" /><path d="M 25.769776987707644 143.4266507060508 a86.0,86.0 0 0,1 -11.730757126820373,-40.83630448921669" fill="none" id="id45" stroke="none" /><text fill="#e1ed5e" style="font-size:6.75px; font-family:Arial;" text-anchor="middle"><textPath startOffset="21.46611528233685" xlink:href="#id45">September</textPath></text><line stroke="#e1ed5e" stroke-width="0.3" x1="15.007084014347285" x2="10.007500721073583" y1="101.09737516637583" y2="101.16192664675087" /><path d="M 14.007167355692545 101.11028546245083 a86.0,86.0 0 0,1 10.666146001902534,-42.60595125391555" fill="none" id="id46" stroke="none" /><text fill="#e1ed5e" style="font-size:6.75px; font-family:Arial;" text-anchor="middle"><textPath startOffset="22.20632615414155" xlink:href="#id46">October</textPath></text><line stroke="#e1ed5e" stroke-width="0.3" x1="26.266209847984243" x2="21.928928074336255" y1="57.711370442889674" y2="55.22380399835377" /><path d="M 25.398753493254645 57.213857153982495 a86.0,86.0 0 0,1 29.58750427330803,-30.492523968695096" fill="none" id="id47" stroke="none" /><text fill="#e1ed5e" style="font-size:6.75px; font-family:Arial;" text-anchor="middle"><textPath startOffset="21.46611528233685" xlink:href="#id47">November</textPath></text><line stroke="#e1ed5e" stroke-width="0.3" x1="56.762969772571076" x2="54.21961505331055" y1="26.818313649435495" y2="22.513508569990535" /><path d="M 56.25429882871897 25.957352633546506 a86.0,86.0 0 0,1 42.265352541879196,-11.944610805530505" fill="none" id="id48" stroke="none" /><text fill="#e1ed5e" style="font-size:6.75px; font-family:Arial;" text-anchor="middle"><textPath startOffset="22.20632615414155" xlink:href="#id48">December</textPath></text></svg>