<?xml version="1.0" encoding="utf-8" ?>
<svg baseProfile="full" height="200mm" version="1.1" viewBox="0,0,200,200" width="200mm" xmlns="http://www.w3.org/2000/svg" xmlns:ev="http://www.w3.org/2001/xml-events" xmlns:xlink="http://www.w3.org/1999/xlink"><defs /><rect fill="#1a1a1a" height="200" width="200" x="0" y="0" /><text alignment-baseline="middle" fill="#e1ed5e" style="dominant-baseline: central; font-size:9.0px; font-family:Arial;" text-anchor="middle" x="100.0" y="100.0">2024</text><line stroke="#e1ed5e" stroke-width="0.3" x1="100.0" x2="100.0" y1="15.0" y2="10.0" /><path d="M 100.0 14.0 a86.0,86.0 0 0,1 42.35913384403234,11.155469271406648" fill="none" id="id25" stroke="none" /><text fill="#e1ed5e" style="font-size:6.75px; font-family:Arial;" text-anchor="middle"><textPath startOffset="22.145653131862478" xlink:href="#id25">January</textPath></text><path d="M 100.36049292484886 79.00309439819443 l 0.06656433235332886 -3.8770386504979366 a24.877610025234166,24.877610025234166 0 0,0 0.42693140146831626,0.01099623847188453 l -0.13310904789238648 3.875324694676007" fill="#ff2904" stroke="none" /><path d="M 103.58742460773223 79.30868818359171 l 0.6640155991534038 -3.8298655206380823 a24.88700226679783,24.88700226679783 0 0,0 0.4203121566699706,0.07659487627987517 l -0.7296624893744281 3.817902470426841" fill="#ff2904" stroke="none" /><path d="M 104.29559338865022 79.4440306129975 l 0.7935825788740761 -3.797579920039854 a24.879611650485437,24.879611650485437 0 0,0 0.41731115634387744,0.09095102421938618 l -0.8586561518370877 3.783397437686749" fill="#ff2904" stroke="none" /><path d="M 105.3480935250658 79.69241777938227 l 0.9901228877269634 -3.7596578774832414 a24.88784910825029,24.88784910825029 0 0,0 0.4122122290752558,0.11235027606082297 l -1.054516517736912 3.7421071072782763" fill="#ff2904" stroke="none" /><path d="M 106.04205211174951 79.88797359093562 l 1.1242254880892772 -3.742181015325251 a24.90740344724349,24.90740344724349 0 0,0 0.40843322323351167,0.12653365660135363 l -1.188299344194419 3.7223307709172504" fill="#ff2904" stroke="none" /><path d="M 106.72888874123014 80.10723608172694 l 1.2443759311945135 -3.678776329463915 a24.883537915401394,24.883537915401394 0 0,0 0.40346195387110056,0.1403450111399548 l -1.3073436571106325 3.6568728857553694" fill="#ff2904" stroke="none" /><path d="M 107.40779381753099 80.34994680014964 l 1.3772041322995445 -3.6531975826184095 a24.90417005260682,24.90417005260682 0 0,0 0.3987367976792609,0.15423995918435052 l -1.4397131924723314 3.6290177352960207" fill="#ff2904" stroke="none" /><path d="M 108.07796709384702 80.6158196554323 l 1.083208760564083 -2.599306697050463 a23.815978786193917,23.815978786193917 0 0,0 0.37602586742795335,0.16050308292477877 l -1.1276697031624665 2.5803289644662826" fill="#ff1a02" stroke="none" /><path d="M 108.73861861582097 80.90454125486305 l 1.6152351443224089 -3.5295802938764864 a24.881613275736708,24.881613275736708 0 0,0 0.3868632167434584,0.18107151930489163 l -1.6755870749373722 3.501332543001061" fill="#ff2904" stroke="none" /><path d="M 109.3889696526874 81.21577127319529 l 1.7318311256696806 -3.464822359018661 a24.87352978914503,24.87352978914503 0 0,0 0.3802958721519455,0.19418178203615333 l -1.7910542195352048 3.4345826253096736" fill="#ff2904" stroke="none" /><path d="M 109.71004243097381 81.37971332152246 l 1.7903422830472646 -3.4332173932217036 a24.871990077413283,24.871990077413283 0 0,0 0.37688311506088673,0.2006690307440445 l -1.8490142138947108 3.401977894755086" fill="#ff2904" stroke="none" /><line stroke="#e1ed5e" stroke-width="0.3" x1="143.13028292997686" x2="145.6673583964461" y1="26.7553504044142" y2="22.446841604673864" /><path d="M 143.63769802327073 25.89364864446614 a86.0,86.0 0 0,1 29.32050498858742,28.57503671076993" fill="none" id="id26" stroke="none" /><text fill="#e1ed5e" style="font-size:6.75px; font-family:Arial;" text-anchor="middle"><textPath startOffset="20.669276256404974" xlink:href="#id26">February</textPath></text><path d="M 111.27062007382361 82.28071324371311 l 2.080809317227655 -3.271377859923008 a24.877071126128055,24.877071126128055 0 0,0 0.3583653068103851,0.2322880622276865 l -2.1366602562950474 3.235175955991427" fill="#ff2904" stroke="none" /><path d="M 112.7482090630111 83.31218511350987 l 2.349679680305777 -3.0758061272513 a24.87060433685471,24.87060433685471 0 0,0 0.33704412691337476,0.2620875516810165 l -2.402133751854378 3.035017523949493" fill="#ff2904" stroke="none" /><path d="M 113.31354834802062 83.75963576809568 l 2.1371211356526802 -2.606940294460317 a24.370967879902484,24.370967879902484 0 0,0 0.3212623528796729,0.2680084808637447 l -2.181557822694246 2.569869629684702" fill="#ff2203" stroke="none" /><path d="M 113.86319453409587 84.22622945171908 l 1.9907055053267968 -2.2650574362925813 a24.015525426628457,24.015525426628457 0 0,0 0.30732436101654953,0.27481133867704755 l -2.029294893166722 2.2305505677321467" fill="#ff1d02" stroke="none" /><path d="M 114.91283532996326 85.21462403516908 l 3.335645187444181 -3.307135570829283 a25.697198580043626,25.697198580043626 0 0,0 0.30789306362798063,0.3159254071807765 l -3.3919250522229736 3.2493874715807647" fill="#ff3505" stroke="none" /><path d="M 115.41159269507618 85.73525988315684 l 3.0326751065038318 -2.8069988033694893 a25.132355331251873,25.132355331251873 0 0,0 0.290341294600981,0.3191359430751285 l -3.0804141019466904 2.754525284736689" fill="#ff2d04" stroke="none" /><path d="M 115.6541949942343 86.00192230759917 l 3.584624812301285 -3.2053936110532963 a25.80875069500877,25.80875069500877 0 0,0 0.292485577069673,0.3327948958684528 l -3.6391214533295484 3.1433864373735454" fill="#ff3605" stroke="none" /><path d="M 116.1254893667686 86.54754324733833 l 3.3578323847390985 -2.8012232007965054 a25.37285830375091,25.37285830375091 0 0,0 0.27614511763475574,0.33685214294634014 l -3.405424321612482 2.74316877615167" fill="#ff3004" stroke="none" /><path d="M 116.57777611688842 87.10902102172516 l 3.3623105341951094 -2.6145530081435706 a25.259227577947907,25.259227577947907 0 0,0 0.26323485757102205,0.34458287851291647 l -3.4066973691204385 2.556449216389772" fill="#ff2e04" stroke="none" /><path d="M 116.7966241395341 87.39550010848427 l 2.7687074650724157 -2.0776896984319877 a24.461579915315856,24.461579915315856 0 0,0 0.24915631150832915,0.3380283884161842 l -2.8039657961645705 2.0298550007469283" fill="#ff2303" stroke="none" /><path d="M 117.01052211995028 87.68569379921539 l 3.4687259462204874 -2.511090084546461 a25.282246268337538,25.282246268337538 0 0,0 0.25147997717633125,0.35373808159886805 l -3.511321021926779 2.4511747762380893" fill="#ff2f04" stroke="none" /><path d="M 117.42321728460499 88.27688183743584 l 3.911465280385078 -2.631808403792228 a25.714443351439204,25.714443351439204 0 0,0 0.2432776886042111,0.3683534274963488 l -3.9560674079100138 2.5642750979568203" fill="#ff3505" stroke="none" /><path d="M 117.62189284568427 88.57770195909679 l 3.6311864027436216 -2.353691155508914 a25.327282836491168,25.327282836491168 0 0,0 0.23335148324039473,0.3668672903050567 l -3.671055577609906 2.2910101905251854" fill="#ff2f04" stroke="none" /><line stroke="#e1ed5e" stroke-width="0.3" x1="172.87174338648825" x2="177.1583165268699" y1="56.24261187166439" y2="53.66864786411523" /><path d="M 173.72905801456457 55.72781907015455 a86.0,86.0 0 0,1 12.242430191666344,42.057860355516425" fill="none" id="id27" stroke="none" /><text fill="#e1ed5e" style="font-size:6.75px; font-family:Arial;" text-anchor="middle"><textPath startOffset="22.145653131862474" xlink:href="#id27">March</textPath></text><path d="M 118.00360718960297 89.18935116829356 l 4.0892818744893775 -2.455496271019331 a25.76987297378213,25.76987297378213 0 0,0 0.22447558350100644,0.3812086158347082 l -4.130831168120151 2.3849364868910663" fill="#ff3605" stroke="none" /><path d="M 118.18653347947321 89.5 l 3.8560113534878004 -2.2262691929344354 a25.45253838586887,25.45253838586887 0 0,0 0.21521531394490445,0.38026483820755613 l -3.893660032454081 2.159747584627761" fill="#ff3104" stroke="none" /><path d="M 118.70294669586156 90.45014215332178 l 3.877467204302744 -1.9798623825646464 a25.353688892690645,25.353688892690645 0 0,0 0.19459570362507134,0.3893217617441757 l -3.9108828211395523 1.9130087646567202" fill="#ff3004" stroke="none" /><path d="M 118.8641267826498 90.77261029715802 l 3.7556978400489247 -1.8371000139867228 a25.18093323638852,25.18093323638852 0 0,0 0.18660359597660459,0.38992974641937417 l -3.786680693985441 1.7723577655022453" fill="#ff2d04" stroke="none" /><path d="M 119.0197475246899 91.09779779509293 l 3.908910407039809 -1.8295674429517093 a25.315888969676234,25.315888969676234 0 0,0 0.18084650625981338,0.395182253775696 l -3.939741378154674 1.762196206961329" fill="#ff2f04" stroke="none" /><path d="M 119.31412917781788 91.75594674310238 l 3.582460776628913 -1.5291394792572417 a24.895162738976094,24.895162738976094 0 0,0 0.16439598418830104,0.39449051579524186 l -3.608182605353697 1.4674164540207222" fill="#ff2904" stroke="none" /><path d="M 119.58574465831526 92.42381321644754 l 5.170458523428455 -2.0000444309618772 a26.543809075745266,26.543809075745266 0 0,0 0.16074085948202715,0.4263842269390036 l -5.204030066724923 1.9109919238287159" fill="#ff4106" stroke="none" /><path d="M 119.83427380445688 93.10060997987247 l 6.2358587463961355 -2.169155373469876 a27.602360891322014,27.602360891322014 0 0,0 0.15183214676040488,0.4488647630926836 l -6.272176314728906 2.0617889359030306" fill="#ff4f07" stroke="none" /><path d="M 120.05942366710727 93.78553927170692 l 4.468870974295765 -1.384467651237098 a25.6784140969163,25.6784140969163 0 0,0 0.1268314098382329,0.42218051367100334 l -4.491978704137625 1.307549533975371" fill="#ff3405" stroke="none" /><path d="M 120.16314734710363 94.1308016681162 l 3.767437396618177 -1.0966461189346184 a24.923801377186606,24.923801377186606 0 0,0 0.11605175628071024,0.4118267420999486 l -3.7857076449734697 1.0318114529316567" fill="#ff2a04" stroke="none" /><path d="M 120.35273937422433 94.82641323984039 l 4.430803063533652 -1.1262928122296552 a25.571712073906163,25.571712073906163 0 0,0 0.1044938982988147,0.42637076368938553 l -4.449484488348759 1.0500662239321747" fill="#ff3304" stroke="none" /><path d="M 120.43855184770803 95.1765574152323 l 4.519391686038868 -1.06656413223961 a25.643539626192208,25.643539626192208 0 0,0 0.09743218730408179,0.4293041947068208 l -4.537034734900616 0.9888256035937629" fill="#ff3404" stroke="none" /><path d="M 120.51834098615036 95.52812308129327 l 1.9159996148248175 -0.41758319834773505 a22.960976861554254,22.960976861554254 0 0,0 0.08062833311808364,0.38583576175518963 l -1.922885658767268 0.384630985307141" fill="#ff0d01" stroke="none" /><path d="M 120.592083275326 95.88100663000786 l 3.702490971258612 -0.7406018885589677 a24.77583507976562,24.77583507976562 0 0,0 0.07984155341207344,0.4177647452810777 l -3.7146588169528423 0.6769345782445755" fill="#ff2803" stroke="none" /><path d="M 120.7213421655516 96.59031103205396 l 4.5124154557171465 -0.7425162460627895 a25.573097814464738,25.573097814464738 0 0,0 0.06755987181660453,0.43378284124455097 l -4.524496819672017 0.6649452228867974" fill="#ff3304" stroke="none" /><path d="M 120.82617615685814 97.30363454192243 l 4.397359670295422 -0.5693262475273664 a25.434061845087893,25.434061845087893 0 0,0 0.05234319480416135,0.43347674075609155 l -4.406484951359246 0.49375582984786187" fill="#ff3104" stroke="none" /><path d="M 120.9064616781168 98.02013634271609 l 4.170894479118393 -0.3949880436351519 a25.18955562208631,25.18955562208631 0 0,0 0.037072281434878285,0.43083610501968883 l -4.177060383251011 0.323330891239801" fill="#ff2d04" stroke="none" /><path d="M 120.96210409425399 98.7389718711861 l 4.010627234613388 -0.24126937516835284 a25.017877763996406,25.017877763996406 0 0,0 0.022109145069977475,0.42891150785199017 l -4.014177969139938 0.17238607393963198" fill="#ff2b04" stroke="none" /><path d="M 120.98066250479742 99.09900007780936 l 4.715178505847 -0.20249005320550306 a25.719524400153972,25.719524400153972 0 0,0 0.015156531654481293,0.4412658818936065 l -4.7179597244983285 0.12151790674777661" fill="#ff3505" stroke="none" /><line stroke="#e1ed5e" stroke-width="0.3" x1="184.99686870605535" x2="189.99668451229388" y1="99.2704041080226" y2="99.22748670261217" /><path d="M 185.99683186730306 99.26182062694052 a86.0,86.0 0 0,1 -10.086455211305974,41.156179273409016" fill="none" id="id28" stroke="none" /><text fill="#e1ed5e" style="font-size:6.75px; font-family:Arial;" text-anchor="middle"><textPath startOffset="21.40746469413373" xlink:href="#id28">April</textPath></text><path d="M 120.99922638620191 99.81974689727618 l 4.277084636943275 -0.03671362755191884 a25.277242205209358,25.277242205209358 0 0,0 0.0,0.4339334605514909 l -4.277084636943275 -0.03671362755191832" fill="#ff2f04" stroke="none" /><path d="M 120.99303781780057 100.54070618675476 l 4.350706302122854 0.11205876132495778 a25.352149180958897,25.352149180958897 0 0,0 -0.014940037210334557,0.434962882368362 l -4.348141577915673 -0.1867279082574305" fill="#ff3004" stroke="none" /><path d="M 120.98066250479742 100.90099992219065 l 3.433625845915792 0.1474546678063436 a24.436790556434712,24.436790556434712 0 0,0 -0.02159561864333635,0.4189492323648397 l -3.430588637815883 -0.20637569354791394" fill="#ff2303" stroke="none" /><path d="M 120.93736805541906 101.62068470465957 l 3.9358930968824932 0.30466301802635865 a24.947666909028698,24.947666909028698 0 0,0 -0.03671628601435845,0.42669889860980476 l -3.9300831881703937 -0.3721829640118207" fill="#ff2a04" stroke="none" /><path d="M 120.9064616781168 101.97986365728391 l 4.194730351646979 0.39724532554567177 a25.21349813951499,25.21349813951499 0 0,0 -0.04450495491427545,0.43054506715513324 l -4.187293004251038 -0.46919491498373644" fill="#ff2e04" stroke="none" /><path d="M 120.86939407059847 102.33845913500097 l 4.577477622139993 0.5129159152654245 a25.60612463111073,25.60612463111073 0 0,0 -0.05269729931103073,0.4364092340457992 l -4.567998236569299 -0.5914188262346322" fill="#ff3304" stroke="none" /><path d="M 120.77682067341334 103.0534771498775 l 4.204212837201375 0.6178745070482905 a25.249373422864718,25.249373422864718 0 0,0 -0.06670464580686758,0.4282916767643026 l -4.19298669925624 -0.6899543657440437" fill="#ff2e04" stroke="none" /><path d="M 120.7213421655516 103.40968896794604 l 4.02533407963455 0.6623671909845985 a25.079466233266327,25.079466233266327 0 0,0 -0.07354873834157397,0.42420957793757413 l -4.0133705238007416 -0.7313698018427607" fill="#ff2c04" stroke="none" /><path d="M 120.592083275326 104.11899336999214 l 4.258098636480312 0.8517389823034933 a25.342448997048887,25.342448997048887 0 0,0 -0.08899096201710349,0.42585396834272077 l -4.242849963638845 -0.9247094019316232" fill="#ff3004" stroke="none" /><path d="M 120.51834098615036 104.47187691870673 l 3.9507713477325623 0.861052227026462 a25.04351396433001,25.04351396433001 0 0,0 -0.09515240013250001,0.4192590317798672 l -3.9354080860423983 -0.9287455927453461" fill="#ff2b04" stroke="none" /><path d="M 120.35273937422433 105.17358676015961 l 4.093926533965849 1.0406601157589406 a25.22412215046405,25.22412215046405 0 0,0 -0.11027808337519086,0.41874384484445615 l -4.075458969785928 -1.1107844649762" fill="#ff2e04" stroke="none" /><path d="M 120.16314734710363 105.8691983318838 l 6.116985448119222 1.780565314046369 a27.370865232453703,27.370865232453703 0 0,0 -0.13519080317118126,0.4500062153310626 l -6.085518324944411 -1.885309132968155" fill="#ff4c07" stroke="none" /><path d="M 120.05942366710727 106.21446072829308 l 7.499717069500636 2.3234315190293793 a28.85137504811599,28.85137504811599 0 0,0 -0.1506251763627245,0.4718312196241324 l -7.4587271773606565 -2.451831772344895" fill="#ff6108" stroke="none" /><path d="M 119.94978838288452 106.5578916946017 l 3.7769382519040686 1.2415546229269738 a24.9757666481331,24.9757666481331 0 0,0 -0.13738405501267056,0.4061515470981697 l -3.755068775319033 -1.306207844499304" fill="#ff2a04" stroke="none" /><path d="M 119.71291397450082 107.23885506374661 l 7.236254719991388 2.6572529657526887 a28.70872075616954,28.70872075616954 0 0,0 -0.17385087557734552,0.46116010219544373 l -7.189573160599601 -2.7810813481422914" fill="#ff5f08" stroke="none" /><path d="M 119.58574465831526 107.57618678355244 l 3.3370929551510757 1.2908592439740463 a24.57805910782259,24.57805910782259 0 0,0 -0.15559236878832614,0.3921944098045831 l -3.314441911396625 -1.3479546709921935" fill="#ff2503" stroke="none" /><path d="M 119.4528033332814 107.91128576633889 l 1.6844984054284835 0.685070836833414 a22.818476540780974,22.818476540780974 0 0,0 -0.1506825220598485,0.3615831988975598 l -1.6724900388321495 -0.7138865451722517" fill="#ff0b01" stroke="none" /><path d="M 119.31412917781788 108.2440532568976 l 7.091354932439627 3.026877742628872 a28.710337453487874,28.710337453487874 0 0,0 -0.19737142686395048,0.4516244500201062 l -7.038349623558711 -3.1481642624248227" fill="#ff5f08" stroke="none" /><path d="M 119.0197475246899 108.90220220490707 l 6.121317021537824 2.865085449495612 a27.758641632094438,27.758641632094438 0 0,0 -0.20570573375292459,0.42984586754344006 l -6.071232029824988 -2.9697438191041554" fill="#ff5207" stroke="none" /><path d="M 118.8641267826498 109.22738970284198 l 3.4771394158809015 1.700843129985498 a24.870835293614473,24.870835293614473 0 0,0 -0.1908896852914996,0.38190724251376473 l -3.4474298173776696 -1.7602822286630087" fill="#ff2904" stroke="none" /><path d="M 118.70294669586154 109.54985784667822 l 3.437487945390403 1.7552058379876678 a24.8596723835593,24.8596723835593 0 0,0 -0.1973288949650298,0.3784041748855223 l -3.406850981450424 -1.813956255977693" fill="#ff2904" stroke="none" /><line stroke="#e1ed5e" stroke-width="0.3" x1="174.33088141563837" x2="178.70328620479359" y1="141.23008692659167" y2="143.65538615756765" /><path d="M 175.20536237346943 141.71514677278685 a86.0,86.0 0 0,1 -30.301960400862466,31.631185727798858" fill="none" id="id29" stroke="none" /><text fill="#e1ed5e" style="font-size:6.75px; font-family:Arial;" text-anchor="middle"><textPath startOffset="22.145653131862474" xlink:href="#id29">May</textPath></text><path d="M 118.36410011445183 110.18625677009912 l 7.858075938310696 4.358742259501105 a29.98598862324109,29.98598862324109 0 0,0 -0.25354814744457876,0.44799528202031524 l -7.782094425844739 -4.492994311620544" fill="#ff700a" stroke="none" /><path d="M 118.18653347947321 110.5 l 9.178861800067878 5.299418331123559 a31.598836662247123,31.598836662247123 0 0,0 -0.2752503788019245,0.4674353186861917 l -9.086537711136188 -5.4562048181033" fill="#ff860c" stroke="none" /><path d="M 117.62189284568427 111.42229804090321 l 3.5577344833015476 2.3060805087474754 a25.239750224541293,25.239750224541293 0 0,0 -0.23878673987435503,0.36155355872562966 l -3.5176233045064658 -2.3668139458121664" fill="#ff2e04" stroke="none" /><path d="M 117.423217284605 111.72311816256416 l 3.6330421255270076 2.4444728795731088 a25.378863179504727,25.378863179504727 0 0,0 -0.24630822780680162,0.3593710653806918 l -3.5905441609048854 -2.5064786800238448" fill="#ff3004" stroke="none" /><path d="M 117.21940702142032 112.02048342749411 l 5.552121707204194 3.875812151130245 a27.771113297121595,27.771113297121595 0 0,0 -0.27623648879916873,0.38856121553927797 l -5.484770119875065 -3.9705505933790266" fill="#ff5207" stroke="none" /><path d="M 117.01052211995028 112.31430620078461 l 4.915920017735282 3.5587469878987883 a27.068850776271333,27.068850776271333 0 0,0 -0.2757129768205317,0.37405760526743775 l -4.854105021330923 -3.6426109024351034" fill="#ff4806" stroke="none" /><path d="M 116.79662413953412 112.60449989151573 l 1.8451892157806242 1.3846643871366628 a23.30695008767803,23.30695008767803 0 0,0 -0.24288952098048847,0.31795017982183127 l -1.8211477174458313 -1.4161354801993715" fill="#ff1202" stroke="none" /><path d="M 116.57777611688842 112.89097897827486 l 4.2660169534175445 3.3172805857503462 a26.404003250502544,26.404003250502544 0 0,0 -0.2813077091707973,0.355423100939474 l -4.208442813605186 -3.3900236306045035" fill="#ff3f05" stroke="none" /><path d="M 116.35404254752997 113.17365903436017 l 1.901308454275394 1.5315595042005932 a23.441443907446217,23.441443907446217 0 0,0 -0.2551245984136251,0.31121052738517957 l -1.8747370366231413 -1.5639723132842656" fill="#ff1402" stroke="none" /><path d="M 116.1254893667686 113.45245675266167 l 7.290446978890324 6.081950163522278 a30.494247465891107,30.494247465891107 0 0,0 -0.3387844626453234,0.39908724513477645 l -7.184967952737885 -6.206204191106611" fill="#ff770b" stroke="none" /><path d="M 115.89218393027572 113.72728997021213 l 4.438221558253553 3.833630075607627 a26.864685000641547,26.864685000641547 0 0,0 -0.304452276209068,0.3464108027924211 l -4.3717582180859 -3.9092531562113413" fill="#ff4506" stroke="none" /><path d="M 115.41159269507618 114.26474011684316 l 5.6591253119185065 5.238001902876491 a28.711184294940335,28.711184294940335 0 0,0 -0.33789531928655314,0.3588331196816439 l -5.568374158895693 -5.334376482502631" fill="#ff5f08" stroke="none" /><path d="M 115.16444852881244 114.52719865689866 l 3.0936709153826376 2.9636667552692484 a25.284170908002224,25.284170908002224 0 0,0 -0.3029443391624829,0.3108475799203451 l -3.0423397750693475 -3.0163370272573307" fill="#ff2f04" stroke="none" /><path d="M 114.91283532996324 114.78537596483092 l 3.3340050826219523 3.305509483912757 a25.694889012446,25.694889012446 0 0,0 -0.31324281897856976,0.3105655460149864 l -3.2767703435134177 -3.362255040156405" fill="#ff3505" stroke="none" /><path d="M 114.65682725009322 115.03919595460226 l 5.063186183910748 5.195275067050019 a28.254428809717293,28.254428809717293 0 0,0 -0.35025739120615296,0.3355386576327637 l -4.973256306839283 -5.281425854988363" fill="#ff5808" stroke="none" /><path d="M 114.39649973595853 115.28858382429668 l 5.545098185675373 5.888702113743963 a29.088567640391773,29.088567640391773 0 0,0 -0.3664747139413135,0.33920352407427934 l -5.4431937004200925 -5.983023383950622" fill="#ff6409" stroke="none" /><path d="M 114.13192950727249 115.5334660781643 l 3.161234237583361 3.474750193833236 a25.69758350797656,25.69758350797656 0 0,0 -0.3288494959390518,0.29405924705532005 l -3.1011197148209315 -3.5285049707719427" fill="#ff3505" stroke="none" /><path d="M 113.86319453409587 115.77377054828091 l 3.3413562459335147 3.8018500435663047 a26.061494375775204,26.061494375775204 0 0,0 -0.3385766882741145,0.2924544793518661 l -3.2756000778965446 -3.8586486553828885" fill="#ff3a05" stroke="none" /><path d="M 113.31354834802062 116.24036423190432 l 2.578191857622518 3.1449748581673047 a25.066686625892817,25.066686625892817 0 0,0 -0.3351168076174144,0.26994637854246345 l -2.523824279649851 -3.188769530503172" fill="#ff2c04" stroke="none" /><path d="M 113.03279911837588 116.46651593811092 l 2.399362628724367 3.0315163004001757 a24.866139172832643,24.866139172832643 0 0,0 -0.3369836154240239,0.26204049758089826 l -2.3469690686651123 -3.072257849601867" fill="#ff2904" stroke="none" /><path d="M 112.45986205192187 116.90419585922612 l 3.275312952885034 4.443591062654569 a26.52025148624952,26.52025148624952 0 0,0 -0.3687817639829934,0.2669695574850074 l -3.1985501785280728 -4.499161391512653" fill="#ff4006" stroke="none" /><path d="M 112.16784306229584 117.11559508785304 l 6.286742458141445 8.843090577703467 a31.85004063128181,31.85004063128181 0 0,0 -0.4483346836629595,0.3129724286229765 l -6.134012683304728 -8.949707822131566" fill="#ff890c" stroke="none" /><path d="M 111.8722381534696 117.32195027204791 l 1.3062675445877898 1.9058833858321127 a23.310568410247637,23.310568410247637 0 0,0 -0.33201321609875256,0.22339330907029104 l -1.273358040392034 -1.928026368959525" fill="#ff1202" stroke="none" /><path d="M 111.5731344415666 117.5232005979908 l 2.1521460686011498 3.2586234495665494 a24.905170865232453,24.905170865232453 0 0,0 -0.3587700960869971,0.2325504417462629 l -2.0958903402571427 -3.295087733016707" fill="#ff2904" stroke="none" /><path d="M 111.27062007382361 117.71928675628689 l 4.868443459018234 7.654001744541767 a30.071134682006758,30.071134682006758 0 0,0 -0.4379443654168265,0.27330967424531993 l -4.736334964811693 -7.736447215628634" fill="#ff710a" stroke="none" /><path d="M 110.96478420261333 117.91015095944535 l 3.2986603995395183 5.3881138586946555 a27.317668192121808,27.317668192121808 0 0,0 -0.4020474478770325,0.24141794068871145 l -3.205680195105049 -5.44394579991929" fill="#ff4b07" stroke="none" /><line stroke="#e1ed5e" stroke-width="0.3" x1="143.1302829299769" x2="145.66735839644613" y1="173.24464959558577" y2="177.55315839532614" /><path d="M 143.63769802327073 174.10635135553383 a86.0,86.0 0 0,1 -40.68552437913181,11.842963189579606" fill="none" id="id30" stroke="none" /><text fill="#e1ed5e" style="font-size:6.75px; font-family:Arial;" text-anchor="middle"><textPath startOffset="21.407464694133747" xlink:href="#id30">June</textPath></text><path d="M 110.65571695917076 118.09573695890943 l 3.967421342815326 6.737548801252732 a28.81888713057611,28.81888713057611 0 0,0 -0.42845112524032797,0.24736637249210236 l -3.8511777497146 -6.8046620710210055" fill="#ff6008" stroke="none" /><path d="M 110.34350942703117 118.27599006163325 l 1.1522856695679256 2.0359783682461745 a23.33943800521791,23.33943800521791 0 0,0 -0.3503758798245465,0.19434759425720669 l -1.1171656015872846 -2.055458877936525" fill="#ff1302" stroke="none" /><path d="M 108.07796709384702 119.3841803445677 l 0.8000428638908432 1.919811627959847 a23.079842607245197,23.079842607245197 0 0,0 -0.36701954643411033,0.14926365439086345 l -0.766968856266292 -1.9332625389300018" fill="#ff0f01" stroke="none" /><path d="M 107.407793817531 119.65005319985036 l 0.8553314012364964 2.2688681612633705 a23.42473803515675,23.42473803515675 0 0,0 -0.37748502241701115,0.13861772894390617 l -0.8162572271653583 -2.2832167392159985" fill="#ff1402" stroke="none" /><path d="M 106.38641147887787 120.00534299687104 l 0.3160681932149472 0.9900791135333037 a22.0393054189299,22.0393054189299 0 0,0 -0.3614019650481753,0.11196325259347405 l -0.2990255952951476 -0.9953589539334221" fill="#ff0000" stroke="none" /><path d="M 103.94208987418118 120.62667999033965 l 0.2655341370522036 1.3893868091032446 a22.41453316795689,22.41453316795689 0 0,0 -0.378555065635338,0.06898534329147957 l -0.24164433786580847 -1.393740326326088" fill="#ff0500" stroke="none" /><path d="M 103.2317021107853 120.74984581791261 l 0.2480480992265219 1.592646734734442 a22.611847226380394,22.611847226380394 0 0,0 -0.3840513438802084,0.05644232201602395 l -0.220671649738628 -1.5966701300493482" fill="#ff0801" stroke="none" /><line stroke="#e1ed5e" stroke-width="0.3" x1="101.45913802915013" x2="101.54496967792366" y1="184.9874750549273" y2="189.98673829345242" /><path d="M 101.47630435890484 185.9873277026323 a86.0,86.0 0 0,1 -42.54439059252881,-10.42667462771756" fill="none" id="id31" stroke="none" /><text fill="#e1ed5e" style="font-size:6.75px; font-family:Arial;" text-anchor="middle"><textPath startOffset="22.145653131862474" xlink:href="#id31">July</textPath></text><path d="M 98.91894614982273 120.97215588758144 l -0.24102123562739214 4.675747581830739 a25.68195543389932,25.68195543389932 0 0,0 -0.4400855576748324,-0.026474454320872896 l 0.3212511454346708 -4.670921149685174" fill="#ff3405" stroke="none" /><path d="M 98.55909050195518 120.95050786540614 l -0.09304323986592837 1.3528282874663702 a22.356024122150465,22.356024122150465 0 0,0 -0.3826403915739815,-0.029618786294793878 l 0.11625262621514597 -1.3510317341765226" fill="#ff0500" stroke="none" /><path d="M 97.84075906011543 120.88869738790638 l -0.45890680802679096 4.439507080962504 a25.46316239681793,25.46316239681793 0 0,0 -0.4344065199280193,-0.04867615664322633 l 0.5350492295556096 -4.430975163812307" fill="#ff3104" stroke="none" /><path d="M 97.48249496171623 120.84855314841334 l -0.18054012192649865 1.4951311994082925 a22.50599204482272,22.50599204482272 0 0,0 -0.3831614903034991,-0.049607926080066964 l 0.2061794341207918 -1.4918116771278285" fill="#ff0701" stroke="none" /><path d="M 97.12497278360702 120.80226474461374 l -0.250594122567015 1.8131742375723987 a22.830409306702023,22.830409306702023 0 0,0 -0.3877635156381558,-0.05698788342878696 l 0.2816827438128557 -1.8086052808447295" fill="#ff0c01" stroke="none" /><path d="M 95.00130118170881 120.39639698878247 l -1.1325847500027015 4.6213322755046535 a25.75809417903426,25.75809417903426 0 0,0 -0.4285591315598455,-0.10893805537506615 l 1.2117491747879257 -4.601208988294324" fill="#ff3605" stroke="none" /><path d="M 93.61358852112213 120.00534299687104 l -0.4634730335468956 1.4518226764077988 a22.52400667208417,22.52400667208417 0 0,0 -0.3673314353456831,-0.12074913892752165 l 0.4883272065403223 -1.4436526160782557" fill="#ff0701" stroke="none" /><path d="M 93.27111125876986 119.89276391827306 l -1.4854067018100667 4.391340974427578 a25.63576408194688,25.63576408194688 0 0,0 -0.41565855710087923,-0.1445876228651247 l 1.5605710309559677 -4.365194918993863" fill="#ff3404" stroke="none" /><path d="M 92.93061703081489 119.77432235084164 l -0.4785429800485239 1.338569884735313 a22.42153885633634,22.42153885633634 0 0,0 -0.3613186659806152,-0.13268121893309154 l 0.501450797683258 -1.3301578167935018" fill="#ff0600" stroke="none" /><path d="M 92.25597844496254 119.51999308798841 l -0.6503734649172518 1.6393659869835437 a22.763662803130746,22.763662803130746 0 0,0 -0.36199160190812457,-0.1472188331236727 l 0.6784195280158172 -1.6279598972805798" fill="#ff0b01" stroke="none" /><path d="M 91.59046798132341 119.24265499422711 l -1.9779692844114123 4.525980808988798 a25.939318249860996,25.939318249860996 0 0,0 -0.40648961786149895,-0.18181763573024212 l 2.055372305128546 -4.491359422348701" fill="#ff3805" stroke="none" /><line stroke="#e1ed5e" stroke-width="0.3" x1="58.13341422392154" x2="55.67067388415222" y1="173.97424548756322" y2="178.32567169271397" /><path d="M 57.64086615596768 174.84453072859336 a86.0,86.0 0 0,1 -31.369924170532247,-30.572349798747897" fill="none" id="id32" stroke="none" /><text fill="#e1ed5e" style="font-size:6.75px; font-family:Arial;" text-anchor="middle"><textPath startOffset="22.145653131862474" xlink:href="#id32">August</textPath></text><path d="M 89.65649057296885 118.27599006163327 l -0.7674826231425166 1.3560682563282418 a22.558188272528977,22.558188272528977 0 0,0 -0.3353731566717498,-0.1936277822834107 l 0.7906482476746661 -1.3426935767686594" fill="#ff0801" stroke="none" /><path d="M 86.40962598614128 116.0094264158162 l -2.9020842170990737 3.4186479105557424 a25.484333433129464,25.484333433129464 0 0,0 -0.3310785288153836,-0.2859777477972574 l 2.96034222567732 -3.3683260302937628" fill="#ff3204" stroke="none" /><path d="M 85.86807049272751 115.53346607816431 l -3.0158627423005986 3.3149614551797684 a25.481561952012317,25.481561952012317 0 0,0 -0.32103155585339094,-0.2971420153750589 l 3.0723240694679568 -3.262701693672332" fill="#ff3204" stroke="none" /><path d="M 83.8745106332314 113.45245675266167 l -2.885438613741227 2.4071355157634104 a24.757666481330997,24.757666481330997 0 0,0 -0.2694496867874932,-0.3286848059745108 l 2.92633511976735 -2.3572484280904047" fill="#ff2703" stroke="none" /><path d="M 83.20337586046588 112.60449989151573 l -2.576035868723969 1.9331053405814016 a24.22069201488388,24.22069201488388 0 0,0 -0.24670271934598606,-0.334699619421949 l 2.6088406076537853 -1.8885994118905731" fill="#ff2003" stroke="none" /><path d="M 82.78059297857968 112.02048342749411 l -2.5499750589805186 1.7800806322115934 a24.109832770198025,24.109832770198025 0 0,0 -0.23399196963012195,-0.341401276625081 l 2.5801567654259654 -1.7360446205164612" fill="#ff1e03" stroke="none" /><path d="M 82.576782715395 111.72311816256416 l -1.7689674865322955 1.1902402714495204 a23.132115820538043,23.132115820538043 0 0,0 -0.21884695664743478,-0.3313621854956755 l 1.789138882100457 -1.1596982076147837" fill="#ff1001" stroke="none" /><path d="M 82.37810715431573 111.42229804090323 l -3.942953300920793 2.555774692246554 a25.69881527736196,25.69881527736196 0 0,0 -0.2367745763020875,-0.3722489611586829 l 3.9862455688487706 -2.4877120564091992" fill="#ff3505" stroke="none" /><path d="M 82.18462484594161 111.11811171558189 l -1.1765090141270071 0.7342286390457179 a22.386818356785426,22.386818356785426 0 0,0 -0.20066268517451588,-0.32776741584633107 l 1.1889396637569276 -0.7139241070748298" fill="#ff0500" stroke="none" /><path d="M 81.99639281039703 110.81064883170644 l -4.152114702284236 2.493225578776368 a25.843163252213337,25.843163252213337 0 0,0 -0.22511399867800247,-0.3822927843761384 l 4.194302411092009 -2.4215816261066707" fill="#ff3705" stroke="none" /><line stroke="#e1ed5e" stroke-width="0.3" x1="26.387840678322732" x2="22.057713659400548" y1="142.50000000000003" y2="145.00000000000006" /><path d="M 25.521815274538298 143.00000000000003 a86.0,86.0 0 0,1 -11.493303480769221,-40.785679425670985" fill="none" id="id33" stroke="none" /><text fill="#e1ed5e" style="font-size:6.75px; font-family:Arial;" text-anchor="middle"><textPath startOffset="21.40746469413373" xlink:href="#id33">September</textPath></text><path d="M 81.81346652052679 110.50000000000001 l -3.848077448116316 2.2216885505324857 a25.443377101064968,25.443377101064968 0 0,0 -0.21513785020610593,-0.38012796720353204 l 3.8856486633438 -2.1553038132298323" fill="#ff3104" stroke="none" /><path d="M 81.4637452351635 109.86951160357371 l -4.089308434461427 2.177326410137141 a25.632838629656558,25.632838629656558 0 0,0 -0.20346606518242702,-0.39017300799360694 l 4.126082568618803 -2.106807159039031" fill="#ff3404" stroke="none" /><path d="M 81.29705330413844 109.54985784667822 l -2.303771715670042 1.1763222530444923 a23.58671570933664,23.58671570933664 0 0,0 -0.18103375643242697,-0.3621887825706209 l 2.323625385314206 -1.1366016143101185" fill="#ff1602" stroke="none" /><path d="M 81.1358732173502 109.22738970284198 l -4.014754408304492 1.9638175630107035 a25.469321243744922,25.469321243744922 0 0,0 -0.1887406986289982,-0.3943954690168327 l 4.047874364893403 -1.8946095919287662" fill="#ff3104" stroke="none" /><path d="M 80.83023694016515 108.57439118712176 l -3.5195613296363306 1.5742550157335289 a24.85559214747017,24.85559214747017 0 0,0 -0.17087168326189534,-0.3909878506900451 l 3.546066894915194 -1.5136050952676343" fill="#ff2903" stroke="none" /><path d="M 80.5471966667186 107.91128576633889 l -3.786537904112285 1.53995200132695 a25.08770369103118,25.08770369103118 0 0,0 -0.15881869384490171,-0.4003268565386682 l 3.812415272923311 -1.4747241275747165" fill="#ff2c04" stroke="none" /><path d="M 80.41425534168474 107.57618678355246 l -3.7353728489097753 1.4449224629065118 a25.0050981566229,25.0050981566229 0 0,0 -0.15142291589193535,-0.4016672745279914 l 3.7596264486161464 -1.3805869081843753" fill="#ff2b04" stroke="none" /><path d="M 80.16572619554312 106.89939002012753 l -4.82837145317439 1.6795582306630477 a26.11215089174971,26.11215089174971 0 0,0 -0.14363495724281908,-0.42463122882907395 l 4.856491831989576 -1.5964253273598121" fill="#ff3b05" stroke="none" /><path d="M 79.94057633289273 106.21446072829308 l -3.6874620065013475 1.1423851555641455 a24.860365253838587,24.860365253838587 0 0,0 -0.12279088429438274,-0.4087309182452487 l 3.70652921079936 -1.0789166337281735" fill="#ff2904" stroke="none" /><path d="M 79.34024301695615 103.76489593502545 l -7.72696900508019 1.4081111516060056 a28.854223514819726,28.854223514819726 0 0,0 -0.08461869625143033,-0.4880581534347824 l 7.750002518823854 -1.2752599652506307" fill="#ff6108" stroke="none" /><path d="M 79.17382384314188 102.69636545807758 l -5.501509534032702 0.7122805532385436 a26.547427398314873,26.547427398314873 0 0,0 -0.054634496539441704,-0.4524520060606612 l 5.512926116831805 -0.617734870254483" fill="#ff4106" stroke="none" /><path d="M 79.03789590574601 101.26102812881392 l -5.24294028949479 0.3154022684467549 a26.252418630511954,26.252418630511954 0 0,0 -0.023200150604902908,-0.4500767237650724 l 5.247582029556265 -0.22535375130495175" fill="#ff3c05" stroke="none" /><path d="M 79.01933749520258 100.90099992219065 l -22.469628460828407 0.9649425269688197 a43.49033830888328,43.49033830888328 0 0,0 -0.025628883294542715,-0.7461569735560817 l 22.482882031119797 -0.579079288848618" fill="#e2ff1b" stroke="none" /><line stroke="#e1ed5e" stroke-width="0.3" x1="15.003131293944662" x2="10.003315487706104" y1="100.72959589197737" y2="100.7725132973878" /><path d="M 14.003168132696942 100.73817937305945 a86.0,86.0 0 0,1 10.791469493833604,-42.45332614584628" fill="none" id="id34" stroke="none" /><text fill="#e1ed5e" style="font-size:6.75px; font-family:Arial;" text-anchor="middle"><textPath startOffset="22.145653131862435" xlink:href="#id34">October</textPath></text><path d="M 79.00077361379809 99.81974689727619 l -13.461434706704798 -0.11555022686892616 a34.46193062743253,34.46193062743253 0 0,0 0.010155714996661541,-0.5915194845866012 l 13.457467560109471 0.3466166274245797" fill="#ffac0f" stroke="none" /><path d="M 79.01933749520258 99.09900007780938 l -6.791952204730837 -0.2916756516428221 a27.79821222360036,27.79821222360036 0 0,0 0.02456622070566477,-0.47657811877125716 l 6.7859443945686015 0.4082255637907913" fill="#ff5207" stroke="none" /><path d="M 79.03789590574601 98.7389718711861 l -17.09822836648802 -1.0285869598813595 a38.12913904452333,38.12913904452333 0 0,0 0.04491256495942919,-0.653018837556995 l 17.078051840363525 1.3219492215926796" fill="#ffda14" stroke="none" /><path d="M 79.0935383218832 98.0201363427161 l -5.728963458647935 -0.5425387959148074 a26.754595611821564,26.754595611821564 0 0,0 0.04722518330718112,-0.45686080926422096 l 5.71880588285909 0.640804127461941" fill="#ff4406" stroke="none" /><path d="M 79.13060592940154 97.66154086499901 l -22.82855439086533 -2.557987135304268 a43.971421239467944,43.971421239467944 0 0,0 0.09049300429367209,-0.7494118902985091 l 22.78127930031199 2.9494927025262134" fill="#ddff1b" stroke="none" /><path d="M 79.17382384314186 97.30363454192245 l -5.224899455459876 -0.6764678406405842 a26.26850861810872,26.26850861810872 0 0,0 0.06173785439144972,-0.4467043596987583 l 5.212517084513218 0.7660605085394094" fill="#ff3d05" stroke="none" /><path d="M 79.2786578344484 96.59031103205396 l -9.315165443466055 -1.5328069288861568 a30.440434540866516,30.440434540866516 0 0,0 0.08927046270547423,-0.5148883061828774 l 9.287480163268347 1.6924882679896267" fill="#ff760a" stroke="none" /><path d="M 79.48165901384962 95.52812308129327 l -20.120478210186697 -4.385164578471932 a41.59279757067705,41.59279757067705 0 0,0 0.15803111826528102,-0.6963142657750038 l 20.042236230363756 4.729913178185944" fill="#f9ff18" stroke="none" /><path d="M 79.56144815229197 95.17655741523228 l -23.76957112456753 -5.609554064211304 a45.422522561053846,45.422522561053846 0 0,0 0.18561042918253715,-0.7573538907790176 l 23.669773168868694 6.016763779598439" fill="#ccff1d" stroke="none" /><path d="M 79.73907114497095 94.47779374421319 l -4.682518077115393 -1.27624112415079 a25.853325349642873,25.853325349642873 0 0,0 0.12037986369402445,-0.4271856684325447 l 4.659919721346787 1.356434716486348" fill="#ff3705" stroke="none" /><path d="M 80.05021161711548 93.44210830539832 l -24.00044855058473 -7.889424148058927 a46.263898036867545,46.263898036867545 0 0,0 0.25448355610227835,-0.752335414851828 l 23.861479572910085 8.300261237384916" fill="#c2ff1e" stroke="none" /><path d="M 80.5471966667186 92.08871423366112 l -21.930570387899927 -8.91897205687828 a44.674838544117016,44.674838544117016 0 0,0 0.2950116907416478,-0.707920662544882 l 21.7742328526218 9.294125228864425" fill="#d4ff1c" stroke="none" /><path d="M 80.83023694016515 91.42560881287825 l -1.3131768500775634 -0.5873673021044814 a22.438552670972157,22.438552670972157 0 0,0 0.16029197556257657,-0.35026689470005173 l 1.30290040965994 0.6098231790192046" fill="#ff0600" stroke="none" /><path d="M 80.9802524753101 91.09779779509293 l -25.424756479587984 -11.900069803660745 a49.07187032205638,49.07187032205638 0 0,0 0.3636476606101776,-0.7598837490007627 l 25.216729561017903 12.334766054726595" fill="#a2ff22" stroke="none" /><path d="M 81.1358732173502 90.77261029715801 l -13.20904960481964 -6.461208075634062 a35.70463196612634,35.70463196612634 0 0,0 0.27404169900204683,-0.5482669712605941 l 13.096187992605849 6.687006903058426" fill="#ffbc11" stroke="none" /><path d="M 81.29705330413844 90.45014215332179 l -18.816261181638257 -9.607717030513477 a42.12723151276678,42.12723151276678 0 0,0 0.3343937890287075,-0.6412441819363317 l 18.64855932363461 9.929307455554296" fill="#f2ff19" stroke="none" /><path d="M 81.46374523516351 90.13048839642627 l -1.1742372585910708 -0.6252152010231289 a22.330310936230273,22.330310936230273 0 0,0 0.1830603272479636,-0.3368103836218943 l 1.1633315817277565 0.6452804181196428" fill="#ff0400" stroke="none" /><path d="M 81.63589988554816 89.8137432299009 l -11.029500947108799 -6.1178782512129155 a33.612625636200335,33.612625636200335 0 0,0 0.2842133727150743,-0.5021777967881481 l 10.922854209372357 6.306312818100169" fill="#ffa10e" stroke="none" /><line stroke="#e1ed5e" stroke-width="0.3" x1="26.387840678322718" x2="22.05771365940052" y1="57.49999999999999" y2="54.99999999999999" /><path d="M 25.521815274538284 56.99999999999999 a86.0,86.0 0 0,1 29.574782752854787,-30.34633250058573" fill="none" id="id35" stroke="none" /><text fill="#e1ed5e" style="font-size:6.75px; font-family:Arial;" text-anchor="middle"><textPath startOffset="21.40746469413373" xlink:href="#id35">November</textPath></text><path d="M 81.81346652052679 89.5 l -1.6805878378063293 -0.9702878405542956 a22.94057568110859,22.94057568110859 0 0,0 0.19983020937296211,-0.3393553825718695 l 1.6636839183035879 0.9989943914197379" fill="#ff0d01" stroke="none" /><path d="M 81.99639281039701 89.18935116829357 l -14.036932930414991 -8.428774910872662 a37.37314058423506,37.37314058423506 0 0,0 0.3349915393745394,-0.547183503976752 l 13.89017342658506 8.668495530973956" fill="#ffd113" stroke="none" /><path d="M 82.18462484594161 88.88188828441811 l -17.83677533097424 -11.131467008727624 a42.02522561053847,42.02522561053847 0 0,0 0.387197031479512,-0.6087380452033078 l 17.64306060786884 11.436018728609604" fill="#f4ff19" stroke="none" /><path d="M 82.37810715431573 88.57770195909679 l -1.0777470290695756 -0.6985826032726993 a22.284350541037593,22.284350541037593 0 0,0 0.2108264689060857,-0.31921814480428284 l 1.065596121242761 0.7169806264160432" fill="#ff0400" stroke="none" /><path d="M 82.576782715395 88.27688183743585 l -41.250380041517516 -27.755096637902664 a70.71860057311491,70.71860057311491 0 0,0 0.6863417426123468,-1.001393114042891 l 40.76784856208986 28.45912448701559" fill="#3cffa9" stroke="none" /><path d="M 82.78059297857968 87.97951657250589 l -17.29444280192388 -12.072864229857997 a42.09151020059022,42.09151020059022 0 0,0 0.4186800457607121,-0.5889259171010445 l 17.084647657633194 12.367967373668561" fill="#f3ff19" stroke="none" /><path d="M 82.98947788004972 87.6856937992154 l -18.02834515770789 -13.051131587846644 a43.25653308241735,43.25653308241735 0 0,0 0.4405945269588001,-0.597751094448581 l 17.80164861116527 13.358688991564089" fill="#e5ff1a" stroke="none" /><path d="M 83.2033758604659 87.39550010848427 l -20.14338744438082 -15.11597346873179 a46.18429494033617,46.18429494033617 0 0,0 0.4813019821418127,-0.6300397446248169 l 19.8809334848847 15.45953412659749" fill="#c3ff1e" stroke="none" /><path d="M 83.42222388311158 87.10902102172516 l -3.5790299081660035 -2.7830753041587526 a25.533758179718575,25.533758179718575 0 0,0 0.27203613603255516,-0.3437087711577034 l 3.530727341491887 2.8441040192311386" fill="#ff3204" stroke="none" /><path d="M 83.64595745247003 86.82634096563983 l -25.934907295929516 -20.891325481840415 a54.30265600273727,54.30265600273727 0 0,0 0.5910021311055291,-0.7209265043464186 l 25.572458345585357 21.33345426788533" fill="#6aff28" stroke="none" /><path d="M 83.8745106332314 86.54754324733833 l -3.760587829840902 -3.137216117594212 a25.897361105170866,25.897361105170866 0 0,0 0.28771405412646495,-0.3389264323142768 l 3.7061792122073225 3.2013093323580457" fill="#ff3705" stroke="none" /><path d="M 84.10781606972428 86.27271002978789 l -23.135101594131843 -19.983549741577562 a51.570822462683374,51.570822462683374 0 0,0 0.584442150889254,-0.6649878831460889 l 22.788648379283995 20.37774990253495" fill="#87ff25" stroke="none" /><path d="M 84.34580500576568 86.00192230759919 l -0.8979495771589299 -0.8029520489273793 a22.20459347333305,22.20459347333305 0 0,0 0.25651835373820464,-0.28195860615979046 l 0.8840335225788595 0.8182482306448274" fill="#ff0200" stroke="none" /><path d="M 84.58840730492382 85.73525988315684 l -17.47524155862028 -16.174822696450928 a44.81194987382918,44.81194987382918 0 0,0 0.5273815233437857,-0.5600609019488073 l 17.195004201540222 16.472425058344246" fill="#d3ff1c" stroke="none" /><path d="M 85.08716467003674 85.21462403516908 l -0.9596253314847031 -0.9514234548589893 a22.351328001368632,22.351328001368632 0 0,0 0.2724819316274035,-0.2701530402229977 l 0.943151479727323 0.9677565053106604" fill="#ff0500" stroke="none" /><path d="M 85.34317274990677 84.96080404539775 l -10.965768050399994 -11.251844051149144 a36.71152645310295,36.71152645310295 0 0,0 0.45509621055364546,-0.4359718750176244 l 10.770999353981049 11.438428056472336" fill="#ffc912" stroke="none" /><path d="M 85.60350026404147 84.71141617570332 l -0.8206867758099872 -0.8715409158882861 a22.19712587143407,22.19712587143407 0 0,0 0.2796523175227751,-0.2588420101323978 l 0.8056046869732588 0.8855006721530494" fill="#ff0200" stroke="none" /><path d="M 85.86807049272753 84.46653392183569 l -0.9609231983266875 -1.0562229239289225 a22.427928660023095,22.427928660023095 0 0,0 0.28700803842181843,-0.2566443577361779 l 0.9426501330814772 1.0725628115485013" fill="#ff0600" stroke="none" /><path d="M 86.13680546590413 84.22622945171909 l -14.33419772671438 -16.309685720617242 a42.71347675462982,42.71347675462982 0 0,0 0.5549101404445516,-0.4793181628600336 l 14.05210810650698 16.553348015941985" fill="#ebff1a" stroke="none" /><path d="M 86.40962598614128 83.9905735841838 l -0.9112949993125923 -1.073503217771552 a22.408143364270135,22.408143364270135 0 0,0 0.29538805747664193,-0.24642322338733338 l 0.8927326076740414 1.0889886250707672" fill="#ff0500" stroke="none" /><path d="M 86.68645165197937 83.75963576809568 l -15.979772136467494 -19.49272373188559 a46.20554296223429,46.20554296223429 0 0,0 0.6177224091411849,-0.49759344652912824 l 15.642798956971063 19.764165472208116" fill="#c3ff1e" stroke="none" /><path d="M 87.25179093698888 83.31218511350988 l -14.119856444326922 -18.483345339104957 a44.25950130447799,44.25950130447799 0 0,0 0.6077188054022327,-0.45604352119396047 l 13.800484650013937 18.72300788756292" fill="#d9ff1c" stroke="none" /><path d="M 87.54013794807813 83.09580414077388 l -23.18207172837944 -31.45093254533342 a60.071339976904326,60.071339976904326 0 0,0 0.8353320002636891,-0.6047159492239559 l 22.638758717741783 31.844249265930454" fill="#30ff2f" stroke="none" /><path d="M 87.83215693770416 82.88440491214696 l -17.70432428850009 -24.903349285048648 a51.555194388606125,51.555194388606125 0 0,0 0.7257127874648912,-0.5066038873458721 l 17.27421640986143 25.203597988199647" fill="#87ff25" stroke="none" /><path d="M 88.4268655584334 82.4767994020092 l -10.908715311015857 -16.517185350819158 a40.79438005217912,40.79438005217912 0 0,0 0.5876612423310266,-0.3809149173572667 l 10.623568436427805 16.70201410988033" fill="#fffb17" stroke="none" /><path d="M 88.72937992617638 82.28071324371311 l -1.2391229606969167 -1.948107107068782 a23.308797741756127,23.308797741756127 0 0,0 0.33946030781974723,-0.21184833845533751 l 1.205498524087471 1.9690912423656555" fill="#ff1202" stroke="none" /><path d="M 89.03521579738668 82.08984904055464 l -17.546575683148202 -28.66101270206639 a54.60559428595868,54.60559428595868 0 0,0 0.8036571667859224,-0.48257303770902443 l 17.051985759804843 28.95799974031134" fill="#67ff28" stroke="none" /><line stroke="#e1ed5e" stroke-width="0.3" x1="56.869717070023135" x2="54.33264160355391" y1="26.7553504044142" y2="22.446841604673864" /><path d="M 56.362301976729285 25.89364864446614 a86.0,86.0 0 0,1 42.16139366436587,-11.88097634709845" fill="none" id="id36" stroke="none" /><text fill="#e1ed5e" style="font-size:6.75px; font-family:Arial;" text-anchor="middle"><textPath startOffset="22.145653131862474" xlink:href="#id36">December</textPath></text><path d="M 89.34428304082924 81.90426304109057 l -19.014855974684128 -32.29138248959354 a58.47396604080236,58.47396604080236 0 0,0 0.8693339348577952,-0.501910181305822 l 18.45772957196593 32.61303956817553" fill="#40ff2d" stroke="none" /><path d="M 89.65649057296885 81.72400993836675 l -2.2180778676245816 -3.919131059976308 a25.503271887429964,25.503271887429964 0 0,0 0.3828597468355895,-0.21236584770812783 l 2.1504739326328894 3.9566298231175816" fill="#ff3204" stroke="none" /><path d="M 89.97174638481275 81.54914285379989 l -12.921556156387307 -23.774207942551413 a48.05881698815278,48.05881698815278 0 0,0 0.7282310983665236,-0.38774204210043184 l 12.511536242234223 23.99252045237442" fill="#aeff20" stroke="none" /><path d="M 90.28995756902619 81.37971332152246 l -26.393870595172633 -50.61372702853002 a78.08227193019974,78.08227193019974 0 0,0 1.1938139039783235,-0.6095698856321775 l 25.521129469480726 51.05935486583503" fill="#46fff4" stroke="none" /><path d="M 90.61103034731259 81.2157712731953 l -28.166908958062205 -56.35268618041411 a84.0,84.0 0 0,0 1.2953590029517876,-0.6336249996111434 l 27.195389705848363 56.827904930122465" fill="#4dd2ff" stroke="none" /><path d="M 90.93487009805054 81.0573650232925 l -1.3600104215536901 -2.8418987106262508 a24.15055814550276,24.15055814550276 0 0,0 0.3754966571813659,-0.175751395498593 l 1.3110250505008016 2.8648263376953866" fill="#ff1f03" stroke="none" /><path d="M 91.26138138417902 80.90454125486306 l -0.4873896764323921 -1.0650344028369088 a22.171258714340706,22.171258714340706 0 0,0 0.34744114689095673,-0.15540600573135002 l 0.4690351266858166 1.0732441594781044" fill="#ff0200" stroke="none" /><path d="M 91.5904679813234 80.7573450057729 l -10.002557899851432 -22.887809963640724 a45.97805055386853,45.97805055386853 0 0,0 0.7259385178906445,-0.30985998631494677 l 9.608184306790356 23.056144599615074" fill="#c5ff1e" stroke="none" /><path d="M 91.92203290615298 80.6158196554323 l -3.6501807596678058 -8.759105021555039 a30.489243402762927,30.489243402762927 0 0,0 0.48484508647768865,-0.19718227577861794 l 3.4992812119996763 8.820474553912948" fill="#ff770b" stroke="none" /><path d="M 92.25597844496254 80.48000691201159 l -0.6734256825397074 -1.6974726342152284 a22.826175099439716,22.826175099439716 0 0,0 0.3654663433148168,-0.14137023270541915 l 0.6441870767313611 1.708782755058688" fill="#ff0b01" stroke="none" /><path d="M 92.592206182469 80.34994680014964 l -10.963726758185084 -29.08258779518311 a52.08054403147855,52.08054403147855 0 0,0 0.839267670857488,-0.3081907138074151 l 10.462869935673469 29.266509357999244" fill="#81ff25" stroke="none" /><path d="M 92.93061703081487 80.22567764915836 l -11.97414831848147 -33.49382396717634 a56.5698815277362,56.5698815277362 0 0,0 0.917224673156767,-0.319058354169261 l 11.397417873279698 33.694440753914186" fill="#53ff2b" stroke="none" /><path d="M 93.27111125876988 80.10723608172694 l -0.40416008041809715 -1.194827463216113 a22.261331850647963,22.261331850647963 0 0,0 0.3630476185011722,-0.11934096324331535 l 0.38358972426916393 1.201589347861457" fill="#ff0300" stroke="none" /><path d="M 93.61358852112211 79.99465700312896 l -9.65183294735176 -30.2342292379505 a52.737462041828834,52.737462041828834 0 0,0 0.8647923358419687,-0.26791487623999977 l 9.131399978638177 30.395460701997145" fill="#7aff26" stroke="none" /><path d="M 93.95794788825049 79.88797359093562 l -6.182542458102001 -20.57967308006303 a42.48829391386168,42.48829391386168 0 0,0 0.7003284537747615,-0.20385540619759052 l 5.828353991945616 20.68277218056314" fill="#eeff19" stroke="none" /></svg>