<?xml version="1.0" encoding="utf-8" ?>
<svg baseProfile="full" height="200mm" version="1.1" viewBox="0,0,200,200" width="200mm" xmlns="http://www.w3.org/2000/svg" xmlns:ev="http://www.w3.org/2001/xml-events" xmlns:xlink="http://www.w3.org/1999/xlink"><defs /><rect fill="#1a1a1a" height="200" width="200" x="0" y="0" /><text alignment-baseline="middle" fill="#e1ed5e" style="dominant-baseline: central; font-size:9.0px; font-family:Arial;" text-anchor="middle" x="100.0" y="100.0">2024</text><line stroke="#e1ed5e" stroke-width="0.3" x1="100.0" x2="100.0" y1="15.0" y2="10.0" /><path d="M 100.0 14.0 a86.0,86.0 0 0,1 42.35913384403234,11.155469271406648" fill="none" id="id25" stroke="none" /><text fill="#e1ed5e" style="font-size:6.75px; font-family:Arial;" text-anchor="middle"><textPath startOffset="22.145653131862478" xlink:href="#id25">January</textPath></text><path d="M 100.36049292484886 79.00309439819443 l 0.16598994075023876 -9.668081886054619 a30.669506710059604,30.669506710059604 0 0,0 0.5263277086820733,0.013556334762736266 l -0.3319309635030535 9.663807833941839" fill="#ff6709" stroke="none" /><path d="M 103.58742460773223 79.30868818359171 l 1.65584038874831 -9.550447339840332 a30.69292792628076,30.69292792628076 0 0,0 0.5183674029082225,0.09446380853659518 l -1.819542525207586 9.520615357372371" fill="#ff6709" stroke="none" /><path d="M 104.29559338865022 79.4440306129975 l 1.978938578524509 -9.469937482069373 a30.67449811679526,30.67449811679526 0 0,0 0.5145100518133754,0.11213507109077914 l -2.1412110469570185 9.434570952844874" fill="#ff6709" stroke="none" /><path d="M 105.3480935250658 79.69241777938227 l 2.4690466148878136 -9.375372158951768 a30.69503967528431,30.69503967528431 0 0,0 0.5083955094338767,0.1385654568306146 l -2.6296235252563833 9.33160620797701" fill="#ff6709" stroke="none" /><path d="M 106.04205211174951 79.88797359093562 l 2.8034551772758087 -9.331790510769581 a30.74380187954803,30.74380187954803 0 0,0 0.5041388646838642,0.15618350896698155 l -2.963234674831303 9.282290413995952" fill="#ff6809" stroke="none" /><path d="M 106.72888874123014 80.10723608172694 l 3.103071566820438 -9.17367970762135 a30.684288953084433,30.684288953084433 0 0,0 0.4975153941632408,0.17306167995817165 l -3.260092733028697 9.119059595094587" fill="#ff6709" stroke="none" /><path d="M 107.40779381753099 80.34994680014964 l 3.434302189165623 -9.109894576407026 a30.735738837898126,30.735738837898126 0 0,0 0.492105139526493,0.19035683959128918 l -3.590179591185642 9.0495978486777" fill="#ff6809" stroke="none" /><path d="M 108.07796709384702 80.6158196554323 l 2.7011727096092493 -6.481831175664583 a28.022141368340222,28.022141368340222 0 0,0 0.44243615220749094,0.1888496844975298 l -2.81204393698717 6.434506841507652" fill="#ff4106" stroke="none" /><path d="M 108.73861861582097 80.90454125486305 l 4.027874635331965 -8.801632993836666 a30.67948952353092,30.67948952353092 0 0,0 0.477009503909227,0.22326453345134908 l -4.178372853112697 8.731192228814784" fill="#ff6709" stroke="none" /><path d="M 109.3889696526874 81.21577127319529 l 4.3186273455494755 -8.640147624869078 a30.65933191940615,30.65933191940615 0 0,0 0.4687560418937755,0.23935017500999564 l -4.46631060915683 8.564739498186249" fill="#ff6709" stroke="none" /><path d="M 109.71004243097381 81.37971332152246 l 4.464535269552674 -8.561335050407978 a30.655492375763338,30.655492375763338 0 0,0 0.4645200253113213,0.24733074928380033 l -4.610844110650555 8.483433833401605" fill="#ff6709" stroke="none" /><line stroke="#e1ed5e" stroke-width="0.3" x1="143.13028292997686" x2="145.6673583964461" y1="26.7553504044142" y2="22.446841604673864" /><path d="M 143.63769802327073 25.89364864446614 a86.0,86.0 0 0,1 29.32050498858742,28.57503671076993" fill="none" id="id26" stroke="none" /><text fill="#e1ed5e" style="font-size:6.75px; font-family:Arial;" text-anchor="middle"><textPath startOffset="20.669276256404974" xlink:href="#id26">February</textPath></text><path d="M 111.27062007382361 82.28071324371311 l 5.188866215104315 -8.157759537914254 a30.66816286978462,30.66816286978462 0 0,0 0.44178856668533417,0.2863620113873965 l -5.328140414046656 8.067483684822964" fill="#ff6709" stroke="none" /><path d="M 112.7482090630111 83.31218511350987 l 5.859342039903914 -7.6700668176405475 a30.652036786484807,30.652036786484807 0 0,0 0.41539356410041905,0.3230125479299963 l -5.99014554863956 7.568353218089761" fill="#ff6709" stroke="none" /><path d="M 113.31354834802062 83.75963576809568 l 5.32928969827384 -6.500866901510172 a29.40610487439207,29.40610487439207 0 0,0 0.38763640769327606,0.3233800780643149 l -5.440100440129008 6.408424639533987" fill="#ff5507" stroke="none" /><path d="M 113.86319453409587 84.22622945171908 l 4.964176416979332 -5.648321501226493 a28.519746224448753,28.519746224448753 0 0,0 0.3649644398395891,0.326353452586973 l -5.0604058836422965 5.562272518756133" fill="#ff4806" stroke="none" /><path d="M 114.91283532996326 85.21462403516908 l 8.318021490678845 -8.246927717100535 a32.71329579112882,32.71329579112882 0 0,0 0.3919569999478861,0.40218241147358597 l -8.458365291777543 8.102922613559207" fill="#ff830c" stroke="none" /><path d="M 115.41159269507618 85.73525988315684 l 7.562511985716934 -6.999748192231231 a31.30475920576297,31.30475920576297 0 0,0 0.3616479313290237,0.39751442792343084 l -7.681557617887835 6.868896188750129" fill="#ff700a" stroke="none" /><path d="M 115.6541949942343 86.00192230759917 l 8.938896240217 -7.993216137971558 a32.99147072805061,32.99147072805061 0 0,0 0.3738859531909562,0.42541358143352703 l -9.074793257366546 7.838590278726733" fill="#ff870c" stroke="none" /><path d="M 116.1254893667686 86.54754324733833 l 8.373349192981161 -6.985345705268731 a31.904495922770323,31.904495922770323 0 0,0 0.3472320963684474,0.4235666984203823 l -8.492028108588237 6.840576725149854" fill="#ff780b" stroke="none" /><path d="M 116.57777611688842 87.10902102172516 l 8.38451625102252 -6.5198505500882735 a31.62113760193074,31.62113760193074 0 0,0 0.32953444942809146,0.4313711724993108 l -8.495202677804917 6.37495846434808" fill="#ff740a" stroke="none" /><path d="M 116.7966241395341 87.39550010848427 l 6.904261964840856 -5.181086893645678 a29.632062017771602,29.632062017771602 0 0,0 0.3018208676746748,0.40947797337670133 l -6.992184852099356 5.061802611000101" fill="#ff5808" stroke="none" /><path d="M 117.01052211995028 87.68569379921539 l 8.649881910265425 -6.26184744316052 a31.67853877939079,31.67853877939079 0 0,0 0.31510325960227936,0.44323219609291076 l -8.756100268397665 6.1124380203581055" fill="#ff750a" stroke="none" /><path d="M 117.42321728460499 88.27688183743584 l 9.75393077919553 -6.562879932342707 a32.75629867992833,32.75629867992833 0 0,0 0.30989885805309986,0.46922636924086525 l -9.865154076169354 6.394473684762783" fill="#ff840c" stroke="none" /><path d="M 117.62189284568427 88.57770195909679 l 9.055005804686687 -5.869345363121449 a31.790845430943065,31.790845430943065 0 0,0 0.2929031504353997,0.4604924024046144 l -9.154426646747975 5.713039286038162" fill="#ff760a" stroke="none" /><line stroke="#e1ed5e" stroke-width="0.3" x1="172.87174338648825" x2="177.1583165268699" y1="56.24261187166439" y2="53.66864786411523" /><path d="M 173.72905801456457 55.72781907015455 a86.0,86.0 0 0,1 12.242430191666344,42.057860355516425" fill="none" id="id27" stroke="none" /><text fill="#e1ed5e" style="font-size:6.75px; font-family:Arial;" text-anchor="middle"><textPath startOffset="22.145653131862474" xlink:href="#id27">March</textPath></text><path d="M 118.00360718960297 89.18935116829356 l 10.197347919821382 -6.1232144322491315 a32.89452225106959,32.89452225106959 0 0,0 0.28653680535437914,0.48660213842077993 l -10.30095843530553 5.947261125534795" fill="#ff860c" stroke="none" /><path d="M 118.18653347947321 89.5 l 9.615646600347505 -5.551596153142943 a32.103192306285884,32.103192306285884 0 0,0 0.2714502776142303,0.4796266306811084 l -9.70953024298311 5.385712752362717" fill="#ff7b0b" stroke="none" /><path d="M 118.70294669586156 90.45014215332178 l 9.669150560796085 -4.937137171767897 a31.856693604417302,31.856693604417302 0 0,0 0.2445078399974802,0.4891794693036462 l -9.752478314005302 4.7704258463005" fill="#ff770b" stroke="none" /><path d="M 118.8641267826498 90.77261029715802 l 9.365497104912293 -4.581133945057427 a31.425896807693714,31.425896807693714 0 0,0 0.23288197049945378,0.48663375015496046 l -9.44275833337166 4.419687692837363" fill="#ff710a" stroke="none" /><path d="M 119.0197475246899 91.09779779509293 l 9.74755975044466 -4.562350146353308 a31.76243280798625,31.76243280798625 0 0,0 0.22689801691407283,0.495813115529699 l -9.824442232213784 4.394348048608924" fill="#ff760a" stroke="none" /><path d="M 119.31412917781788 91.75594674310238 l 8.9334998343591 -3.813179860551353 a30.71327750758767,30.71327750758767 0 0,0 0.2028160866610165,0.4866847753825521 l -8.997641765556601 3.6592625757275234" fill="#ff6709" stroke="none" /><path d="M 119.58574465831526 92.42381321644754 l 12.893453199527745 -4.987464680498736 a34.82446886312941,34.82446886312941 0 0,0 0.2108858996118796,0.5593999034725928 l -12.977169782954064 4.765396496831985" fill="#ffa00e" stroke="none" /><path d="M 119.83427380445688 93.10060997987247 l 15.550217169561805 -5.40917273847366 a37.464155117563166,37.464155117563166 0 0,0 0.2060788611691826,0.6092355352327662 l -15.640781452303353 5.141435528766732" fill="#ffc312" stroke="none" /><path d="M 120.05942366710727 93.78553927170692 l 11.143920505449486 -3.4524150588581035 a32.66645335868651,32.66645335868651 0 0,0 0.16134689308537298,0.5370713318481888 l -11.201543718538487 3.260606123419191" fill="#ff830c" stroke="none" /><path d="M 120.16314734710363 94.1308016681162 l 9.394771766438533 -2.734681140339466 a30.784693019343987,30.784693019343987 0 0,0 0.14334160497393061,0.5086687877519328 l -9.440331863487046 2.57300442868452" fill="#ff6809" stroke="none" /><path d="M 120.35273937422433 94.82641323984039 l 11.048991434151247 -2.8086104158163434 a32.40037298423958,32.40037298423958 0 0,0 0.13239791178915875,0.5402286609979393 l -11.095576872456697 2.618525930210309" fill="#ff7f0b" stroke="none" /><path d="M 120.43855184770803 95.1765574152323 l 11.269902839417536 -2.6596663837480685 a32.5794876951768,32.5794876951768 0 0,0 0.12378520257575075,0.5454204424514347 l -11.313898903550953 2.4658116073576073" fill="#ff810b" stroke="none" /><path d="M 120.51834098615036 95.52812308129327 l 4.777884060401708 -1.0413175930933727 a25.890042783486305,25.890042783486305 0 0,0 0.0909138581766363,0.43505572256235014 l -4.795055629402711 0.9591454192456181" fill="#ff2203" stroke="none" /><path d="M 120.592083275326 95.88100663000786 l 9.232816363052978 -1.8468218527135916 a30.415712875269683,30.415712875269683 0 0,0 0.09801638395956369,0.5128631386579136 l -9.263159039294699 1.6880561490223636" fill="#ff6309" stroke="none" /><path d="M 120.7213421655516 96.59031103205396 l 11.25250637472206 -1.8515956418796475 a32.40382857351812,32.40382857351812 0 0,0 0.08560552658410628,0.549648889931181 l -11.282633393444431 1.6581585700170254" fill="#ff7f0b" stroke="none" /><path d="M 120.82617615685814 97.30363454192243 l 10.965594415570271 -1.4197157359439403 a32.05711778257213,32.05711778257213 0 0,0 0.06597341671861927,0.5463545311425458 l -10.988349918548554 1.2312675278779814" fill="#ff7a0b" stroke="none" /><path d="M 120.9064616781168 98.02013634271609 l 10.400863390162689 -0.9849725767853023 a31.447398252093464,31.447398252093464 0 0,0 0.046282150264457485,0.5378687412832079 l -10.416239163124887 0.8062827881264323" fill="#ff720a" stroke="none" /><path d="M 120.96210409425399 98.7389718711861 l 10.001208657979998 -0.6016478776721215 a31.019289135919845,31.019289135919845 0 0,0 0.027412795359508364,0.5318009065873278 l -10.010063042796078 0.42987517770806305" fill="#ff6c09" stroke="none" /><path d="M 120.98066250479742 99.09900007780936 l 11.758131917523867 -0.5049447766663171 a32.76896917394961,32.76896917394961 0 0,0 0.019310773824679106,0.5622121100031194 l -11.765067378345394 0.30302640209907766" fill="#ff840c" stroke="none" /><line stroke="#e1ed5e" stroke-width="0.3" x1="184.99686870605535" x2="189.99668451229388" y1="99.2704041080226" y2="99.22748670261217" /><path d="M 185.99683186730306 99.26182062694052 a86.0,86.0 0 0,1 -10.086455211305974,41.156179273409016" fill="none" id="id28" stroke="none" /><text fill="#e1ed5e" style="font-size:6.75px; font-family:Arial;" text-anchor="middle"><textPath startOffset="21.40746469413373" xlink:href="#id28">April</textPath></text><path d="M 120.99922638620191 99.81974689727618 l 10.665667338199727 -0.09155192648401257 a31.66606026255165,31.66606026255165 0 0,0 0.0,0.5436100584156776 l -10.665667338199727 -0.09155192648401127" fill="#ff750a" stroke="none" /><path d="M 120.99303781780057 100.54070618675476 l 10.849255987090926 0.2794383492670109 a31.85285406077449,31.85285406077449 0 0,0 -0.01877090662123217,0.5464944654214607 l -10.842860393472847 -0.46563907925258236" fill="#ff770b" stroke="none" /><path d="M 120.98066250479742 100.90099992219065 l 8.562353599473129 0.3677043051014255 a29.570245365122318,29.570245365122318 0 0,0 -0.0261322263502771,0.5069582099150015 l -8.554779783666278 -0.5146343083931576" fill="#ff5708" stroke="none" /><path d="M 120.93736805541906 101.62068470465957 l 9.814845861938956 0.7597311431375783 a30.844205945807584,30.844205945807584 0 0,0 -0.04539441269284361,0.527551885054509 l -9.800357826548373 -0.9281040755677448" fill="#ff6909" stroke="none" /><path d="M 120.9064616781168 101.97986365728391 l 10.460302355880087 0.9906015086371981 a31.507103155739205,31.507103155739205 0 0,0 -0.05561394922936197,0.5380145098863457 l -10.441756014169059 -1.1700205408064752" fill="#ff720a" stroke="none" /><path d="M 120.86939407059847 102.33845913500097 l 11.414750398928375 1.27904659109083 a32.486186784656454,32.486186784656454 0 0,0 -0.06685643896246367,0.5536672220417023 l -11.391111873706247 -1.474807490055941" fill="#ff800b" stroke="none" /><path d="M 120.77682067341334 103.0534771498775 l 10.483948611460086 1.540779411286317 a31.596564522616738,31.596564522616738 0 0,0 -0.08347286920341572,0.535955699681978 l -10.455954250118404 -1.7205232928997454" fill="#ff740a" stroke="none" /><path d="M 120.7213421655516 103.40968896794604 l 10.037882778299082 1.6517297913067295 a31.172870881632356,31.172870881632356 0 0,0 -0.09141842583506396,0.5272771867153688 l -10.008049534971784 -1.8238000109426862" fill="#ff6e0a" stroke="none" /><path d="M 120.592083275326 104.11899336999214 l 10.618322386624115 2.123961860787073 a31.828664935824772,31.828664935824772 0 0,0 -0.11176755303676195,0.5348482015905482 l -10.580297122762989 -2.3059265136630307" fill="#ff770a" stroke="none" /><path d="M 120.51834098615036 104.47187691870673 l 9.851947413021318 2.147186084408101 a31.08321753757268,31.08321753757268 0 0,0 -0.11810014987326813,0.5203710512816747 l -9.813636401590387 -2.3159914696287927" fill="#ff6d0a" stroke="none" /><path d="M 120.35273937422433 105.17358676015961 l 10.208930200061383 2.5950701351446 a31.53359600687461,31.53359600687461 0 0,0 -0.1378626581659544,0.5234869683442102 l -10.162878061090698 -2.7699376078616136" fill="#ff730a" stroke="none" /><path d="M 120.16314734710363 105.8691983318838 l 15.25378556662718 4.440154667392324 a36.88687973086627,36.88687973086627 0 0,0 -0.18219251948899867,0.606459642473317 l -15.17531672713455 -4.701351913456365" fill="#ffbb11" stroke="none" /><path d="M 120.05942366710727 106.21446072829308 l 18.701871527863517 5.793887605358623 a40.57879292061286,40.57879292061286 0 0,0 -0.21185083310796715,0.6636197173506343 l -18.599655978978294 -6.11407635640064" fill="#ffeb16" stroke="none" /><path d="M 119.94978838288452 106.5578916946017 l 9.418463830194403 3.0960361354473536 a30.914277617288917,30.914277617288917 0 0,0 -0.1700499879217144,0.5027225733878622 l -9.363928420700324 -3.257260383309376" fill="#ff6a09" stroke="none" /><path d="M 119.71291397450082 107.23885506374661 l 18.044881541802738 6.626330449803229 a40.22305920210627,40.22305920210627 0 0,0 -0.2435780444582441,0.6461197017380319 l -17.928472813530053 -6.93511843173542" fill="#ffe715" stroke="none" /><path d="M 119.58574465831526 107.57618678355244 l 8.321631755626932 3.218985932087315 a29.922523494350386,29.922523494350386 0 0,0 -0.18942571055696253,0.4774765326361925 l -8.265147370103845 -3.3613634819370715" fill="#ff5c08" stroke="none" /><path d="M 119.4528033332814 107.91128576633889 l 4.200594832481075 1.7083453494596372 a25.534693019343987,25.534693019343987 0 0,0 -0.16861914235607742,0.4046245580111628 l -4.170649845588512 -1.780202416912078" fill="#ff1d02" stroke="none" /><path d="M 119.31412917781788 108.2440532568976 l 17.68354828268177 7.548055233097466 a40.22709072293121,40.22709072293121 0 0,0 -0.276544234543853,0.6327873280167816 l -17.55137016612095 -7.850504630890093" fill="#ffe715" stroke="none" /><path d="M 119.0197475246899 108.90220220490707 l 15.264587111383802 7.144597522315034 a37.853868797308664,37.853868797308664 0 0,0 -0.2805165310154909,0.5861716610167931 l -15.1396913224084 -7.405581685396931" fill="#ffc812" stroke="none" /><path d="M 118.8641267826498 109.22738970284198 l 8.670862385559959 4.241353295232514 a30.65261271803123,30.65261271803123 0 0,0 -0.23526622753235385,0.4706900536626233 l -8.596776244815873 -4.389575205058883" fill="#ff6709" stroke="none" /><path d="M 118.70294669586154 109.54985784667822 l 8.571984427880743 4.376916326683117 a30.624776026620836,30.624776026620836 0 0,0 -0.2430906215755766,0.4661583195710717 l -8.495585737330217 -4.523420889358691" fill="#ff6609" stroke="none" /><line stroke="#e1ed5e" stroke-width="0.3" x1="174.33088141563837" x2="178.70328620479359" y1="141.23008692659167" y2="143.65538615756765" /><path d="M 175.20536237346943 141.71514677278685 a86.0,86.0 0 0,1 -30.301960400862466,31.631185727798858" fill="none" id="id29" stroke="none" /><text fill="#e1ed5e" style="font-size:6.75px; font-family:Arial;" text-anchor="middle"><textPath startOffset="22.145653131862474" xlink:href="#id29">May</textPath></text><path d="M 118.36410011445183 110.18625677009912 l 19.595502775982386 10.8692950687121 a43.40815263100157,43.40815263100157 0 0,0 -0.3670399806345406,0.6485244766895569 l -19.406029430326466 -11.20407631550078" fill="#f0ff19" stroke="none" /><path d="M 118.18653347947321 110.5 l 22.889116024788052 13.215037298423953 a47.430074596847916,47.430074596847916 0 0,0 -0.4131527416318978,0.7016236791076478 l -22.65888957302639 -13.606012145825149" fill="#bfff1e" stroke="none" /><path d="M 117.62189284568427 111.42229804090321 l 8.871840446827111 5.750619791097943 a31.572567374849157,31.572567374849157 0 0,0 -0.29869988275768167,0.45226969327858646 l -8.771816125148701 -5.90206936271559" fill="#ff730a" stroke="none" /><path d="M 117.423217284605 111.72311816256416 l 9.059633377802387 6.095725655176861 a31.91947014297729,31.91947014297729 0 0,0 -0.3097864576455107,0.4519876997852505 l -8.953657183341557 -6.250348090032156" fill="#ff780b" stroke="none" /><path d="M 117.21940702142032 112.02048342749411 l 13.845197880526024 9.665023392862008 a37.88496910081544,37.88496910081544 0 0,0 -0.3768380018009199,0.5300698422488733 l -13.677244780195144 -9.901270461820385" fill="#ffc812" stroke="none" /><path d="M 117.01052211995028 112.31430620078461 l 12.258716397025275 8.874365306194933 a36.133753245328556,36.133753245328556 0 0,0 -0.36804461162057506,0.49932320067759883 l -12.104569765820871 -9.08349481614141" fill="#ffb110" stroke="none" /><path d="M 116.79662413953412 112.60449989151573 l 4.601305801050197 3.4529056546345145 a26.752788240026327,26.752788240026327 0 0,0 -0.2787997526947038,0.3649578258696638 l -4.541354071001189 -3.5313843937450557" fill="#ff2f04" stroke="none" /><path d="M 116.57777611688842 112.89097897827486 l 10.638068110990073 8.272226106885611 a34.475838300362014,34.475838300362014 0 0,0 -0.36730487426496905,0.4640777097302218 l -10.494496806083543 -8.453623760530517" fill="#ff9b0e" stroke="none" /><path d="M 116.35404254752997 113.17365903436017 l 4.741249052088147 3.819214620951697 a27.088172377226023,27.088172377226023 0 0,0 -0.2948137122774931,0.3596247929394537 l -4.674988520572026 -3.9000416955896435" fill="#ff3404" stroke="none" /><path d="M 116.1254893667686 113.45245675266167 l 18.180019528254817 15.166418885270794 a44.67558598749406,44.67558598749406 0 0,0 -0.4963360518756067,0.584682621090214 l -17.916988912872096 -15.476268288810564" fill="#e0ff1b" stroke="none" /><path d="M 115.89218393027572 113.72728997021213 l 11.06749076337874 9.559834923764846 a35.62462975829158,35.62462975829158 0 0,0 -0.40372703490691075,0.45936725457446664 l -10.901752664513243 -9.748414456150606" fill="#ffab0f" stroke="none" /><path d="M 115.41159269507618 114.26474011684316 l 14.112030302314793 13.061884567443208 a40.22920247193476,40.22920247193476 0 0,0 -0.47344822401816694,0.5027856070657726 l -13.885726244560367 -13.302211634453478" fill="#ffe715" stroke="none" /><path d="M 115.16444852881244 114.52719865689866 l 7.714615827877678 7.3904274514366595 a31.683338208944306,31.683338208944306 0 0,0 -0.37961647985587305,0.38951995071869705 l -7.586612546870998 -7.521770094223093" fill="#ff750a" stroke="none" /><path d="M 114.91283532996324 114.78537596483092 l 8.313931599101169 8.242872781651084 a32.707536475664604,32.707536475664604 0 0,0 -0.3987330290673349,0.39532507493804103 l -8.17120664990387 -8.384377866817786" fill="#ff830c" stroke="none" /><path d="M 114.65682725009322 115.03919595460226 l 12.625950639956244 12.955337642137396 a39.09020185029436,39.09020185029436 0 0,0 -0.4845835749862052,0.46422010311284667 l -12.401694579104726 -13.170169875555821" fill="#ffd814" stroke="none" /><path d="M 114.39649973595853 115.28858382429668 l 13.82768348683785 14.68452067944889 a41.17027461878817,41.17027461878817 0 0,0 -0.5186870938552169,0.4800890305237016 l -13.573566621668666 -14.91972745610497" fill="#fff316" stroke="none" /><path d="M 114.13192950727249 115.5334660781643 l 7.883096926575675 8.664904437630335 a32.714255677039525,32.714255677039525 0 0,0 -0.41864117246963684,0.374351517891923 l -7.73319072728266 -8.798951485405645" fill="#ff830c" stroke="none" /><path d="M 113.86319453409587 115.77377054828091 l 8.332263025548206 9.480585790646845 a33.62173181701832,33.62173181701832 0 0,0 -0.43679516026631854,0.37729325616085985 l -8.168288385519032 -9.622223179272423" fill="#ff900d" stroke="none" /><path d="M 113.31354834802062 116.24036423190432 l 6.429177587448726 7.842551287034354 a31.141002669397007,31.141002669397007 0 0,0 -0.41632440522848735,0.3353614707937289 l -6.2936024118649865 -7.951761051621487" fill="#ff6d0a" stroke="none" /><path d="M 113.03279911837588 116.46651593811092 l 5.983235262786757 7.559622297655977 a30.640902109920646,30.640902109920646 0 0,0 -0.4152426679947045,0.32289521020550754 l -5.852582650156822 -7.661218559482278" fill="#ff6609" stroke="none" /><path d="M 112.45986205192187 116.90419585922612 l 8.167572388498353 11.080880572693609 a34.765723845394376,34.765723845394376 0 0,0 -0.4834405500452247,0.3499736763606187 l -7.97615082807916 -11.219455020427304" fill="#ff9f0e" stroke="none" /><path d="M 112.16784306229584 117.11559508785304 l 15.677104708265318 22.051811069785128 a48.05649614217282,48.05649614217282 0 0,0 -0.6764636266959821,0.4722241482465959 l -15.296245990395578 -22.317680033836847" fill="#b8ff1f" stroke="none" /><path d="M 111.8722381534696 117.32195027204791 l 3.257409256043469 4.752657453422441 a26.761811167586938,26.761811167586938 0 0,0 -0.3811693836891582,0.2564677723951736 l -3.1753435842573077 -4.8078748998747365" fill="#ff2f04" stroke="none" /><path d="M 111.5731344415666 117.5232005979908 l 5.366757027122787 8.12595415889934 a30.738234541265953,30.738234541265953 0 0,0 -0.4427979803708008,0.287016301142928 l -5.2264734144949765 -8.216884301746163" fill="#ff6809" stroke="none" /><path d="M 111.27062007382361 117.71928675628689 l 12.140325197266263 19.086607664520134 a43.62047939444911,43.62047939444911 0 0,0 -0.6352717770576969,0.3964565733814866 l -11.810889291418851 -19.29220003474317" fill="#edff1a" stroke="none" /><path d="M 110.96478420261333 117.91015095944535 l 8.225793377875611 13.436215290388011 a36.75422349800709,36.75422349800709 0 0,0 -0.5409298353048068,0.3248128239239855 l -7.993930786013367 -13.57544211484792" fill="#ffba11" stroke="none" /><line stroke="#e1ed5e" stroke-width="0.3" x1="143.1302829299769" x2="145.66735839644613" y1="173.24464959558577" y2="177.55315839532614" /><path d="M 143.63769802327073 174.10635135553383 a86.0,86.0 0 0,1 -40.68552437913181,11.842963189579606" fill="none" id="id30" stroke="none" /><text fill="#e1ed5e" style="font-size:6.75px; font-family:Arial;" text-anchor="middle"><textPath startOffset="21.407464694133747" xlink:href="#id30">June</textPath></text><path d="M 110.65571695917076 118.09573695890943 l 9.893467121843894 16.801270091396844 a40.49777854974951,40.49777854974951 0 0,0 -0.6020814999120658,0.3476119160483262 l -9.60359315407143 -16.968628904721342" fill="#ffea16" stroke="none" /><path d="M 110.34350942703117 118.27599006163325 l 2.8734282048179227 5.07707231134047 a26.833802610889677,26.833802610889677 0 0,0 -0.40283391556929227,0.22344518240041783 l -2.7858501010925356 -5.125650409174032" fill="#ff3004" stroke="none" /><path d="M 108.07796709384702 119.3841803445677 l 1.9950484423096801 4.787389989659204 a26.18645555271145,26.18645555271145 0 0,0 -0.41642142900299034,0.1693549699561044 l -1.9125725521162489 -4.8209322161946" fill="#ff2603" stroke="none" /><path d="M 107.407793817531 119.65005319985036 l 2.132920193046368 5.657824218218514 a27.0465133287015,27.0465133287015 0 0,0 -0.43584921525542075,0.16004986898247728 l -2.0354818261368206 -5.693604936209714" fill="#ff3304" stroke="none" /><path d="M 106.38641147887787 120.00534299687104 l 0.7881719655250246 2.4689374561904325 a23.5916919588986,23.5916919588986 0 0,0 -0.3868581005930434,0.11984962845665968 l -0.7456732320603568 -2.4821036724537366" fill="#ff0000" stroke="none" /><path d="M 103.94208987418118 120.62667999033965 l 0.6621563548854073 3.46468184940305 a24.527388744652065,24.527388744652065 0 0,0 -0.4142387078294679,0.07548809158391342 l -0.6025829135048821 -3.475538114918327" fill="#ff0e01" stroke="none" /><path d="M 103.2317021107853 120.74984581791261 l 0.6185518255522717 3.971546439185617 a25.019426262478515,25.019426262478515 0 0,0 -0.42494291523456307,0.06245197482651798 l -0.5502838047100231 -3.9815794873110173" fill="#ff1502" stroke="none" /><line stroke="#e1ed5e" stroke-width="0.3" x1="101.45913802915013" x2="101.54496967792366" y1="184.9874750549273" y2="189.98673829345242" /><path d="M 101.47630435890484 185.9873277026323 a86.0,86.0 0 0,1 -42.54439059252881,-10.42667462771756" fill="none" id="id31" stroke="none" /><text fill="#e1ed5e" style="font-size:6.75px; font-family:Arial;" text-anchor="middle"><textPath startOffset="22.145653131862474" xlink:href="#id31">July</textPath></text><path d="M 98.91894614982273 120.97215588758144 l -0.601029097820425 11.65980393150211 a32.67528430906498,32.67528430906498 0 0,0 -0.5599231240140519,-0.033683584728911455 l 0.8010965739669232 -11.647768368948507" fill="#ff830c" stroke="none" /><path d="M 98.55909050195518 120.95050786540614 l -0.23201978186420333 3.3735167069629544 a24.38148608622518,24.38148608622518 0 0,0 -0.41730771680216716,-0.03230225651894354 l 0.2898964934416066 -3.3690366834489573" fill="#ff0c01" stroke="none" /><path d="M 97.84075906011543 120.88869738790638 l -1.144365325710937 11.07069644171649 a32.129685157421285,32.129685157421285 0 0,0 -0.548138699274939,-0.06142008456167352 l 1.3342399265866751 -11.049420596647845" fill="#ff7b0b" stroke="none" /><path d="M 97.48249496171623 120.84855314841334 l -0.4502087391570111 3.7283741972543787 a24.755457637035143,24.755457637035143 0 0,0 -0.42145833973728486,-0.054566219968907044 l 0.51414490078509 -3.7200963810850745" fill="#ff1101" stroke="none" /><path d="M 97.12497278360702 120.80226474461374 l -0.6249007852502961 4.5214707880931755 a25.564449482575785,25.564449482575785 0 0,0 -0.43419987235216156,-0.06381242874197922 l 0.7024257632101426 -4.510077286052313" fill="#ff1d03" stroke="none" /><path d="M 95.00130118170881 120.39639698878247 l -2.8243004759615946 11.524109736823968 a32.86514974220207,32.86514974220207 0 0,0 -0.5468052074895579,-0.13899574547871632 l 3.021710976676531 -11.473928759509988" fill="#ff850c" stroke="none" /><path d="M 93.61358852112213 120.00534299687104 l -1.155752017002471 3.6203767320552416 a24.800380297656048,24.800380297656048 0 0,0 -0.40445554045886106,-0.13295256965664648 l 1.2177302951090758 -3.600003240996574" fill="#ff1202" stroke="none" /><path d="M 93.27111125876986 119.89276391827306 l -3.7041244418209804 10.950585732463617 a32.560097999780595,32.560097999780595 0 0,0 -0.5279297824082725,-0.18364138299115793 l 3.891559996274275 -10.885385916903868" fill="#ff810b" stroke="none" /><path d="M 92.93061703081489 119.77432235084164 l -1.1933315951110086 3.3379608568425327 a24.544858668226862,24.544858668226862 0 0,0 -0.3955355449735432,-0.14524613085245344 l 1.2504562917386708 -3.31698387698136" fill="#ff0e01" stroke="none" /><path d="M 92.25597844496254 119.51999308798841 l -1.6218213131637222 4.088049161267475 a25.398005265659855,25.398005265659855 0 0,0 -0.4038833596728,-0.16425584631156526 l 1.6917591340269633 -4.059606058376619" fill="#ff1b02" stroke="none" /><path d="M 91.59046798132341 119.24265499422711 l -4.932416396554204 11.286333983385896 a33.31706402896113,33.31706402896113 0 0,0 -0.5221047251491305,-0.2335308026552035 l 5.125434524558969 -11.199999429820839" fill="#ff8b0c" stroke="none" /><line stroke="#e1ed5e" stroke-width="0.3" x1="58.13341422392154" x2="55.67067388415222" y1="173.97424548756322" y2="178.32567169271397" /><path d="M 57.64086615596768 174.84453072859336 a86.0,86.0 0 0,1 -31.369924170532247,-30.572349798747897" fill="none" id="id32" stroke="none" /><text fill="#e1ed5e" style="font-size:6.75px; font-family:Arial;" text-anchor="middle"><textPath startOffset="22.145653131862474" xlink:href="#id32">August</textPath></text><path d="M 89.65649057296885 118.27599006163327 l -1.9138537207290593 3.3815961426066576 a24.88561816652649,24.88561816652649 0 0,0 -0.36997511588284,-0.21360523274842227 l 1.9716213044722992 -3.348244012582064" fill="#ff1302" stroke="none" /><path d="M 86.40962598614128 116.0094264158162 l -7.236860495970825 8.525003467426753 a32.18247888250996,32.18247888250996 0 0,0 -0.41809717291652654,-0.3611423800235066 l 7.382137148650214 -8.399516954938523" fill="#ff7c0b" stroke="none" /><path d="M 85.86807049272751 115.53346607816431 l -7.520587380762547 8.266442944456234 a32.1755677039529,32.1755677039529 0 0,0 -0.40536653835894043,-0.37520121613401325 l 7.661383690435454 -8.136123982189844" fill="#ff7c0b" stroke="none" /><path d="M 83.8745106332314 113.45245675266167 l -7.195351738691403 6.002618331968922 a30.37040626028449,30.37040626028449 0 0,0 -0.33053585484776415,-0.40319999853605015 l 7.297334412777797 -5.878216051734377" fill="#ff6309" stroke="none" /><path d="M 83.20337586046588 112.60449989151573 l -6.423801247645166 4.820540214297366 a29.031365414853546,29.031365414853546 0 0,0 -0.2957024014743337,-0.4011770988904835 l 6.50560566870333 -4.709556806138003" fill="#ff5007" stroke="none" /><path d="M 82.78059297857968 112.02048342749411 l -6.358814007297638 4.438946027476731 a28.754918272571032,28.754918272571032 0 0,0 -0.2790736886184058,-0.4071768519124817 l 6.434077432731368 -4.329134440494198" fill="#ff4c07" stroke="none" /><path d="M 82.576782715395 111.72311816256416 l -4.411233432342992 2.9680747203734805 a26.31680805938494,26.31680805938494 0 0,0 -0.24897650509589736,-0.3769821620072265 l 4.461534376359616 -2.8919126800271933" fill="#ff2803" stroke="none" /><path d="M 82.37810715431573 111.42229804090323 l -9.832451729955201 6.373276419045308 a32.71732731195378,32.71732731195378 0 0,0 -0.30143923867372074,-0.47391255092182594 l 9.940408660254812 -6.203550193444811" fill="#ff830c" stroke="none" /><path d="M 82.18462484594161 111.11811171558189 l -2.9338334006034263 1.8309290273566772 a24.458276959081434,24.458276959081434 0 0,0 -0.2192300599010178,-0.3580958270696894 l 2.964831424959849 -1.7802960841624307" fill="#ff0d01" stroke="none" /><path d="M 81.99639281039703 110.81064883170644 l -10.354032693695133 6.217299137041109 a33.07728452846747,33.07728452846747 0 0,0 -0.2881288065606911,-0.4893057045138078 l 10.459235210385593 -6.038642264233742" fill="#ff880c" stroke="none" /><line stroke="#e1ed5e" stroke-width="0.3" x1="26.387840678322732" x2="22.057713659400548" y1="142.50000000000003" y2="145.00000000000006" /><path d="M 25.521815274538298 143.00000000000003 a86.0,86.0 0 0,1 -11.493303480769221,-40.785679425670985" fill="none" id="id33" stroke="none" /><text fill="#e1ed5e" style="font-size:6.75px; font-family:Arial;" text-anchor="middle"><textPath startOffset="21.40746469413373" xlink:href="#id33">September</textPath></text><path d="M 81.81346652052679 110.50000000000001 l -9.595862003462493 5.5401735108055785 a32.080347021611146,32.080347021611146 0 0,0 -0.2712571080749495,-0.4792853186143479 l 9.68955247655882 -5.374631422092109" fill="#ff7a0b" stroke="none" /><path d="M 81.4637452351635 109.86951160357371 l -10.197414151811266 5.429548664203195 a32.55280286685925,32.55280286685925 0 0,0 -0.2583947414359322,-0.4955059873271462 l 10.289116962222147 -5.253696433771546" fill="#ff810b" stroke="none" /><path d="M 81.29705330413844 109.54985784667822 l -5.744862407036859 2.9333676787982976 a27.450433319925402,27.450433319925402 0 0,0 -0.21068872499433347,-0.42151858477033416 l 5.794371045242929 -2.8343172378642105" fill="#ff3905" stroke="none" /><path d="M 81.1358732173502 109.22738970284198 l -10.011500495849198 4.897126575207407 a32.14504333199254,32.14504333199254 0 0,0 -0.2382112141064506,-0.49776981962568784 l 10.09409096791556 -4.724544253516615" fill="#ff7b0b" stroke="none" /><path d="M 80.83023694016515 108.57439118712176 l -8.776648933728092 3.9256834335889885 a30.61460123596738,30.61460123596738 0 0,0 -0.2104624349540545,-0.48157923842510425 l 8.842745250699114 -3.774442125388035" fill="#ff6609" stroke="none" /><path d="M 80.5471966667186 107.91128576633889 l -9.442402261557406 3.8401427975216325 a31.1934124401214,31.1934124401214 0 0,0 -0.19747112295799601,-0.4977562275391618 l 9.506932059481528 -3.677485552768905" fill="#ff6e0a" stroke="none" /><path d="M 80.41425534168474 107.57618678355246 l -9.314813143161892 3.6031698287520864 a30.987420923684496,30.987420923684496 0 0,0 -0.18764995853424746,-0.49776380916830615 l 9.375293785510575 -3.4427377393896355" fill="#ff6b09" stroke="none" /><path d="M 80.16572619554312 106.89939002012753 l -12.040398560273111 4.1882756325789705 a33.74805280286686,33.74805280286686 0 0,0 -0.1856377186798406,-0.548804929616029 l 12.110521700525318 -3.98096902848878" fill="#ff910d" stroke="none" /><path d="M 79.94057633289273 106.21446072829308 l -9.1953389801754 2.848739521332581 a30.6265038212601,30.6265038212601 0 0,0 -0.15127112770304743,-0.5035323858555298 l 9.242886427882077 -2.690469531886327" fill="#ff6609" stroke="none" /><path d="M 79.34024301695615 103.76489593502545 l -19.26856443964694 3.5113743105566146 a40.58589607635207,40.58589607635207 0 0,0 -0.11902332462396921,-0.6864949072133827 l 19.32600258176314 -3.180086370422639" fill="#ffeb16" stroke="none" /><path d="M 79.17382384314188 102.69636545807758 l -13.718987471302912 1.7761975918579223 a34.83349179069002,34.83349179069002 0 0,0 -0.07168718302308746,-0.5936727127011819 l 13.74745674058566 -1.540431202233341" fill="#ffa00e" stroke="none" /><path d="M 79.03789590574601 101.26102812881392 l -13.074199308284026 0.7865113642854645 a34.0978352287271,34.0978352287271 0 0,0 -0.03013341070556461,-0.584580117482588 l 13.085774308446164 -0.5619594534261457" fill="#ff960d" stroke="none" /><path d="M 79.01933749520258 100.90099992219065 l -56.03199438845216 2.4062549298735667 a77.08363805901928,77.08363805901928 0 0,0 -0.04542543563819207,-1.3225119951081634 l 56.0650445110872 -1.4440366702012832" fill="#44ffe9" stroke="none" /><line stroke="#e1ed5e" stroke-width="0.3" x1="15.003131293944662" x2="10.003315487706104" y1="100.72959589197737" y2="100.7725132973878" /><path d="M 14.003168132696942 100.73817937305945 a86.0,86.0 0 0,1 10.791469493833604,-42.45332614584628" fill="none" id="id34" stroke="none" /><text fill="#e1ed5e" style="font-size:6.75px; font-family:Arial;" text-anchor="middle"><textPath startOffset="22.145653131862435" xlink:href="#id34">October</textPath></text><path d="M 79.00077361379809 99.81974689727619 l -33.56846933457439 -0.2881449363878508 a54.5697060006582,54.5697060006582 0 0,0 0.01608135039170277,-0.936658039171398 l 33.55857655258402 0.8643498915283011" fill="#6fff27" stroke="none" /><path d="M 79.01933749520258 99.09900007780938 l -16.93693460421743 -0.7273448470494289 a37.95254506892895,37.95254506892895 0 0,0 0.03353994821700954,-0.650666035140762 l 16.92195306654385 1.017982675566903" fill="#ffc912" stroke="none" /><path d="M 79.03789590574601 98.7389718711861 l -42.637457826848696 -2.5649635847153025 a63.71453907192745,63.71453907192745 0 0,0 0.07504977680158383,-1.0912072835330904 l 42.58714408888205 3.2965142924027178" fill="#33ff54" stroke="none" /><path d="M 79.0935383218832 98.0201363427161 l -14.286184078487153 -1.3529164855223117 a35.350102387830475,35.350102387830475 0 0,0 0.062397320049766745,-0.6036374691958103 l 14.260854365955723 1.5979584770010347" fill="#ffa70f" stroke="none" /><path d="M 79.13060592940154 97.66154086499901 l -56.927039704077174 -6.378793537283853 a78.28330347021611,78.28330347021611 0 0,0 0.16110671698495274,-1.3341947287291358 l 56.80915090083255 7.355081942936425" fill="#46fff5" stroke="none" /><path d="M 79.17382384314186 97.30363454192245 l -13.02921129643641 -1.6868922562213178 a34.13795845979449,34.13795845979449 0 0,0 0.08023311636197086,-0.5805268619130022 l 12.998333663519231 1.9103074263343869" fill="#ff970d" stroke="none" /><path d="M 79.2786578344484 96.59031103205396 l -23.22901327744297 -3.822325295126988 a44.54139393717775,44.54139393717775 0 0,0 0.13062332737006568,-0.7534006404720958 l 23.15997513258067 4.220518968519676" fill="#e2ff1b" stroke="none" /><path d="M 79.48165901384962 95.52812308129327 l -50.17397257509394 -10.935183796284258 a72.35178447361685,72.35178447361685 0 0,0 0.274899359424554,-1.2112572999604014 l 49.97886235411172 11.794875430183668" fill="#3effb7" stroke="none" /><path d="M 79.56144815229197 95.17655741523228 l -59.27363143496231 -13.988415624920338 a81.90188137638498,81.90188137638498 0 0,0 0.33467633447030126,-1.365593653218004 l 59.02476757397571 15.00386510274646" fill="#4ae6ff" stroke="none" /><path d="M 79.73907114497095 94.47779374421319 l -11.676687359479484 -3.1825330637484206 a33.10262551651004,33.10262551651004 0 0,0 0.15413450663308423,-0.5469689882016624 l 11.620334360771817 3.3825099758530963" fill="#ff890c" stroke="none" /><path d="M 80.05021161711548 93.44210830539832 l -59.84936514865357 -19.67367508380505 a84.0,84.0 0 0,0 0.46205831371054007,-1.3659933021033535 l 59.50282141337067 20.698170060382566" fill="#4dd2ff" stroke="none" /><path d="M 80.5471966667186 92.08871423366112 l -54.6877577015824 -22.24103496472949 a80.03739898343511,80.03739898343511 0 0,0 0.5285294623583227,-1.2682783052650497 l 54.2979023946876 23.176545779435802" fill="#48f8ff" stroke="none" /><path d="M 80.83023694016515 91.42560881287825 l -3.274638831828666 -1.4647042977525586 a24.587285625479943,24.587285625479943 0 0,0 0.17564165766039,-0.38380872026034096 l 3.249012709313229 1.520702000227571" fill="#ff0f01" stroke="none" /><line stroke="#e1ed5e" stroke-width="0.3" x1="26.387840678322718" x2="22.05771365940052" y1="57.49999999999999" y2="54.99999999999999" /><path d="M 25.521815274538284 56.99999999999999 a86.0,86.0 0 0,1 29.574782752854787,-30.34633250058573" fill="none" id="id35" stroke="none" /><text fill="#e1ed5e" style="font-size:6.75px; font-family:Arial;" text-anchor="middle"><textPath startOffset="21.40746469413373" xlink:href="#id35">November</textPath></text><line stroke="#e1ed5e" stroke-width="0.3" x1="56.869717070023135" x2="54.33264160355391" y1="26.7553504044142" y2="22.446841604673864" /><path d="M 56.362301976729285 25.89364864446614 a86.0,86.0 0 0,1 42.16139366436587,-11.88097634709845" fill="none" id="id36" stroke="none" /><text fill="#e1ed5e" style="font-size:6.75px; font-family:Arial;" text-anchor="middle"><textPath startOffset="22.145653131862474" xlink:href="#id36">December</textPath></text></svg>