<?xml version="1.0" encoding="utf-8" ?>
<svg baseProfile="full" height="200mm" version="1.1" viewBox="0,0,200,200" width="200mm" xmlns="http://www.w3.org/2000/svg" xmlns:ev="http://www.w3.org/2001/xml-events" xmlns:xlink="http://www.w3.org/1999/xlink"><defs /><rect fill="#1a1a1a" height="200" width="200" x="0" y="0" /><text alignment-baseline="middle" fill="#e1ed5e" style="dominant-baseline: central; font-size:9.0px; font-family:Arial;" text-anchor="middle" x="100.0" y="100.0">2024</text><line stroke="#e1ed5e" stroke-width="0.3" x1="100.0" x2="100.0" y1="15.0" y2="10.0" /><path d="M 100.0 14.0 a86.0,86.0 0 0,1 42.35913384403234,11.155469271406648" fill="none" id="id25" stroke="none" /><text fill="#e1ed5e" style="font-size:6.75px; font-family:Arial;" text-anchor="middle"><textPath startOffset="22.145653131862478" xlink:href="#id25">January</textPath></text><path d="M 100.36049292484886 79.00309439819443 l 0.08434575571154268 -4.912717416938898 a25.913441423808912,25.913441423808912 0 0,0 0.44470758455945064,0.011454089891849715 l -0.16866665434173467 4.910545609697003" fill="#ff3404" stroke="none" /><path d="M 103.58742460773223 79.30868818359171 l 0.8413950164415004 -4.852942862809996 a25.92534262802001,25.92534262802001 0 0,0 0.43784850242604495,0.07979058264304444 l -0.924578252418599 4.837784106235586" fill="#ff3405" stroke="none" /><path d="M 104.29559338865022 79.4440306129975 l 1.0055734049783716 -4.8120327644918195 a25.915977746017834,25.915977746017834 0 0,0 0.434694351057601,0.09473961060003729 l -1.0880301726551067 4.794061695758064" fill="#ff3404" stroke="none" /><path d="M 105.3480935250658 79.69241777938227 l 1.25461580188822 -4.763980553578256 a25.926415687416096,25.926415687416096 0 0,0 0.4294137896753272,0.11703863789431473 l -1.33621099249824 4.741741421539799" fill="#ff3405" stroke="none" /><path d="M 106.04205211174951 79.88797359093562 l 1.4245414177631408 -4.7418350727469045 a25.951193604380187,25.951193604380187 0 0,0 0.4255493621823886,0.13183628020026694 l -1.5057314128171595 4.716682204739991" fill="#ff3505" stroke="none" /><path d="M 106.72888874123014 80.10723608172694 l 1.5767878170659217 -4.66149300432143 a25.920952839581492,25.920952839581492 0 0,0 0.4202826107128948,0.1461961087445561 l -1.6565761998238349 4.633738463008283" fill="#ff3404" stroke="none" /><path d="M 107.40779381753099 80.34994680014964 l 1.745098601624527 -4.629081370995242 a25.947096468504235,25.947096468504235 0 0,0 0.41543493049844776,0.16069915567556065 l -1.8243057946165007 4.598442327181643" fill="#ff3405" stroke="none" /><path d="M 108.07796709384702 80.6158196554323 l 1.3725678343496832 -3.293663136663779 a24.56821514453785,24.56821514453785 0 0,0 0.3879027813140664,0.1655726312178055 l -1.4289056908341797 3.2696158557865718" fill="#ff2103" stroke="none" /><path d="M 108.73861861582097 80.90454125486305 l 2.046715171370649 -4.472442022723797 a25.918514068226756,25.918514068226756 0 0,0 0.4029851125217242,0.1886173805713597 l -2.123188997763878 4.4366484105819035" fill="#ff3404" stroke="none" /><path d="M 109.3889696526874 81.21577127319529 l 2.1944576005662566 -4.3903852100014955 a25.908271228536876,25.908271228536876 0 0,0 0.3961162201878326,0.20225976446771995 l -2.269501042467668 4.352067493860942" fill="#ff3404" stroke="none" /><path d="M 109.71004243097381 81.37971332152246 l 2.268598925388281 -4.350337565412622 a25.90632021145309,25.90632021145309 0 0,0 0.392556230147575,0.20901408173598793 l -2.3429439713224154 4.310753015954061" fill="#ff3404" stroke="none" /><line stroke="#e1ed5e" stroke-width="0.3" x1="143.13028292997686" x2="145.6673583964461" y1="26.7553504044142" y2="22.446841604673864" /><path d="M 143.63769802327073 25.89364864446614 a86.0,86.0 0 0,1 29.32050498858742,28.57503671076993" fill="none" id="id26" stroke="none" /><text fill="#e1ed5e" style="font-size:6.75px; font-family:Arial;" text-anchor="middle"><textPath startOffset="20.669276256404974" xlink:href="#id26">February</textPath></text><path d="M 111.27062007382361 82.28071324371311 l 2.6366588253537655 -4.145265610846562 a25.912758567829588,25.912758567829588 0 0,0 0.3732848464106564,0.24195872754381867 l -2.7074293040214292 4.099393041598849" fill="#ff3404" stroke="none" /><path d="M 112.7482090630111 83.31218511350987 l 2.977352905208484 -3.897450527230147 a25.90456429607768,25.90456429607768 0 0,0 0.35105625653433786,0.27298346842588567 l -3.0438191063780478 3.8457660071834705" fill="#ff3404" stroke="none" /><path d="M 113.31354834802062 83.75963576809568 l 2.7080132987275594 -3.3033359076444007 a25.271459252388834,25.271459252388834 0 0,0 0.33313278734491125,0.277911219481278 l -2.7643204202343634 3.256362504251252" fill="#ff2b04" stroke="none" /><path d="M 113.86319453409587 84.22622945171908 l 2.52248545594434 -2.8701254025962326 a24.82106695859663,24.82106695859663 0 0,0 0.31763279825398405,0.2840292068197398 l -2.5713832810216997 2.826400665893106" fill="#ff2403" stroke="none" /><path d="M 114.91283532996326 85.21462403516908 l 4.22670075960703 -4.190575329163805 a26.951967817508674,26.951967817508674 0 0,0 0.32292718275446336,0.3313517378381545 l -4.298014743512304 4.117400899257908" fill="#ff4306" stroke="none" /><path d="M 115.41159269507618 85.73525988315684 l 3.8427978564838225 -3.556836326320569 a26.236237200321455,26.236237200321455 0 0,0 0.30309387933599274,0.3331532676229391 l -3.903289436661693 3.490345483139958" fill="#ff3905" stroke="none" /><path d="M 115.6541949942343 86.00192230759917 l 4.542190660472814 -4.061654897132311 a27.093319005229034,27.093319005229034 0 0,0 0.3070433411373793,0.34935895904561165 l -4.6112450655687836 3.983083660275402" fill="#ff4506" stroke="none" /><path d="M 116.1254893667686 86.54754324733833 l 4.254814853999616 -3.5495178789406405 a26.540986068808966,26.540986068808966 0 0,0 0.2888584184080744,0.35236030273599833 l -4.3151200916463175 3.475955294506147" fill="#ff3d05" stroke="none" /><path d="M 116.57777611688842 87.10902102172516 l 4.260489257793702 -3.3129822161992775 a26.397001008025494,26.397001008025494 0 0,0 0.27509197497060717,0.36010422580755536 l -4.316733210118615 3.2393570771508404" fill="#ff3b05" stroke="none" /><path d="M 116.7966241395341 87.39550010848427 l 3.508316169178011 -2.6327058584186243 a25.386276607769695,25.386276607769695 0 0,0 0.2585749188899193,0.3508065382252339 l -3.552993107651756 2.5720930109245157" fill="#ff2c04" stroke="none" /><path d="M 117.01052211995028 87.68569379921539 l 4.395331567921473 -3.181881096870055 a26.426168713428105,26.426168713428105 0 0,0 0.26285845942547936,0.3697433418486659 l -4.449305125876913 3.1059605283118845" fill="#ff3b05" stroke="none" /><path d="M 117.42321728460499 88.27688183743584 l 4.956340480699521 -3.33484706986238 a26.97381920884709,26.97381920884709 0 0,0 0.2551923174175542,0.3863936940983627 l -5.0128572370377995 3.2492734974249586" fill="#ff4306" stroke="none" /><path d="M 117.62189284568427 88.57770195909679 l 4.601190313802828 -2.9824359714027144 a26.483235963128873,26.483235963128873 0 0,0 0.24400179177916298,0.38361134429722926 l -4.651709797207881 2.9030109524268135" fill="#ff3c05" stroke="none" /><line stroke="#e1ed5e" stroke-width="0.3" x1="172.87174338648825" x2="177.1583165268699" y1="56.24261187166439" y2="53.66864786411523" /><path d="M 173.72905801456457 55.72781907015455 a86.0,86.0 0 0,1 12.242430191666344,42.057860355516425" fill="none" id="id27" stroke="none" /><text fill="#e1ed5e" style="font-size:6.75px; font-family:Arial;" text-anchor="middle"><textPath startOffset="22.145653131862474" xlink:href="#id27">March</textPath></text><path d="M 118.00360718960297 89.18935116829356 l 5.181657470708055 -3.1114364300484567 a27.044055823863417,27.044055823863417 0 0,0 0.23557470451918017,0.40005734982319097 l -5.234305885357003 3.0220279119317093" fill="#ff4406" stroke="none" /><path d="M 118.18653347947321 89.5 l 4.886073068619186 -2.820975601447469 a26.641951202894937,26.641951202894937 0 0,0 0.2252724583029885,0.3980348486313307 l -4.933778891943551 2.7366839827170204" fill="#ff3e05" stroke="none" /><path d="M 118.70294669586156 90.45014215332178 l 4.9132604509219915 -2.5087457946075142 a26.51669590611582,26.51669590611582 0 0,0 0.20352206416598698,0.4071804623578784 l -4.9556024282997155 2.424033476085885" fill="#ff3d05" stroke="none" /><path d="M 118.8641267826498 90.77261029715802 l 4.758962665796096 -2.3278471145012056 a26.297791789314928,26.297791789314928 0 0,0 0.19488008915566302,0.40722443396096125 l -4.798222012911671 2.245810178475141" fill="#ff3905" stroke="none" /><path d="M 119.0197475246899 91.09779779509293 l 4.9531031204581515 -2.3183023572124717 a26.468798436708852,26.468798436708852 0 0,0 0.18908242676793605,0.4131792264329478 l -4.9921700120811385 2.2329341485648397" fill="#ff3c05" stroke="none" /><path d="M 119.31412917781788 91.75594674310238 l 4.539448542919467 -1.9376206506765459 a25.935683018564085,25.935683018564085 0 0,0 0.17126709233184995,0.41097867400066834 l -4.5720414797878 1.8594094672345998" fill="#ff3405" stroke="none" /><path d="M 119.58574465831526 92.42381321644754 l 6.551650352607354 -2.534319101868157 a28.0247345610289,28.0247345610289 0 0,0 0.16970887287656466,0.4501729479321002 l -6.59418990929836 2.4214778737418987" fill="#ff5207" stroke="none" /><path d="M 119.83427380445688 93.10060997987247 l 7.901652429762735 -2.7486048873728475 a29.366058806132386,29.366058806132386 0 0,0 0.16153370967007244,0.4775457099803576 l -7.947671561005173 2.6125575029183286" fill="#ff6409" stroke="none" /><path d="M 120.05942366710727 93.78553927170692 l 5.662646738550278 -1.7543024345520644 a26.928165409086475,26.928165409086475 0 0,0 0.13300421008483224,0.4427277580974563 l -5.6919272686387385 1.6568370728638846" fill="#ff4206" stroke="none" /><path d="M 120.16314734710363 94.1308016681162 l 4.773838226558815 -1.3895947330874852 a25.971971936322518,25.971971936322518 0 0,0 0.12093231332048823,0.4291461172627252 l -4.796989031953885 1.3074406919217467" fill="#ff3505" stroke="none" /><path d="M 120.35273937422433 94.82641323984039 l 5.6144096934531165 -1.4271609890974608 a26.792959925180043,26.792959925180043 0 0,0 0.10948429348236118,0.4467332790147869 l -5.638081513451769 1.3305718854745792" fill="#ff4006" stroke="none" /><path d="M 120.43855184770803 95.1765574152323 l 5.726663118800861 -1.3514769031417584 a26.8839748721387,26.8839748721387 0 0,0 0.1021451996644425,0.45007059677571065 l -5.74901918002297 1.2529719724270216" fill="#ff4206" stroke="none" /><path d="M 120.51834098615036 95.52812308129327 l 2.427823276249565 -0.5291327831566736 a23.484815357910986,23.484815357910986 0 0,0 0.08246781168378206,0.3946383325907935 l -2.436548798757714 0.4873779992804756" fill="#ff1101" stroke="none" /><path d="M 120.592083275326 95.88100663000786 l 4.691542571602975 -0.9384399086334105 a25.7844791945706,25.7844791945706 0 0,0 0.08309196707953224,0.43477228308330085 l -4.706960830964665 0.8577650605167952" fill="#ff3204" stroke="none" /><path d="M 120.7213421655516 96.59031103205396 l 5.717823318299596 -0.9408656511392433 a26.79471584055545,26.79471584055545 0 0,0 0.07078718349586693,0.45450449734260323 l -5.7331319939337275 0.8425729718651987" fill="#ff4006" stroke="none" /><path d="M 120.82617615685814 97.30363454192243 l 5.572032519724941 -0.721411165655762 a26.618538997889495,26.618538997889495 0 0,0 0.054780843919265104,0.4536639723050176 l -5.5835954499038705 0.6256535164273315" fill="#ff3e05" stroke="none" /><path d="M 120.9064616781168 98.02013634271609 l 5.285071364750926 -0.5005017531098933 a26.308717484984136,26.308717484984136 0 0,0 0.038719388044260165,0.44997798053077187 l -5.292884375492927 0.4097027252034594" fill="#ff3a05" stroke="none" /><path d="M 120.96210409425399 98.7389718711861 l 5.081991706686799 -0.3057200013756128 a26.0911790801419,26.0911790801419 0 0,0 0.023057657758635997,0.4473124006147643 l -5.086490953902008 0.21843580738411783" fill="#ff3705" stroke="none" /><path d="M 120.98066250479742 99.09900007780936 l 5.97475074608179 -0.25658150480697367 a26.980257565223585,26.980257565223585 0 0,0 0.015899482489299902,0.46289608481888417 l -5.978274915567939 0.15397915542396956" fill="#ff4306" stroke="none" /><line stroke="#e1ed5e" stroke-width="0.3" x1="184.99686870605535" x2="189.99668451229388" y1="99.2704041080226" y2="99.22748670261217" /><path d="M 185.99683186730306 99.26182062694052 a86.0,86.0 0 0,1 -10.086455211305974,41.156179273409016" fill="none" id="id28" stroke="none" /><text fill="#e1ed5e" style="font-size:6.75px; font-family:Arial;" text-anchor="middle"><textPath startOffset="21.40746469413373" xlink:href="#id28">April</textPath></text><path d="M 120.99922638620191 99.81974689727618 l 5.419628248208044 -0.04652099031567688 a26.4198279079058,26.4198279079058 0 0,0 0.0,0.4535481860790068 l -5.419628248208044 -0.04652099031567622" fill="#ff3b05" stroke="none" /><path d="M 120.99303781780057 100.54070618675476 l 5.512916571951041 0.14199317523208482 a26.51474488903203,26.51474488903203 0 0,0 -0.01562515558097878,0.4549093561999526 l -5.509666729373216 -0.23660879599614812" fill="#ff3d05" stroke="none" /><path d="M 120.98066250479742 100.90099992219065 l 4.350855128647122 0.18684443980152912 a25.354865232720723,25.354865232720723 0 0,0 -0.022406952298195393,0.4346888885195774 l -4.347006586892355 -0.26150512169783713" fill="#ff2c04" stroke="none" /><path d="M 120.93736805541906 101.62068470465957 l 4.987293734041279 0.3860480768648089 a26.002212701121216,26.002212701121216 0 0,0 -0.03826829506830708,0.44473559637638566 l -4.97993181627523 -0.4716047206168519" fill="#ff3505" stroke="none" /><path d="M 120.9064616781168 101.97986365728391 l 5.31527454730215 0.503362025899624 a26.339055800637023,26.339055800637023 0 0,0 -0.04649170394388143,0.44976506178314096 l -5.305850450876602 -0.5945316099656964" fill="#ff3a05" stroke="none" /><path d="M 120.86939407059847 102.33845913500097 l 5.800265632391113 0.6499318623057788 a26.83656515700268,26.83656515700268 0 0,0 -0.05522954085915513,0.4573798266356285 l -5.788254005272294 -0.7494053658648159" fill="#ff4106" stroke="none" /><path d="M 120.77682067341334 103.0534771498775 l 5.327290102507658 0.7829281897586513 a26.384514498689256,26.384514498689256 0 0,0 -0.06970349976397744,0.44754647040162393 l -5.313065110605413 -0.8742628420917258" fill="#ff3b05" stroke="none" /><path d="M 120.7213421655516 103.40968896794604 l 5.10062721182276 0.8393062666891418 a26.169219763493373,26.169219763493373 0 0,0 -0.076744579772408,0.44264234204881375 l -5.085467814558117 -0.9267416416585434" fill="#ff3805" stroke="none" /><path d="M 120.592083275326 104.11899336999214 l 5.395570490842012 1.0792652099330444 a26.502453481404174,26.502453481404174 0 0,0 -0.09306436135664452,0.44534665876958424 l -5.376248418661002 -1.1717283199880377" fill="#ff3c05" stroke="none" /><path d="M 120.51834098615036 104.47187691870673 l 5.006146432885366 1.0910663147667221 a26.12366351458695,26.12366351458695 0 0,0 -0.09925640975173229,0.43734205540279825 l -4.986679161575969 -1.1768427041085374" fill="#ff3705" stroke="none" /><path d="M 120.35273937422433 105.17358676015961 l 5.18754286457765 1.318653110447066 a26.352517818515153,26.352517818515153 0 0,0 -0.11521134966764157,0.43747626049511756 l -5.164142034105279 -1.4075098753149868" fill="#ff3a05" stroke="none" /><path d="M 120.16314734710363 105.8691983318838 l 7.75102434077555 2.2562102209606363 a29.07272338758503,29.07272338758503 0 0,0 -0.14359665987032671,0.4779865784257918 l -7.711151360901594 -2.3889344029771515" fill="#ff6008" stroke="none" /><path d="M 120.05942366710727 106.21446072829308 l 9.503126997384404 2.944093035836634 a30.948723864500316,30.948723864500316 0 0,0 -0.16157486367694038,0.5061309591811373 l -9.45118741793021 -3.1067930287091547" fill="#ff7a0b" stroke="none" /><path d="M 119.94978838288452 106.5578916946017 l 4.785877058627933 1.5732128487682193 a26.037818762900326,26.037818762900326 0 0,0 -0.14322607893198078,0.423422452755988 l -4.758165558123587 -1.6551369759983678" fill="#ff3605" stroke="none" /><path d="M 119.71291397450082 107.23885506374661 l 9.169285581339842 3.3670886733071854 a30.76796213168746,30.76796213168746 0 0,0 -0.18632098593856572,0.49423855146681545 l -9.110133911586836 -3.5239955049681595" fill="#ff770b" stroke="none" /><path d="M 119.58574465831526 107.57618678355244 l 4.228535271529794 1.6356882823114003 a25.533871050158172,25.533871050158172 0 0,0 -0.16164317384057825,0.4074463912146679 l -4.199833422723091 -1.7080356907396324" fill="#ff2f04" stroke="none" /><path d="M 119.4528033332814 107.91128576633889 l 2.1344808244538607 0.8680747692613732 a23.30424872680651,23.30424872680651 0 0,0 -0.15389033385245596,0.36928077943693804 l -2.119264646064919 -0.904588058139589" fill="#ff0e01" stroke="none" /><path d="M 119.31412917781788 108.2440532568976 l 8.98567851053469 3.8354518346748345 a30.770010699625434,30.770010699625434 0 0,0 -0.21153080928577878,0.4840238879756847 l -8.918513819231945 -3.989137792426364" fill="#ff780b" stroke="none" /><path d="M 119.0197475246899 108.90220220490707 l 7.756513013469999 3.6304397396057877 a29.56408704013676,29.56408704013676 0 0,0 -0.21908500775827772,0.4578034044434082 l -7.69304874775181 -3.7630556461142994" fill="#ff6709" stroke="none" /><path d="M 118.8641267826498 109.22738970284198 l 4.405992539519553 2.155191738180759 a25.90485694864025,25.90485694864025 0 0,0 -0.19882605196283307,0.39778529221770065 l -4.368346574344987 -2.2305088865622054" fill="#ff3404" stroke="none" /><path d="M 118.70294669586154 109.54985784667822 l 4.355748916165192 2.2240764325337334 a25.890712074782794,25.890712074782794 0 0,0 -0.20551299006472107,0.3940982563525682 l -4.316927857125521 -2.2985209319908044" fill="#ff3404" stroke="none" /><line stroke="#e1ed5e" stroke-width="0.3" x1="174.33088141563837" x2="178.70328620479359" y1="141.23008692659167" y2="143.65538615756765" /><path d="M 175.20536237346943 141.71514677278685 a86.0,86.0 0 0,1 -30.301960400862466,31.631185727798858" fill="none" id="id29" stroke="none" /><text fill="#e1ed5e" style="font-size:6.75px; font-family:Arial;" text-anchor="middle"><textPath startOffset="22.145653131862474" xlink:href="#id29">May</textPath></text><path d="M 118.36410011445183 110.18625677009912 l 9.957214772880683 5.523099185882127 a32.386428353542875,32.386428353542875 0 0,0 -0.2738451953197539,0.48385822079018537 l -9.860936212539551 -5.693214176771435" fill="#ff8d0d" stroke="none" /><path d="M 118.18653347947321 110.5 l 11.630824012310836 6.715059374404821 a34.43011874880965,34.43011874880965 0 0,0 -0.29991304202435015,0.5093179126110512 l -11.51383726015672 -6.913728455309421" fill="#ffa80f" stroke="none" /><path d="M 117.62189284568427 111.42229804090321 l 4.508117080214013 2.92210702586935 a26.37232064191559,26.37232064191559 0 0,0 -0.24950169526167051,0.37777736685630187 l -4.457290946031615 -2.999064271064713" fill="#ff3b05" stroke="none" /><path d="M 117.423217284605 111.72311816256416 l 4.603541758413209 3.097468344601427 a26.548595035435735,26.548595035435735 0 0,0 -0.2576607686359827,0.37593476172526 l -4.549691252961906 -3.1760378413967314" fill="#ff3d05" stroke="none" /><path d="M 117.21940702142032 112.02048342749411 l 7.035267757375453 4.911163281076788 a29.57989027851543,29.57989027851543 0 0,0 -0.2942282126820129,0.4138688283458088 l -6.94992444616348 -5.0312093361321" fill="#ff6709" stroke="none" /><path d="M 117.01052211995028 112.31430620078461 l 6.22911661927977 4.509400056582833 a28.690031386600232,28.690031386600232 0 0,0 -0.29222570341287496,0.3964602902509176 l -6.150788896283067 -4.615666656102628" fill="#ff5b08" stroke="none" /><path d="M 116.79662413953412 112.60449989151573 l 2.3380971961032886 1.7545517247881075 a23.923208896637902,23.923208896637902 0 0,0 -0.24931176011281514,0.32635709700269266 l -2.307633458636169 -1.7944297350316776" fill="#ff1702" stroke="none" /><path d="M 116.57777611688842 112.89097897827486 l 5.405604038876255 4.203430396133905 a27.84758220982105,27.84758220982105 0 0,0 -0.2966875698002767,0.3748550524244139 l -5.332650038434417 -4.295605392473002" fill="#ff4f07" stroke="none" /><path d="M 116.35404254752997 113.17365903436017 l 2.409207645400252 1.9406871402734711 a24.093630238906687,24.093630238906687 0 0,0 -0.2622226584376433,0.31986900648606575 l -2.375538167723981 -1.9817584284580299" fill="#ff1a02" stroke="none" /><path d="M 116.1254893667686 113.45245675266167 l 9.237954294281835 7.706630031519769 a33.03045909290093,33.03045909290093 0 0,0 -0.36696122267760234,0.43227939760334566 l -9.104298508097118 -7.864076211572671" fill="#ff960d" stroke="none" /><path d="M 115.89218393027572 113.72728997021213 l 5.623809901060858 4.857713048622701 a28.431326521290085,28.431326521290085 0 0,0 -0.32220672138323225,0.366612102262072 l -5.539592115719041 -4.953537428696066" fill="#ff5708" stroke="none" /><path d="M 115.41159269507618 114.26474011684316 l 7.170855384929217 6.637236689635661 a30.77108375902152,30.77108375902152 0 0,0 -0.3621378019359564,0.3845777961580182 l -7.055861749257001 -6.759355945738176" fill="#ff780b" stroke="none" /><path d="M 115.16444852881244 114.52719865689866 l 3.9200875612435886 3.755355207703204 a26.42860748478284,26.42860748478284 0 0,0 -0.3166564985893301,0.3249174634676039 l -3.8550442615034517 -3.8220953632385455" fill="#ff3b05" stroke="none" /><path d="M 114.91283532996324 114.78537596483092 l 4.2246225312858545 4.188514863371121 a26.949041291882995,26.949041291882995 0 0,0 -0.32853201502253604,0.32572406595491016 l -4.152098596133354 -4.260418939554692" fill="#ff4306" stroke="none" /><path d="M 114.65682725009322 115.03919595460226 l 6.415722202745673 6.583096174294542 a30.19231454111614,30.19231454111614 0 0,0 -0.3742804852600645,0.35855223831203853 l -6.3017692316202965 -6.692260542912161" fill="#ff700a" stroke="none" /><path d="M 114.39649973595853 115.28858382429668 l 7.026368032700681 7.46175935946354 a31.249278046257686,31.249278046257686 0 0,0 -0.3936966018558009,0.3643996971287396 l -6.897241659530913 -7.581276802724659" fill="#ff7e0b" stroke="none" /><path d="M 114.13192950727249 115.5334660781643 l 4.0056991683600485 4.402965081238993 a26.952455571779623,26.952455571779623 0 0,0 -0.3449079726250617,0.3084188359294313 l -3.9295261689116088 -4.471079447051811" fill="#ff4306" stroke="none" /><path d="M 113.86319453409587 115.77377054828091 l 4.233937421151815 4.817443572098336 a27.413578459532655,27.413578459532655 0 0,0 -0.35614222556626074,0.3076271721013189 l -4.150615715822699 -4.889414876664373" fill="#ff4906" stroke="none" /><path d="M 113.31354834802062 116.24036423190432 l 3.2669078605975446 3.9850963981411804 a26.153026321697944,26.153026321697944 0 0,0 -0.34964009489026193,0.2816453107199055 l -3.19801699535203 -4.04059000265449" fill="#ff3705" stroke="none" /><path d="M 113.03279911837588 116.46651593811092 l 3.040307729243971 3.841329496882207 a25.898906346534698,25.898906346534698 0 0,0 -0.3509795805260612,0.2729238446980807 l -2.973918204082679 -3.892954393201081" fill="#ff3404" stroke="none" /><path d="M 112.45986205192187 116.90419585922612 l 4.150251890704601 5.630613768695196 a27.99488399964696,27.99488399964696 0 0,0 -0.38928751144166085,0.28181413728693117 l -4.052983368888972 -5.701028677355204" fill="#ff5107" stroke="none" /><path d="M 112.16784306229584 117.11559508785304 l 7.966128778714682 11.20535775290054 a34.74842718602948,34.74842718602948 0 0,0 -0.4891336023895971,0.34145324249787706 l -7.772600085151327 -11.340455811203539" fill="#ffad10" stroke="none" /><path d="M 111.8722381534696 117.32195027204791 l 1.6552126238551303 2.4150046848331983 a23.9277937867848,23.9277937867848 0 0,0 -0.3408043780607998,0.22930839517544915 l -1.6135119576973274 -2.443062754065769" fill="#ff1802" stroke="none" /><path d="M 111.5731344415666 117.5232005979908 l 2.727051863064494 4.1291040969826485 a25.948364629608697,25.948364629608697 0 0,0 -0.3737977676138404,0.24229119687078626 l -2.655768463193644 -4.175309135557329" fill="#ff3405" stroke="none" /><path d="M 111.27062007382361 117.71928675628689 l 6.168957580917948 9.698625953822193 a32.49431959827629,32.49431959827629 0 0,0 -0.47323469255829864,0.2953334484429088 l -6.001558759569935 -9.803095199106648" fill="#ff8f0d" stroke="none" /><path d="M 110.96478420261333 117.91015095944535 l 4.179836173493687 6.827448262518471 a29.00531574734019,29.00531574734019 0 0,0 -0.42688538015293376,0.25633240536863094 l -4.062018036783316 -6.8981946684230255" fill="#ff5f08" stroke="none" /><line stroke="#e1ed5e" stroke-width="0.3" x1="143.1302829299769" x2="145.66735839644613" y1="173.24464959558577" y2="177.55315839532614" /><path d="M 143.63769802327073 174.10635135553383 a86.0,86.0 0 0,1 -40.68552437913181,11.842963189579606" fill="none" id="id30" stroke="none" /><text fill="#e1ed5e" style="font-size:6.75px; font-family:Arial;" text-anchor="middle"><textPath startOffset="21.407464694133747" xlink:href="#id30">June</textPath></text><path d="M 110.65571695917076 118.09573695890943 l 5.027244164481238 8.53735965184124 a30.90755740403241,30.90755740403241 0 0,0 -0.4595034391226679,0.2652944342710321 l -4.879948257498172 -8.622400983388443" fill="#ff790b" stroke="none" /><path d="M 110.34350942703117 118.27599006163325 l 1.4600973548325122 2.579852122162677 a23.964375357105805,23.964375357105805 0 0,0 -0.3597575527874512,0.1995514501029956 l -1.4155956138889667 -2.604536487698817" fill="#ff1802" stroke="none" /><path d="M 108.07796709384702 119.3841803445677 l 1.0137594349825314 2.4326535977939914 a23.635433876779334,23.635433876779334 0 0,0 -0.37585465242756105,0.15285681508305515 l -0.9718503213645294 -2.449697669456338" fill="#ff1302" stroke="none" /><path d="M 107.407793817531 119.65005319985036 l 1.0838172767686027 2.8749540918672953 a24.0724617035476,24.0724617035476 0 0,0 -0.3879229612795753,0.14245068467475794 l -1.0343051638349003 -2.893135625550775" fill="#ff1a02" stroke="none" /><path d="M 106.38641147887787 120.00534299687104 l 0.40049993248018234 1.2545603342328806 a22.316936531556152,22.316936531556152 0 0,0 -0.3659545781071811,0.11337366375661721 l -0.3789047215013769 -1.2612505857961422" fill="#ff0000" stroke="none" /><path d="M 103.94208987418118 120.62667999033965 l 0.3364666430964419 1.7605356539507364 a22.79239939487502,22.79239939487502 0 0,0 -0.3849367811616225,0.07014830444649787 l -0.3061951283837623 -1.7660521323285978" fill="#ff0701" stroke="none" /><path d="M 103.2317021107853 120.74984581791261 l 0.3143095354884368 2.0180926882830734 a23.04242223416231,23.04242223416231 0 0,0 -0.3913644531863315,0.057517097243274105 l -0.27961997669441985 -2.0231908588252296" fill="#ff0b01" stroke="none" /><line stroke="#e1ed5e" stroke-width="0.3" x1="101.45913802915013" x2="101.54496967792366" y1="184.9874750549273" y2="189.98673829345242" /><path d="M 101.47630435890484 185.9873277026323 a86.0,86.0 0 0,1 -42.54439059252881,-10.42667462771756" fill="none" id="id31" stroke="none" /><text fill="#e1ed5e" style="font-size:6.75px; font-family:Arial;" text-anchor="middle"><textPath startOffset="22.145653131862474" xlink:href="#id31">July</textPath></text><path d="M 98.91894614982273 120.97215588758144 l -0.30540557597143164 5.924786584090323 a26.932652748379187,26.932652748379187 0 0,0 -0.461517485883802,-0.02776374590175188 l 0.40706741398768 -5.918670860363879" fill="#ff4206" stroke="none" /><path d="M 98.55909050195518 120.95050786540614 l -0.11789801088494804 1.7142112032104946 a22.71826074569112,22.71826074569112 0 0,0 -0.38884034746581203,-0.030098702092083072 l 0.1473073531259962 -1.711934734123358" fill="#ff0601" stroke="none" /><path d="M 97.84075906011543 120.88869738790638 l -0.5814952265836979 5.625438827252072 a26.655413220773067,26.655413220773067 0 0,0 -0.4547465516665904,-0.05095529962477949 l 0.6779776798510875 -5.6146277671203215" fill="#ff3f05" stroke="none" /><path d="M 97.48249496171623 120.84855314841334 l -0.22876805763354233 1.8945276913859284 a22.90828980965196,22.90828980965196 0 0,0 -0.39001055569065224,-0.05049467471749999 l 0.2612564352149886 -1.8903214204680312" fill="#ff0901" stroke="none" /><path d="M 97.12497278360702 120.80226474461374 l -0.317535681610856 2.2975300119132953 a23.31936910920586,23.31936910920586 0 0,0 -0.396068262586734,-0.05820839524056036 l 0.3569290498052749 -2.2917405433738525" fill="#ff0f01" stroke="none" /><path d="M 95.00130118170881 120.39639698878247 l -1.4351337010228293 5.855835240749469 a27.029130543172446,27.029130543172446 0 0,0 -0.44970643526212845,-0.11431361728029868 l 1.5354454295103364 -5.8303363916339075" fill="#ff4406" stroke="none" /><path d="M 93.61358852112213 120.00534299687104 l -0.5872812343242727 1.8396501019610447 a22.931116709532265,22.931116709532265 0 0,0 -0.37397076539812824,-0.1229316185896119 l 0.6187747373701445 -1.8292975619694112" fill="#ff0901" stroke="none" /><path d="M 93.27111125876986 119.89276391827306 l -1.8822054751202593 5.564406041197724 a26.874122235865578,26.874122235865578 0 0,0 -0.4357373096508934,-0.15157205528377216 l 1.9774485568161744 -5.5312755533453615" fill="#ff4206" stroke="none" /><path d="M 92.93061703081489 119.77432235084164 l -0.6063768367478849 1.696143933381859 a22.801276522606248,22.801276522606248 0 0,0 -0.3674380633992478,-0.13492834642769969 l 0.6354040518012515 -1.6854847379454398" fill="#ff0701" stroke="none" /><path d="M 92.25597844496254 119.51999308798841 l -0.8241086397742075 2.077292119839178 a23.234792518623696,23.234792518623696 0 0,0 -0.3694835860361954,-0.1502657578459639 l 0.8596466870008437 -2.062839105413923" fill="#ff0d01" stroke="none" /><path d="M 91.59046798132341 119.24265499422711 l -2.506346990492375 5.735012403395777 a27.258765253934165,27.258765253934165 0 0,0 -0.42716639522734495,-0.1910660952479945 l 2.604426788575355 -5.691142557237927" fill="#ff4706" stroke="none" /><line stroke="#e1ed5e" stroke-width="0.3" x1="58.13341422392154" x2="55.67067388415222" y1="173.97424548756322" y2="178.32567169271397" /><path d="M 57.64086615596768 174.84453072859336 a86.0,86.0 0 0,1 -31.369924170532247,-30.572349798747897" fill="none" id="id32" stroke="none" /><text fill="#e1ed5e" style="font-size:6.75px; font-family:Arial;" text-anchor="middle"><textPath startOffset="22.145653131862474" xlink:href="#id32">August</textPath></text><path d="M 89.65649057296885 118.27599006163327 l -0.9725013315061874 1.7183166694936367 a22.974429288792336,22.974429288792336 0 0,0 -0.3415614224080766,-0.19720057917209596 l 1.0018552217746637 -1.7013691930453692" fill="#ff0a01" stroke="none" /><path d="M 86.40962598614128 116.0094264158162 l -3.6773220398344586 4.331876116430248 a26.682239705675137,26.682239705675137 0 0,0 -0.346641072266395,-0.2994203021726241 l 3.751142591863716 -4.2681116817929015" fill="#ff3f05" stroke="none" /><path d="M 85.86807049272751 115.53346607816431 l -3.821494381876848 4.200491752964904 a26.67872787492432,26.67872787492432 0 0,0 -0.3361141492819602,-0.3111022386824972 l 3.8930383024727755 -4.13427176815003" fill="#ff3f05" stroke="none" /><path d="M 83.8745106332314 113.45245675266167 l -3.6562298731311302 3.0501569984875756 a25.761457192981915,25.761457192981915 0 0,0 -0.28037442773828064,-0.3420112135964403 l 3.7080511201080406 -2.98694350319264" fill="#ff3204" stroke="none" /><path d="M 83.20337586046588 112.60449989151573 l -3.2641759393639824 2.44949847849264 a25.081039985011234,25.081039985011234 0 0,0 -0.2554658952157666,-0.34658855050596254 l 3.3057438541635795 -2.393103618717798" fill="#ff2803" stroke="none" /><path d="M 82.78059297857968 112.02048342749411 l -3.231153469002552 2.255596065388296 a24.940566754978576,24.940566754978576 0 0,0 -0.2420544511574828,-0.3531646781236801 l 3.2693976569753596 -2.1997966521945647" fill="#ff2603" stroke="none" /><path d="M 82.576782715395 111.72311816256416 l -2.241514249534164 1.508190822689156 a23.7016709067739,23.7016709067739 0 0,0 -0.2242353698056949,-0.3395209297972982 l 2.2670740582605857 -1.4694900145527967" fill="#ff1402" stroke="none" /><path d="M 82.37810715431573 111.42229804090323 l -4.996239940275678 3.2385023664282357 a26.95401638544665,26.95401638544665 0 0,0 -0.24833930048618116,-0.39043062842570864 l 5.0510969323877495 -3.1522580633238553" fill="#ff4306" stroke="none" /><path d="M 82.18462484594161 111.11811171558189 l -1.49079151536058 0.9303641640487585 a22.757281087366856,22.757281087366856 0 0,0 -0.20398330202550405,-0.3331913939183757 l 1.5065427818414887 -0.9046356540058258" fill="#ff0601" stroke="none" /><path d="M 81.99639281039703 110.81064883170644 l -5.2612749198205835 3.159244420645413 a27.136924237051673,27.136924237051673 0 0,0 -0.2363836604368278,-0.40143113382601475 l 5.314732290387181 -3.068462118525839" fill="#ff4506" stroke="none" /><line stroke="#e1ed5e" stroke-width="0.3" x1="26.387840678322732" x2="22.057713659400548" y1="142.50000000000003" y2="145.00000000000006" /><path d="M 25.521815274538298 143.00000000000003 a86.0,86.0 0 0,1 -11.493303480769221,-40.785679425670985" fill="none" id="id33" stroke="none" /><text fill="#e1ed5e" style="font-size:6.75px; font-family:Arial;" text-anchor="middle"><textPath startOffset="21.40746469413373" xlink:href="#id33">September</textPath></text><path d="M 81.81346652052679 110.50000000000001 l -4.8760197679904165 2.815171325623207 a26.63034265124641,26.63034265124641 0 0,0 -0.22517430156711865,-0.3978614150842462 l 4.923627434578913 -2.731053140439839" fill="#ff3e05" stroke="none" /><path d="M 81.4637452351635 109.86951160357371 l -5.18169112568265 2.7589586645126674 a26.870415303406382,26.870415303406382 0 0,0 -0.21328959116047072,-0.4090109143369576 l 5.22828878581807 -2.669601507071207" fill="#ff4206" stroke="none" /><path d="M 81.29705330413844 109.54985784667822 l -2.9191814816625206 1.4905548645284417 a24.27770870076198,24.27770870076198 0 0,0 -0.18633729501947544,-0.37279941244437265 l 2.944338689893733 -1.4402235959203162" fill="#ff1d02" stroke="none" /><path d="M 81.1358732173502 109.22738970284198 l -5.087221378068177 2.4884148999273226 a26.663217289108214,26.663217289108214 0 0,0 -0.1975880790336726,-0.4128830912923592 l 5.129188715061762 -2.4007193065698584" fill="#ff3f05" stroke="none" /><path d="M 80.83023694016515 108.57439118712176 l -4.459746678529594 1.9947879636186372 a25.88554187951076,25.88554187951076 0 0,0 -0.1779521520491508,-0.40718934891467407 l 4.493332712595713 -1.9179365449281138" fill="#ff3404" stroke="none" /><path d="M 80.5471966667186 107.91128576633889 l -4.798041079379646 1.9513215369150843 a26.179657704891632,26.179657704891632 0 0,0 -0.16573135162960015,-0.41775126983839206 l 4.830831105975371 -1.868669249863127" fill="#ff3805" stroke="none" /><path d="M 80.41425534168474 107.57618678355246 l -4.733208231298618 1.8309066247599548 a26.074985638346465,26.074985638346465 0 0,0 -0.15790181396080585,-0.418853321395066 l 4.76394072907386 -1.749385023170744" fill="#ff3605" stroke="none" /><path d="M 80.16572619554312 106.89939002012753 l -6.118181084012136 2.1282209738821454 a27.477766921589243,27.477766921589243 0 0,0 -0.15114679343238724,-0.44683863775771415 l 6.15381329901689 -2.0228806616502695" fill="#ff4a06" stroke="none" /><path d="M 79.94057633289273 106.21446072829308 l -4.672498898434508 1.4475521026522755 a25.891590032470496,25.891590032470496 0 0,0 -0.1278843332916753,-0.4256853534027286 l 4.696659551729813 -1.3671291456588235" fill="#ff3404" stroke="none" /><path d="M 79.34024301695615 103.76489593502545 l -9.791085060895421 1.7842618562990766 a30.952333246105322,30.952333246105322 0 0,0 -0.09077167104774188,-0.5235468769704846 l 9.820271549435397 -1.6159219464079992" fill="#ff7a0b" stroke="none" /><path d="M 79.17382384314188 102.69636545807758 l -6.971135483476975 0.9025530553306329 a28.029319451175798,28.029319451175798 0 0,0 -0.057684224297205364,-0.47770812681475117 l 6.985601794033842 -0.7827512515924825" fill="#ff5207" stroke="none" /><path d="M 79.03789590574601 101.26102812881392 l -6.643494274389989 0.39965611829570175 a27.65550457792223,27.65550457792223 0 0,0 -0.02444010513060546,-0.4741315103071882 l 6.649375968977168 -0.2855528146117828" fill="#ff4d07" stroke="none" /><path d="M 79.01933749520258 100.90099992219065 l -28.4719717915323 1.2227089760830532 a49.498213890312584,49.498213890312584 0 0,0 -0.029169328094741792,-0.8492331609497566 l 28.488765806623892 -0.7337695505691766" fill="#9fff22" stroke="none" /><line stroke="#e1ed5e" stroke-width="0.3" x1="15.003131293944662" x2="10.003315487706104" y1="100.72959589197737" y2="100.7725132973878" /><path d="M 14.003168132696942 100.73817937305945 a86.0,86.0 0 0,1 10.791469493833604,-42.45332614584628" fill="none" id="id34" stroke="none" /><text fill="#e1ed5e" style="font-size:6.75px; font-family:Arial;" text-anchor="middle"><textPath startOffset="22.145653131862435" xlink:href="#id34">October</textPath></text><path d="M 79.00077361379809 99.81974689727619 l -17.05740661938486 -0.1464173208583588 a38.058035016111376,38.058035016111376 0 0,0 0.011215464424646127,-0.6532445758911972 l 17.05237972336155 0.43920881271860834" fill="#ffd714" stroke="none" /><path d="M 79.01933749520258 99.09900007780938 l -8.606295912709651 -0.36959137710393003 a29.61422817919008,29.61422817919008 0 0,0 0.02617109545124823,-0.5077122600898402 l 8.598683227801832 0.5172754305704822" fill="#ff6809" stroke="none" /><path d="M 79.03789590574601 98.7389718711861 l -21.665702064656045 -1.303354835525408 a42.704869955420804,42.704869955420804 0 0,0 0.05030234865039006,-0.7313851095286424 l 21.640135754840593 1.6750833692083753" fill="#eeff19" stroke="none" /><path d="M 79.0935383218832 98.0201363427161 l -7.25934949363776 -0.6874679445647045 a28.291828799799323,28.291828799799323 0 0,0 0.049938590758424946,-0.48311056495019455 l 7.246478510397671 0.8119830317978118" fill="#ff5507" stroke="none" /><path d="M 79.13060592940154 97.66154086499901 l -28.926778108115425 -3.2413058224995908 a50.10780917814179,50.10780917814179 0 0,0 0.10312166546561581,-0.8539953209700392 l 28.86687435639014 3.737394820393066" fill="#98ff23" stroke="none" /><path d="M 79.17382384314186 97.30363454192245 l -6.62063416708411 -0.8571736426427495 a27.6758927064478,27.6758927064478 0 0,0 0.06504557449013941,-0.47063737459395244 l 6.6049440760387625 0.970699325436769" fill="#ff4d07" stroke="none" /><path d="M 79.2786578344484 96.59031103205396 l -11.803538638931451 -1.9422677912629316 a32.962271045822575,32.962271045822575 0 0,0 0.09666607039178207,-0.5575442060112381 l 11.768457751047436 2.1446050301947626" fill="#ff950d" stroke="none" /><path d="M 79.48165901384962 95.52812308129327 l -25.495289743275773 -5.556579735937314 a47.09378043625362,47.09378043625362 0 0,0 0.17893200795244385,-0.7884074422096004 l 25.39614687376567 5.993421512085923" fill="#baff1f" stroke="none" /><path d="M 79.56144815229197 95.17655741523228 l -30.1191699602565 -7.108042100372641 a51.946545228756754,51.946545228756754 0 0,0 0.21226959690536215,-0.8661323925514359 l 29.99271283683484 7.624030317532195" fill="#84ff25" stroke="none" /><path d="M 79.73907114497095 94.47779374421319 l -5.933365691265832 -1.6171652036597628 a27.149800949804668,27.149800949804668 0 0,0 0.12641659413080214,-0.44860789510441273 l 5.904730605060449 1.7187810226671887" fill="#ff4506" stroke="none" /><path d="M 80.05021161711548 93.44210830539832 l -30.411721996545076 -9.996937073817818 a53.0126785141921,53.0126785141921 0 0,0 0.291606533804126,-0.8620829021064853 l 30.235630041168587 10.517521650398464" fill="#79ff26" stroke="none" /><path d="M 80.5471966667186 92.08871423366112 l -27.788914380361753 -11.301509557917317 a50.99913133286984,50.99913133286984 0 0,0 0.3367743555694733,-0.8081358549673576 l 27.5908141802558 11.776877922325939" fill="#8fff24" stroke="none" /><path d="M 80.83023694016515 91.42560881287825 l -1.6639676218003294 -0.7442715524175906 a22.822835261382096,22.822835261382096 0 0,0 0.16303713548863544,-0.35626556456097863 l 1.6509460214566472 0.7727260991932405" fill="#ff0701" stroke="none" /><path d="M 80.9802524753101 91.09779779509293 l -32.21650729807923 -15.078952122317494 a56.57074836989427,56.57074836989427 0 0,0 0.4192181828136401,-0.8760047675576887 l 31.952909857305688 15.62976939194027" fill="#54ff2b" stroke="none" /><path d="M 81.1358732173502 90.77261029715801 l -16.73760153164144 -8.187199641034535 a39.63270090443578,39.63270090443578 0 0,0 0.30419057959190243,-0.6085849283747556 l 16.594591038837795 8.473316425573062" fill="#ffeb16" stroke="none" /><path d="M 81.29705330413844 90.45014215332179 l -23.84267539268236 -12.174239941291798 a47.77097846603604,47.77097846603604 0 0,0 0.3791922213076243,-0.7271510827258616 l 23.630175102399793 12.581737267122147" fill="#b3ff20" stroke="none" /><path d="M 81.46374523516351 90.13048839642627 l -1.4879129025855997 -0.792229813599305 a22.685678760391877,22.685678760391877 0 0,0 0.18597357598732048,-0.3421704331762671 l 1.4740939769829287 0.8176550802501917" fill="#ff0500" stroke="none" /><path d="M 81.63589988554816 89.8137432299009 l -13.97582698744734 -7.7521556396104785 a36.981853992694525,36.981853992694525 0 0,0 0.31270206517875315,-0.55251458663768 l 13.840691557247219 7.990926996347264" fill="#ffc912" stroke="none" /><line stroke="#e1ed5e" stroke-width="0.3" x1="26.387840678322718" x2="22.05771365940052" y1="57.49999999999999" y2="54.99999999999999" /><path d="M 25.521815274538284 56.99999999999999 a86.0,86.0 0 0,1 29.574782752854787,-30.34633250058573" fill="none" id="id35" stroke="none" /><text fill="#e1ed5e" style="font-size:6.75px; font-family:Arial;" text-anchor="middle"><textPath startOffset="21.40746469413373" xlink:href="#id35">November</textPath></text><path d="M 81.81346652052679 89.5 l -2.1295256214240927 -1.2294821907754054 a23.45896438155081,23.45896438155081 0 0,0 0.2043457770721307,-0.3470238037224499 l 2.108106134222183 1.2658571627914281" fill="#ff1101" stroke="none" /><path d="M 81.99639281039701 89.18935116829357 l -17.786638489868118 -10.68036536153273 a41.74692056728145,41.74692056728145 0 0,0 0.3741956112427813,-0.611220409073142 l 17.600674914169943 10.984122886730413" fill="#f9ff18" stroke="none" /><path d="M 82.18462484594161 88.88188828441811 l -22.60153811447021 -14.105031385960917 a47.641723584235166,47.641723584235166 0 0,0 0.43894431685710006,-0.6900933728125213 l 22.35607610598722 14.49093843345211" fill="#b4ff20" stroke="none" /><path d="M 82.37810715431573 88.57770195909679 l -1.365647102869161 -0.8851959527995786 a22.62744090044084,22.62744090044084 0 0,0 0.21407235793729182,-0.3241328345022057 l 1.3502503060111402 0.9085086656408453" fill="#ff0500" stroke="none" /><path d="M 82.576782715395 88.27688183743585 l -52.269651853815006 -35.16935448769246 a84.0,84.0 0 0,0 0.8152410527387466,-1.1894610597198612 l 51.65822106426094 36.061450282482355" fill="#4dd2ff" stroke="none" /><path d="M 82.78059297857968 87.97951657250589 l -21.914331537126422 -15.297905365669907 a47.72571486969218,47.72571486969218 0 0,0 0.47472291657820415,-0.66775723334684 l 21.648493522018246 15.671839825726266" fill="#b3ff20" stroke="none" /><path d="M 82.98947788004972 87.6856937992154 l -22.844282257408658 -16.537498653551214 a49.201951946139545,49.201951946139545 0 0,0 0.501152293038726,-0.679909334591727 l 22.55702794478611 16.927214297411805" fill="#a2ff22" stroke="none" /><path d="M 83.2033758604659 87.39550010848427 l -25.524318753296022 -19.153924638921907 a52.91181093096032,52.91181093096032 0 0,0 0.5514116760401641,-0.721815584489167 l 25.191755099901552 19.589261136651956" fill="#7aff26" stroke="none" /><path d="M 83.42222388311158 87.10902102172516 l -4.535101181757414 -3.526522109248833 a26.7448673540647,26.7448673540647 0 0,0 0.28493926834013655,-0.36001145731625595 l 4.473895482775716 3.6038535104797718" fill="#ff4006" stroke="none" /><path d="M 83.64595745247003 86.82634096563983 l -31.551405104530865 -25.41557854543051 a61.51472321106444,61.51472321106444 0 0,0 0.6694945549306696,-0.8166744987235013 l 31.110463730361563 25.953455325852502" fill="#31ff3f" stroke="none" /><line stroke="#e1ed5e" stroke-width="0.3" x1="56.869717070023135" x2="54.33264160355391" y1="26.7553504044142" y2="22.446841604673864" /><path d="M 56.362301976729285 25.89364864446614 a86.0,86.0 0 0,1 42.16139366436587,-11.88097634709845" fill="none" id="id36" stroke="none" /><text fill="#e1ed5e" style="font-size:6.75px; font-family:Arial;" text-anchor="middle"><textPath startOffset="22.145653131862474" xlink:href="#id36">December</textPath></text></svg>