<?xml version="1.0" encoding="utf-8" ?>
<svg baseProfile="full" height="200mm" version="1.1" viewBox="0,0,200,200" width="200mm" xmlns="http://www.w3.org/2000/svg" xmlns:ev="http://www.w3.org/2001/xml-events" xmlns:xlink="http://www.w3.org/1999/xlink"><defs /><rect fill="#1a1a1a" height="200" width="200" x="0" y="0" /><text alignment-baseline="middle" fill="#e1ed5e" style="dominant-baseline: central; font-size:9.0px; font-family:Arial;" text-anchor="middle" x="100.0" y="100.0">2023</text><line stroke="#e1ed5e" stroke-width="0.3" x1="100.0" x2="100.0" y1="15.0" y2="10.0" /><path d="M 100.0 14.0 a86.0,86.0 0 0,1 42.46469731375804,11.215312516191453" fill="none" id="id13" stroke="none" /><text fill="#e1ed5e" style="font-size:6.75px; font-family:Arial;" text-anchor="middle"><textPath startOffset="22.20632615414155" xlink:href="#id13">January</textPath></text><path d="M 100.36148047927253 79.00311137660856 l 0.38843676406844313 -22.56266642334153 a43.56600982120373,43.56600982120373 0 0,0 0.7496950266772299,0.01936241072329979 l -0.7767584259405408 22.55263722047587" fill="red" stroke="none" /><path d="M 100.72285384407766 79.0124445844662 l 0.44246013949732826 -12.846520459075439 a33.854137811634345,33.854137811634345 0 0,0 0.5822253443917484,0.025071848073054088 l -0.6635263162784083 12.83700088447819" fill="red" stroke="none" /><path d="M 101.44485096284872 79.0497635885617 l 1.3640988574427142 -19.779336614519742 a40.82631893729539,40.82631893729539 0 0,0 0.7006764703439665,0.054385979432426866 l -1.704365517149022 19.75292537289885" fill="red" stroke="none" /><path d="M 102.16513564639614 79.11191278185805 l 2.744517984913303 -26.477662559410653 a47.619522790229155,47.619522790229155 0 0,0 0.8145961023441802,0.09152936350536163 l -3.1998807907672084 26.426497242434692" fill="red" stroke="none" /><path d="M 102.52436894288641 79.15227682838746 l 2.979193191716867 -24.603929275349554 a45.78364234449761,45.78364234449761 0 0,0 0.7815600693222332,0.10146892792220735 l -3.4022679895469463 24.549002024263206" fill="red" stroke="none" /><path d="M 110.36928655335952 81.73862282372117 l 9.82989955923252 -17.311461355836855 a40.90762717199698,40.90762717199698 0 0,0 0.609335211737656,0.352966284504938 l -10.126431503435503 17.139690913941866" fill="red" stroke="none" /><line stroke="#e1ed5e" stroke-width="0.3" x1="143.23703022742887" x2="145.7803849466894" y1="26.81831364943548" y2="22.513508569990506" /><path d="M 143.74570117128098 25.957352633546492 a86.0,86.0 0 0,1 28.547481713284135,27.462654790039103" fill="none" id="id14" stroke="none" /><text fill="#e1ed5e" style="font-size:6.75px; font-family:Arial;" text-anchor="middle"><textPath startOffset="19.985693538727396" xlink:href="#id14">February</textPath></text><path d="M 110.99172775467656 82.1063720568725 l 7.719346327712558 -12.566460363200708 a35.748024741878616,35.748024741878616 0 0,0 0.5215481010206703,0.326593373012229 l -7.9345135811054925 12.431722648865534" fill="red" stroke="none" /><path d="M 113.6212207817346 84.01681056812373 l 9.158242885364674 -10.746315124427198 a35.11937326869806,35.11937326869806 0 0,0 0.4567294584438334,0.39607128567567274 l -9.341866142455272 10.587078845331854" fill="red" stroke="none" /><path d="M 115.4437574822437 85.77008943001954 l 18.810776631136285 -17.332289083191394 a46.578380760513724,46.578380760513724 0 0,0 0.5382162048260166,0.5943117761084435 l -19.10633647657834 17.0059245198134" fill="red" stroke="none" /><path d="M 115.9244219780498 86.31012108654704 l 12.433184947968519 -10.688538439942779 a37.39600384034248,37.39600384034248 0 0,0 0.41543289494985264,0.49174151334029226 l -12.61532845640549 10.47293797697338" fill="red" stroke="none" /><path d="M 116.15771136456269 86.58626213691792 l 13.436997516763427 -11.155067589092777 a38.46391809367917,38.46391809367917 0 0,0 0.41852682309786626,0.5130643979493779 l -13.627022831937703 10.922119021535298" fill="red" stroke="none" /><path d="M 117.04232023915458 87.72973835380427 l 24.512149236574885 -17.648446949867388 a51.20452184588265,51.20452184588265 0 0,0 0.5088446437243855,0.7197246624803015 l -24.812306500103155 17.223895787055294" fill="red" stroke="none" /><path d="M 117.2510076193507 88.02491185347247 l 18.51219702995073 -12.85056479662543 a43.53527134223117,43.53527134223117 0 0,0 0.4220341012262567,0.6192829672766914 l -18.730655596845722 12.530003806078332" fill="red" stroke="none" /><path d="M 117.45458315368197 88.32363383020206 l 16.135379736658848 -10.793875765186856 a40.41283681692269,40.41283681692269 0 0,0 0.3818115618670757,0.5815252033091445 l -16.31878793388385 10.514532497900039" fill="red" stroke="none" /><line stroke="#e1ed5e" stroke-width="0.3" x1="172.23445277983987" x2="176.4835382374775" y1="55.19839476539836" y2="52.563006222186495" /><path d="M 173.08426987136738 54.67131705675599 a86.0,86.0 0 0,1 12.851231095245387,41.99856678651699" fill="none" id="id15" stroke="none" /><text fill="#e1ed5e" style="font-size:6.75px; font-family:Arial;" text-anchor="middle"><textPath startOffset="22.20632615414155" xlink:href="#id15">March</textPath></text><path d="M 117.84615892207809 88.93136811851018 l 7.527794985380789 -4.668925786009001 a29.85813554520272,29.85813554520272 0 0,0 0.2671367600748636,0.43910259468141666 l -7.607047543741876 4.538655418120503" fill="red" stroke="none" /><path d="M 118.03404312379186 89.2402003453031 l 6.704862859956737 -4.000377540972836 a28.807573659027952,28.807573659027952 0 0,0 0.25040685111614225,0.4280264791308737 l -6.772729385543207 3.884371649488067" fill="red" stroke="none" /><path d="M 118.21658344932153 89.55222093294921 l 22.14297167090825 -12.699685237312174 a46.52632365902795,46.52632365902795 0 0,0 0.39246584356913766,0.6981529431938402 l -22.35829515576982 12.31664878418354" fill="red" stroke="none" /><path d="M 119.04729006885535 91.15688171328212 l 22.728678919987686 -10.552283052534042 a46.05880130949383,46.05880130949383 0 0,0 0.32767039043256846,0.721978270961988 l -22.906951627383602 10.15948277272999" fill="red" stroke="none" /><path d="M 119.196687751892 91.48605970444005 l 39.582291493202526 -17.555177793698395 a64.3006012339461,64.3006012339461 0 0,0 0.4400282742866305,1.015645925375984 l -39.87861047733183 16.871232723735808" fill="red" stroke="none" /><path d="M 119.34039704204932 91.81776055985345 l 28.124789793236996 -11.898606000265994 a51.53818307731051,51.53818307731051 0 0,0 0.3386262648551253,0.8200103599410798 l -28.32543774497832 11.412721069871612" fill="red" stroke="none" /><path d="M 119.47837535516314 92.15188598940014 l 34.911529688993824 -14.06635103225068 a58.63877171996978,58.63877171996978 0 0,0 0.36916304039974,0.9394796712796557 l -35.14848627927527 13.46332235607524" fill="red" stroke="none" /><path d="M 119.61058180528143 92.48833698450437 l 26.213905702633966 -10.041008875378434 a49.071172248803826,49.071172248803826 0 0,0 0.29535100043310414,0.7913938418818152 l -26.382861291568695 9.588291896467286" fill="red" stroke="none" /><path d="M 119.7369772167798 92.82701384747503 l 28.228543269242724 -10.259065902152678 a51.0349644296147,51.0349644296147 0 0,0 0.2929575110938575,0.8282303339450471 l -28.40095386114639 9.771637941781016" fill="red" stroke="none" /><path d="M 119.85752413597 93.16781622104841 l 53.98576850630251 -18.574354454132365 a78.09176687232434,78.09176687232434 0 0,0 0.4263911106535593,1.2748551487691897 l -54.297496910727844 17.642326202440863" fill="red" stroke="none" /><path d="M 120.08093135843002 93.85539295169968 l 52.821958205385464 -16.163103737595367 a76.23952562326869,76.23952562326869 0 0,0 0.37318922100349006,1.2582085309242799 l -53.09235332350065 15.251465819924556" fill="red" stroke="none" /><path d="M 120.18372546131832 94.20196356495316 l 30.01779586618013 -8.623000469633972 a52.231781981868544,52.231781981868544 0 0,0 0.24079654727325436,0.8662732984081175 l -30.161779184019746 8.105015867806902" fill="red" stroke="none" /><path d="M 120.45610955862082 95.25157060432595 l 10.047112737445252 -2.3322130401883108 a31.314247041047594,31.314247041047594 0 0,0 0.11736223852072769,0.5261119028660495 l -10.085769362968017 2.1589229677722974" fill="red" stroke="none" /><path d="M 120.98425023603335 99.18683210126433 l 26.50691676086702 -1.0271786488412538 a47.5268115713926,47.5268115713926 0 0,0 0.024642211711347926,0.8177550389738636 l -26.520670667034015 0.5707534624423911" fill="red" stroke="none" /><line stroke="#e1ed5e" stroke-width="0.3" x1="184.98032266829074" x2="189.97916517819016" y1="98.17113171792111" y2="98.06355123074" /><path d="M 185.9800911702706 98.14961562048488 a86.0,86.0 0 0,1 -9.607161424134198,41.387399972396054" fill="none" id="id16" stroke="none" /><text fill="#e1ed5e" style="font-size:6.75px; font-family:Arial;" text-anchor="middle"><textPath startOffset="21.466115282336823" xlink:href="#id16">April</textPath></text><path d="M 120.92983693683757 101.71520430193887 l 33.11875914500924 2.7140889024518255 a54.22978311508436,54.22978311508436 0 0,0 -0.08425088418744144,0.9297014864954688 l -33.06713366454473 -3.283771777495865" fill="red" stroke="none" /><path d="M 120.89721153311464 102.0752229133903 l 26.28004589396447 2.609771802217825 a47.40931125661042,47.40931125661042 0 0,0 -0.08763430240009003,0.8113848020254546 l -26.231229290063325 -3.0617529261280714" fill="red" stroke="none" /><path d="M 120.81339534386255 102.79330883721812 l 32.06476910327414 4.303324922233096 a53.35224911860992,53.35224911860992 0 0,0 -0.12999135507392243,0.9091592346249416 l -31.985943697183615 -4.854629628838447" fill="red" stroke="none" /><path d="M 120.76222939487914 103.15116336523771 l 26.213229592184284 3.9784826188188256 a47.51342545958197,47.51342545958197 0 0,0 -0.12968505674423483,0.807548972140404 l -26.14086278107876 -4.4291108206524346" fill="red" stroke="none" /><path d="M 120.64145759157962 103.86396538481128 l 27.74199424987673 5.193146124084063 a49.22387307982876,49.22387307982876 0 0,0 -0.16307181663624237,0.8314996797913797 l -27.648492500264823 -5.669909530943387" fill="red" stroke="none" /><path d="M 120.5718875245553 104.21870165774334 l 29.27453158280569 6.0033633165954114 a50.88375094434652,50.88375094434652 0 0,0 -0.18334132992904792,0.8565096559569501 l -29.1668562141522 -6.506386791968531" fill="red" stroke="none" /><path d="M 120.41448212921028 104.9243191809786 l 20.963754308760223 5.056812942623699 a42.565026126920166,42.565026126920166 0 0,0 -0.17793941431803417,0.7107795084777803 l -20.873603580147126 -5.416920290498875" fill="red" stroke="none" /><path d="M 120.32669344350535 105.2749913415812 l 32.475808646179665 8.427814877789753 a54.55154558045832,54.55154558045832 0 0,0 -0.2436945442586674,0.9068780557821594 l -32.325926025579214 -8.98558386674746" fill="red" stroke="none" /><path d="M 120.13307415673323 105.97154293290107 l 52.58932237885105 15.598184060354157 a75.85380729035506,75.85380729035506 0 0,0 -0.3820620007046998,1.2486007242623751 l -52.31303360564022 -16.50111175716859" fill="red" stroke="none" /><path d="M 120.02730092923936 106.31721596034902 l 53.10642186487743 16.751370391205963 a76.68572935028959,76.68572935028959 0 0,0 -0.4079233430903891,1.2554589574587922 l -52.8102062707708 -17.66302824864255" fill="red" stroke="none" /><path d="M 119.67450827220406 107.3425965602758 l 53.69072854033162 20.037571117134515 a78.30792778897003,78.30792778897003 0 0,0 -0.4821744293472582,1.2588052834137258 l -53.33785983139085 -20.958799967381385" fill="red" stroke="none" /><path d="M 119.54520255179757 107.68017299344265 l 53.80621746934588 21.14283836108757 a78.81114643666581,78.81114643666581 0 0,0 -0.5070085643319701,1.258353677202221 l -53.43430629075652 -22.065891406132604" fill="red" stroke="none" /><path d="M 119.41010516605496 108.01547362559984 l 25.637065843461446 10.586919717746042 a48.737015235457065,48.737015235457065 0 0,0 -0.32688384645379137,0.7726568530895219 l -25.451031015815346 -11.026651096501729" fill="red" stroke="none" /><path d="M 119.26925614724726 108.34839909993367 l 50.70508107803529 21.96796025748018 a76.25935690002518,76.25935690002518 0 0,0 -0.5322137441123053,1.2000014926481504 l -50.319426249191714 -22.837510086621016" fill="red" stroke="none" /><path d="M 119.12269723197855 108.67885076344098 l 43.14299725146922 19.580482297596106 a68.37840751699824,68.37840751699824 0 0,0 -0.49566329924558156,1.0676146502978137 l -42.799559335383805 -20.320217015172748" fill="red" stroke="none" /><path d="M 118.97047184881838 109.00673069616215 l 15.116422953317434 7.176919568202238 a37.73363132712163,37.73363132712163 0 0,0 -0.283625277194626,0.5843520780530769 l -14.990644419508094 -7.43606060222059" fill="red" stroke="none" /><line stroke="#e1ed5e" stroke-width="0.3" x1="174.80103733775053" x2="179.2010983576182" y1="140.37084112569926" y2="142.7455964860345" /><path d="M 175.68104954172406 140.8457921977663 a86.0,86.0 0 0,1 -30.038265399797805,32.042727171017184" fill="none" id="id17" stroke="none" /><text fill="#e1ed5e" style="font-size:6.75px; font-family:Arial;" text-anchor="middle"><textPath startOffset="22.206326154141568" xlink:href="#id17">May</textPath></text><path d="M 118.12598468904814 110.60418214915192 l 23.708192294352294 13.869921763110247 a48.46730987156887,48.46730987156887 0 0,0 -0.4274796519845073,0.716480485309676 l -23.46593176666956 -14.275964342306027" fill="red" stroke="none" /><path d="M 117.55443506779139 111.5257021239791 l 51.64296195379353 33.90718037810931 a82.77938491563837,82.77938491563837 0 0,0 -0.7923047287644721,1.1843880681856185 l -51.051654119618334 -34.79110536050074" fill="red" stroke="none" /><path d="M 117.35343817320211 111.8261652097733 l 15.350320010864783 10.461063603621234 a39.57595693779905,39.57595693779905 0 0,0 -0.3884834219689647,0.559639343809032 l -15.167975681733681 -10.723744209617285" fill="red" stroke="none" /><path d="M 117.14729908036423 112.12312394758627 l 28.951045715789043 20.46836145913259 a56.45584393099975,56.45584393099975 0 0,0 -0.5678388131769682,0.7886784469167158 l -28.594427110236474 -20.96367351150044" fill="red" stroke="none" /><path d="M 116.93607887273984 112.41649034213515 l 7.82283390074497 5.735220195099015 a30.699973243515487,30.699973243515487 0 0,0 -0.3161201584129693,0.42349461181214654 l -7.722952475636909 -5.869027686420477" fill="red" stroke="none" /><path d="M 116.71984013943494 112.70617746262583 l 31.5920663651993 24.008267920009015 a60.67941009821203,60.67941009821203 0 0,0 -0.6391367547120761,0.8261704119669208 l -31.174122793269156 -24.54851632608919" fill="red" stroke="none" /><path d="M 116.498646956653 112.99209946851258 l 32.01507702660335 25.210737966242462 a61.74980326114329,61.74980326114329 0 0,0 -0.664786878641965,0.8294238467613102 l -31.57637223590653 -25.75808964658202" fill="red" stroke="none" /><path d="M 116.0416608686014 113.55231037782055 l 25.83831952185368 21.828720147478762 a54.824721417778896,54.824721417778896 0 0,0 -0.6152312506092834,0.7156529367953647 l -25.45874576167362 -22.270250183435657" fill="red" stroke="none" /><path d="M 115.80600337817218 113.82643327865902 l 16.583541522822095 14.506591255435167 a43.03304425837321,43.03304425837321 0 0,0 -0.49250530286625654,0.5533349287831079 l -16.331377370307504 -14.78990035395914" fill="red" stroke="none" /><path d="M 115.56566222782051 114.09645910891815 l 22.24310005332851 20.14363062542334 a51.00868798791237,51.00868798791237 0 0,0 -0.5949886355268859,0.645742652181749 l -21.893065009805905 -20.523524532406427" fill="red" stroke="none" /><path d="M 115.32070863581623 114.36230785411682 l 17.76351962226701 16.652306590520286 a45.348345819692774,45.348345819692774 0 0,0 -0.5387673898959271,0.5648954543422401 l -17.47424568099212 -16.955609161445036" fill="red" stroke="none" /><path d="M 114.55890576462653 115.13401014063108 l 20.832988478180372 21.65593101471112 a51.04983788718207,51.04983788718207 0 0,0 -0.6385220511010102,0.6037624538529427 l -20.457130592688554 -22.011328105309982" fill="red" stroke="none" /><path d="M 114.29624159901734 115.38237550388516 l 34.27095054117243 36.874630751597394 a71.34120026441701,71.34120026441701 0 0,0 -0.9067142139117897,0.828261936421907 l -33.631136777793785 -37.459085454605884" fill="red" stroke="none" /><path d="M 114.0293411484842 115.62618273729858 l 11.125808955208056 12.392165960918131 a37.65381043817678,37.65381043817678 0 0,0 -0.4860168219749317,0.4288533371859485 l -10.910849780326537 -12.581842439876368" fill="red" stroke="none" /><path d="M 113.48314897796784 116.09983520530334 l 20.284885780211226 24.22159087268529 a52.593702782674384,52.593702782674384 0 0,0 -0.6990701665279344,0.5752871545978622 l -19.864945485138602 -24.56717314614033" fill="red" stroke="none" /><path d="M 113.20401910651253 116.32954008644616 l 31.09031522887875 38.44969813621508 a70.44680968269957,70.44680968269957 0 0,0 -0.9494972210788035,0.7543380173416402 l -30.4238605150826 -38.979170067561846" fill="red" stroke="none" /><path d="M 112.92097659922987 116.55440617244103 l 5.0314448822958076 6.446307024558732 a29.177426970536388,29.177426970536388 0 0,0 -0.398579313063143,0.3056136209629994 l -4.919736840739171 -6.5319599873491025" fill="red" stroke="none" /><path d="M 112.63410532772338 116.77436683061366 l 14.62588189557689 19.418858856533483 a45.31066639385545,45.31066639385545 0 0,0 -0.6270457454478507,0.46387345193572416 l -14.289451179710476 -19.667742257208975" fill="red" stroke="none" /><path d="M 112.34349029814194 116.9893568818739 l 9.75593446710202 13.427891817820788 a37.59778708133972,37.59778708133972 0 0,0 -0.5268572033997393,0.37589862569935983 l -9.523349935853394 -13.593834705364367" fill="red" stroke="none" /><path d="M 112.04921762599082 117.19931262002967 l 19.00915037079476 27.134070444807577 a54.13013094938302,54.13013094938302 0 0,0 -0.7677279446540726,0.5280502808502235 l -18.539265541517807 -27.457261515022896" fill="red" stroke="none" /><path d="M 111.7513745106137 117.40417183066458 l 11.712163804931103 17.346099486983825 a41.92992948879376,41.92992948879376 0 0,0 -0.6016451730963258,0.3987376140196951 l -11.411843933094813 -17.545135122094837" fill="red" stroke="none" /><path d="M 111.45004920935366 117.60387380957326 l 18.591552452684496 28.58357525955075 a55.097897255099475,55.097897255099475 0 0,0 -0.7994919982179661,0.5102736199173864 l -18.0967786524196 -28.899363308291942" fill="red" stroke="none" /><path d="M 111.1453310114006 117.79835938074945 l 4.451308660913434 7.108446683237972 a29.387142722236213,29.387142722236213 0 0,0 -0.43104053395269665,0.26478030142893255 l -4.328288927028429 -7.1840154514952825" fill="red" stroke="none" /><line stroke="#e1ed5e" stroke-width="0.3" x1="143.8653032363475" x2="146.44561519142675" y1="172.8068346515853" y2="177.08958963109032" /><path d="M 144.38136562736335 173.6633856474863 a86.0,86.0 0 0,1 -40.68145358897372,12.25698825130547" fill="none" id="id18" stroke="none" /><text fill="#e1ed5e" style="font-size:6.75px; font-family:Arial;" text-anchor="middle"><textPath startOffset="21.466115282336833" xlink:href="#id18">June</textPath></text><path d="M 110.8373102113329 117.98757091392108 l 5.2928600244391495 8.784993062900211 a31.256240556534877,31.256240556534877 0 0,0 -0.4632355377171132,0.2736877208697925 l -5.140856615693655 -8.874799356063754" fill="red" stroke="none" /><path d="M 110.5260780823613 118.17145234162733 l 4.24101411531048 7.321376990892059 a29.461014228154117,29.461014228154117 0 0,0 -0.4410050547796355,0.2504141796288056 l -4.1143602936096455 -7.393294336315493" fill="red" stroke="none" /><path d="M 110.21172684928248 118.3499491758327 l 8.671111958294746 15.58154326697875 a38.83178827751196,38.83178827751196 0 0,0 -0.5868725606489864,0.3200097128718478 l -8.401616585777111 -15.72849363161037" fill="red" stroke="none" /><path d="M 109.89434966115114 118.52300852407294 l 16.829161924050155 31.505527947545502 a56.71860834802317,56.71860834802317 0 0,0 -0.8651183928527844,0.4525890551202514 l -16.284352628670877 -31.79054642161047" fill="red" stroke="none" /><path d="M 109.57404056367764 118.69057910512821 l 21.675627233418712 42.315469917318055 a68.54399867791489,68.54399867791489 0 0,0 -1.0547488249793442,0.5288729570710711 l -20.94402450075661 -42.68231071529843" fill="red" stroke="none" /><path d="M 109.2508944713604 118.85261126421891 l 8.816639989478746 17.967634037205357 a41.01422028456308,41.01422028456308 0 0,0 -0.6364768963136666,0.30554758886785194 l -8.506050425164847 -18.116735902572767" fill="red" stroke="none" /><path d="M 108.92500713936063 119.00905698771935 l 12.6068394804934 26.850861447814697 a50.663127990430624,50.663127990430624 0 0,0 -0.7925932847327583,0.3638407027750763 l -12.142778199993222 -27.063889220923848" fill="red" stroke="none" /><path d="M 107.59598834532513 119.57807347666477 l 17.57050521196484 45.28662057172299 a69.57572085117098,69.57572085117098 0 0,0 -1.1202677681833901,0.4235894124245133 l -16.788367223021176 -45.58235823425414" fill="red" stroke="none" /><path d="M 107.2578585660854 119.70592522655815 l 10.323394521755699 28.029209811359113 a50.86986905061697,50.86986905061697 0 0,0 -0.8242867329167523,0.29555989570671454 l -9.839388228209211 -28.202757248105787" fill="red" stroke="none" /><path d="M 106.91757812671514 119.82793768551818 l 6.462202111306771 18.522687915786385 a40.617594749433394,40.617594749433394 0 0,0 -0.6621253360962391,0.22462886350388928 l -6.142407042273305 -18.631179766188396" fill="red" stroke="none" /><path d="M 106.57524785965236 119.94407469862006 l 3.139894039375827 9.523942306621157 a31.028180873835304,31.028180873835304 0 0,0 -0.5086828750247157,0.1628641929071716 l -2.975489819260171 -9.576579346188035" fill="red" stroke="none" /><path d="M 105.88484417918355 120.15858648285463 l 6.565571047335615 22.490422471203598 a44.429166142029715,44.429166142029715 0 0,0 -0.7359772441863941,0.20799452068506458 l -6.177462635044615 -22.600105785227182" fill="red" stroke="none" /><path d="M 105.53697534728816 120.25689768951611 l 6.9573416388044 25.45327528635221 a47.38700107025938,47.38700107025938 0 0,0 -0.7886766552646406,0.20829667282596503 l -6.518174540728262 -25.56926330848176" fill="red" stroke="none" /><path d="M 105.18746579009965 120.34920634021253 l 3.903458601293274 15.312348597997842 a36.80205710148577,36.80205710148577 0 0,0 -0.6152019647699696,0.15120167515101957 l -3.639303351780093 -15.377271531462892" fill="red" stroke="none" /><path d="M 104.48393922423573 120.51570834832081 l 8.809865039961892 40.30844592429383 a62.25996285570386,62.25996285570386 0 0,0 -1.048957450925609,0.2198192326637208 l -8.114716127606904 -40.45412113768409" fill="red" stroke="none" /><path d="M 104.13013068566511 120.58985236759428 l 3.794382055101956 18.91605188474007 a40.29285759254596,40.29285759254596 0 0,0 -0.6812033022287716,0.13055423414966782 l -3.46821113830148 -18.97856331723821" fill="red" stroke="none" /><path d="M 103.7750983002368 120.6578951692458 l 7.582935192192182 41.4949407451627 a63.182117224880386,63.182117224880386 0 0,0 -1.0715417159149838,0.18630126241033398 l -6.867544504805148 -41.61932058609404" fill="red" stroke="none" /><path d="M 103.41894727170886 120.7198165907248 l 7.449754590524331 45.147683334824634 a66.75819220599345,66.75819220599345 0 0,0 -1.1354110507766797,0.17732785522369363 l -6.671507676139134 -45.26922949739543" fill="red" stroke="none" /><path d="M 103.06178313531738 120.77559828337769 l 7.668167818493608 52.03202419169184 a73.59403330395365,73.59403330395365 0 0,0 -1.2548532945423811,0.1739112323743132 l -6.771385932764397 -52.15630998955876" fill="red" stroke="none" /><path d="M 102.70371172650421 120.8252237178851 l 5.222462438477275 40.225793147023836 a61.56338925963233,61.56338925963233 0 0,0 -1.0520672452045348,0.1273906919120349 l -4.5292677702213595 -40.30972936766122" fill="red" stroke="none" /><path d="M 102.34483914955558 120.86867818915974 l 3.434331666145089 30.56498026707123 a51.757318685469656,51.757318685469656 0 0,0 -0.8862021279233642,0.0918584740211443 l -2.907696941616122 -30.619568109548137" fill="red" stroke="none" /><path d="M 101.62511606390274 120.93702456842531 l 2.906516601698614 37.445823624534796 a58.55845504910602,58.55845504910602 0 0,0 -1.0056361696171763,0.06935455807809365 l -2.261517671302507 -37.49030652712917" fill="red" stroke="none" /><line stroke="#e1ed5e" stroke-width="0.3" x1="102.19456741930631" x2="102.32365962044197" y1="184.97166512339345" y2="189.96999836594603" /><path d="M 102.22038585953345 185.97133177190398 a86.0,86.0 0 0,1 -42.740103519485714,-10.115201625700543" fill="none" id="id19" stroke="none" /><text fill="#e1ed5e" style="font-size:6.75px; font-family:Arial;" text-anchor="middle"><textPath startOffset="22.20632615414155" xlink:href="#id19">July</textPath></text><path d="M 100.54218724476979 120.99299961872073 l 0.3280080933775966 12.700176637568907 a33.70441167212289,33.70441167212289 0 0,0 -0.5801015717503466,0.009986974639159096 l -0.10934683173458207 -12.703941089487225" fill="red" stroke="none" /><path d="M 100.18074693466247 120.99922214144158 l 0.3801343926404595 44.164104744382065 a65.16574068244773,65.16574068244773 0 0,0 -1.1217626546057995,0.0 l 0.3801343926404291 -44.164104744382065" fill="red" stroke="none" /><path d="M 99.81925306533755 120.99922214144158 l -0.11299954931368723 13.128314692320435 a34.12880099471165,34.12880099471165 0 0,0 -0.5874059245295239,-0.01011272569641103 l 0.3389651637358791 -13.124424489344864" fill="red" stroke="none" /><path d="M 98.73552117531835 120.96189622390904 l -0.7546750980849927 12.510625547888289 a33.53336691009821,33.53336691009821 0 0,0 -0.5758752792497619,-0.03971573090461742 l 0.9699131381136845 -12.495781472467385" fill="red" stroke="none" /><path d="M 98.01472825383883 120.90594882070398 l -5.384943373676733 56.70626743676787 a77.96137622765048,77.96137622765048 0 0,0 -1.3348747435824144,-0.1383652251458369 l 6.36025071386474 -56.60517284316627" fill="red" stroke="none" /><path d="M 97.65516085044442 120.86867818915974 l -3.3459241147921417 29.778167773333323 a50.96555496096701,50.96555496096701 0 0,0 -0.8709590497361086,-0.10546101162133374 l 3.8580105875796393 -29.71616123298664" fill="red" stroke="none" /><path d="M 97.2962882734958 120.8252237178851 l -1.6553936331015429 12.750598524449883 a33.85760828506673,33.85760828506673 0 0,0 -0.5773067379846794,-0.08000945345369603 l 1.8746289622730532 -12.720214505503582" fill="red" stroke="none" /><path d="M 96.93821686468263 120.77559828337769 l -2.7942337150315093 18.960153155114774 a40.164945857466634,40.164945857466634 0 0,0 -0.6831180095425113,-0.10668898405911148 l 3.120187588182538 -18.909245863708556" fill="red" stroke="none" /><path d="M 96.58105272829116 120.7198165907248 l -1.2095408477057978 7.330169941734082 a28.42929205489801,28.42929205489801 0 0,0 -0.48214864788920975,-0.08382772265146429 l 1.3355384670670576 -7.308263640561612" fill="red" stroke="none" /><path d="M 95.86986931433489 120.58985236759428 l -2.533228292942095 12.628848948079021 a33.88041425333669,33.88041425333669 0 0,0 -0.5708180882447632,-0.11962048035200783 l 2.750237842616245 -12.583372487000473" fill="red" stroke="none" /><path d="M 95.16358092515715 120.4354850818985 l -9.223458270430871 38.97219016220754 a61.04876762780155,61.04876762780155 0 0,0 -1.0205223498197504,-0.25081956440028097 l 9.892933904993834 -38.807649339493224" fill="red" stroke="none" /><path d="M 94.46302465271185 120.25689768951611 l -7.2786528341180965 26.62878494672186 a48.605633026945355,48.605633026945355 0 0,0 -0.8051611802199657,-0.2275465920678103 l 7.735945182442676 -26.49954956131553" fill="red" stroke="none" /><path d="M 93.08242187328487 119.8279376855182 l -17.05708446286769 48.89092708909695 a72.78095095693779,72.78095095693779 0 0,0 -1.1793301890196717,-0.42286584722410553 l 17.896134212517087 -48.59007370083289" fill="red" stroke="none" /><path d="M 92.7421414339146 119.70592522655815 l -9.570147238565577 25.984056340194353 a48.69041173507932,48.69041173507932 0 0,0 -0.7839846748130143,-0.2964359211123054 l 10.016002134138875 -25.815472168975415" fill="red" stroke="none" /><path d="M 92.40401165467489 119.57807347666478 l -5.413827408642814 13.95372214619349 a35.96716035003777,35.96716035003777 0 0,0 -0.575267196009554,-0.2289106894540739 l 5.653215680694227 -13.85846461233335" fill="red" stroke="none" /><path d="M 91.7346041902142 119.30500536409082 l -7.302339822946141 17.055651380359325 a39.553150969529085,39.553150969529085 0 0,0 -0.6235824065786721,-0.2733602016464083 l 7.594842904182557 -16.927426625418462" fill="red" stroke="none" /><path d="M 91.40352486487194 119.15986991738527 l -5.382673921883644 11.996932525235113 a34.14912805338705,34.14912805338705 0 0,0 -0.5342419753416329,-0.24524428796514997 l 5.588383892992696 -11.902501166935888" fill="red" stroke="none" /><path d="M 91.07499286063937 119.00905698771935 l -13.69935778549179 29.177777538251412 a53.23375723998993,53.23375723998993 0 0,0 -0.8261051009172912,-0.39658065076461346 l 14.199575554409323 -28.937642610987236" fill="red" stroke="none" /><path d="M 90.10565033884886 118.52300852407294 l -5.773001704364986 10.807517769389127 a33.252754343993956,33.252754343993956 0 0,0 -0.5025555081580786,-0.27403333304591476 l 5.958180024391704 -10.706543784583447" fill="red" stroke="none" /><line stroke="#e1ed5e" stroke-width="0.3" x1="58.666819895761336" x2="56.23545636021788" y1="174.27360380694188" y2="178.64263932499728" /><path d="M 58.180547188652646 175.14741091055294 a86.0,86.0 0 0,1 -31.652253787137756,-30.449443065178592" fill="none" id="id20" stroke="none" /><text fill="#e1ed5e" style="font-size:6.75px; font-family:Arial;" text-anchor="middle"><textPath startOffset="22.20632615414155" xlink:href="#id20">August</textPath></text><path d="M 89.7882731507175 118.34994917583269 l -13.756804586543637 24.720271968758624 a49.29030785696298,49.29030785696298 0 0,0 -0.7378318596985534,-0.41896018616551495 l 14.180285213163398 -24.479808616798476" fill="red" stroke="none" /><path d="M 89.4739219176387 118.17145234162733 l -6.948245321931383 11.994943200828665 a34.86206245278267,34.86206245278267 0 0,0 -0.5166759008343359,-0.305261229362007 l 7.1536890937941005 -11.873563399172909" fill="red" stroke="none" /><path d="M 89.1626897886671 117.98757091392108 l -6.65937838817142 11.053115456139933 a33.904211785444474,33.904211785444474 0 0,0 -0.4972953542770026,-0.3054794234713962 l 6.848652942380731 -10.936847565840159" fill="red" stroke="none" /><path d="M 88.8546689885994 117.79835938074946 l -12.109075165527939 19.337395304286307 a43.81588390833543,43.81588390833543 0 0,0 -0.6357855802985322,-0.40578843850011914 l 12.440142547873393 -19.126092436962384" fill="red" stroke="none" /><path d="M 88.54995079064634 117.60387380957326 l -25.489587166648718 39.18895611149351 a67.74926026189877,67.74926026189877 0 0,0 -0.9721222027886373,-0.644269587804785 l 26.160384068177315 -38.7443885025974" fill="red" stroke="none" /><path d="M 88.24862548938628 117.40417183066458 l -19.22258607050079 28.469281674119944 a55.351241815663556,55.351241815663556 0 0,0 -0.7850469667794753,-0.5399624621913449 l 19.709789921903155 -28.134178422563497" fill="red" stroke="none" /><path d="M 87.95078237400918 117.19931262002967 l -12.596719692319127 17.980828855455663 a42.95421493326617,42.95421493326617 0 0,0 -0.601916743265023,-0.42945161443885516 l 12.904363763433036 -17.76133297917259" fill="red" stroke="none" /><path d="M 87.36589467227662 116.77436683061367 l -22.07975746548545 29.31540790975612 a57.70025654746915,57.70025654746915 0 0,0 -0.7882164743821187,-0.6043707812814811 l 22.58110266836106 -28.930997786647275" fill="red" stroke="none" /><path d="M 87.07902340077011 116.55440617244103 l -22.954785218428494 29.409761343400298 a58.307589398136486,58.307589398136486 0 0,0 -0.7858822046121591,-0.6243523529407091 l 23.45762491575801 -29.01027507645446" fill="red" stroke="none" /><path d="M 86.51685102203217 116.09983520530335 l -26.423351647384127 31.551354048658045 a62.15436130697557,62.15436130697557 0 0,0 -0.814324313183436,-0.6939848460836231 l 26.96254143714462 -31.09184481235147" fill="red" stroke="none" /><path d="M 86.24171649860922 115.8653595955263 l -33.017086997124565 38.0736418139083 a71.39573627549734,71.39573627549734 0 0,0 -0.9215409660637187,-0.8131527568203659 l 33.667570316094874 -37.499665915315646" fill="red" stroke="none" /><path d="M 85.97065885151581 115.62618273729859 l -27.555678659089903 30.692109174616586 a62.247072525812136,62.247072525812136 0 0,0 -0.7911319857861254,-0.7226803114572864 l 28.079910194342883 -30.213236096572725" fill="red" stroke="none" /><path d="M 85.70375840098266 115.38237550388516 l -34.05662842264021 36.64402585567304 a71.02637874590783,71.02637874590783 0 0,0 -0.8883849766445568,-0.8400234456118334 l 34.68234923367558 -36.052367773315275" fill="red" stroke="none" /><path d="M 85.44109423537348 115.13401014063109 l -41.036976132829174 42.658014481008266 a80.19239486275498,80.19239486275498 0 0,0 -0.9865575729472316,-0.9655542279733452 l 41.7651836581522 -41.94531015011235" fill="red" stroke="none" /><path d="M 85.18274418774928 114.88116024355367 l -15.861688577221214 15.930097478361565 a43.48023954923193,43.48023954923193 0 0,0 -0.5258197361123155,-0.5326526165732274 l 16.133548938389062 -15.654704367807675" fill="red" stroke="none" /><path d="M 84.9287848128048 114.62390073753433 l -45.21364556158558 43.871702212602976 a84.0,84.0 0 0,0 -0.99797379448417,-1.0463715336699995 l 45.9621259074487 -43.08692356235048" fill="red" stroke="none" /><path d="M 84.67929136418377 114.36230785411682 l -28.74441376436153 26.94628097063076 a60.3997890959456,60.3997890959456 0 0,0 -0.7045307283501084,-0.7646289591152664 l 29.203990900707364 -26.44750075671415" fill="red" stroke="none" /><path d="M 84.43433777217949 114.09645910891817 l -37.43601053285467 33.902521071941955 a71.50579986149584,71.50579986149584 0 0,0 -0.8183707712156002,-0.9194482369497151 l 38.014040153718604 -33.25309866525138" fill="red" stroke="none" /><path d="M 84.19399662182784 113.82643327865904 l -33.54957061480087 29.347766701973637 a65.57426498363134,65.57426498363134 0 0,0 -0.735860320132539,-0.8559717970315956 l 34.04977344450419 -28.76591780578051" fill="red" stroke="none" /><path d="M 83.95833913139862 113.55231037782056 l -46.05905321054273 38.91159337744122 a81.29550963233443,81.29550963233443 0 0,0 -0.8938789697523601,-1.07673480244922 l 46.72202818018862 -38.11299731787824" fill="red" stroke="none" /><path d="M 83.72743513129214 113.27417163493432 l -32.67549261071859 26.654685396571328 a63.16823533115084,63.16823533115084 0 0,0 -0.6800574540703088,-0.848476237566478 l 33.129467976843756 -26.088281325426593" fill="red" stroke="none" /><path d="M 83.50135304334701 112.99209946851258 l -47.239114178000534 37.199127408294565 a81.12743956182321,81.12743956182321 0 0,0 -0.854516027029927,-1.1045771548558263 l 47.872437022248526 -36.38047225932549" fill="red" stroke="none" /><path d="M 83.28015986056508 112.70617746262583 l -45.697457817507434 34.72760527480328 a78.39568118861746,78.39568118861746 0 0,0 -0.8072467998477423,-1.0814390067827095 l 46.28846588405026 -33.93585338851126" fill="red" stroke="none" /><path d="M 83.06392112726016 112.41649034213515 l -5.233082038995665 3.8365735708385356 a27.488793754721733,27.488793754721733 0 0,0 -0.2764851773436395,-0.3840137292533326 l 5.298347008714911 -3.745926236134065" fill="red" stroke="none" /><path d="M 82.85270091963577 112.12312394758628 l -6.888498831012602 4.870162044166966 a29.436225132208513,29.436225132208513 0 0,0 -0.28895032120593617,-0.41625448863045617 l 6.971310059380672 -4.750866293349497" fill="red" stroke="none" /><path d="M 82.6465618267979 111.8261652097733 l -5.967156265566496 4.066547223944254 a28.221063648954924,28.221063648954924 0 0,0 -0.2701117216879077,-0.4037803746837587 l 6.0362710926651335 -3.9632299350546747" fill="red" stroke="none" /><path d="M 82.44556493220864 111.52570212397912 l -32.585088545197124 21.394366882504205 a59.98085337446487,59.98085337446487 0 0,0 -0.5592361610102258,-0.8679469408942183 l 32.948529569584394 -20.830298341688536" fill="red" stroke="none" /><path d="M 82.24976979558568 111.22182372390057 l -40.02560133265137 25.3044742195192 a68.35361842105263,68.35361842105263 0 0,0 -0.620180062659729,-0.9999277306383917 l 40.455246034979055 -24.611750157515544" fill="red" stroke="none" /><path d="M 82.05923443525364 110.91462005526583 l -48.003463969599075 29.20385803348096 a77.1889479979854,77.1889479979854 0 0,0 -0.6808033025695986,-1.1410654948394496 l 48.4990481478669 -28.3732304447554" fill="red" stroke="none" /><line stroke="#e1ed5e" stroke-width="0.3" x1="26.63291911575756" x2="22.317208475507996" y1="142.92168965132927" y2="145.44649492493687" /><path d="M 25.769776987707644 143.4266507060508 a86.0,86.0 0 0,1 -11.730757126820373,-40.83630448921669" fill="none" id="id21" stroke="none" /><text fill="#e1ed5e" style="font-size:6.75px; font-family:Arial;" text-anchor="middle"><textPath startOffset="21.46611528233685" xlink:href="#id21">September</textPath></text><path d="M 81.87401531095188 110.60418214915194 l -36.438689615111215 21.31760059294975 a63.21632617728532,63.21632617728532 0 0,0 -0.5413966701697612,-0.9439707289021274 l 36.80023828143336 -20.687210018189315" fill="red" stroke="none" /><path d="M 81.69416730710424 110.29060199501025 l -20.06680677717835 11.280531474258275 a44.020146058927224,44.020146058927224 0 0,0 -0.3656262824793695,-0.6637179060328696 l 20.258009469109236 -10.933443049827583" fill="red" stroke="none" /><path d="M 81.51974371655577 109.97397251340807 l -14.687405900415516 7.926934588848116 a37.690002518257366,37.690002518257366 0 0,0 -0.303220542402729,-0.573578994581007 l 14.821678951043133 -7.672940579180983" fill="red" stroke="none" /><path d="M 81.35079622478065 109.6543875284942 l -25.17801011449479 13.034243701314274 a49.351784814908086,49.351784814908086 0 0,0 -0.38405401537496203,-0.7577750075486904 l 25.39864279965602 -12.598914482062899" fill="red" stroke="none" /><path d="M 81.18737489456691 109.33194174019688 l -54.07460146715838 26.823530883531625 a81.36194440946863,81.36194440946863 0 0,0 -0.6115579981204237,-1.2599906136237027 l 54.52831272189352 -25.888751313942638" fill="red" stroke="none" /><path d="M 81.02952815118164 109.00673069616217 l -45.76265053765767 21.727022533756152 a71.65850069252078,71.65850069252078 0 0,0 -0.5194401297429772,-1.1188278279030397 l 46.12986528424047 -20.936074638574286" fill="red" stroke="none" /><path d="M 80.87730276802145 108.67885076344099 l -39.741687735311615 18.03679537242541 a64.64318653991438,64.64318653991438 0 0,0 -0.4511445380382562,-1.0172118345965562 l 40.046273358081145 -17.35003520133616" fill="red" stroke="none" /><path d="M 80.73074385275274 108.34839909993369 l -42.85040868824748 18.564925941672136 a67.69918628808864,67.69918628808864 0 0,0 -0.4540649506074541,-1.0732754146179517 l 43.16362462004724 -17.824576001388024" fill="red" stroke="none" /><path d="M 80.58989483394504 108.01547362559985 l -26.471074706205865 10.931326715320468 a49.63933832787711,49.63933832787711 0 0,0 -0.3193402303852023,-0.7925762629143837 l 26.655317550848455 -10.47405108456328" fill="red" stroke="none" /><path d="M 80.45479744820244 107.68017299344265 l -16.450658276586537 6.464189925142218 a38.67512119113573,38.67512119113573 0 0,0 -0.2381387813061023,-0.6217052125713787 l 16.55949133748615 -6.180061145737681" fill="red" stroke="none" /><path d="M 80.32549172779594 107.34259656027581 l -38.70074496502227 14.443255858228884 a62.308053701838325,62.308053701838325 0 0,0 -0.36635871315050716,-1.0080618337838443 l 38.94362793917799 -13.774946227438923" fill="red" stroke="none" /><path d="M 80.20201598880116 107.00284435728193 l -24.726135234585815 8.746005477475085 a47.227359292369684,47.227359292369684 0 0,0 -0.2644938325295808,-0.768742884149586 l 24.873019898058626 -8.319089890236201" fill="red" stroke="none" /><path d="M 80.0844068197444 106.66101706037122 l -29.58940073391099 9.896541936302615 a52.200547720977085,52.200547720977085 0 0,0 -0.27767646102996224,-0.8546002727730043 l 29.7553694459572 -9.385742763551807" fill="red" stroke="none" /><path d="M 79.97269907076064 106.31721596034903 l -12.350473611165198 3.895712621984631 a33.9503195039033,33.9503195039033 0 0,0 -0.17100166039885348,-0.5588433202733102 l 12.41570204407018 -3.682542329159273" fill="red" stroke="none" /><path d="M 79.86692584326677 105.97154293290107 l -23.002392125903768 6.822593066013317 a44.99287018383279,44.99287018383279 0 0,0 -0.21383903485591338,-0.744401733379279 l 23.116423797645787 -6.425633857129442" fill="red" stroke="none" /><path d="M 79.76711848015287 105.62410040840567 l -28.179739337899633 7.833075252458861 a50.248158524301175,50.248158524301175 0 0,0 -0.22447030530705403,-0.8353375110507797 l 28.31039771954846 -7.346846808232542" fill="red" stroke="none" /><path d="M 79.67330655649465 105.27499134158121 l -6.204446759264369 1.6101193745743392 a27.409964429614707,27.409964429614707 0 0,0 -0.114584988214051,-0.4577100689796964 l 6.231243061773478 -1.503081466197251" fill="red" stroke="none" /><path d="M 79.58551787078972 104.9243191809786 l -27.938659528807076 6.739278328872181 a49.73998205741626,49.73998205741626 0 0,0 -0.19360561828559741,-0.8340479364445627 l 28.05052571302323 -6.257361735079043" fill="red" stroke="none" /><path d="M 79.4281124754447 104.21870165774334 l -24.517833024142224 5.027901435867839 a46.02806283052128,46.02806283052128 0 0,0 -0.1524845436247429,-0.7775154027991009 l 24.60074750074263 -4.605122306000783" fill="red" stroke="none" /><path d="M 79.35854240842038 103.8639653848113 l -22.403434191427458 4.19379754712123 a43.79258215814656,43.79258215814656 0 0,0 -0.13232357795656038,-0.7421408974790273 l 22.472304211723205 -3.8075378989089894" fill="red" stroke="none" /><path d="M 79.29508885075956 103.50808413554451 l -27.2602497396163 4.618771312430265 a48.64876605389071,48.64876605389071 0 0,0 -0.13278390108080987,-0.826845478782348 l 27.3357153950584 -4.148846603954704" fill="red" stroke="none" /><path d="M 79.18660465613746 102.79330883721812 l -25.320627567109284 3.398212140719826 a46.54764228154117,46.54764228154117 0 0,0 -0.09974160241842628,-0.7950387079128362 l 25.37537067877456 -2.9618556785195813" fill="red" stroke="none" /><path d="M 79.1416061653843 102.43462659150553 l -22.227209515386132 2.5943970456304744 a43.37810847393604,43.37810847393604 0 0,0 -0.08018277791409122,-0.7423929397720721 l 22.268574594801276 -2.21140778397362" fill="red" stroke="none" /><path d="M 79.10278846688536 102.07522291339032 l -21.094389169637285 2.094803877514236 a42.19814750692521,42.19814750692521 0 0,0 -0.06555864756061723,-0.7234342129174285 l 21.127322413474978 -1.7313882760482417" fill="red" stroke="none" /><path d="M 79.04373962182676 101.35467743843564 l -24.972964906084872 1.6143296331798687 a46.025088139007806,46.025088139007806 0 0,0 -0.04430166581011112,-0.7910360032153474 l 24.997052922782512 -1.1842219136290837" fill="red" stroke="none" /><path d="M 79.0235259727143 100.99374915477108 l -22.897292553644753 1.0847468975068215 a43.92297280282045,43.92297280282045 0 0,0 -0.02927752086067611,-0.7555227216744833 l 22.91257220735663 -0.6904469288183415" fill="red" stroke="none" /><path d="M 79.0095281055655 100.63252640178507 l -13.300749157484464 0.4008044720452521 a34.306786703601105,34.306786703601105 0 0,0 -0.012706477926639481,-0.5904201001046302 l 13.305677698096112 -0.17179455615049302" fill="red" stroke="none" /><line stroke="#e1ed5e" stroke-width="0.3" x1="15.007084014347285" x2="10.007500721073583" y1="101.09737516637583" y2="101.16192664675087" /><path d="M 14.007167355692545 101.11028546245083 a86.0,86.0 0 0,1 10.666146001902534,-42.60595125391555" fill="none" id="id22" stroke="none" /><text fill="#e1ed5e" style="font-size:6.75px; font-family:Arial;" text-anchor="middle"><textPath startOffset="22.20632615414155" xlink:href="#id22">October</textPath></text><path d="M 79.00175016825051 100.2711162175752 l -25.00664307470426 0.32287007436286597 a46.00872733568371,46.00872733568371 0 0,0 -0.003408376277268569,-0.7919866119886251 l 25.00849574827103 0.10762601582943454" fill="red" stroke="none" /><path d="M 79.00486145842228 99.54816195383935 l -24.71693792135909 -0.5319351865835169 a45.72266116847142,45.72266116847142 0 0,0 0.023706776433491884,-0.7867124961590815 l 24.704119450469953 0.9573178301675928" fill="red" stroke="none" /><path d="M 79.01574976396665 99.18683210126434 l -24.891879873839144 -0.9645937989165102 a45.91056251573911,45.91056251573911 0 0,0 0.037398288981651324,-0.789418772053495 l 24.871587976623992 1.3929236775930143" fill="red" stroke="none" /><path d="M 79.03285615573316 98.82574320788736 l -24.85723279598269 -1.39211972124611 a45.896184840090655,45.896184840090655 0 0,0 0.05096532883919645,-0.7884110793538589 l 24.829586876139082 1.8197898648529807" fill="red" stroke="none" /><path d="M 79.05617556472873 98.46500227214037 l -18.991054101058424 -1.3918768744876788 a40.04199194157643,40.04199194157643 0 0,0 0.0562981181414563,-0.6869796392299179 l 18.96428149909747 1.718570430925375" fill="red" stroke="none" /><path d="M 79.08570108090925 98.10471618934814 l -25.345124287392533 -2.2968115702413674 a46.448981679677665,46.448981679677665 0 0,0 0.07901386355864705,-0.7956588230496042 l 25.301833298151656 2.732745923995402" fill="red" stroke="none" /><path d="M 79.12142395522702 97.74499172005258 l -24.829127562184553 -2.681690940825162 a45.97352681944095,45.97352681944095 0 0,0 0.09174925143727657,-0.7860515559909607 l 24.779287957743687 3.1086862351409845" fill="red" stroke="none" /><path d="M 79.21141760316559 97.0276538004421 l -14.487648666240128 -2.0714403046638856 a35.63498646436666,35.63498646436666 0 0,0 0.09204704776486325,-0.6064750377266872 l 14.449845725035964 2.320514454782665" fill="red" stroke="none" /><path d="M 79.26566170972629 96.67025291283419 l -24.632632769725753 -3.9557779016605727 a45.94824194157643,45.94824194157643 0 0,0 0.13212994272715303,-0.7798384014228844 l 24.560890965478375 4.379202091399285" fill="red" stroke="none" /><path d="M 79.32604984820605 96.31383870115002 l -44.217510703812486 -7.883973575012955 a65.91486716192395,65.91486716192395 0 0,0 0.2087752225168098,-1.1152855868463787 l 44.07524975738582 8.643937239321906" fill="red" stroke="none" /><path d="M 79.3925641242962 95.95851677861259 l -24.492574547277677 -4.80342773736873 a45.959149143792494,45.959149143792494 0 0,0 0.15893265571285645,-0.7750120730397067 l 24.406262595649828 5.224315466571839" fill="red" stroke="none" /><path d="M 79.54389044137918 95.25157060432595 l -24.14755258532014 -5.6053155269398 a45.78959172752455,45.78959172752455 0 0,0 0.18483121275918177,-0.7662447033018496 l 24.047488572300143 6.020145461901047" fill="red" stroke="none" /><path d="M 79.71946130924805 94.55025226153421 l -24.05042194130481 -6.4627835868847985 a45.90362156887434,45.90362156887434 0 0,0 0.21162275460868488,-0.7613196440273028 l 23.935612416129764 6.875814534331044" fill="red" stroke="none" /><path d="M 79.81627453868168 94.20196356495316 l -23.933229862286908 -6.875130114895404 a45.901142659279785,45.901142659279785 0 0,0 0.22468413243848684,-0.7575231981171993 l 23.811339832736714 7.286082699759143" fill="red" stroke="none" /><path d="M 80.02781315780177 93.51064311812611 l -16.049482869587557 -5.214793098681619 a37.8754249559305,37.8754249559305 0 0,0 0.20680470119005426,-0.6183197339590522 l 15.95734087462573 5.490285935562993" fill="red" stroke="none" /><path d="M 80.14247586403 93.16781622104843 l -23.61393912259527 -8.124616680601324 a45.97253525560312,45.97253525560312 0 0,0 0.26389749963930337,-0.7460737682998023 l 23.470588542146157 8.529888075327738" fill="red" stroke="none" /><path d="M 80.2630227832202 92.82701384747504 l -25.80133866896401 -9.376949821462132 a48.45243641400151,48.45243641400151 0 0,0 0.29162693517364024,-0.7814151984752066 l 25.636107145288744 9.819688156966679" fill="red" stroke="none" /><path d="M 80.38941819471856 92.48833698450439 l -23.11101633458288 -8.852474055830793 a45.74844182825485,45.74844182825485 0 0,0 0.2880113853598824,-0.7329575608373631 l 22.95521139934131 9.24898062156392" fill="red" stroke="none" /><path d="M 80.65960295795068 91.81776055985345 l -23.049214052253443 -9.751309028076934 a46.02707126668345,46.02707126668345 0 0,0 0.31497703522644876,-0.7270104243491646 l 22.877946307184313 10.146618597012697" fill="red" stroke="none" /><path d="M 80.95270993114464 91.15688171328213 l -22.61580897679133 -10.499880728891542 a45.934360047846894,45.934360047846894 0 0,0 0.3391307688829272,-0.71429588839633 l 22.431720014066656 10.887619032928404" fill="red" stroke="none" /><path d="M 81.10775173730289 90.83032412892265 l -22.373737320613714 -10.859476140790717 a45.86990839838832,45.86990839838832 0 0,0 0.35088292814024963,-0.7073585719642388 l 22.183494379520052 11.242994301253917" fill="red" stroke="none" /><path d="M 81.43458229118936 90.18545643968196 l -22.043657599531294 -11.653302992297487 a45.934360047846894,45.934360047846894 0 0,0 0.37555036132371056,-0.6958377833177717 l 21.83979913898911 12.031021758947732" fill="red" stroke="none" /><path d="M 81.6062741919709 89.86733742301443 l -21.927083644326565 -12.079104700381894 a46.03401221354822,46.03401221354822 0 0,0 0.38831302401338036,-0.6907655405882178 l 21.715912979020754 12.454753750904898" fill="red" stroke="none" /><line stroke="#e1ed5e" stroke-width="0.3" x1="26.266209847984243" x2="21.928928074336255" y1="57.711370442889674" y2="55.22380399835377" /><path d="M 25.398753493254645 57.213857153982495 a86.0,86.0 0 0,1 29.58750427330803,-30.492523968695096" fill="none" id="id23" stroke="none" /><text fill="#e1ed5e" style="font-size:6.75px; font-family:Arial;" text-anchor="middle"><textPath startOffset="21.46611528233685" xlink:href="#id23">November</textPath></text><path d="M 81.78341655067845 89.55222093294921 l -11.289315873159087 -6.474774942790304 a34.01427537144296,34.01427537144296 0 0,0 0.2956655666171051,-0.505388294750199 l 11.176190632071657 6.668142649894395" fill="red" stroke="none" /><path d="M 81.96595687620814 89.24020034530311 l -29.401683675389418 -17.54216864661932 a55.23721197431377,55.23721197431377 0 0,0 0.4941999750804268,-0.8123348178981035 l 29.095367902022776 18.0456712377245" fill="red" stroke="none" /><path d="M 82.34701348167596 88.62581576622439 l -20.328051901703926 -13.097784174010929 a45.18225887685722,45.18225887685722 0 0,0 0.4268720087284737,-0.6501553552986169 l 20.09958325761753 13.445757593287214" fill="red" stroke="none" /><path d="M 82.54541684631803 88.32363383020206 l -20.75066865918871 -13.881305752164405 a45.96559430873836,45.96559430873836 0 0,0 0.44559382963120564,-0.6538539615931642 l 20.508650363888766 14.236437737027986" fill="red" stroke="none" /><path d="M 83.17141714833178 87.43820079747576 l -20.0000990167695 -14.929196955782626 a45.95766179803576,45.95766179803576 0 0,0 0.4786688745844649,-0.6298721300183641 l 19.740154201960927 15.271253861682016" fill="red" stroke="none" /><path d="M 83.39014120810768 87.1503855733568 l -9.952033641072036 -7.69902963360405 a33.58244932007051,33.58244932007051 0 0,0 0.35764655971874004,-0.45417481126601555 l 9.818033000759325 7.869196838823113" fill="red" stroke="none" /><path d="M 83.6137871275137 86.86637796730984 l -19.47474681000927 -15.609095632735505 a45.95815757995467,45.95815757995467 0 0,0 0.5000718242100196,-0.6130289273234102 l 19.20317649372286 15.942008729666998" fill="red" stroke="none" /><path d="M 83.84228863543731 86.58626213691792 l -19.20088772196699 -15.940108647181987 a45.9551828884412,45.9551828884412 0 0,0 0.5105169725300692,-0.6042910701333444 l 18.923660135949795 16.268258666944448" fill="red" stroke="none" /><path d="M 84.31358615837235 86.03803664274999 l -18.640454725773257 -16.591258427281126 a45.954687106522286,45.954687106522286 0 0,0 0.5310093842808322,-0.586353824861539 l 18.352101700876382 16.90966503941222" fill="red" stroke="none" /><path d="M 85.05521093208273 85.24692304244772 l -18.084121529749275 -17.85213798773945 a46.41130225384034,46.41130225384034 0 0,0 0.5661387669070468,-0.5637075871236404 l 17.774146962674916 18.1607814255132" fill="red" stroke="none" /><path d="M 85.57189188830299 84.74124197986013 l -8.69624150304453 -9.196898425794133 a33.65731238982624,33.65731238982624 0 0,0 0.42439004635617605,-0.3944242963899611 l 8.536643572893496 9.345227308258742" fill="red" stroke="none" /><path d="M 86.10567301691215 84.25364557470407 l -16.70048418289556 -18.926554941308865 a46.24124905565348,46.24124905565348 0 0,0 0.6013700893056187,-0.5215022154465658 l 16.37222029494317 19.21122215017511" fill="red" stroke="none" /><path d="M 86.65592168130627 83.78471172551755 l -15.845987991500305 -19.255527218856844 a45.93733473936035,45.93733473936035 0 0,0 0.6148966035351954,-0.4972036235330036 l 15.512187989400609 19.525436939653982" fill="red" stroke="none" /><path d="M 87.22198572758235 83.33499621200491 l -15.496278577787793 -20.2101465605735 a46.46732561067741,46.46732561067741 0 0,0 0.6389342378402083,-0.4812320214453373 l 15.146098186189194 20.473895171524692" fill="red" stroke="none" /><path d="M 87.80319425747018 82.90503203632743 l -14.530834680778202 -20.366328577911943 a46.01864297406195,46.01864297406195 0 0,0 0.6487946277731866,-0.4545220984883356 l 14.178108913421356 20.61343551916422" fill="red" stroke="none" /><path d="M 88.70189139769569 82.29822771554957 l -13.42735111684712 -21.03784980481698 a45.95766179803576,45.95766179803576 0 0,0 0.6705022560320008,-0.4198684512152456 l 13.063229708442877 21.265862597355156" fill="red" stroke="none" /><line stroke="#e1ed5e" stroke-width="0.3" x1="56.762969772571076" x2="54.21961505331055" y1="26.818313649435495" y2="22.513508569990535" /><path d="M 56.25429882871897 25.957352633546506 a86.0,86.0 0 0,1 42.265352541879196,-11.944610805530505" fill="none" id="id24" stroke="none" /><text fill="#e1ed5e" style="font-size:6.75px; font-family:Arial;" text-anchor="middle"><textPath startOffset="22.20632615414155" xlink:href="#id24">December</textPath></text><path d="M 89.63071344664047 81.73862282372117 l -12.58958620891196 -22.171552601151106 a46.49657674389322,46.49657674389322 0 0,0 0.699388025428991,-0.3892086789398875 l 12.206074094410923 22.38497667765118" fill="red" stroke="none" /><path d="M 90.58718382345135 81.22770947309562 l -11.184534079081772 -22.305686120131057 a45.952703978846635,45.952703978846635 0 0,0 0.7101415618904788,-0.3484633803087147 l 10.798921250180866 22.4949046605746" fill="red" stroke="none" /><path d="M 91.23893434514133 80.91482961587045 l -10.774348503853952 -23.470920670478762 a46.82577593805087,46.82577593805087 0 0,0 0.7354275343351155,-0.3299648974580876 l 10.368738851052063 23.65290589845338" fill="red" stroke="none" /><path d="M 91.90106846888425 80.62456947434976 l -7.843800401369971 -18.76506908965979 a41.3384616595316,41.3384616595316 0 0,0 0.6588880916117864,-0.26877699626317264 l 7.519628440169805 18.89730697210654" fill="red" stroke="none" /><path d="M 92.57280143429618 80.3572730644239 l -9.430996793700725 -24.942176126053596 a47.66563050868798,47.66563050868798 0 0,0 0.7699535391305331,-0.2835803863669876 l 9.000260928797623 25.100819780226907" fill="red" stroke="none" /><path d="M 94.63758080256005 79.69619591428918 l -3.886606082254307 -14.715911894783796 a36.22050491060186,36.22050491060186 0 0,0 0.6041771865488172,-0.15401821741751068 l 3.6327200070204904 14.78063310837017" fill="red" stroke="none" /><path d="M 98.19473922651362 79.07773832637324 l -1.7125058975885228 -19.84726917750559 a40.9210132838076,40.9210132838076 0 0,0 0.7023016499389765,-0.05451212464747493 l 1.3706140582872122 19.87380656434153" fill="red" stroke="none" /><path d="M 99.27714615592234 79.0124445844662 l -0.7394871278859209 -21.47049116876835 a42.48322211029967,42.48322211029967 0 0,0 0.7310621391315383,-0.01888117821036807 l 0.36979835355950347 21.48003913912108" fill="red" stroke="none" /></svg>