<?xml version="1.0" encoding="utf-8" ?>
<svg baseProfile="full" height="200mm" version="1.1" viewBox="0,0,200,200" width="200mm" xmlns="http://www.w3.org/2000/svg" xmlns:ev="http://www.w3.org/2001/xml-events" xmlns:xlink="http://www.w3.org/1999/xlink"><defs /><rect fill="#1a1a1a" height="200" width="200" x="0" y="0" /><text alignment-baseline="middle" fill="#e1ed5e" style="dominant-baseline: central; font-size:9.0px; font-family:Arial;" text-anchor="middle" x="100.0" y="100.0">2024</text><line stroke="#e1ed5e" stroke-width="0.3" x1="100.0" x2="100.0" y1="15.0" y2="10.0" /><path d="M 100.0 14.0 a86.0,86.0 0 0,1 42.35913384403234,11.155469271406648" fill="none" id="id25" stroke="none" /><text fill="#e1ed5e" style="font-size:6.75px; font-family:Arial;" text-anchor="middle"><textPath startOffset="22.145653131862478" xlink:href="#id25">January</textPath></text><path d="M 100.36049292484886 79.00309439819443 l 0.14938630344714857 -8.701003252692336 a29.702285554440294,29.702285554440294 0 0,0 0.5097289645471061,0.013128809993618436 l -0.2987285820649961 8.697156725348673" fill="#ff5c08" stroke="none" /><path d="M 103.58742460773223 79.30868818359171 l 1.4902100311355382 -8.595135451684582 a29.72336399387886,29.72336399387886 0 0,0 0.5019926100308602,0.09147977580128944 l -1.6375373747174522 8.568287501951927" fill="#ff5d08" stroke="none" /><path d="M 104.29559338865022 79.4440306129975 l 1.78098936392509 -8.522678831788824 a29.70677768087802,29.70677768087802 0 0,0 0.49827826573071987,0.10859742886222826 l -1.927030046274944 8.490849944792878" fill="#ff5c08" stroke="none" /><path d="M 105.3480935250658 79.69241777938227 l 2.222072886885197 -8.437572686253896 a29.725264508910207,29.725264508910207 0 0,0 0.4923333265873736,0.13418763747044568 l -2.3665876144072633 8.398184554639307" fill="#ff5d08" stroke="none" /><path d="M 106.04205211174951 79.88797359093562 l 2.5230312386408946 -8.398350421997128 a29.769149128724926,29.769149128724926 0 0,0 0.4881564454246561,0.15123211462596028 l -2.6668283169371807 8.35380171956452" fill="#ff5d08" stroke="none" /><path d="M 106.72888874123014 80.10723608172694 l 2.7926776080772218 -8.256055121989073 a29.715589159659714,29.715589159659714 0 0,0 0.48180888519741705,0.16759814081989993 l -2.933992265319657 8.206898548600583" fill="#ff5d08" stroke="none" /><path d="M 107.40779381753099 80.34994680014964 l 3.090775902690743 -8.198650288154374 a29.76189261678706,29.76189261678706 0 0,0 0.47651303897395,0.18432548014109612 l -3.2310612041582187 8.14438491987524" fill="#ff5d08" stroke="none" /><path d="M 108.07796709384702 80.6158196554323 l 2.4309798788831922 -5.833466742168374 a27.319730801507248,27.319730801507248 0 0,0 0.4313459280745638,0.18411592728067386 l -2.530760882128186 5.790876165228299" fill="#ff3a05" stroke="none" /><path d="M 108.73861861582097 80.90454125486305 l 3.624974500268976 -7.921223486826428 a29.711269807315748,29.711269807315748 0 0,0 0.4619554722522564,0.2162184865132676 l -3.7604186863927374 7.857828768742627" fill="#ff5d08" stroke="none" /><path d="M 109.3889696526874 81.21577127319529 l 3.8866438062541437 -7.775891171977514 a29.69312852747108,29.69312852747108 0 0,0 0.45398358439671094,0.2318072529540675 l -4.019554612364433 7.708025967350613" fill="#ff5c08" stroke="none" /><path d="M 109.71004243097381 81.37971332152246 l 4.017956856382174 -7.704962059582607 a29.689673045595903,29.689673045595903 0 0,0 0.44988504851185407,0.23953844845643052 l -4.149630720680587 7.634853143403603" fill="#ff5c08" stroke="none" /><line stroke="#e1ed5e" stroke-width="0.3" x1="143.13028292997686" x2="145.6673583964461" y1="26.7553504044142" y2="22.446841604673864" /><path d="M 143.63769802327073 25.89364864446614 a86.0,86.0 0 0,1 29.32050498858742,28.57503671076993" fill="none" id="id26" stroke="none" /><text fill="#e1ed5e" style="font-size:6.75px; font-family:Arial;" text-anchor="middle"><textPath startOffset="20.669276256404974" xlink:href="#id26">February</textPath></text><path d="M 111.27062007382361 82.28071324371311 l 4.669834445706407 -7.341755387535293 a29.701076135783985,29.701076135783985 0 0,0 0.4278572508811038,0.2773319007964769 l -4.795177328844518 7.260509645034921" fill="#ff5c08" stroke="none" /><path d="M 112.7482090630111 83.31218511350987 l 5.273243932840319 -6.9028455814923095 a29.68656311190825,29.68656311190825 0 0,0 0.40230955426703935,0.3128383427456342 l -5.390963431742584 6.811306187125885" fill="#ff5c08" stroke="none" /><path d="M 113.31354834802062 83.75963576809568 l 4.796211652500114 -5.8505983629440275 a28.565259243414015,28.565259243414015 0 0,0 0.3765522338045826,0.3141332659840617 l -4.895938220466589 5.7674029130480955" fill="#ff4c07" stroke="none" /><path d="M 113.86319453409587 84.22622945171908 l 4.467619912630075 -5.083331350897302 a27.767561252529905,27.767561252529905 0 0,0 0.3553388013513762,0.3177461472961807 l -4.554223740804826 5.005889673717734" fill="#ff4106" stroke="none" /><path d="M 114.91283532996326 85.21462403516908 l 7.485986662024072 -7.422004254506061 a31.541638556595856,31.541638556595856 0 0,0 0.377918694008094,0.38777787287210624 l -7.612292157182978 7.292403689566212" fill="#ff760a" stroke="none" /><path d="M 115.41159269507618 85.73525988315684 l 6.806049241386834 -6.299577569412322 a30.27399503068797,30.27399503068797 0 0,0 0.34974003805459414,0.3844255672589644 l -6.913186980283306 6.181814426595686" fill="#ff6409" stroke="none" /><path d="M 115.6541949942343 86.00192230759917 l 8.044756568911009 -7.193670930350921 a31.791988218452275,31.791988218452275 0 0,0 0.36029245003573773,0.4099466701678451 l -8.167060082905335 7.054511982371778" fill="#ff7a0b" stroke="none" /><path d="M 116.1254893667686 86.54754324733833 l 7.535780046417184 -6.286615734026095 a30.813741299590276,30.813741299590276 0 0,0 0.335360885008544,0.4090857507932673 l -7.642587750664355 6.156327701534333" fill="#ff6c09" stroke="none" /><path d="M 116.57777611688842 87.10902102172516 l 7.545830086278871 -5.867683115635695 a30.558726737202377,30.558726737202377 0 0,0 0.31846271052413416,0.41687791086643716 l -7.645444774157311 5.737284291528376" fill="#ff6809" stroke="none" /><path d="M 116.7966241395341 87.39550010848427 l 6.213642635792305 -4.662833274004191 a28.768614351768054,28.768614351768054 0 0,0 0.2930261194864263,0.3975462083790468 l -6.292770774862557 4.5554807563562685" fill="#ff4f07" stroke="none" /><path d="M 117.01052211995028 87.68569379921539 l 7.784651756537559 -5.635487536508341 a30.610386191236238,30.610386191236238 0 0,0 0.3044784525483921,0.42828707439057784 l -7.880245307615912 5.50102323540826" fill="#ff6909" stroke="none" /><path d="M 117.42321728460499 88.27688183743584 l 8.778264855072488 -5.90640835600599 a31.580339953597814,31.580339953597814 0 0,0 0.2987734171121577,0.45238103366358 l -8.87836271110537 5.754847444003351" fill="#ff770a" stroke="none" /><path d="M 117.62189284568427 88.57770195909679 l 8.149251929006853 -5.282246643913654 a30.711459036085103,30.711459036085103 0 0,0 0.2829582851351746,0.4448574223544392 l -8.238727905767918 5.141575546880543" fill="#ff6b09" stroke="none" /><line stroke="#e1ed5e" stroke-width="0.3" x1="172.87174338648825" x2="177.1583165268699" y1="56.24261187166439" y2="53.66864786411523" /><path d="M 173.72905801456457 55.72781907015455 a86.0,86.0 0 0,1 12.242430191666344,42.057860355516425" fill="none" id="id27" stroke="none" /><text fill="#e1ed5e" style="font-size:6.75px; font-family:Arial;" text-anchor="middle"><textPath startOffset="22.145653131862474" xlink:href="#id27">March</textPath></text><path d="M 118.00360718960297 89.18935116829356 l 9.177327877950912 -5.51072170466217 a31.70473730110411,31.70473730110411 0 0,0 0.2761728555143494,0.46900188581655683 l -9.270574443595029 5.352368650552056" fill="#ff780b" stroke="none" /><path d="M 118.18653347947321 89.5 l 8.653812962325478 -4.996281243315289 a30.992562486630575,30.992562486630575 0 0,0 0.26205928714836796,0.46303365035525645 l -8.738305614495221 4.846990822860914" fill="#ff6e0a" stroke="none" /><path d="M 118.70294669586156 90.45014215332178 l 8.70196503006567 -4.443285348307198 a30.77072055024435,30.77072055024435 0 0,0 0.2361727337536082,0.4725036733495826 l -8.776957677031016 4.293249818793864" fill="#ff6b09" stroke="none" /><path d="M 118.8641267826498 90.77261029715802 l 8.428685413852747 -4.1228924027277065 a30.383015483849736,30.383015483849736 0 0,0 0.22515368642915143,0.47048460880525306 l -8.498218358241811 3.97759529185735" fill="#ff6609" stroke="none" /><path d="M 119.0197475246899 91.09779779509293 l 8.772531107413164 -4.105987509332232 a30.68588847020881,30.68588847020881 0 0,0 0.2192076181074563,0.4790082062412303 l -8.84172319037567 3.954790320876318" fill="#ff6a09" stroke="none" /><path d="M 119.31412917781788 91.75594674310238 l 8.039899954592281 -3.4317552086123073 a29.741678047817288,29.741678047817288 0 0,0 0.1964000993023276,0.4712887413798854 l -8.097625898431092 3.293233957791144" fill="#ff5d08" stroke="none" /><path d="M 119.58574465831526 92.42381321644754 l 11.60374721167246 -4.488578698356141 a33.441635265660736,33.441635265660736 0 0,0 0.20251189946956968,0.5371868732040496 l -11.67908979495647 4.288723544957934" fill="#ff900d" stroke="none" /><path d="M 119.83427380445688 93.10060997987247 l 13.99476046718137 -4.868104154115781 a35.81727905484343,35.81727905484343 0 0,0 0.19701989954500956,0.5824543248628912 l -14.076265788298745 4.6271481547787285" fill="#ffb010" stroke="none" /><path d="M 120.05942366710727 93.78553927170692 l 10.029216726590002 -3.107076978743605 a31.499481677718723,31.499481677718723 0 0,0 0.15558295988530005,0.5178850728428221 l -10.081076006478929 2.9344543023100593" fill="#ff750a" stroke="none" /><path d="M 120.16314734710363 94.1308016681162 l 8.455031790327762 -2.4611365292107803 a29.80595001069554,29.80595001069554 0 0,0 0.13878432081883035,0.49249659401210727 l -8.496034603221174 2.31563201129566" fill="#ff5e08" stroke="none" /><path d="M 120.35273937422433 94.82641323984039 l 9.943783217867615 -2.5276708091201545 a31.260016783769107,31.260016783769107 0 0,0 0.1277380648265466,0.5212148952138069 l -9.985708809210452 2.3566000892982526" fill="#ff720a" stroke="none" /><path d="M 120.43855184770803 95.1765574152323 l 10.142597303063905 -2.393625346662446 a31.421215013246012,31.421215013246012 0 0,0 0.11938436546277223,0.5260295421227096 l -10.182192530084343 2.21916147060071" fill="#ff740a" stroke="none" /><path d="M 120.51834098615036 95.52812308129327 l 4.299962002856712 -0.9371567050606177 a25.400901716222663,25.400901716222663 0 0,0 0.08919622093712043,0.4268362065795864 l -4.3154159346181995 0.8632040471956268" fill="#ff1f03" stroke="none" /><path d="M 120.592083275326 95.88100663000786 l 8.309276457650924 -1.6620880063896333 a29.47387820249124,29.47387820249124 0 0,0 0.09498126756127136,0.4969821271439357 l -8.336584017494351 1.5192033142123829" fill="#ff5908" stroke="none" /><path d="M 120.7213421655516 96.59031103205396 l 10.126940971468386 -1.666384283102125 a31.263126717456764,31.263126717456764 0 0,0 0.08259198197032555,0.530299771739667 l -10.154054445576977 1.4922963294310165" fill="#ff720a" stroke="none" /><path d="M 120.82617615685814 97.30363454192243 l 9.868728234005241 -1.2777044487143614 a30.951096704128478,30.951096704128478 0 0,0 0.06369722988227777,0.5275044388839284 l -9.889207550147182 1.10810633290702" fill="#ff6e0a" stroke="none" /><path d="M 120.9064616781168 98.02013634271609 l 9.360486108330313 -0.8864477665195947 a30.402366182350715,30.402366182350715 0 0,0 0.044744142862532234,0.519994763937063 l -9.374323873890587 0.7256319552068696" fill="#ff6609" stroke="none" /><path d="M 120.96210409425399 98.7389718711861 l 9.000808028887135 -0.541466260039804 a30.01707995326872,30.01707995326872 0 0,0 0.026527109194649682,0.5146188316020298 l -9.008776727538358 0.3868756350610435" fill="#ff6108" stroke="none" /><path d="M 120.98066250479742 99.09900007780936 l 10.58198981615274 -0.45443617420544563 a31.59174304378589,31.59174304378589 0 0,0 0.018617033737237908,0.5420146242940999 l -10.588231536886825 0.27271528534722583" fill="#ff770a" stroke="none" /><line stroke="#e1ed5e" stroke-width="0.3" x1="184.99686870605535" x2="189.99668451229388" y1="99.2704041080226" y2="99.22748670261217" /><path d="M 185.99683186730306 99.26182062694052 a86.0,86.0 0 0,1 -10.086455211305974,41.156179273409016" fill="none" id="id28" stroke="none" /><text fill="#e1ed5e" style="font-size:6.75px; font-family:Arial;" text-anchor="middle"><textPath startOffset="21.40746469413373" xlink:href="#id28">April</textPath></text><path d="M 120.99922638620191 99.81974689727618 l 9.598802254216439 -0.08239417285828546 a30.599155875141918,30.599155875141918 0 0,0 0.0,0.5252945511642235 l -9.598802254216439 -0.08239417285828429" fill="#ff6909" stroke="none" /><path d="M 120.99303781780057 100.54070618675476 l 9.764026902702698 0.2514866976257531 a30.767265068369177,30.767265068369177 0 0,0 -0.018131168355813382,0.5278691838394706 l -9.75827104735004 -0.4190621460293344" fill="#ff6b09" stroke="none" /><path d="M 120.98066250479742 100.90099992219065 l 7.7058787252494225 0.3309235888176881 a28.71298109357774,28.71298109357774 0 0,0 -0.02537463290763251,0.4922610995204111 l -7.6990625028852175 -0.4631564817148298" fill="#ff4e07" stroke="none" /><path d="M 120.93736805541906 101.62068470465957 l 8.833086725567098 0.6837367769036695 a29.859509979760748,29.859509979760748 0 0,0 -0.04394520388071713,0.5107098819241225 l -8.82004789898864 -0.8352677062034494" fill="#ff5f08" stroke="none" /><path d="M 120.9064616781168 101.97986365728391 l 9.413979514792842 0.8915136477284801 a30.456098925509686,30.456098925509686 0 0,0 -0.05375879626239737,0.5200675877900688 l -9.39728832604878 -1.0529857578014803" fill="#ff6709" stroke="none" /><path d="M 120.86939407059847 102.33845913500097 l 10.272956054810333 1.151106153277308 a31.337246803679264,31.337246803679264 0 0,0 -0.06449192520100197,0.5340856561356434 l -10.251682043349668 -1.32728548633636" fill="#ff730a" stroke="none" /><path d="M 120.77682067341334 103.0534771498775 l 9.435260483359354 1.386658370014543 a30.536611653201255,30.536611653201255 0 0,0 -0.08067264998441892,0.5179762835542892 l -9.410066341236668 -1.5484228355002827" fill="#ff6809" stroke="none" /><path d="M 120.7213421655516 103.40968896794604 l 9.033813711291033 1.4865106084236464 a30.155299228275716,30.155299228275716 0 0,0 -0.08843426697855455,0.5100653514403786 l -9.006964626820244 -1.641368992784613" fill="#ff6309" stroke="none" /><path d="M 120.592083275326 104.11899336999214 l 9.556193122176284 1.9115062612325897 a30.745495532555577,30.745495532555577 0 0,0 -0.10796396297190111,0.5166466462150864 l -9.521971448380018 -2.075269358733085" fill="#ff6b09" stroke="none" /><path d="M 120.51834098615036 104.47187691870673 l 8.866477083701445 1.9324074128415034 a30.074613726490384,30.074613726490384 0 0,0 -0.11426797705822465,0.503485790775256 l -8.831998245085558 -2.0843275375557764" fill="#ff6209" stroke="none" /><path d="M 120.35273937422433 105.17358676015961 l 9.187751606176382 2.3354905298668616 a30.47994175044839,30.47994175044839 0 0,0 -0.13325615605477356,0.5059953295136979 l -9.14630596931688 -2.492866363753363" fill="#ff6709" stroke="none" /><path d="M 120.16314734710363 105.8691983318838 l 13.727980316606175 3.9960149964351905 a35.297747354910896,35.297747354910896 0 0,0 -0.1743434405349288,0.5803326114097971 l -13.657360556067617 -4.231085211435711" fill="#ffa90f" stroke="none" /><path d="M 120.05942366710727 106.21446072829308 l 16.831161228587813 5.214336772703084 a38.62036595198526,38.62036595198526 0 0,0 -0.20162641894915873,0.6315918856229851 l -16.7391700938614 -5.502497692017453" fill="#ffd513" stroke="none" /><path d="M 119.94978838288452 106.5578916946017 l 8.476353984971164 2.7863459166432047 a29.922572523982687,29.922572523982687 0 0,0 -0.16459492145610452,0.4865956386840753 l -8.427273641942694 -2.931443229801441" fill="#ff6008" stroke="none" /><path d="M 119.71291397450082 107.23885506374661 l 16.23988861908016 5.963512046822399 a38.30021555625031,38.30021555625031 0 0,0 -0.2319339153356131,0.6152322658344926 l -16.135124019930107 -6.24141259285105" fill="#ffd013" stroke="none" /><path d="M 119.58574465831526 107.57618678355244 l 7.489235799487591 2.8969972943508395 a29.03002155562503,29.03002155562503 0 0,0 -0.18377569196984578,0.4632347949313454 l -7.438401432551621 -3.025133106495749" fill="#ff5307" stroke="none" /><path d="M 119.4528033332814 107.91128576633889 l 3.780417846209991 1.5374630270571692 a25.081096868675232,25.081096868675232 0 0,0 -0.16562380601724452,0.39743684121187056 l -3.7534681956562608 -1.6021323777103176" fill="#ff1a02" stroke="none" /><path d="M 119.31412917781788 108.2440532568976 l 15.914698793427954 6.793038568427312 a38.30384381221924,38.30384381221924 0 0,0 -0.263322725476122,0.6025339278360868 l -15.795742185934866 -7.065234566039243" fill="#ffd013" stroke="none" /><path d="M 119.0197475246899 108.90220220490707 l 13.737701404736077 6.42993791462489 a36.16801046517368,36.16801046517368 0 0,0 -0.26802345841447606,0.5600659442120467 l -13.62529868836169 -6.664816360902041" fill="#ffb510" stroke="none" /><path d="M 118.8641267826498 109.22738970284198 l 7.803533597416882 3.817099322551907 a29.687081434189523,29.687081434189523 0 0,0 -0.22785554105014463,0.4558637164761342 l -7.736858143155006 -3.9504948951917873" fill="#ff5c08" stroke="none" /><path d="M 118.70294669586154 109.54985784667822 l 7.714546201413609 3.939102258759751 a29.662029190594506,29.662029190594506 0 0,0 -0.23544861542388673,0.45150376513892554 l -7.645789517014773 -4.07095226700318" fill="#ff5c08" stroke="none" /><line stroke="#e1ed5e" stroke-width="0.3" x1="174.33088141563837" x2="178.70328620479359" y1="141.23008692659167" y2="143.65538615756765" /><path d="M 175.20536237346943 141.71514677278685 a86.0,86.0 0 0,1 -30.301960400862466,31.631185727798858" fill="none" id="id29" stroke="none" /><text fill="#e1ed5e" style="font-size:6.75px; font-family:Arial;" text-anchor="middle"><textPath startOffset="22.145653131862474" xlink:href="#id29">May</textPath></text><path d="M 118.36410011445183 110.18625677009912 l 17.635404354393902 9.782061515609556 a41.166710545801585,41.166710545801585 0 0,0 -0.348087345940806,0.6150369871921093 l -17.464883643431715 -10.083355272900787" fill="#fff517" stroke="none" /><path d="M 118.18653347947321 110.5 l 20.59956414624517 11.893163905023608 a44.786327810047226,44.786327810047226 0 0,0 -0.39012365634304996,0.6625152576482517 l -20.392366779772356 -12.24503033096541" fill="#ddff1b" stroke="none" /><path d="M 117.62189284568427 111.42229804090321 l 7.984408230608364 5.175396950196814 a30.515014891481414,30.515014891481414 0 0,0 -0.2886946526146405,0.43712049962575256 l -7.894389139072997 -5.311697328161627" fill="#ff6809" stroke="none" /><path d="M 117.423217284605 111.72311816256416 l 8.153416615364122 5.485982574239272 a30.82721767890346,30.82721767890346 0 0,0 -0.29918587373279637,0.43652113105431184 l -8.058041004816006 -5.625138440363628" fill="#ff6c0a" stroke="none" /><path d="M 117.21940702142032 112.02048342749411 l 12.460290801465955 8.698250694374059 a36.19599986836259,36.19599986836259 0 0,0 -0.3600379936244037,0.5064385268259393 l -12.30913770931159 -8.910866447909502" fill="#ffb510" stroke="none" /><path d="M 117.01052211995028 112.31430620078461 l 11.032501844880134 7.986680533411643 a34.61995458509536,34.61995458509536 0 0,0 -0.3526256365643566,0.4784043997139369 l -10.89377418873195 -8.174891242394457" fill="#ffa00e" stroke="none" /><path d="M 116.79662413953412 112.60449989151573 l 4.141046508854911 3.1075185012189657 a26.17734849357445,26.17734849357445 0 0,0 -0.27280290266314505,0.35710775667688116 l -4.087091628837462 -3.178147171136724" fill="#ff2a04" stroke="none" /><path d="M 116.57777611688842 112.89097897827486 l 9.573963721759517 7.444772097642073 a33.127877511394864,33.127877511394864 0 0,0 -0.3529437276615959,0.44593287013850547 l -9.44475356345636 -7.608024911695261" fill="#ff8c0c" stroke="none" /><path d="M 116.35404254752997 113.17365903436017 l 4.266991520163709 3.437186324162574 a26.479184835370972,26.479184835370972 0 0,0 -0.2881858056234445,0.3515398245040617 l -4.207358895301637 -3.5099284303651284" fill="#ff2e04" stroke="none" /><path d="M 116.1254893667686 113.45245675266167 l 16.3615090266791 13.649352747289104 a42.3073651127968,42.3073651127968 0 0,0 -0.47002563259547303,0.5536890133348248 l -16.124788830576513 -13.928208543073485" fill="#fbff18" stroke="none" /><path d="M 115.89218393027572 113.72728997021213 l 9.960432096691568 8.60358401461824 a34.16175768844717,34.16175768844717 0 0,0 -0.38714858883705483,0.4405040262103405 l -9.811272443895929 -8.773300318639874" fill="#ff9a0e" stroke="none" /><path d="M 115.41159269507618 114.26474011684316 l 12.700432516986249 11.755330731274396 a38.305744327250586,38.305744327250586 0 0,0 -0.45081148785096836,0.47874617770807376 l -12.49676519539902 -11.971618368926967" fill="#ffd013" stroke="none" /><path d="M 115.16444852881244 114.52719865689866 l 6.942938444538558 6.651177974246403 a30.614705543580207,30.614705543580207 0 0,0 -0.3668125711260159,0.3763820123990694 l -6.827739072261735 -6.76938267871321" fill="#ff6909" stroke="none" /><path d="M 114.91283532996324 114.78537596483092 l 7.482305874010486 7.418354926030052 a31.536455333783092,31.536455333783092 0 0,0 -0.3844565417099494,0.381170608106909 l -7.353857412170572 -7.545705544365623" fill="#ff760a" stroke="none" /><path d="M 114.65682725009322 115.03919595460226 l 11.363002390893438 11.659441478930823 a37.28067562897998,37.28067562897998 0 0,0 -0.4621516957978095,0.44273087027999963 l -11.161178209230318 -11.852784479516403" fill="#ffc312" stroke="none" /><path d="M 114.39649973595853 115.28858382429668 l 12.444528337075827 13.21565784216309 a39.15268293485594,39.15268293485594 0 0,0 -0.49326829894031277,0.4565617734310401 l -12.215830266821547 -13.42733736172651" fill="#ffdb14" stroke="none" /><path d="M 114.13192950727249 115.5334660781643 l 7.094566720453655 7.798171610941595 a31.542502427064647,31.542502427064647 0 0,0 -0.40364635922194075,0.36094306342322624 l -6.959655334408337 -7.918810204248208" fill="#ff760a" stroke="none" /><path d="M 113.86319453409587 115.77377054828091 l 7.498803645028775 8.532262011643965 a32.359205568262226,32.359205568262226 0 0,0 -0.42039310940923813,0.36312555528292256 l -7.351231055856681 -8.659731699391605" fill="#ff810b" stroke="none" /><path d="M 113.31354834802062 116.24036423190432 l 5.7860799856502165 7.058076779047553 a30.12661872871176,30.12661872871176 0 0,0 -0.4027630952327071,0.3244374394158937 l -5.664066120062257 -7.156362512256851" fill="#ff6209" stroke="none" /><path d="M 113.03279911837588 116.46651593811092 l 5.384744367776133 6.803448602965067 a29.67654221447024,29.67654221447024 0 0,0 -0.4021737519929047,0.31273274207587626 l -5.267160671147997 -6.894882396661736" fill="#ff5c08" stroke="none" /><path d="M 112.45986205192187 116.90419585922612 l 7.350586678566613 9.972482550522503 a33.38876639297056,33.38876639297056 0 0,0 -0.46429303937785144,0.33611235525135735 l -7.178312628814794 -10.097195677146937" fill="#ff8f0d" stroke="none" /><path d="M 112.16784306229584 117.11559508785304 l 14.108955702595942 19.846013108630935 a45.350089677982,45.350089677982 0 0,0 -0.6383671011677022,0.4456298147025814 l -13.766193510254482 -20.085287739138636" fill="#d6ff1c" stroke="none" /><path d="M 111.8722381534696 117.32195027204791 l 2.9315772110977156 4.27725876223795 a26.18546887598111,26.18546887598111 0 0,0 -0.37296052089173043,0.2509444831551575 l -2.8577204021089817 -4.326952919450228" fill="#ff2a04" stroke="none" /><path d="M 111.5731344415666 117.5232005979908 l 4.8299312003925055 7.313131436112098 a29.764138680005924,29.764138680005924 0 0,0 -0.42876569496174644,0.2779207432740416 l -4.7036798731737495 -7.394966021090034" fill="#ff5d08" stroke="none" /><path d="M 111.27062007382361 117.71928675628689 l 10.925953076847957 17.177412989374627 a41.35779869349875,41.35779869349875 0 0,0 -0.602318971179323,0.37589158533439615 l -10.62946997687892 -17.36244037155057" fill="#fff717" stroke="none" /><path d="M 110.96478420261333 117.91015095944535 l 7.402983940393408 12.092217910790678 a35.178360456123606,35.178360456123606 0 0,0 -0.5177370902382381,0.3108862468932024 l -7.194314093597734 -12.217518158219804" fill="#ffa70f" stroke="none" /><line stroke="#e1ed5e" stroke-width="0.3" x1="143.1302829299769" x2="145.66735839644613" y1="173.24464959558577" y2="177.55315839532614" /><path d="M 143.63769802327073 174.10635135553383 a86.0,86.0 0 0,1 -40.68552437913181,11.842963189579606" fill="none" id="id30" stroke="none" /><text fill="#e1ed5e" style="font-size:6.75px; font-family:Arial;" text-anchor="middle"><textPath startOffset="21.407464694133747" xlink:href="#id30">June</textPath></text><path d="M 110.65571695917076 118.09573695890943 l 8.903843660213088 15.120673101193935 a38.547455284419065,38.547455284419065 0 0,0 -0.5730859945052436,0.33087135319640804 l -8.642965197847445 -15.271291351666514" fill="#ffd413" stroke="none" /><path d="M 110.34350942703117 118.27599006163325 l 2.5860050060769013 4.569223059524061 a26.25025916114064,26.25025916114064 0 0,0 -0.3940736553789672,0.21858601374443212 l -2.5071871625418396 -4.612941988701637" fill="#ff2b04" stroke="none" /><path d="M 108.07796709384702 119.3841803445677 l 1.7954877906913533 4.308517073279589 a25.667664916986162,25.667664916986162 0 0,0 -0.4081715328898172,0.16599980902758896 l -1.7212617966110952 -4.338704138886469" fill="#ff2303" stroke="none" /><path d="M 107.407793817531 119.65005319985036 l 1.919568509674989 5.091883530371111 a26.441692857025323,26.441692857025323 0 0,0 -0.4261026529260452,0.15647079629117522 l -1.8318767050948168 -5.1240851756710075" fill="#ff2e04" stroke="none" /><path d="M 106.38641147887787 120.00534299687104 l 0.7093327214787102 2.2219746471110424 a23.33245026574301,23.33245026574301 0 0,0 -0.3826070384316935,0.11853263853243962 l -0.6710850501753923 -2.2338238734501266" fill="#ff0000" stroke="none" /><path d="M 103.94208987418118 120.62667999033965 l 0.5959221969312432 3.1181167470957543 a24.174551198723115,24.174551198723115 0 0,0 -0.40827969724660684,0.07440216135062941 l -0.5423077661335791 -3.1278870823777476" fill="#ff0d01" stroke="none" /><path d="M 103.2317021107853 120.74984581791261 l 0.5566793402786756 3.5742806994029945 a24.61737120102677,24.61737120102677 0 0,0 -0.4181142034925061,0.061448389360039296 l -0.4952400311784841 -3.5833101620619163" fill="#ff1302" stroke="none" /><line stroke="#e1ed5e" stroke-width="0.3" x1="101.45913802915013" x2="101.54496967792366" y1="184.9874750549273" y2="189.98673829345242" /><path d="M 101.47630435890484 185.9873277026323 a86.0,86.0 0 0,1 -42.54439059252881,-10.42667462771756" fill="none" id="id31" stroke="none" /><text fill="#e1ed5e" style="font-size:6.75px; font-family:Arial;" text-anchor="middle"><textPath startOffset="22.145653131862474" xlink:href="#id31">July</textPath></text><path d="M 98.91894614982273 120.97215588758144 l -0.5409093754823744 10.49349737925685 a31.507429286031627,31.507429286031627 0 0,0 -0.5399107799221926,-0.0324796918033795 l 0.7209645075370134 -10.482665709628778" fill="#ff760a" stroke="none" /><path d="M 98.55909050195518 120.95050786540614 l -0.20881131340037076 3.0360706690575054 a24.043242887466473,24.043242887466473 0 0,0 -0.41151842666215377,-0.03185412884807673 l 0.26089873483776066 -3.032038773214375" fill="#ff0b01" stroke="none" /><path d="M 97.84075906011543 120.88869738790638 l -1.0298967818675069 9.963317117523271 a31.01640531156928,31.01640531156928 0 0,0 -0.5291459278349309,-0.059291904906690396 l 1.200778611303237 -9.94416945210961" fill="#ff6f0a" stroke="none" /><path d="M 97.48249496171623 120.84855314841334 l -0.40517527157542915 3.3554324839094813 a24.379806822108502,24.379806822108502 0 0,0 -0.4150629350915196,-0.05373820679705113 l 0.46271602855774274 -3.347982680912033" fill="#ff1001" stroke="none" /><path d="M 97.12497278360702 120.80226474461374 l -0.5623932264077747 4.0691972304142965 a25.107876853207838,25.107876853207838 0 0,0 -0.4264452059539599,-0.06267275982804707 l 0.6321635379694195 -4.058943397287367" fill="#ff1a02" stroke="none" /><path d="M 95.00130118170881 120.39639698878247 l -2.541791424353634 10.371376399813238 a31.67830286475902,31.67830286475902 0 0,0 -0.5270586352642916,-0.13397624403742361 l 2.7194553528433043 -10.326214923940551" fill="#ff780b" stroke="none" /><path d="M 93.61358852112213 120.00534299687104 l -1.0401444855105584 3.2582377862377934 a24.420235960048046,24.420235960048046 0 0,0 -0.3982559789330182,-0.13091465064416327 l 1.09592320209132 -3.2399022141916087" fill="#ff1001" stroke="none" /><path d="M 93.27111125876986 119.89276391827306 l -3.3336083823565854 9.855220839046373 a31.40376482977638,31.40376482977638 0 0,0 -0.5091809838378288,-0.17711957760409938 l 3.502295138239436 -9.796542828873683" fill="#ff740a" stroke="none" /><path d="M 92.93061703081489 119.77432235084164 l -1.0739650545966377 3.0040713985510896 a24.19027364125516,24.19027364125516 0 0,0 -0.38982147736457934,-0.1431478460783585 l 1.125375683615336 -2.9851927034640116" fill="#ff0d01" stroke="none" /><path d="M 92.25597844496254 119.51999308798841 l -1.459593814723259 3.6791298903520193 a24.95808171391901,24.95808171391901 0 0,0 -0.3968876212194138,-0.16141074038502687 l 1.5225358971331135 -3.653531893387701" fill="#ff1802" stroke="none" /><path d="M 91.59046798132341 119.24265499422711 l -4.439036782668875 10.157384873007885 a32.085013081467096,32.085013081467096 0 0,0 -0.5027975130624971,-0.22489493226667587 l 4.6127476985870075 -10.079686189831353" fill="#ff7e0b" stroke="none" /><line stroke="#e1ed5e" stroke-width="0.3" x1="58.13341422392154" x2="55.67067388415222" y1="173.97424548756322" y2="178.32567169271397" /><path d="M 57.64086615596768 174.84453072859336 a86.0,86.0 0 0,1 -31.369924170532247,-30.572349798747897" fill="none" id="id32" stroke="none" /><text fill="#e1ed5e" style="font-size:6.75px; font-family:Arial;" text-anchor="middle"><textPath startOffset="22.145653131862474" xlink:href="#id32">August</textPath></text><path d="M 89.65649057296885 118.27599006163327 l -1.722414812524561 3.043341935131201 a24.496947657676927,24.496947657676927 0 0,0 -0.3641967415788702,-0.2102690867885469 l 1.774404021963831 -3.013325951066483" fill="#ff1101" stroke="none" /><path d="M 86.40962598614128 116.0094264158162 l -6.51297201004769 7.672264651201006 a31.063918187352932,31.063918187352932 0 0,0 -0.403565443832262,-0.34859021854693073 l 6.643716933642815 -7.559330300189353" fill="#ff6f0a" stroke="none" /><path d="M 85.86807049272751 115.53346607816431 l -6.768318269682701 7.439567413227738 a31.05769831997762,31.05769831997762 0 0,0 -0.3912829689037283,-0.3621656745017524 l 6.895031009900396 -7.322283992593609" fill="#ff6f0a" stroke="none" /><path d="M 83.8745106332314 113.45245675266167 l -6.475615289618542 5.402188587838485 a29.433103516364174,29.433103516364174 0 0,0 -0.3203347346830333,-0.3907562906140157 l 6.567396843540204 -5.2902300155259745" fill="#ff5908" stroke="none" /><path d="M 83.20337586046588 112.60449989151573 l -5.781241430219092 4.3383513481444105 a28.228004212396954,28.228004212396954 0 0,0 -0.28751967105765885,-0.39007565354138496 l 5.854863120860581 -4.238469385334145" fill="#ff4806" stroke="none" /><path d="M 82.78059297857968 112.02048342749411 l -5.722754731791039 3.9949272543203755 a27.979209517384362,27.979209517384362 0 0,0 -0.2715452407351081,-0.39619262146035955 l 5.790489709341473 -3.896099897789965" fill="#ff4406" stroke="none" /><path d="M 82.576782715395 111.72311816256416 l -3.9699866939030093 2.6711842225347957 a25.784978526648345,25.784978526648345 0 0,0 -0.24394500362851781,-0.36936382749576446 l 4.015256136452254 -2.6026405166999704" fill="#ff2403" stroke="none" /><path d="M 82.37810715431573 111.42229804090323 l -8.848931514293678 5.735770497807646 a31.54526681256479,31.54526681256479 0 0,0 -0.29064052577010674,-0.456935180618806 l 8.946089731689675 -5.583021642510168" fill="#ff760a" stroke="none" /><path d="M 82.18462484594161 111.11811171558189 l -2.6403679925724233 1.6477849081375964 a24.11235252496997,24.11235252496997 0 0,0 -0.21612939035923623,-0.3530311163975517 l 2.6682653473870643 -1.6022166756154876" fill="#ff0c01" stroke="none" /><path d="M 81.99639281039703 110.81064883170644 l -9.318339791502172 5.595395307148344 a31.86921823836243,31.86921823836243 0 0,0 -0.27760561206706214,-0.4714350196735665 l 9.413019113699004 -5.434609119181219" fill="#ff7b0b" stroke="none" /><line stroke="#e1ed5e" stroke-width="0.3" x1="26.387840678322732" x2="22.057713659400548" y1="142.50000000000003" y2="145.00000000000006" /><path d="M 25.521815274538298 143.00000000000003 a86.0,86.0 0 0,1 -11.493303480769221,-40.785679425670985" fill="none" id="id33" stroke="none" /><text fill="#e1ed5e" style="font-size:6.75px; font-family:Arial;" text-anchor="middle"><textPath startOffset="21.40746469413373" xlink:href="#id33">September</textPath></text><path d="M 81.81346652052679 110.50000000000001 l -8.63600737856248 4.986001184736648 a30.972002369473287,30.972002369473287 0 0,0 -0.2618854399665366,-0.46272647904267666 l 8.720326183550394 -4.83701793559485" fill="#ff6e0a" stroke="none" /><path d="M 81.4637452351635 109.86951160357371 l -9.177387484889099 4.886441917297641 a31.397199414213546,31.397199414213546 0 0,0 -0.24922189519684992,-0.4779158451785934 l 9.259917449060898 -4.728179829014544" fill="#ff740a" stroke="none" /><path d="M 81.29705330413844 109.54985784667822 l -5.170215465592844 2.6399488559754176 a26.805209550293714,26.805209550293714 0 0,0 -0.20573647627113892,-0.411610769944041 l 5.21477185507572 -2.5508062298676237" fill="#ff3304" stroke="none" /><path d="M 81.1358732173502 109.22738970284198 l -9.010070395076365 4.4072769306171145 a31.03022723906998,31.03022723906998 0 0,0 -0.22994985660079154,-0.4805067598202096 l 9.08439950963707 -4.251957668731801" fill="#ff6f0a" stroke="none" /><path d="M 80.83023694016515 108.57439118712176 l -7.89873853160654 3.5330052772895226 a29.652872163625293,29.652872163625293 0 0,0 -0.2038509543480807,-0.46645087693968146 l 7.958223367971589 -3.3968923305739915" fill="#ff5c08" stroke="none" /><path d="M 80.5471966667186 107.91128576633889 l -8.497897903569362 3.45602109765271 a30.173786056307897,30.173786056307897 0 0,0 -0.19101633807686907,-0.4814859530611563 l 8.555972916612355 -3.3096341273779886" fill="#ff6309" stroke="none" /><path d="M 80.41425534168474 107.57618678355246 l -8.383071266057236 3.2427520545927724 a29.988399453704766,29.988399453704766 0 0,0 -0.18160020247748462,-0.4817161124734854 l 8.437502152349158 -3.0983676619251423" fill="#ff6008" stroke="none" /><path d="M 80.16572619554312 106.89939002012753 l -10.836021898796789 3.769330910902442 a32.47289092195547,32.47289092195547 0 0,0 -0.17862344310362793,-0.5280684702300471 l 10.899130763472783 -3.5827607661982332" fill="#ff830c" stroke="none" /><path d="M 79.94057633289273 106.21446072829308 l -8.275547861414005 2.5637858815553645 a29.663584157438336,29.663584157438336 0 0,0 -0.14651505289007308,-0.4877009596326386 l 8.318339234307707 -2.4213473183320025" fill="#ff5c08" stroke="none" /><path d="M 79.34024301695615 103.76489593502545 l -17.341168997121244 3.1601386560081517 a38.626758593454326,38.626758593454326 0 0,0 -0.11327790369815671,-0.6533568460994926 l 17.392861718311632 -2.861988776988066" fill="#ffd513" stroke="none" /><path d="M 79.17382384314188 102.69636545807758 l -12.346704963642429 1.5985281471883432 a33.449755648067395,33.449755648067395 0 0,0 -0.06883945972540872,-0.5700894786576457 l 12.372326509627499 -1.3863449916072983" fill="#ff900d" stroke="none" /><path d="M 79.03789590574601 101.26102812881392 l -11.76641365355152 0.7078382268150197 a32.7876853207839,32.7876853207839 0 0,0 -0.028975586902467303,-0.5621186450176151 l 11.77683082991056 -0.5057477884206739" fill="#ff870c" stroke="none" /><path d="M 79.01933749520258 100.90099992219065 l -50.427227569512816 2.1655621268409466 a71.47370542839748,71.47370542839748 0 0,0 -0.04211949886530921,-1.2262632530590987 l 50.45697175537497 -1.299592609217728" fill="#3dffae" stroke="none" /><line stroke="#e1ed5e" stroke-width="0.3" x1="15.003131293944662" x2="10.003315487706104" y1="100.72959589197737" y2="100.7725132973878" /><path d="M 14.003168132696942 100.73817937305945 a86.0,86.0 0 0,1 10.791469493833604,-42.45332614584628" fill="none" id="id34" stroke="none" /><text fill="#e1ed5e" style="font-size:6.75px; font-family:Arial;" text-anchor="middle"><textPath startOffset="22.145653131862435" xlink:href="#id34">October</textPath></text><path d="M 79.00077361379809 99.81974689727619 l -30.210683392052587 -0.2593223824855958 a51.21179635693482,51.21179635693482 0 0,0 0.01509179546238462,-0.8790214255058096 l 30.201780164991536 0.7778907239604579" fill="#92ff23" stroke="none" /><path d="M 79.01933749520258 99.09900007780938 l -15.24276736779603 -0.6545900163645282 a36.25681634936567,36.25681634936567 0 0,0 0.03204137537186956,-0.6215941222920015 l 15.229284402967592 0.9161559320332416" fill="#ffb610" stroke="none" /><path d="M 79.03789590574601 98.7389718711861 l -38.37251934875129 -2.308395476649478 a59.44189031313247,59.44189031313247 0 0,0 0.0700169955813174,-1.0180317491340678 l 38.32723839200491 2.966770649937871" fill="#3bff2e" stroke="none" /><path d="M 79.0935383218832 98.0201363427161 l -12.85716604394676 -1.2175869919068882 a33.91469073437217,33.91469073437217 0 0,0 0.0598636402498792,-0.5791264155009267 l 12.834370011215217 1.4381179296907276" fill="#ff960d" stroke="none" /><path d="M 79.13060592940154 97.66154086499901 l -51.232743316518786 -5.740735749892271 a72.55337074029585,72.55337074029585 0 0,0 0.14931453896306718,-1.236538578498573 l 51.12664669129605 6.61936800531428" fill="#3effba" stroke="none" /><path d="M 79.17382384314186 97.30363454192245 l -11.725925701336008 -1.5181558432489557 a32.82379510637948,32.82379510637948 0 0,0 0.0771444893318172,-0.5581790953206447 l 11.698136695448984 1.7192232467696673" fill="#ff880c" stroke="none" /><path d="M 79.2786578344484 96.59031103205396 l -20.905462165706247 -3.4399858439056077 a42.18659602125944,42.18659602125944 0 0,0 0.123717581683364,-0.7135701344817028 l 20.843329766530648 3.798349011307903" fill="#fcff18" stroke="none" /><path d="M 79.48165901384962 95.52812308129327 l -45.155171803632996 -9.841359527322517 a67.21516956543202,67.21516956543202 0 0,0 0.2553828795181665,-1.1252640884606482 l 44.979578062557174 10.615057949722173" fill="#38ff7e" stroke="none" /><path d="M 79.56144815229197 95.17655741523228 l -53.34461023322576 -12.589182765198247 a75.80998963355438,75.80998963355438 0 0,0 0.30978298691567113,-1.2640203003194308 l 53.120639719793786 13.503058890125795" fill="#43ffdc" stroke="none" /><path d="M 79.73907114497095 94.47779374421319 l -10.508691992157223 -2.864190732540045 a31.892024418738586,31.892024418738586 0 0,0 0.14849763040278618,-0.5269657030473287 l 10.457975869679855 3.0441643594903867" fill="#ff7b0b" stroke="none" /><path d="M 80.05021161711548 93.44210830539832 l -53.86275447057836 -17.70575724472436 a77.69823770424367,77.69823770424367 0 0,0 0.4273942463321849,-1.26351514630037 l 53.55087480267381 18.627774065498894" fill="#45ffef" stroke="none" /><path d="M 80.5471966667186 92.08871423366112 l -49.21745215359366 -20.016309320930585 a74.13200763496947,74.13200763496947 0 0,0 0.48953302626641504,-1.1747010547985648 l 48.86659328279077 20.858242885170416" fill="#40ffca" stroke="none" /><path d="M 80.83023694016515 91.42560881287825 l -2.9470833473423577 -1.3181928958793947 a24.228456715975845,24.228456715975845 0 0,0 0.17307832857064062,-0.3782073835919915 l 2.9240205539166704 1.3685892616860578" fill="#ff0d01" stroke="none" /><path d="M 80.9802524753101 91.09779779509293 l -57.05924257406971 -26.706606614721213 a84.0,84.0 0 0,0 0.6224829681603801,-1.3007499917396512 l 56.59238034794942 27.68216910852595" fill="#4dd2ff" stroke="none" /><line stroke="#e1ed5e" stroke-width="0.3" x1="26.387840678322718" x2="22.05771365940052" y1="57.49999999999999" y2="54.99999999999999" /><path d="M 25.521815274538284 56.99999999999999 a86.0,86.0 0 0,1 29.574782752854787,-30.34633250058573" fill="none" id="id35" stroke="none" /><text fill="#e1ed5e" style="font-size:6.75px; font-family:Arial;" text-anchor="middle"><textPath startOffset="21.40746469413373" xlink:href="#id35">November</textPath></text><line stroke="#e1ed5e" stroke-width="0.3" x1="56.869717070023135" x2="54.33264160355391" y1="26.7553504044142" y2="22.446841604673864" /><path d="M 56.362301976729285 25.89364864446614 a86.0,86.0 0 0,1 42.16139366436587,-11.88097634709845" fill="none" id="id36" stroke="none" /><text fill="#e1ed5e" style="font-size:6.75px; font-family:Arial;" text-anchor="middle"><textPath startOffset="22.145653131862474" xlink:href="#id36">December</textPath></text></svg>